<svg width="188" height="174" viewBox="0 0 188 174" version="1.1" xmlns="http://www.w3.org/2000/svg" xmlns:xlink="http://www.w3.org/1999/xlink">
<title>Group 50</title>
<desc>Created using Figma</desc>
<g id="Canvas" transform="translate(230 -916)">
<g id="Group 50">
<g id="Group 26">
<g id="Group 47">
<g id="Group 18">
<g id="Page 1">
<use xlink:href="#path0_fill" transform="translate(-93 958)" fill="#FF5076"/>
</g>
<g id="Page 1">
<use xlink:href="#path1_fill" transform="translate(-63.1846 989.385)" fill="#FF5076"/>
</g>
</g>
<g id="Page 1">
<g id="Fill 1">
<use xlink:href="#path2_fill" transform="translate(-191.407 974.145)" fill="#79CE4D"/>
</g>
<g id="Stroke 2">
<use xlink:href="#path3_stroke" transform="translate(-191.407 974.145)" fill="#79CE4D"/>
</g>
<g id="Fill 3">
<use xlink:href="#path4_fill" transform="translate(-185.087 1051.67)" fill="#79CE4D"/>
</g>
<g id="Stroke 4">
<use xlink:href="#path5_stroke" transform="translate(-185.087 1051.67)" fill="#79CE4D"/>
</g>
<g id="Fill 5">
<use xlink:href="#path6_fill" transform="translate(-117.734 1051.67)" fill="#79CE4D"/>
</g>
<g id="Stroke 6">
<use xlink:href="#path7_stroke" transform="translate(-117.734 1051.67)" fill="#79CE4D"/>
</g>
<g id="Fill 7">
<use xlink:href="#path8_fill" transform="translate(-91.5686 1019.68)" fill="#79CE4D"/>
</g>
<g id="Stroke 8">
<use xlink:href="#path9_stroke" transform="translate(-91.5686 1019.68)" fill="#79CE4D"/>
</g>
<g id="Fill 9">
<use xlink:href="#path10_fill" transform="translate(-199.972 1007.12)" fill="#79CE4D"/>
</g>
<g id="Stroke 10">
<use xlink:href="#path11_stroke" transform="translate(-199.972 1007.12)" fill="#79CE4D"/>
</g>
<g id="Fill 11">
<use xlink:href="#path12_fill" transform="translate(-138.616 969.303)" fill="#79CE4D"/>
</g>
<g id="Stroke 12">
<use xlink:href="#path13_stroke" transform="translate(-138.616 969.303)" fill="#79CE4D"/>
</g>
<g id="Fill 13">
<use xlink:href="#path14_fill" transform="translate(-166.798 1074.84)" fill="#4A8C27"/>
</g>
<g id="Stroke 14">
<use xlink:href="#path15_stroke" transform="translate(-166.798 1074.84)" fill="#4A8D26"/>
</g>
<g id="Fill 15">
<use xlink:href="#path16_fill" transform="translate(-117.273 1074.6)" fill="#4A8C27"/>
</g>
<g id="Stroke 16">
<use xlink:href="#path17_stroke" transform="translate(-117.273 1074.6)" fill="#4A8D26"/>
</g>
<g id="Fill 17">
<use xlink:href="#path18_fill" transform="translate(-160.473 994.789)" fill="#EEEEEE"/>
</g>
<g id="Fill 18">
<use xlink:href="#path19_fill" transform="translate(-150.226 1004.42)" fill="#1A1A1B"/>
</g>
<g id="Stroke 19">
<use xlink:href="#path20_stroke" transform="translate(-150.226 1004.42)" fill="#1A1A1B"/>
</g>
<g id="Fill 20">
<use xlink:href="#path21_fill" transform="translate(-134.703 1000.91)" fill="#F9F9F9"/>
</g>
<g id="Fill 21">
<use xlink:href="#path22_fill" transform="translate(-158.867 1049.95)" fill="#A82670"/>
</g>
<g id="Stroke 22">
<use xlink:href="#path23_stroke" transform="translate(-158.867 1049.95)" fill="#A82670"/>
</g>
<g id="Fill 23">
<use xlink:href="#path24_fill" transform="translate(-161.586 1047.59)" fill="#A82670"/>
</g>
<g id="Stroke 24">
<use xlink:href="#path25_stroke" transform="translate(-161.586 1047.59)" fill="#A82670"/>
</g>
<g id="Fill 25">
<use xlink:href="#path26_fill" transform="translate(-113.733 1047.59)" fill="#A82670"/>
</g>
<g id="Stroke 26">
<use xlink:href="#path27_stroke" transform="translate(-113.733 1047.59)" fill="#A82670"/>
</g>
<g id="Fill 27">
<use xlink:href="#path28_fill" transform="translate(-139.138 1065.72)" fill="#A82670"/>
</g>
<g id="Stroke 28">
<use xlink:href="#path29_stroke" transform="translate(-139.138 1065.72)" fill="#A82670"/>
</g>
</g>
<g id="Page 1">
<g id="Fill 1">
<use xlink:href="#path30_fill" transform="translate(-113 1018)" fill="#D63D4F"/>
</g>
<g id="Fill 2">
<use xlink:href="#path31_fill" transform="translate(-112.96 1029.7)" fill="#D63D4F" fill-opacity="0.76"/>
</g>
<g id="Fill 3">
<use xlink:href="#path32_fill" transform="translate(-73.9732 1026.28)" fill="#2B2B2B"/>
</g>
<g id="Fill 4">
<use xlink:href="#path32_fill" transform="translate(-59.9962 1040.25)" fill="#2B2B2B"/>
</g>
<g id="Fill 5">
<use xlink:href="#path33_fill" transform="translate(-69.1961 1031.05)" fill="#FFC4CF"/>
</g>
<g id="Fill 6">
<use xlink:href="#path34_fill" transform="translate(-70.3634 1036.65)" fill="#7C1B28"/>
</g>
<g id="Fill 7">
<use xlink:href="#path35_fill" transform="translate(-67.3591 1041.28)" fill="#D0D5D9"/>
</g>
<g id="Fill 8">
<use xlink:href="#path36_fill" transform="translate(-90.7451 1071)" fill="#2B2B2B"/>
</g>
<g id="Fill 9">
<use xlink:href="#path37_fill" transform="translate(-104.722 1057.03)" fill="#2B2B2B"/>
</g>
<g id="Fill 10">
<use xlink:href="#path38_fill" transform="translate(-99.9453 1061.8)" fill="#FFC4CF"/>
</g>
<g id="Fill 11">
<use xlink:href="#path39_fill" transform="translate(-94.3548 1060.64)" fill="#7C1B28"/>
</g>
<g id="Fill 12">
<use xlink:href="#path40_fill" transform="translate(-89.7224 1063.64)" fill="#D0D5D9"/>
</g>
</g>
</g>
</g>
<g id="ALGO QUE AMA">
<use xlink:href="#path41_fill" transform="translate(-230.5 912)" fill="#3F3F3F"/>
</g>
</g>
</g>
<defs>
<path id="path0_fill" fill-rule="evenodd" d="M 40.73 11.311C 40.1345 4.75634 35.495 0.000784615 29.6889 0.000784615C 25.8207 0.000784615 22.279 2.08237 20.286 5.41855C 18.3112 2.03922 14.9146 0 11.1084 0C 5.30303 0 0.662814 4.75555 0.0680758 11.3102C 0.0209989 11.5998 -0.172017 13.1235 0.414876 15.6084C 1.26069 19.1925 3.21438 22.4526 6.06332 25.0339L 20.2766 37.9322L 34.734 25.0347C 37.5829 22.4526 39.5366 19.1933 40.3824 15.6084C 40.9693 13.1243 40.7763 11.6005 40.73 11.311ZM 12.5529 6.33815C 9.09193 6.33815 6.27595 9.15414 6.27595 12.6151C 6.27595 13.049 5.92523 13.3997 5.49133 13.3997C 5.05744 13.3997 4.70672 13.049 4.70672 12.6151C 4.70672 8.28871 8.2265 4.76892 12.5529 4.76892C 12.9868 4.76892 13.3375 5.11964 13.3375 5.55354C 13.3375 5.98743 12.986 6.33815 12.5529 6.33815Z"/>
<path id="path1_fill" fill-rule="evenodd" d="M 21.0621 5.84911C 20.7542 2.45958 18.3551 0.000405738 15.3526 0.000405738C 13.3523 0.000405738 11.5208 1.07683 10.4902 2.80202C 9.46901 1.05451 7.71257 0 5.74434 0C 2.74228 0 0.342752 2.45918 0.0352031 5.84871C 0.0108589 5.99842 -0.0889526 6.78637 0.214539 8.07134C 0.651924 9.92475 1.66221 11.6106 3.13544 12.9455L 10.4854 19.6154L 17.9615 12.9459C 19.4347 11.6106 20.445 9.92515 20.8824 8.07134C 21.1859 6.78677 21.0861 5.99883 21.0621 5.84911ZM 6.4913 3.27754C 4.70159 3.27754 3.2454 4.73373 3.2454 6.52344C 3.2454 6.74781 3.06404 6.92918 2.83966 6.92918C 2.61529 6.92918 2.43393 6.74781 2.43393 6.52344C 2.43393 4.2862 4.25406 2.46606 6.4913 2.46606C 6.71567 2.46606 6.89704 2.64743 6.89704 2.8718C 6.89704 3.09617 6.71527 3.27754 6.4913 3.27754Z"/>
<path id="path2_fill" fill-rule="evenodd" d="M 53.884 0C 83.6236 0 107.769 24.2285 107.769 54.0715C 107.769 83.9144 83.6236 108.143 53.884 108.143C 24.1447 108.143 0 83.9144 0 54.0715C 0 24.2285 24.1447 0 53.884 0Z"/>
<path id="path3_stroke" d="M 53.884 0.5C 83.3459 0.5 107.269 24.503 107.269 54.0715L 108.269 54.0715C 108.269 23.954 83.9014 -0.5 53.884 -0.5L 53.884 0.5ZM 107.269 54.0715C 107.269 83.6399 83.3459 107.643 53.884 107.643L 53.884 108.643C 83.9014 108.643 108.269 84.1889 108.269 54.0715L 107.269 54.0715ZM 53.884 107.643C 24.4225 107.643 0.5 83.6399 0.5 54.0715L -0.5 54.0715C -0.5 84.1889 23.8669 108.643 53.884 108.643L 53.884 107.643ZM 0.5 54.0715C 0.5 24.503 24.4225 0.5 53.884 0.5L 53.884 -0.5C 23.8669 -0.5 -0.5 23.954 -0.5 54.0715L 0.5 54.0715Z"/>
<path id="path4_fill" fill-rule="evenodd" d="M 0 0C 4.18134 11.8905 8.28308 23.7668 13.9721 35.9291C 16.7653 37.7376 19.704 37.6992 22.7792 35.9291C 25.9835 32.2658 27.7897 28.5478 28.5244 24.7878L 0 0Z"/>
<path id="path5_stroke" d="M 0 0L 0.327968 -0.377408C 0.156704 -0.526237 -0.0933038 -0.541088 -0.280983 -0.41358C -0.468661 -0.286073 -0.546956 -0.048177 -0.471686 0.165869L 0 0ZM 13.9721 35.9291L 13.5192 36.141C 13.5589 36.2259 13.6217 36.2979 13.7003 36.3489L 13.9721 35.9291ZM 22.7792 35.9291L 23.0286 36.3625C 23.0764 36.335 23.1193 36.2998 23.1556 36.2583L 22.7792 35.9291ZM 28.5244 24.7878L 29.0151 24.8836C 29.0494 24.7081 28.9873 24.5277 28.8524 24.4103L 28.5244 24.7878ZM -0.471686 0.165869C 3.70919 12.0551 7.81968 23.9546 13.5192 36.141L 14.425 35.7173C 8.74647 23.579 4.65349 11.726 0.471686 -0.165869L -0.471686 0.165869ZM 13.7003 36.3489C 16.6698 38.2715 19.8113 38.2144 23.0286 36.3625L 22.5298 35.4958C 19.5967 37.1841 16.8608 37.2038 14.2438 35.5094L 13.7003 36.3489ZM 23.1556 36.2583C 26.4002 32.5421 28.2639 28.7063 29.0151 24.8836L 28.0337 24.6919C 27.3155 28.3892 25.5667 31.9895 22.4029 35.6L 23.1556 36.2583ZM 28.8524 24.4103L 0.327968 -0.377408L -0.327968 0.377408L 28.1964 25.1652L 28.8524 24.4103Z"/>
<path id="path6_fill" fill-rule="evenodd" d="M 28.5244 0C 24.3426 11.8905 20.2411 23.7668 14.5524 35.9291C 11.7591 37.7376 8.82024 37.6992 5.74487 35.9291C 2.54086 32.2658 0.734416 28.5478 0 24.7878L 28.5244 0Z"/>
<path id="path7_stroke" d="M 28.5244 0L 28.9961 0.165886C 29.0714 -0.0481603 28.9931 -0.286063 28.8054 -0.413575C 28.6178 -0.541088 28.3677 -0.526239 28.1965 -0.377408L 28.5244 0ZM 14.5524 35.9291L 14.8242 36.3489C 14.9028 36.2979 14.9656 36.2259 15.0053 36.141L 14.5524 35.9291ZM 5.74487 35.9291L 5.36851 36.2583C 5.40479 36.2998 5.44769 36.335 5.49545 36.3625L 5.74487 35.9291ZM 0 24.7878L -0.327968 24.4103C -0.462947 24.5276 -0.525007 24.7081 -0.490727 24.8836L 0 24.7878ZM 28.0528 -0.165886C 23.8705 11.726 19.7777 23.579 14.0995 35.7173L 15.0053 36.141C 20.7045 23.9546 24.8148 12.0551 28.9961 0.165886L 28.0528 -0.165886ZM 14.2807 35.5094C 11.6636 37.2038 8.92753 37.1841 5.99429 35.4958L 5.49545 36.3625C 8.71295 38.2144 11.8546 38.2715 14.8242 36.3489L 14.2807 35.5094ZM 6.12123 35.6C 2.9576 31.9895 1.20863 28.3892 0.490727 24.6919L -0.490727 24.8836C 0.260206 28.7063 2.12413 32.5421 5.36851 36.2583L 6.12123 35.6ZM 0.327968 25.1652L 28.8524 0.377408L 28.1965 -0.377408L -0.327968 24.4103L 0.327968 25.1652Z"/>
<path id="path8_fill" fill-rule="evenodd" d="M 7.13458 0C 9.3934 2.29091 11.3653 4.91273 12.5974 8.3897C 13.1706 12.4556 13.1343 15.8459 12.5974 18.6817C 11.1896 17.7171 9.9424 17.2098 8.91808 17.3393C 9.86992 18.989 10.3229 20.917 10.9951 23.8365L 10.8405 31.2973C 7.60628 29.4207 3.85327 29.9682 0 30.9871L 7.13458 0Z"/>
<path id="path9_stroke" d="M 7.13458 0L 7.49062 -0.35105C 7.36253 -0.480961 7.17385 -0.530794 6.99832 -0.481074C 6.82279 -0.431353 6.68827 -0.289974 6.64733 -0.112187L 7.13458 0ZM 12.5974 8.3897L 13.0925 8.3199C 13.0878 8.28679 13.0799 8.25422 13.0687 8.22269L 12.5974 8.3897ZM 12.5974 18.6817L 12.3148 19.0942C 12.4541 19.1896 12.6321 19.2083 12.7882 19.1439C 12.9443 19.0794 13.0573 18.9406 13.0887 18.7747L 12.5974 18.6817ZM 8.91808 17.3393L 8.85539 16.8432C 8.68928 16.8642 8.54471 16.9669 8.47025 17.1169C 8.39579 17.2669 8.40132 17.4441 8.48499 17.5891L 8.91808 17.3393ZM 10.9951 23.8365L 11.495 23.8469C 11.4958 23.8057 11.4916 23.7645 11.4824 23.7244L 10.9951 23.8365ZM 10.8405 31.2973L 10.5895 31.7298C 10.7426 31.8186 10.9312 31.8199 11.0855 31.7332C 11.2398 31.6465 11.3367 31.4846 11.3404 31.3077L 10.8405 31.2973ZM 0 30.9871L -0.487252 30.8749C -0.526556 31.0456 -0.473658 31.2244 -0.347814 31.3463C -0.221969 31.4681 -0.0415317 31.5153 0.12782 31.4705L 0 30.9871ZM 6.77855 0.35105C 9.01474 2.61743 10.9248 5.14923 12.1261 8.5567L 13.0687 8.22269C 11.8059 4.67622 9.77205 1.96439 7.49062 -0.35105L 6.77855 0.35105ZM 12.1023 8.45949C 12.6716 12.4879 12.6368 15.7966 12.1061 18.5887L 13.0887 18.7747C 13.6319 15.8953 13.6695 12.4233 13.0925 8.3199L 12.1023 8.45949ZM 12.88 18.2692C 11.4541 17.2922 10.0733 16.6893 8.85539 16.8432L 8.98077 17.8353C 9.81152 17.7303 10.9251 18.142 12.3148 19.0942L 12.88 18.2692ZM 8.48499 17.5891C 9.40504 19.1731 9.83589 21.0302 10.5078 23.9487L 11.4824 23.7244C 10.8099 20.8037 10.3348 18.8049 9.35117 17.0894L 8.48499 17.5891ZM 10.4952 23.8262L 10.3406 31.287L 11.3404 31.3077L 11.495 23.8469L 10.4952 23.8262ZM 11.0914 30.8649C 7.66643 28.8775 3.7304 29.4835 -0.12782 30.5037L 0.12782 31.4705C 3.97613 30.4529 7.54613 29.9638 10.5895 31.7298L 11.0914 30.8649ZM 0.487252 31.0993L 7.62184 0.112187L 6.64733 -0.112187L -0.487252 30.8749L 0.487252 31.0993Z"/>
<path id="path10_fill" fill-rule="evenodd" d="M 13.3633 0C 10.4992 1.45818 7.80305 3.32121 5.54043 6.2303C 3.71695 9.90606 2.68472 13.1345 2.3023 15.9958C 3.94157 15.5261 5.28465 15.44 6.2153 15.8873C 4.79315 17.1509 3.75706 18.837 2.20077 21.3945L 0 28.5225C 3.65934 27.7665 7.04773 29.475 10.3834 31.6626L 13.3633 0Z"/>
<path id="path11_stroke" d="M 13.3633 0L 13.8611 0.0468507C 13.8782 -0.134661 13.7952 -0.311082 13.6444 -0.413552C 13.4936 -0.516021 13.299 -0.528293 13.1365 -0.445578L 13.3633 0ZM 5.54043 6.2303L 5.14575 5.92333C 5.12522 5.94974 5.10738 5.97814 5.09252 6.0081L 5.54043 6.2303ZM 2.3023 15.9958L 1.8067 15.9295C 1.78436 16.0967 1.84783 16.2639 1.97551 16.3742C 2.10318 16.4844 2.27785 16.5229 2.44002 16.4764L 2.3023 15.9958ZM 6.2153 15.8873L 6.54741 16.261C 6.67248 16.1499 6.73368 15.9836 6.71046 15.8179C 6.68724 15.6522 6.58269 15.5091 6.43188 15.4366L 6.2153 15.8873ZM 2.20077 21.3945L 1.77363 21.1346C 1.75219 21.1699 1.73519 21.2076 1.72302 21.247L 2.20077 21.3945ZM 0 28.5225L -0.477747 28.375C -0.529908 28.5439 -0.488966 28.7278 -0.370069 28.8587C -0.251172 28.9896 -0.0720009 29.0479 0.101153 29.0121L 0 28.5225ZM 10.3834 31.6626L 10.1092 32.0807C 10.2558 32.1769 10.4421 32.1892 10.6001 32.1132C 10.7581 32.0372 10.8648 31.884 10.8812 31.7095L 10.3834 31.6626ZM 13.1365 -0.445578C 10.2431 1.02876 7.4596 2.95783 5.14575 5.92333L 5.93511 6.53727C 8.14649 3.68459 10.7553 1.8876 13.5902 0.445578L 13.1365 -0.445578ZM 5.09252 6.0081C 3.25355 9.71829 2.1969 13.0249 1.8067 15.9295L 2.79789 16.062C 3.17255 13.2442 4.18036 10.0938 5.98834 6.4525L 5.09252 6.0081ZM 2.44002 16.4764C 4.05787 16.0129 5.24395 15.9752 5.99871 16.3379L 6.43188 15.4366C 5.32535 14.9048 3.82526 15.0393 2.16457 15.5151L 2.44002 16.4764ZM 5.88319 15.5135C 4.40998 16.8297 3.33049 18.5761 1.77363 21.1346L 2.62791 21.6545C 4.18362 19.0978 5.17632 17.4721 6.54741 16.261L 5.88319 15.5135ZM 1.72302 21.247L -0.477747 28.375L 0.477747 28.67L 2.67852 21.5421L 1.72302 21.247ZM 0.101153 29.0121C 3.54438 28.3009 6.7776 29.8957 10.1092 32.0807L 10.6576 31.2445C 7.31787 29.0542 3.77429 27.2322 -0.101153 28.0328L 0.101153 29.0121ZM 10.8812 31.7095L 13.8611 0.0468507L 12.8655 -0.0468507L 9.88561 31.6158L 10.8812 31.7095Z"/>
<path id="path12_fill" fill-rule="evenodd" d="M 0.888426 4.95636C 3.90279 2.64 7.48911 0.86303 12.046 0C 10.3839 2.18667 9.48037 4.36182 9.93636 6.51697C 13.6078 3.16424 17.6912 0.924242 22.4263 0.446667C 20.6778 3.32182 19.9379 6.18242 20.4271 9.02485C 22.3465 8.16788 24.5184 7.84485 27.0327 8.24606C 28.7878 8.90364 29.8169 9.78424 30.1962 10.8642C 27.1396 11.2279 25.0021 12.2127 23.2017 13.4255L 0 7.18424L 0.888426 4.95636Z"/>
<path id="path13_stroke" d="M 0.888426 4.95636L 0.583767 4.5599C 0.512486 4.61468 0.45729 4.68766 0.423992 4.77116L 0.888426 4.95636ZM 12.046 0L 12.4441 0.302568C 12.5693 0.137814 12.5801 -0.0870624 12.4712 -0.263053C 12.3623 -0.439044 12.1563 -0.529776 11.9529 -0.491267L 12.046 0ZM 9.93636 6.51697L 9.44719 6.62047C 9.48431 6.79593 9.61256 6.93806 9.78329 6.99297C 9.95403 7.04787 10.1411 7.00712 10.2735 6.88619L 9.93636 6.51697ZM 22.4263 0.446667L 22.8535 0.706464C 22.952 0.544389 22.9504 0.340496 22.8492 0.180028C 22.7481 0.01956 22.5648 -0.0698451 22.3761 -0.0508094L 22.4263 0.446667ZM 20.4271 9.02485L 19.9344 9.10966C 19.9606 9.26178 20.0556 9.39329 20.1917 9.46596C 20.3279 9.53864 20.49 9.54434 20.631 9.48141L 20.4271 9.02485ZM 27.0327 8.24606L 27.2081 7.77784C 27.1768 7.76613 27.1444 7.75757 27.1115 7.75231L 27.0327 8.24606ZM 30.1962 10.8642L 30.2553 11.3607C 30.4059 11.3428 30.5403 11.2575 30.6205 11.1287C 30.7008 10.9999 30.7182 10.8417 30.668 10.6986L 30.1962 10.8642ZM 23.2017 13.4255L 23.0719 13.9083C 23.2117 13.9459 23.361 13.921 23.4811 13.8402L 23.2017 13.4255ZM 0 7.18424L -0.464434 6.99904C -0.517309 7.13163 -0.51099 7.2805 -0.447071 7.40813C -0.383152 7.53577 -0.267727 7.63 -0.129882 7.66708L 0 7.18424ZM 1.19308 5.35283C 4.16737 3.06426 7.6481 1.33708 12.139 0.491267L 11.9529 -0.491267C 7.33012 0.388982 3.63821 2.21574 0.583767 4.5599L 1.19308 5.35283ZM 11.6479 -0.302568C 9.95409 1.92585 8.94612 4.25228 9.44719 6.62047L 10.4255 6.41347C 10.0146 4.47136 10.8137 2.44748 12.4441 0.302568L 11.6479 -0.302568ZM 10.2735 6.88619C 13.8987 3.57092 17.8395 1.40174 22.4764 0.944143L 22.3761 -0.0508094C 17.5429 0.446742 13.3169 2.75756 9.59919 6.14775L 10.2735 6.88619ZM 21.9991 0.18687C 20.2063 3.1348 19.4194 6.11729 19.9344 9.10966L 20.9199 8.94004C 20.4565 6.24756 21.1493 3.50884 22.8535 0.706464L 21.9991 0.18687ZM 20.631 9.48141C 22.4865 8.64788 24.5157 8.34484 26.9539 8.73981L 27.1115 7.75231C 24.521 7.34486 22.2065 7.68788 20.2233 8.56829L 20.631 9.48141ZM 26.8572 8.71428C 28.5501 9.34852 29.4161 10.1518 29.7245 11.0299L 30.668 10.6986C 30.2178 9.41672 29.0255 8.45875 27.2081 7.77784L 26.8572 8.71428ZM 30.1371 10.3677C 27.0037 10.7467 24.7571 11.7769 22.9224 13.0108L 23.4811 13.8402C 25.2472 12.6485 27.2754 11.7091 30.2553 11.3607L 30.1371 10.3677ZM 23.3316 12.9426L 0.129882 6.70141L -0.129882 7.66708L 23.0719 13.9083L 23.3316 12.9426ZM 0.464434 7.36945L 1.35286 5.14157L 0.423992 4.77116L -0.464434 6.99904L 0.464434 7.36945Z"/>
<path id="path14_fill" fill-rule="evenodd" d="M 9.68209 3.84309C 9.20224 5.34261 8.61996 6.77012 7.90204 7.98521L 0 0L 9.68209 3.84309Z"/>
<path id="path15_stroke" d="M 9.68209 3.84309L 10.1583 3.99548C 10.2384 3.74506 10.1109 3.47536 9.86655 3.37836L 9.68209 3.84309ZM 7.90204 7.98521L 7.54664 8.33691C 7.65568 8.4471 7.80966 8.50048 7.96351 8.48142C 8.11735 8.46236 8.25366 8.37302 8.33251 8.23956L 7.90204 7.98521ZM 0 0L 0.184464 -0.464729C -0.0354936 -0.552036 -0.286535 -0.473182 -0.417065 -0.275785C -0.547594 -0.0783868 -0.521859 0.183486 -0.3554 0.351698L 0 0ZM 9.20588 3.6907C 8.7323 5.17186 8.17204 6.54793 7.47156 7.73087L 8.33251 8.23956C 9.06788 6.99231 9.67219 5.51335 10.1583 3.99548L 9.20588 3.6907ZM 8.25744 7.63351L 0.3554 -0.351698L -0.3554 0.351698L 7.54664 8.33691L 8.25744 7.63351ZM -0.184464 0.464729L 9.49762 4.30782L 9.86655 3.37836L 0.184464 -0.464729L -0.184464 0.464729Z"/>
<path id="path16_fill" fill-rule="evenodd" d="M 0 3.84309C 0.480149 5.34261 1.06237 6.77012 1.77987 7.98521L 9.68209 0L 0 3.84309Z"/>
<path id="path17_stroke" d="M 0 3.84309L -0.184464 3.37836C -0.428876 3.47538 -0.556375 3.74513 -0.476184 3.99557L 0 3.84309ZM 1.77987 7.98521L 1.34933 8.23944C 1.42816 8.37295 1.56447 8.46233 1.71833 8.48141C 1.8722 8.50049 2.02621 8.44712 2.13527 8.33691L 1.77987 7.98521ZM 9.68209 0L 10.0375 0.351702C 10.2039 0.183491 10.2297 -0.0783828 10.0992 -0.275782C 9.96863 -0.473182 9.71758 -0.552037 9.49762 -0.464729L 9.68209 0ZM -0.476184 3.99557C 0.0102179 5.51338 0.614413 6.99224 1.34933 8.23944L 2.21041 7.73098C 1.51032 6.548 0.950079 5.17183 0.476184 3.69062L -0.476184 3.99557ZM 2.13527 8.33691L 10.0375 0.351702L 9.32669 -0.351702L 1.42448 7.63351L 2.13527 8.33691ZM 9.49762 -0.464729L -0.184464 3.37836L 0.184464 4.30782L 9.86655 0.464729L 9.49762 -0.464729Z"/>
<path id="path18_fill" fill-rule="evenodd" d="M 24.5771 0C 38.1415 0 49.1541 11.0509 49.1541 24.6624C 49.1541 38.2743 38.1415 49.3253 24.5771 49.3253C 11.0126 49.3253 0 38.2743 0 24.6624C 0 11.0509 11.0126 0 24.5771 0Z"/>
<path id="path19_fill" fill-rule="evenodd" d="M 14.6874 0C 22.7932 0 29.3745 6.60424 29.3745 14.7382C 29.3745 22.8727 22.7932 29.4767 14.6874 29.4767C 6.58105 29.4767 0 22.8727 0 14.7382C 0 6.60424 6.58105 0 14.6874 0Z"/>
<path id="path20_stroke" d="M 14.6874 0.5C 22.5154 0.5 28.8745 6.87875 28.8745 14.7382L 29.8745 14.7382C 29.8745 6.32974 23.0709 -0.5 14.6874 -0.5L 14.6874 0.5ZM 28.8745 14.7382C 28.8745 22.5982 22.5154 28.9767 14.6874 28.9767L 14.6874 29.9767C 23.0709 29.9767 29.8745 23.1472 29.8745 14.7382L 28.8745 14.7382ZM 14.6874 28.9767C 6.85883 28.9767 0.5 22.5982 0.5 14.7382L -0.5 14.7382C -0.5 23.1472 6.30328 29.9767 14.6874 29.9767L 14.6874 28.9767ZM 0.5 14.7382C 0.5 6.87875 6.85883 0.5 14.6874 0.5L 14.6874 -0.5C 6.30328 -0.5 -0.5 6.32974 -0.5 14.7382L 0.5 14.7382Z"/>
<path id="path21_fill" fill-rule="evenodd" d="M 8.64086 0C 13.4097 0 17.2817 3.88545 17.2817 8.67091C 17.2817 13.4564 13.4097 17.3418 8.64086 17.3418C 3.87199 17.3418 0 13.4564 0 8.67091C 0 3.88545 3.87199 0 8.64086 0Z"/>
<path id="path22_fill" fill-rule="evenodd" d="M 0 0C 5.19321 7.61527 13.7966 12.1686 22.9921 12.1686C 32.188 12.1686 40.7914 7.61527 45.9843 0C 40.7914 7.61527 32.188 12.1686 22.9921 12.1686C 13.7966 12.1686 5.19321 7.61527 0 0Z"/>
<path id="path23_stroke" d="M 1.23927 -0.845114C 0.772523 -1.52954 -0.160686 -1.70601 -0.845114 -1.23927C -1.52954 -0.772523 -1.70601 0.160686 -1.23927 0.845114L 1.23927 -0.845114ZM 47.2236 0.845074C 47.6903 0.160631 47.5138 -0.772572 46.8293 -1.23929C 46.1449 -1.70602 45.2117 -1.52952 44.745 -0.845074L 47.2236 0.845074ZM -1.23927 0.845114C 4.23257 8.86895 13.2992 13.6686 22.9921 13.6686L 22.9921 10.6686C 14.2939 10.6686 6.15386 6.36159 1.23927 -0.845114L -1.23927 0.845114ZM 22.9921 13.6686C 32.6854 13.6686 41.7521 8.86897 47.2236 0.845074L 44.745 -0.845074C 39.8308 6.36157 31.6907 10.6686 22.9921 10.6686L 22.9921 13.6686ZM 44.745 -0.845074C 39.8308 6.36157 31.6907 10.6686 22.9921 10.6686L 22.9921 13.6686C 32.6854 13.6686 41.7521 8.86897 47.2236 0.845074L 44.745 -0.845074ZM 22.9921 10.6686C 14.2939 10.6686 6.15386 6.36159 1.23927 -0.845114L -1.23927 0.845114C 4.23257 8.86895 13.2992 13.6686 22.9921 13.6686L 22.9921 10.6686Z"/>
<path id="path24_fill" fill-rule="evenodd" d="M 0 3.57685L 3.56445 0Z"/>
<path id="path25_stroke" d="M -1.0625 2.51803C -1.64727 3.10483 -1.64562 4.05458 -1.05882 4.63935C -0.472015 5.22412 0.477731 5.22247 1.0625 4.63567L -1.0625 2.51803ZM 4.62695 1.05882C 5.21172 0.472015 5.21007 -0.477731 4.62327 -1.0625C 4.03647 -1.64727 3.08672 -1.64562 2.50195 -1.05882L 4.62695 1.05882ZM 1.0625 4.63567L 4.62695 1.05882L 2.50195 -1.05882L -1.0625 2.51803L 1.0625 4.63567Z"/>
<path id="path26_fill" fill-rule="evenodd" d="M 3.56397 3.57685L 0 0Z"/>
<path id="path27_stroke" d="M 2.5014 4.63559C 3.08613 5.22244 4.03587 5.22415 4.62272 4.63942C 5.20956 4.05469 5.21127 3.10494 4.62654 2.5181L 2.5014 4.63559ZM 1.06257 -1.05875C 0.477842 -1.64559 -0.471904 -1.6473 -1.05875 -1.06257C -1.64559 -0.477842 -1.6473 0.471904 -1.06257 1.05875L 1.06257 -1.05875ZM 4.62654 2.5181L 1.06257 -1.05875L -1.06257 1.05875L 2.5014 4.63559L 4.62654 2.5181Z"/>
<path id="path28_fill" fill-rule="evenodd" d="M 5.04065 0L 0 0Z"/>
<path id="path29_stroke" d="M 5.04065 1.5C 5.86908 1.5 6.54065 0.828427 6.54065 0C 6.54065 -0.828427 5.86908 -1.5 5.04065 -1.5L 5.04065 1.5ZM 0 -1.5C -0.828427 -1.5 -1.5 -0.828427 -1.5 0C -1.5 0.828427 -0.828427 1.5 0 1.5L 0 -1.5ZM 5.04065 -1.5L 0 -1.5L 0 1.5L 5.04065 1.5L 5.04065 -1.5Z"/>
<path id="path30_fill" fill-rule="evenodd" d="M 4.73061 66.2292L 4.60577 66.1043C -1.53526 59.9633 -1.53526 50.0071 4.60577 43.8661L 43.8661 4.60577C 50.0071 -1.53526 59.9633 -1.53526 66.1043 4.60577L 66.2292 4.73061C 72.3702 10.8716 72.3702 20.8278 66.2292 26.9689L 26.9688 66.2292C 20.8281 72.3702 10.8716 72.3702 4.73061 66.2292Z"/>
<path id="path31_fill" fill-rule="evenodd" d="M 66.1264 7.02971L 26.9909 46.1652C 20.8156 52.3405 10.8032 52.3405 4.62783 46.1652C 2.60624 44.1436 1.25104 41.7101 0.552955 39.1355C -0.88134 44.4259 0.473854 50.3151 4.62783 54.4689C 10.8032 60.6442 20.8156 60.6442 26.9909 54.4689L 66.1264 15.3334C 70.2804 11.1794 71.6356 5.29045 70.2013 0C 69.5032 2.57482 68.148 5.00836 66.1264 7.02971Z"/>
<path id="path32_fill" fill-rule="evenodd" d="M 0.591468 8.97757L 0.575743 8.96184C -0.191914 8.19419 -0.191914 6.94978 0.575743 6.18212L 6.18212 0.575743C 6.94978 -0.191914 8.19419 -0.191914 8.96184 0.575743L 8.97757 0.591468C 9.74523 1.35913 9.74523 2.60353 8.97757 3.37119L 3.37119 8.97757C 2.60377 9.74523 1.35913 9.74523 0.591468 8.97757Z"/>
<path id="path33_fill" fill-rule="evenodd" d="M 0 2.79545L 11.1815 13.977L 13.977 11.1815L 2.79545 0L 0 2.79545Z"/>
<path id="path34_fill" fill-rule="evenodd" d="M 1.15131 8.37061L 1.18252 8.40183C 2.71783 9.93714 5.20688 9.93714 6.7422 8.40183L 9.55313 5.59089L 3.96224 0L 1.15131 2.81093C -0.383769 4.34625 -0.383769 6.8353 1.15131 8.37061Z"/>
<path id="path35_fill" fill-rule="evenodd" d="M 0.958262 0C 1.48719 0 1.91652 0.429336 1.91652 0.958262C 1.91652 1.48719 1.48719 1.91652 0.958262 1.91652C 0.429336 1.91652 0 1.48719 0 0.958262C 0 0.429336 0.429336 0 0.958262 0Z"/>
<path id="path36_fill" fill-rule="evenodd" d="M 8.9618 0.575743L 8.97752 0.591468C 9.74518 1.35913 9.74518 2.60353 8.97752 3.37119L 3.37114 8.97757C 2.60348 9.7452 1.35913 9.7452 0.591468 8.97757L 0.575743 8.96184C -0.191914 8.19419 -0.191914 6.94978 0.575743 6.18212L 6.18208 0.575743C 6.94949 -0.191914 8.19414 -0.191914 8.9618 0.575743Z"/>
<path id="path37_fill" fill-rule="evenodd" d="M 8.96184 0.575743L 8.97759 0.591468C 9.74523 1.35913 9.74523 2.60353 8.97759 3.37119L 3.37121 8.97752C 2.60356 9.74518 1.35915 9.74518 0.591492 8.97752L 0.575743 8.9618C -0.191914 8.19414 -0.191914 6.94978 0.575743 6.18212L 6.18188 0.575743C 6.94954 -0.191914 8.19419 -0.191914 8.96184 0.575743Z"/>
<path id="path38_fill" fill-rule="evenodd" d="M 13.977 11.1814L 2.79542 0L 0 2.79545L 11.1816 13.9769L 13.977 11.1814Z"/>
<path id="path39_fill" fill-rule="evenodd" d="M 8.40178 1.1827L 8.37057 1.15149C 6.83525 -0.383829 4.34625 -0.383829 2.81096 1.15149L 0 3.96242L 5.59085 9.55326L 8.40178 6.74233C 9.93686 5.20702 9.93686 2.71801 8.40178 1.1827Z"/>
<path id="path40_fill" fill-rule="evenodd" d="M 0.958214 0C 1.48714 0 1.91648 0.429336 1.91648 0.958262C 1.91648 1.48709 1.48714 1.91648 0.958214 1.91648C 0.429383 1.91648 0 1.48709 0 0.958262C 0 0.429336 0.429383 0 0.958214 0Z"/>
<path id="path41_fill" d="M 12.0406 18.3613L 4.59436 18.3613L 2.922 23L 0.505005 23L 7.29211 5.22656L 9.3429 5.22656L 16.1422 23L 13.7374 23L 12.0406 18.3613ZM 5.30237 16.4326L 11.3448 16.4326L 8.3175 8.11963L 5.30237 16.4326ZM 21.5422 21.0835L 29.965 21.0835L 29.965 23L 19.1862 23L 19.1862 5.22656L 21.5422 5.22656L 21.5422 21.0835ZM 45.6067 20.6685C 45.0045 21.5311 44.1622 22.1781 43.0798 22.6094C 42.0056 23.0326 40.7524 23.2441 39.3201 23.2441C 37.8715 23.2441 36.5857 22.9064 35.4626 22.231C 34.3396 21.5474 33.4688 20.5789 32.8503 19.3257C 32.24 18.0724 31.9267 16.6198 31.9104 14.9678L 31.9104 13.4175C 31.9104 10.7401 32.533 8.66488 33.7781 7.19189C 35.0313 5.71891 36.7891 4.98242 39.0515 4.98242C 40.907 4.98242 42.4003 5.4585 43.5315 6.41064C 44.6627 7.35465 45.3544 8.69743 45.6067 10.439L 43.2629 10.439C 42.8235 8.08708 41.4237 6.91113 39.0637 6.91113C 37.4931 6.91113 36.3009 7.46452 35.4871 8.57129C 34.6814 9.66992 34.2745 11.265 34.2664 13.3564L 34.2664 14.8091C 34.2664 16.8029 34.7221 18.3898 35.6335 19.5698C 36.545 20.7417 37.7779 21.3276 39.3323 21.3276C 40.2112 21.3276 40.9802 21.23 41.6394 21.0347C 42.2986 20.8394 42.8438 20.5098 43.2751 20.0459L 43.2751 16.0542L 39.1614 16.0542L 39.1614 14.1499L 45.6067 14.1499L 45.6067 20.6685ZM 63.8484 14.687C 63.8484 16.4285 63.5555 17.9504 62.9695 19.2524C 62.3836 20.5464 61.5535 21.5352 60.4793 22.2188C 59.4051 22.9023 58.1518 23.2441 56.7195 23.2441C 55.3198 23.2441 54.0788 22.9023 52.9964 22.2188C 51.914 21.527 51.0718 20.5464 50.4695 19.2769C 49.8755 17.9992 49.5703 16.5221 49.554 14.8457L 49.554 13.564C 49.554 11.855 49.8511 10.3454 50.4451 9.03516C 51.0392 7.72493 51.8774 6.72396 52.9598 6.03223C 54.0503 5.33236 55.2954 4.98242 56.6951 4.98242C 58.1193 4.98242 59.3725 5.32829 60.4549 6.02002C 61.5454 6.70361 62.3836 7.70052 62.9695 9.01074C 63.5555 10.3128 63.8484 11.8306 63.8484 13.564L 63.8484 14.687ZM 61.5169 13.5396C 61.5169 11.4318 61.0937 9.81641 60.2474 8.69336C 59.401 7.56217 58.2169 6.99658 56.6951 6.99658C 55.214 6.99658 54.0462 7.56217 53.1917 8.69336C 52.3454 9.81641 51.91 11.3789 51.8856 13.3809L 51.8856 14.687C 51.8856 16.7297 52.3128 18.3369 53.1673 19.5088C 54.0299 20.6725 55.214 21.2544 56.7195 21.2544C 58.2332 21.2544 59.4051 20.7051 60.2352 19.6064C 61.0652 18.4997 61.4925 16.9168 61.5169 14.8579L 61.5169 13.5396ZM 88.4423 14.687C 88.4423 16.4041 88.1697 17.8853 87.6245 19.1304C 87.0792 20.3674 86.3142 21.3358 85.3295 22.0356L 88.5034 24.5259L 86.9042 26.0029L 83.1567 23.0244C 82.5707 23.1709 81.9523 23.2441 81.3012 23.2441C 79.9015 23.2441 78.6604 22.9023 77.5781 22.2188C 76.4957 21.527 75.6534 20.5464 75.0512 19.2769C 74.4571 17.9992 74.152 16.5221 74.1357 14.8457L 74.1357 13.564C 74.1357 11.855 74.4327 10.3454 75.0268 9.03516C 75.6209 7.72493 76.4591 6.72396 77.5414 6.03223C 78.6319 5.33236 79.8771 4.98242 81.2768 4.98242C 82.7091 4.98242 83.9664 5.32829 85.0488 6.02002C 86.1393 6.71175 86.9775 7.70866 87.5634 9.01074C 88.1494 10.3047 88.4423 11.8184 88.4423 13.5518L 88.4423 14.687ZM 86.0986 13.5396C 86.0986 11.4481 85.6795 9.83675 84.8412 8.70557C 84.0112 7.56624 82.823 6.99658 81.2768 6.99658C 79.8038 6.99658 78.6401 7.56217 77.7856 8.69336C 76.9392 9.81641 76.5038 11.3789 76.4794 13.3809L 76.4794 14.687C 76.4794 16.7215 76.9026 18.3247 77.749 19.4966C 78.6035 20.6685 79.7875 21.2544 81.3012 21.2544C 82.8149 21.2544 83.9868 20.7051 84.8168 19.6064C 85.6469 18.4997 86.0742 16.9168 86.0986 14.8579L 86.0986 13.5396ZM 105.219 5.22656L 105.219 17.3115C 105.211 18.988 104.682 20.3592 103.632 21.4253C 102.591 22.4914 101.175 23.0895 99.3843 23.2197L 98.7617 23.2441C 96.8167 23.2441 95.2664 22.7192 94.1108 21.6694C 92.9552 20.6196 92.3693 19.1751 92.353 17.3359L 92.353 5.22656L 94.6724 5.22656L 94.6724 17.2627C 94.6724 18.5485 95.0264 19.5495 95.7344 20.2656C 96.4424 20.9736 97.4515 21.3276 98.7617 21.3276C 100.088 21.3276 101.101 20.9736 101.801 20.2656C 102.509 19.5576 102.863 18.5607 102.863 17.2749L 102.863 5.22656L 105.219 5.22656ZM 119.616 14.7847L 111.913 14.7847L 111.913 21.0835L 120.861 21.0835L 120.861 23L 109.569 23L 109.569 5.22656L 120.739 5.22656L 120.739 7.15527L 111.913 7.15527L 111.913 12.8682L 119.616 12.8682L 119.616 14.7847ZM 141.097 18.3613L 133.651 18.3613L 131.978 23L 129.561 23L 136.348 5.22656L 138.399 5.22656L 145.198 23L 142.794 23L 141.097 18.3613ZM 134.359 16.4326L 140.401 16.4326L 137.374 8.11963L 134.359 16.4326ZM 151.27 5.22656L 157.08 19.7285L 162.891 5.22656L 165.93 5.22656L 165.93 23L 163.587 23L 163.587 16.0786L 163.806 8.60791L 157.971 23L 156.177 23L 150.354 8.64453L 150.586 16.0786L 150.586 23L 148.242 23L 148.242 5.22656L 151.27 5.22656ZM 180.754 18.3613L 173.308 18.3613L 171.636 23L 169.219 23L 176.006 5.22656L 178.056 5.22656L 184.856 23L 182.451 23L 180.754 18.3613ZM 174.016 16.4326L 180.058 16.4326L 177.031 8.11963L 174.016 16.4326Z"/>
</defs>
</svg>
