<svg width="119" height="173" viewBox="0 0 119 173" version="1.1" xmlns="http://www.w3.org/2000/svg" xmlns:xlink="http://www.w3.org/1999/xlink">
<title>Group 35</title>
<desc>Created using Figma</desc>
<g id="Canvas" transform="translate(-183 -916)">
<g id="Group 35">
<g id="Group 52">
<g id="PERDEU ?">
<use xlink:href="#path0_fill" transform="translate(184 912)" fill="#FFFFFF"/>
</g>
<g id="Page 1">
<g id="Fill 1">
<use xlink:href="#path1_fill" transform="translate(191.849 976.984)" fill="#79CE4D"/>
</g>
<g id="Stroke 2">
<use xlink:href="#path2_stroke" transform="translate(191.849 976.984)" fill="#79CE4D"/>
</g>
<g id="Fill 3">
<use xlink:href="#path3_fill" transform="translate(197.976 1051.89)" fill="#79CE4D"/>
</g>
<g id="Stroke 4">
<use xlink:href="#path4_stroke" transform="translate(197.976 1051.89)" fill="#79CE4D"/>
</g>
<g id="Fill 5">
<use xlink:href="#path5_fill" transform="translate(263.273 1051.89)" fill="#79CE4D"/>
</g>
<g id="Stroke 6">
<use xlink:href="#path6_stroke" transform="translate(263.273 1051.89)" fill="#79CE4D"/>
</g>
<g id="Fill 7">
<use xlink:href="#path7_fill" transform="translate(288.64 1020.98)" fill="#79CE4D"/>
</g>
<g id="Stroke 8">
<use xlink:href="#path8_stroke" transform="translate(288.64 1020.98)" fill="#79CE4D"/>
</g>
<g id="Fill 9">
<use xlink:href="#path9_fill" transform="translate(183.546 1008.84)" fill="#79CE4D"/>
</g>
<g id="Stroke 10">
<use xlink:href="#path10_stroke" transform="translate(183.546 1008.84)" fill="#79CE4D"/>
</g>
<g id="Fill 11">
<use xlink:href="#path11_fill" transform="translate(243.029 972.307)" fill="#79CE4D"/>
</g>
<g id="Stroke 12">
<use xlink:href="#path12_stroke" transform="translate(243.029 972.307)" fill="#79CE4D"/>
</g>
<g id="Fill 13">
<use xlink:href="#path13_fill" transform="translate(215.708 1074.26)" fill="#4A8C27"/>
</g>
<g id="Stroke 14">
<use xlink:href="#path14_stroke" transform="translate(215.708 1074.26)" fill="#4A8D26"/>
</g>
<g id="Fill 15">
<use xlink:href="#path15_fill" transform="translate(263.72 1074.03)" fill="#4A8C27"/>
</g>
<g id="Stroke 16">
<use xlink:href="#path16_stroke" transform="translate(263.72 1074.03)" fill="#4A8D26"/>
</g>
<g id="Fill 17">
<use xlink:href="#path17_fill" transform="translate(221.839 996.929)" fill="#EEEEEE"/>
</g>
<g id="Fill 18">
<use xlink:href="#path18_fill" transform="translate(231.773 1006.24)" fill="#1A1A1B"/>
</g>
<g id="Stroke 19">
<use xlink:href="#path19_stroke" transform="translate(231.773 1006.24)" fill="#1A1A1B"/>
</g>
<g id="Fill 20">
<use xlink:href="#path20_fill" transform="translate(246.823 1002.84)" fill="#F9F9F9"/>
</g>
<g id="Fill 21">
<use xlink:href="#path21_fill" transform="translate(229.098 1052.44)" fill="#A82670"/>
</g>
<g id="Stroke 22">
<use xlink:href="#path22_stroke" transform="translate(229.098 1052.44)" fill="#A82670"/>
</g>
<g id="Fill 23">
<use xlink:href="#path23_fill" transform="translate(221.778 1030.06)" fill="#CAFFFF"/>
</g>
<g id="Stroke 24">
<use xlink:href="#path24_stroke" transform="translate(221.778 1030.06)" fill="#B9FEFE"/>
</g>
</g>
</g>
</g>
</g>
<defs>
<path id="path0_fill" d="M 4.68628 16.042L 4.68628 23L 2.34253 23L 2.34253 5.22656L 8.89771 5.22656C 10.8427 5.22656 12.3645 5.72298 13.4631 6.71582C 14.5699 7.70866 15.1233 9.02295 15.1233 10.6587C 15.1233 12.384 14.5821 13.7145 13.4998 14.6504C 12.4255 15.5781 10.8834 16.042 8.87329 16.042L 4.68628 16.042ZM 4.68628 14.1255L 8.89771 14.1255C 10.151 14.1255 11.1112 13.8325 11.7786 13.2466C 12.4459 12.6525 12.7795 11.798 12.7795 10.6831C 12.7795 9.62516 12.4459 8.77881 11.7786 8.14404C 11.1112 7.50928 10.1957 7.17969 9.03198 7.15527L 4.68628 7.15527L 4.68628 14.1255ZM 28.8118 14.7847L 21.1092 14.7847L 21.1092 21.0835L 30.0569 21.0835L 30.0569 23L 18.7654 23L 18.7654 5.22656L 29.9349 5.22656L 29.9349 7.15527L 21.1092 7.15527L 21.1092 12.8682L 28.8118 12.8682L 28.8118 14.7847ZM 40.1444 15.8101L 35.9696 15.8101L 35.9696 23L 33.6136 23L 33.6136 5.22656L 39.4974 5.22656C 41.4994 5.22656 43.0375 5.68229 44.1117 6.59375C 45.1941 7.50521 45.7352 8.83171 45.7352 10.5732C 45.7352 11.68 45.4341 12.6444 44.8319 13.4663C 44.2378 14.2882 43.4078 14.9027 42.3417 15.3096L 46.5165 22.8535L 46.5165 23L 44.0018 23L 40.1444 15.8101ZM 35.9696 13.8936L 39.5707 13.8936C 40.7344 13.8936 41.6581 13.5924 42.3417 12.9902C 43.0334 12.388 43.3793 11.5824 43.3793 10.5732C 43.3793 9.47461 43.0497 8.63232 42.3905 8.04639C 41.7395 7.46045 40.7955 7.16341 39.5585 7.15527L 35.9696 7.15527L 35.9696 13.8936ZM 49.6826 23L 49.6826 5.22656L 54.6996 5.22656C 56.2459 5.22656 57.6131 5.56836 58.8012 6.25195C 59.9894 6.93555 60.9049 7.90804 61.5478 9.16943C 62.1988 10.4308 62.5284 11.8794 62.5366 13.5151L 62.5366 14.6504C 62.5366 16.3268 62.211 17.7957 61.56 19.0571C 60.9171 20.3185 59.9934 21.2869 58.789 21.9624C 57.5927 22.6379 56.197 22.9837 54.602 23L 49.6826 23ZM 52.0263 7.15527L 52.0263 21.0835L 54.4921 21.0835C 56.2988 21.0835 57.7026 20.522 58.7036 19.3989C 59.7127 18.2759 60.2172 16.6768 60.2172 14.6016L 60.2172 13.564C 60.2172 11.5457 59.7411 9.97917 58.789 8.86426C 57.845 7.74121 56.5022 7.17155 54.7607 7.15527L 52.0263 7.15527ZM 76.7866 14.7847L 69.084 14.7847L 69.084 21.0835L 78.0317 21.0835L 78.0317 23L 66.7402 23L 66.7402 5.22656L 77.9097 5.22656L 77.9097 7.15527L 69.084 7.15527L 69.084 12.8682L 76.7866 12.8682L 76.7866 14.7847ZM 94.1129 5.22656L 94.1129 17.3115C 94.1047 18.988 93.5757 20.3592 92.5259 21.4253C 91.4843 22.4914 90.0683 23.0895 88.2779 23.2197L 87.6553 23.2441C 85.7103 23.2441 84.1601 22.7192 83.0045 21.6694C 81.8489 20.6196 81.2629 19.1751 81.2466 17.3359L 81.2466 5.22656L 83.566 5.22656L 83.566 17.2627C 83.566 18.5485 83.92 19.5495 84.628 20.2656C 85.336 20.9736 86.3451 21.3276 87.6553 21.3276C 88.9818 21.3276 89.995 20.9736 90.6949 20.2656C 91.4029 19.5576 91.7569 18.5607 91.7569 17.2749L 91.7569 5.22656L 94.1129 5.22656ZM 107.611 17.9951C 107.627 17.0267 107.737 16.2617 107.94 15.7002C 108.144 15.1387 108.559 14.5161 109.185 13.8325L 110.784 12.1846C 111.468 11.4115 111.81 10.5814 111.81 9.69434C 111.81 8.83984 111.586 8.17253 111.138 7.69238C 110.691 7.2041 110.04 6.95996 109.185 6.95996C 108.355 6.95996 107.688 7.17969 107.183 7.61914C 106.679 8.05859 106.426 8.6486 106.426 9.38916L 104.168 9.38916C 104.184 8.0708 104.652 7.00879 105.572 6.20312C 106.5 5.38932 107.704 4.98242 109.185 4.98242C 110.723 4.98242 111.92 5.39746 112.774 6.22754C 113.637 7.04948 114.068 8.18066 114.068 9.62109C 114.068 11.0452 113.409 12.4491 112.091 13.8325L 110.76 15.1509C 110.166 15.8101 109.869 16.7581 109.869 17.9951L 107.611 17.9951ZM 107.513 21.8647C 107.513 21.4985 107.623 21.1934 107.842 20.9492C 108.07 20.6969 108.404 20.5708 108.843 20.5708C 109.283 20.5708 109.617 20.6969 109.844 20.9492C 110.072 21.1934 110.186 21.4985 110.186 21.8647C 110.186 22.231 110.072 22.5361 109.844 22.7803C 109.617 23.0163 109.283 23.1343 108.843 23.1343C 108.404 23.1343 108.07 23.0163 107.842 22.7803C 107.623 22.5361 107.513 22.231 107.513 21.8647Z"/>
<path id="path1_fill" fill-rule="evenodd" d="M 52.2394 0C 81.0712 0 104.479 23.4074 104.479 52.2393C 104.479 81.0711 81.0712 104.479 52.2394 104.479C 23.4077 104.479 0 81.0711 0 52.2393C 0 23.4074 23.4077 0 52.2394 0Z"/>
<path id="path2_stroke" d="M 52.2394 0.5C 80.7951 0.5 103.979 23.6836 103.979 52.2393L 104.979 52.2393C 104.979 23.1313 81.3474 -0.5 52.2394 -0.5L 52.2394 0.5ZM 103.979 52.2393C 103.979 80.7949 80.7951 103.979 52.2394 103.979L 52.2394 104.979C 81.3474 104.979 104.979 81.3472 104.979 52.2393L 103.979 52.2393ZM 52.2394 103.979C 23.6838 103.979 0.5 80.7949 0.5 52.2393L -0.5 52.2393C -0.5 81.3472 23.1316 104.979 52.2394 104.979L 52.2394 103.979ZM 0.5 52.2393C 0.5 23.6836 23.6838 0.5 52.2394 0.5L 52.2394 -0.5C 23.1316 -0.5 -0.5 23.1313 -0.5 52.2393L 0.5 52.2393Z"/>
<path id="path3_fill" fill-rule="evenodd" d="M 0 0C 4.05368 11.4876 8.03021 22.9614 13.5455 34.7117C 16.2535 36.4589 19.1026 36.4217 22.0838 34.7117C 25.1903 31.1725 26.9414 27.5804 27.6536 23.9478L 0 0Z"/>
<path id="path4_stroke" d="M 0 0L 0.32732 -0.377971C 0.155845 -0.526467 -0.0941108 -0.540923 -0.281562 -0.413186C -0.469014 -0.285449 -0.546988 -0.0475274 -0.471505 0.166382L 0 0ZM 13.5455 34.7117L 13.0929 34.9241C 13.1328 35.009 13.1957 35.081 13.2745 35.1318L 13.5455 34.7117ZM 22.0838 34.7117L 22.3326 35.1454C 22.3804 35.118 22.4233 35.0829 22.4596 35.0415L 22.0838 34.7117ZM 27.6536 23.9478L 28.1443 24.044C 28.1787 23.8681 28.1164 23.6872 27.9809 23.5698L 27.6536 23.9478ZM -0.471505 0.166382C 3.58171 11.6527 7.56704 23.1498 13.0929 34.9241L 13.9982 34.4992C 8.49337 22.7731 4.52565 11.3226 0.471505 -0.166382L -0.471505 0.166382ZM 13.2745 35.1318C 16.1583 36.9925 19.2095 36.9368 22.3326 35.1454L 21.835 34.278C 18.9956 35.9067 16.3487 35.9252 13.8166 34.2915L 13.2745 35.1318ZM 22.4596 35.0415C 25.6066 31.4494 27.4154 27.7394 28.1443 24.044L 27.1629 23.8516C 26.4674 27.4214 24.774 30.8955 21.708 34.3818L 22.4596 35.0415ZM 27.9809 23.5698L 0.32732 -0.377971L -0.32732 0.377971L 27.3263 24.3258L 27.9809 23.5698Z"/>
<path id="path5_fill" fill-rule="evenodd" d="M 27.654 0C 23.6002 11.4876 19.6236 22.9614 14.1084 34.7117C 11.3999 36.4589 8.55086 36.4217 5.56984 34.7117C 2.46362 31.1725 0.712571 27.5804 0 23.9478L 27.654 0Z"/>
<path id="path6_stroke" d="M 27.654 0L 28.1255 0.166388C 28.201 -0.0475202 28.123 -0.285443 27.9356 -0.413183C 27.7481 -0.540923 27.4982 -0.526468 27.3267 -0.377973L 27.654 0ZM 14.1084 34.7117L 14.3795 35.1318C 14.4583 35.081 14.5212 35.009 14.561 34.9241L 14.1084 34.7117ZM 5.56984 34.7117L 5.19405 35.0415C 5.23037 35.0829 5.27328 35.118 5.32105 35.1454L 5.56984 34.7117ZM 0 23.9478L -0.327317 23.5698C -0.46284 23.6872 -0.525159 23.8681 -0.490649 24.044L 0 23.9478ZM 27.1825 -0.166388C 23.1282 11.3226 19.1605 22.7731 13.6558 34.4992L 14.561 34.9241C 20.0868 23.1498 24.0721 11.6527 28.1255 0.166388L 27.1825 -0.166388ZM 13.8374 34.2915C 11.3047 35.9252 8.65779 35.9066 5.81864 34.278L 5.32105 35.1454C 8.44393 36.9368 11.4951 36.9925 14.3795 35.1318L 13.8374 34.2915ZM 5.94563 34.3819C 2.87993 30.8955 1.18661 27.4214 0.490649 23.8516L -0.490649 24.044C 0.238529 27.7394 2.0473 31.4494 5.19405 35.0415L 5.94563 34.3819ZM 0.327317 24.3258L 27.9813 0.377973L 27.3267 -0.377973L -0.327317 23.5698L 0.327317 24.3258Z"/>
<path id="path7_fill" fill-rule="evenodd" d="M 6.91642 0C 9.10631 2.21321 11.0182 4.74618 12.2125 8.10588C 12.7686 12.0333 12.733 15.309 12.2125 18.0487C 10.8475 17.1168 9.63843 16.6267 8.64599 16.7518C 9.56847 18.3456 10.0073 20.2082 10.6591 23.0288L 10.5094 30.2368C 7.37367 28.4237 3.73532 28.9527 0 29.9371L 6.91642 0Z"/>
<path id="path8_stroke" d="M 6.91642 0L 7.27184 -0.351676C 7.14368 -0.481202 6.95521 -0.530752 6.77992 -0.481005C 6.60462 -0.431257 6.47027 -0.290089 6.42926 -0.112551L 6.91642 0ZM 12.2125 8.10588L 12.7076 8.03579C 12.7029 8.00261 12.6949 7.96998 12.6836 7.9384L 12.2125 8.10588ZM 12.2125 18.0487L 11.9306 18.4616C 12.0699 18.5567 12.2477 18.5752 12.4036 18.5108C 12.5594 18.4463 12.6723 18.3077 12.7037 18.142L 12.2125 18.0487ZM 8.64599 16.7518L 8.58347 16.2557C 8.41721 16.2766 8.2725 16.3795 8.19805 16.5296C 8.12359 16.6797 8.1293 16.8572 8.21325 17.0022L 8.64599 16.7518ZM 10.6591 23.0288L 11.159 23.0392C 11.1599 22.9979 11.1556 22.9565 11.1463 22.9162L 10.6591 23.0288ZM 10.5094 30.2368L 10.2591 30.6697C 10.4122 30.7582 10.6006 30.7593 10.7547 30.6725C 10.9088 30.5857 11.0056 30.424 11.0092 30.2472L 10.5094 30.2368ZM 0 29.9371L -0.487168 29.8245C -0.526598 29.9952 -0.47384 30.1741 -0.348097 30.296C -0.222354 30.418 -0.0419631 30.4652 0.127419 30.4206L 0 29.9371ZM 6.561 0.351676C 8.72821 2.54038 10.578 4.98328 11.7414 8.27336L 12.6836 7.9384C 11.4584 4.50908 9.4844 1.88603 7.27184 -0.351676L 6.561 0.351676ZM 11.7175 8.17598C 12.2696 12.0657 12.2355 15.2594 11.7213 17.9554L 12.7037 18.142C 13.2305 15.3586 13.2675 12.0009 12.7076 8.03579L 11.7175 8.17598ZM 12.4945 17.6357C 11.1112 16.6914 9.76887 16.1063 8.58347 16.2557L 8.70851 17.2478C 9.508 17.1471 10.5838 17.5421 11.9306 18.4616L 12.4945 17.6357ZM 8.21325 17.0022C 9.10377 18.5301 9.52038 20.3219 10.1719 23.1414L 11.1463 22.9162C 10.4942 20.0946 10.0332 18.161 9.07873 16.5013L 8.21325 17.0022ZM 10.1592 23.0184L 10.0095 30.2265L 11.0092 30.2472L 11.159 23.0392L 10.1592 23.0184ZM 10.7596 29.804C 7.4336 27.8808 3.61285 28.4679 -0.127419 29.4536L 0.127419 30.4206C 3.8578 29.4375 7.31375 28.9667 10.2591 30.6697L 10.7596 29.804ZM 0.487168 30.0496L 7.40359 0.112551L 6.42926 -0.112551L -0.487168 29.8245L 0.487168 30.0496Z"/>
<path id="path9_fill" fill-rule="evenodd" d="M 12.9554 0C 10.1786 1.40857 7.5648 3.20872 5.37129 6.01911C 3.60343 9.57092 2.6027 12.69 2.23199 15.4538C 3.82119 15.0002 5.12327 14.9174 6.02556 15.3494C 4.64675 16.5702 3.64234 18.1991 2.13354 20.6695L 0 27.5563C 3.54757 26.826 6.83252 28.4765 10.0664 30.5899L 12.9554 0Z"/>
<path id="path10_stroke" d="M 12.9554 0L 13.4531 0.0470114C 13.4703 -0.134393 13.3874 -0.310754 13.2368 -0.413301C 13.0861 -0.515847 12.8917 -0.52834 12.7292 -0.445909L 12.9554 0ZM 5.37129 6.01911L 4.97714 5.71147C 4.95652 5.73789 4.93861 5.76631 4.92367 5.79632L 5.37129 6.01911ZM 2.23199 15.4538L 1.73643 15.3873C 1.71401 15.5545 1.77736 15.7216 1.90491 15.832C 2.03247 15.9423 2.20704 15.9809 2.36921 15.9346L 2.23199 15.4538ZM 6.02556 15.3494L 6.357 15.7238C 6.48248 15.6127 6.54396 15.4461 6.52073 15.2801C 6.4975 15.1142 6.39267 14.9709 6.24151 14.8985L 6.02556 15.3494ZM 2.13354 20.6695L 1.70683 20.4089C 1.68527 20.4442 1.66818 20.482 1.65594 20.5215L 2.13354 20.6695ZM 0 27.5563L -0.477605 27.4083C -0.529935 27.5772 -0.489151 27.7612 -0.370345 27.8922C -0.25154 28.0232 -0.0723858 28.0816 0.100817 28.046L 0 27.5563ZM 10.0664 30.5899L 9.79287 31.0085C 9.9395 31.1043 10.1256 31.1164 10.2834 31.0404C 10.4412 30.9644 10.5477 30.8113 10.5642 30.6369L 10.0664 30.5899ZM 12.7292 -0.445909C 9.92313 0.978763 7.22194 2.84478 4.97714 5.71147L 5.76545 6.32675C 7.90765 3.57266 10.4341 1.83838 13.1816 0.445909L 12.7292 -0.445909ZM 4.92367 5.79632C 3.14024 9.38261 2.11496 12.58 1.73643 15.3873L 2.72755 15.5202C 3.09044 12.8001 4.06661 9.75923 5.81891 6.24191L 4.92367 5.79632ZM 2.36921 15.9346C 3.93698 15.4871 5.08267 15.4523 5.8096 15.8004L 6.24151 14.8985C 5.16387 14.3824 3.70539 14.5133 2.09476 14.973L 2.36921 15.9346ZM 5.69411 14.9751C 4.26412 16.2483 3.21619 17.9376 1.70683 20.4089L 2.56025 20.9301C 4.06849 18.4606 5.02939 16.8921 6.357 15.7238L 5.69411 14.9751ZM 1.65594 20.5215L -0.477605 27.4083L 0.477605 27.7042L 2.61115 20.8174L 1.65594 20.5215ZM 0.100817 28.046C 3.43302 27.36 6.56324 28.8978 9.79287 31.0085L 10.3399 30.1714C 7.1018 28.0551 3.66213 26.2919 -0.100817 27.0665L 0.100817 28.046ZM 10.5642 30.6369L 13.4531 0.0470114L 12.4576 -0.0470114L 9.56862 30.5429L 10.5642 30.6369Z"/>
<path id="path11_fill" fill-rule="evenodd" d="M 0.861101 4.78792C 3.7832 2.55077 7.26074 0.834095 11.6786 0C 10.0668 2.11194 9.19039 4.21405 9.63291 6.29592C 13.1921 3.05712 17.1508 0.893016 21.7417 0.431471C 20.0465 3.20933 19.329 5.97308 19.8035 8.71903C 21.6644 7.89107 23.7696 7.57867 26.2074 7.96595C 27.9087 8.6018 28.9067 9.45247 29.2743 10.4959C 26.3111 10.8469 24.2391 11.7989 22.4936 12.9705L 0 6.94036L 0.861101 4.78792Z"/>
<path id="path12_stroke" d="M 0.861101 4.78792L 0.557153 4.39091C 0.485681 4.44563 0.430306 4.51862 0.396871 4.6022L 0.861101 4.78792ZM 11.6786 0L 12.076 0.303335C 12.2017 0.138723 12.2128 -0.0862906 12.1041 -0.262523C 11.9954 -0.438755 11.7893 -0.529737 11.5858 -0.49132L 11.6786 0ZM 9.63291 6.29592L 9.14384 6.39987C 9.18107 6.57506 9.30917 6.71695 9.47965 6.77185C 9.65014 6.82675 9.83696 6.78626 9.96943 6.66572L 9.63291 6.29592ZM 21.7417 0.431471L 22.1685 0.691929C 22.2674 0.529912 22.266 0.325884 22.1649 0.165228C 22.0639 0.00457176 21.8805 -0.0850073 21.6917 -0.0660213L 21.7417 0.431471ZM 19.8035 8.71903L 19.3108 8.80415C 19.337 8.95609 19.4319 9.08742 19.5679 9.16007C 19.7039 9.23271 19.8658 9.23853 20.0067 9.17585L 19.8035 8.71903ZM 26.2074 7.96595L 26.3825 7.49759C 26.3512 7.4859 26.3188 7.47738 26.2859 7.47214L 26.2074 7.96595ZM 29.2743 10.4959L 29.3332 10.9924C 29.484 10.9745 29.6185 10.8891 29.6988 10.7602C 29.779 10.6313 29.7964 10.4729 29.7459 10.3297L 29.2743 10.4959ZM 22.4936 12.9705L 22.3641 13.4535C 22.5035 13.4908 22.6524 13.4661 22.7722 13.3857L 22.4936 12.9705ZM 0 6.94036L -0.464229 6.75464C -0.517314 6.88733 -0.511079 7.0364 -0.447099 7.16419C -0.38312 7.29199 -0.267512 7.3863 -0.12947 7.42331L 0 6.94036ZM 1.16505 5.18492C 4.04708 2.97546 7.41925 1.30831 11.7713 0.49132L 11.5858 -0.49132C 7.10223 0.359885 3.51931 2.12608 0.557153 4.39091L 1.16505 5.18492ZM 11.2811 -0.303335C 9.63762 1.85019 8.65585 4.10409 9.14384 6.39987L 10.122 6.19196C 9.72494 4.32402 10.4961 2.37368 12.076 0.303335L 11.2811 -0.303335ZM 9.96943 6.66572C 13.4823 3.46427 17.2987 1.37065 21.7917 0.928963L 21.6917 -0.0660213C 17.0029 0.415383 12.9019 2.64998 9.29639 5.92611L 9.96943 6.66572ZM 21.3149 0.171013C 19.5753 3.02165 18.8103 5.90767 19.3108 8.80415L 20.2962 8.6339C 19.8477 6.03849 20.5177 3.39702 22.1685 0.691929L 21.3149 0.171013ZM 20.0067 9.17585C 21.804 8.37118 23.767 8.07866 26.129 8.45975L 26.2859 7.47214C 23.7721 7.07867 21.5248 7.41095 19.6002 8.2622L 20.0067 9.17585ZM 26.0324 8.43431C 27.6721 9.04713 28.5064 9.82077 28.8028 10.662L 29.7459 10.3297C 29.3071 9.08416 28.1454 8.15647 26.3825 7.49759L 26.0324 8.43431ZM 29.2155 9.99932C 26.1757 10.3656 23.9946 11.3627 22.2149 12.5554L 22.7722 13.3857C 24.4836 12.235 26.4466 11.3282 29.3332 10.9924L 29.2155 9.99932ZM 22.623 12.4876L 0.12947 6.45741L -0.12947 7.42331L 22.3641 13.4535L 22.623 12.4876ZM 0.464229 7.12608L 1.32533 4.97363L 0.396871 4.6022L -0.464229 6.75464L 0.464229 7.12608Z"/>
<path id="path13_fill" fill-rule="evenodd" d="M 9.38649 3.7128C 8.92126 5.16151 8.35679 6.54068 7.66079 7.71461L 0 0L 9.38649 3.7128Z"/>
<path id="path14_stroke" d="M 9.38649 3.7128L 9.86254 3.86567C 9.94306 3.61493 9.81529 3.34472 9.5704 3.24785L 9.38649 3.7128ZM 7.66079 7.71461L 7.306 8.06693C 7.41503 8.17672 7.56875 8.22985 7.72231 8.21081C 7.87587 8.19177 8.01197 8.10271 8.09088 7.96961L 7.66079 7.71461ZM 0 0L 0.183909 -0.464949C -0.0361996 -0.552012 -0.287199 -0.472805 -0.417468 -0.275174C -0.547736 -0.0775427 -0.521576 0.184355 -0.354789 0.352313L 0 0ZM 8.91043 3.55992C 8.45151 4.99024 7.90917 6.31789 7.2307 7.45962L 8.09088 7.96961C 8.80441 6.76347 9.39101 5.33277 9.86254 3.86567L 8.91043 3.55992ZM 8.01558 7.3623L 0.354789 -0.352313L -0.354789 0.352313L 7.306 8.06693L 8.01558 7.3623ZM -0.183909 0.464949L 9.20258 4.17775L 9.5704 3.24785L 0.183909 -0.464949L -0.183909 0.464949Z"/>
<path id="path15_fill" fill-rule="evenodd" d="M 0 3.71286C 0.465228 5.16157 1.02988 6.54068 1.72588 7.71461L 9.38679 0L 0 3.71286Z"/>
<path id="path16_stroke" d="M 0 3.71286L -0.183907 3.24791C -0.428801 3.34477 -0.556577 3.61499 -0.476055 3.86574L 0 3.71286ZM 1.72588 7.71461L 1.29579 7.96961C 1.3747 8.10271 1.5108 8.19177 1.66436 8.21081C 1.81791 8.22985 1.97164 8.17673 2.08067 8.06693L 1.72588 7.71461ZM 9.38679 0L 9.74158 0.352316C 9.90837 0.184359 9.93453 -0.0775388 9.80426 -0.275171C 9.674 -0.472803 9.423 -0.552012 9.20289 -0.46495L 9.38679 0ZM -0.476055 3.86574C -0.00451516 5.33286 0.582278 6.7635 1.29579 7.96961L 2.15598 7.45962C 1.47749 6.31786 0.93497 4.99028 0.476055 3.55998L -0.476055 3.86574ZM 2.08067 8.06693L 9.74158 0.352316L 9.03201 -0.352316L 1.3711 7.3623L 2.08067 8.06693ZM 9.20289 -0.46495L -0.183907 3.24791L 0.183907 4.17781L 9.5707 0.46495L 9.20289 -0.46495Z"/>
<path id="path17_fill" fill-rule="evenodd" d="M 23.8271 0C 36.9774 0 47.6537 10.6769 47.6537 23.8273C 47.6537 36.9776 36.9774 47.654 23.8271 47.654C 10.6764 47.654 0 36.9776 0 23.8273C 0 10.6769 10.6764 0 23.8271 0Z"/>
<path id="path18_fill" fill-rule="evenodd" d="M 14.2388 0C 22.0973 0 28.4773 6.38061 28.4773 14.2392C 28.4773 22.0977 22.0973 28.4777 14.2388 28.4777C 6.38018 28.4777 0 22.0977 0 14.2392C 0 6.38061 6.38018 0 14.2388 0Z"/>
<path id="path19_stroke" d="M 14.2388 0.5C 21.8212 0.5 27.9773 6.65673 27.9773 14.2392L 28.9773 14.2392C 28.9773 6.1045 22.3735 -0.5 14.2388 -0.5L 14.2388 0.5ZM 27.9773 14.2392C 27.9773 21.8216 21.8212 27.9777 14.2388 27.9777L 14.2388 28.9777C 22.3735 28.9777 28.9773 22.3738 28.9773 14.2392L 27.9773 14.2392ZM 14.2388 27.9777C 6.65632 27.9777 0.5 21.8215 0.5 14.2392L -0.5 14.2392C -0.5 22.3738 6.10405 28.9777 14.2388 28.9777L 14.2388 27.9777ZM 0.5 14.2392C 0.5 6.65674 6.65634 0.5 14.2388 0.5L 14.2388 -0.5C 6.10402 -0.5 -0.5 6.10449 -0.5 14.2392L 0.5 14.2392Z"/>
<path id="path20_fill" fill-rule="evenodd" d="M 8.37655 0C 13 0 16.7537 3.75374 16.7537 8.37716C 16.7537 13.0006 13 16.7543 8.37655 16.7543C 3.75374 16.7543 0 13.0006 0 8.37716C 0 3.75374 3.75374 0 8.37655 0Z"/>
<path id="path21_fill" fill-rule="evenodd" d="M 32.6081 10.0263C 30.6717 6.06086 27.3353 2.95286 23.2428 1.30173C 14.096 -2.38836 3.69009 2.03504 0 11.1816C 3.69009 2.03504 14.096 -2.38836 23.2428 1.30173C 27.3353 2.95286 30.6717 6.06086 32.6081 10.0263Z"/>
<path id="path22_stroke" d="M 30.8109 10.9039C 31.2956 11.8965 32.4931 12.3082 33.4857 11.8235C 34.4782 11.3388 34.8899 10.1413 34.4053 9.14875L 30.8109 10.9039ZM 23.2428 1.30173L 23.9911 -0.553011L 23.991 -0.553024L 23.2428 1.30173ZM -1.85475 10.4333C -2.26801 11.4577 -1.77263 12.6231 -0.748278 13.0364C 0.27607 13.4496 1.44148 12.9542 1.85475 11.9299L -1.85475 10.4333ZM 23.2428 1.30173L 23.9911 -0.553011L 23.991 -0.553024L 23.2428 1.30173ZM 34.4053 9.14875C 32.2788 4.87042 28.4091 1.26553 23.9911 -0.553011L 22.4945 3.15647C 26.2616 4.64018 29.0646 7.2513 30.8109 10.9039L 34.4053 9.14875ZM 23.991 -0.553024C 13.8199 -4.65637 2.2486 0.262432 -1.85475 10.4333L 1.85475 11.9299C 5.13158 3.80766 14.3721 -0.120355 22.4945 3.15648L 23.991 -0.553024ZM 1.85475 11.9299C 5.13158 3.80766 14.3721 -0.120355 22.4945 3.15648L 23.991 -0.553024C 13.8199 -4.65637 2.2486 0.262432 -1.85475 10.4333L 1.85475 11.9299ZM 22.4945 3.15647C 26.2616 4.64018 29.0646 7.2513 30.8109 10.9039L 34.4053 9.14875C 32.2788 4.87042 28.4091 1.26553 23.9911 -0.553011L 22.4945 3.15647Z"/>
<path id="path23_fill" fill-rule="evenodd" d="M 3.34122 0C 3.04195 3.99126 -0.436026 7.0628 0.0457116 10.7687C 0.482154 14.1263 6.4316 14.6863 6.75978 10.7687C 7.0844 6.89371 5.07072 3.47018 3.34122 0Z"/>
<path id="path24_stroke" d="M 3.34122 0L 3.78872 -0.22303C 3.68834 -0.424441 3.46577 -0.533975 3.24494 -0.490644C 3.02411 -0.447313 2.85944 -0.261795 2.84262 -0.0373854L 3.34122 0ZM 0.0457116 10.7687L 0.54154 10.7043L 0.54154 10.7043L 0.0457116 10.7687ZM 6.75978 10.7687L 6.26152 10.727L 6.26152 10.727L 6.75978 10.7687ZM 2.84262 -0.0373854C 2.71147 1.85602 1.8022 3.5335 0.951486 5.27157C 0.110002 6.99098 -0.712755 8.81275 -0.450117 10.8332L 0.54154 10.7043C 0.322441 9.01878 0.997802 7.45182 1.84969 5.71116C 2.69235 3.98916 3.6717 2.13524 3.83982 0.0373854L 2.84262 -0.0373854ZM -0.450117 10.8332C -0.189639 12.8371 1.69184 13.92 3.42126 13.9964C 4.30241 14.0354 5.20851 13.8231 5.92849 13.2974C 6.66061 12.7628 7.16434 11.9289 7.25803 10.8105L 6.26152 10.727C 6.19113 11.5673 5.82811 12.1325 5.33878 12.4898C 4.83729 12.856 4.16722 13.0284 3.46543 12.9974C 2.02897 12.9339 0.717504 12.058 0.54154 10.7043L -0.450117 10.8332ZM 7.25803 10.8105C 7.59723 6.76145 5.48787 3.18625 3.78872 -0.22303L 2.89372 0.22303C 4.65357 3.75411 6.57156 7.02598 6.26152 10.727L 7.25803 10.8105Z"/>
</defs>
</svg>
