<svg width="175" height="173" viewBox="0 0 175 173" version="1.1" xmlns="http://www.w3.org/2000/svg" xmlns:xlink="http://www.w3.org/1999/xlink">
<title>Group 44</title>
<desc>Created using Figma</desc>
<g id="Canvas" transform="translate(-505 -916)">
<g id="Group 44">
<g id="Page 1">
<g id="Fill 1">
<use xlink:href="#path0_fill" transform="translate(541.391 976.964)" fill="#79CE4D"/>
</g>
<g id="Stroke 2">
<use xlink:href="#path1_stroke" transform="translate(541.391 976.964)" fill="#79CE4D"/>
</g>
<g id="Fill 3">
<use xlink:href="#path2_fill" transform="translate(547.56 1051.77)" fill="#79CE4D"/>
</g>
<g id="Stroke 4">
<use xlink:href="#path3_stroke" transform="translate(547.56 1051.77)" fill="#79CE4D"/>
</g>
<g id="Fill 5">
<use xlink:href="#path4_fill" transform="translate(613.316 1051.77)" fill="#79CE4D"/>
</g>
<g id="Stroke 6">
<use xlink:href="#path5_stroke" transform="translate(613.316 1051.77)" fill="#79CE4D"/>
</g>
<g id="Fill 7">
<use xlink:href="#path6_fill" transform="translate(638.86 1020.9)" fill="#79CE4D"/>
</g>
<g id="Stroke 8">
<use xlink:href="#path7_stroke" transform="translate(638.86 1020.9)" fill="#79CE4D"/>
</g>
<g id="Fill 9">
<use xlink:href="#path8_fill" transform="translate(533.03 1008.78)" fill="#79CE4D"/>
</g>
<g id="Stroke 10">
<use xlink:href="#path9_stroke" transform="translate(533.03 1008.78)" fill="#79CE4D"/>
</g>
<g id="Fill 11">
<use xlink:href="#path10_fill" transform="translate(592.929 972.292)" fill="#79CE4D"/>
</g>
<g id="Stroke 12">
<use xlink:href="#path11_stroke" transform="translate(592.929 972.292)" fill="#79CE4D"/>
</g>
<g id="Fill 13">
<use xlink:href="#path12_fill" transform="translate(565.416 1074.12)" fill="#4A8C27"/>
</g>
<g id="Stroke 14">
<use xlink:href="#path13_stroke" transform="translate(565.416 1074.12)" fill="#4A8D26"/>
</g>
<g id="Fill 15">
<use xlink:href="#path14_fill" transform="translate(613.766 1073.89)" fill="#4A8C27"/>
</g>
<g id="Stroke 16">
<use xlink:href="#path15_stroke" transform="translate(613.766 1073.89)" fill="#4A8D26"/>
</g>
<g id="Fill 17">
<use xlink:href="#path16_fill" transform="translate(571.59 996.882)" fill="#EEEEEE"/>
</g>
<g id="Fill 18">
<use xlink:href="#path17_fill" transform="translate(581.595 1006.18)" fill="#1A1A1B"/>
</g>
<g id="Stroke 19">
<use xlink:href="#path18_stroke" transform="translate(581.595 1006.18)" fill="#1A1A1B"/>
</g>
<g id="Fill 20">
<use xlink:href="#path19_fill" transform="translate(596.749 1002.78)" fill="#F9F9F9"/>
</g>
<g id="Fill 21">
<use xlink:href="#path20_fill" transform="translate(587.835 1049.04)" fill="#A82670"/>
</g>
<g id="Stroke 22">
<use xlink:href="#path21_stroke" transform="translate(587.835 1049.04)" fill="#A82670"/>
</g>
</g>
<g id="Chegou O APP">
<use xlink:href="#path22_fill" transform="translate(504 911)" fill="#FFFFFF"/>
</g>
</g>
</g>
<defs>
<path id="path0_fill" fill-rule="evenodd" d="M 52.6058 0C 81.6395 0 105.211 23.3768 105.211 52.1713C 105.211 80.9651 81.6395 104.342 52.6058 104.342C 23.5718 104.342 0 80.9651 0 52.1713C 0 23.3768 23.5718 0 52.6058 0Z"/>
<path id="path1_stroke" d="M 52.6058 0.5C 81.3673 0.5 104.711 23.6568 104.711 52.1713L 105.711 52.1713C 105.711 23.0967 81.9117 -0.5 52.6058 -0.5L 52.6058 0.5ZM 104.711 52.1713C 104.711 80.685 81.3673 103.842 52.6058 103.842L 52.6058 104.842C 81.9117 104.842 105.711 81.2451 105.711 52.1713L 104.711 52.1713ZM 52.6058 103.842C 23.844 103.842 0.5 80.685 0.5 52.1713L -0.5 52.1713C -0.5 81.2451 23.2996 104.842 52.6058 104.842L 52.6058 103.842ZM 0.5 52.1713C 0.5 23.6568 23.844 0.5 52.6058 0.5L 52.6058 -0.5C 23.2996 -0.5 -0.5 23.0967 -0.5 52.1713L 0.5 52.1713Z"/>
<path id="path2_fill" fill-rule="evenodd" d="M 0 0C 4.08217 11.4727 8.08658 22.9315 13.6406 34.6664C 16.3675 36.4113 19.2365 36.3742 22.2387 34.6664C 25.367 31.1318 27.1304 27.5444 27.8476 23.9166L 0 0Z"/>
<path id="path3_stroke" d="M 0 0L 0.325766 -0.37931C 0.153788 -0.527012 -0.0960411 -0.540526 -0.282948 -0.412238C -0.469855 -0.28395 -0.547064 -0.0459668 -0.471069 0.167614L 0 0ZM 13.6406 34.6664L 13.1886 34.8803C 13.2288 34.9652 13.292 35.037 13.3711 35.0876L 13.6406 34.6664ZM 22.2387 34.6664L 22.486 35.101C 22.5338 35.0739 22.5767 35.039 22.6132 34.9978L 22.2387 34.6664ZM 27.8476 23.9166L 28.3381 24.0135C 28.3731 23.8367 28.3101 23.6547 28.1734 23.5373L 27.8476 23.9166ZM -0.471069 0.167614C 3.61063 11.639 7.62396 23.1212 13.1886 34.8803L 14.0925 34.4525C 8.5492 22.7418 4.55371 11.3064 0.471069 -0.167614L -0.471069 0.167614ZM 13.3711 35.0876C 16.2731 36.9445 19.3426 36.8891 22.486 35.101L 21.9915 34.2318C 19.1304 35.8594 16.4619 35.8781 13.9101 34.2453L 13.3711 35.0876ZM 22.6132 34.9978C 25.7823 31.4103 27.604 27.7046 28.3381 24.0135L 27.3571 23.8196C 26.6567 27.3843 24.9517 30.8534 21.8643 34.3351L 22.6132 34.9978ZM 28.1734 23.5373L 0.325766 -0.37931L -0.325766 0.37931L 27.5218 24.2959L 28.1734 23.5373Z"/>
<path id="path4_fill" fill-rule="evenodd" d="M 27.8478 0C 23.7652 11.4727 19.7611 22.9315 14.207 34.6664C 11.48 36.4113 8.611 36.3742 5.60891 34.6664C 2.48074 31.1318 0.716946 27.5444 0 23.9166L 27.8478 0Z"/>
<path id="path5_stroke" d="M 27.8478 0L 28.3188 0.167627C 28.3948 -0.045954 28.3176 -0.283942 28.1307 -0.412234C 27.9438 -0.540526 27.694 -0.527013 27.522 -0.379311L 27.8478 0ZM 14.207 34.6664L 14.4764 35.0876C 14.5555 35.037 14.6187 34.9652 14.6589 34.8803L 14.207 34.6664ZM 5.60891 34.6664L 5.23448 34.9978C 5.27092 35.039 5.31389 35.0739 5.36167 35.101L 5.60891 34.6664ZM 0 23.9166L -0.325765 23.5373C -0.462515 23.6547 -0.525461 23.8367 -0.490513 24.0135L 0 23.9166ZM 27.3767 -0.167627C 23.2937 11.3064 19.2984 22.7418 13.755 34.4525L 14.6589 34.8803C 20.2237 23.1212 24.2368 11.639 28.3188 0.167627L 27.3767 -0.167627ZM 13.9375 34.2453C 11.3856 35.8781 8.71713 35.8594 5.85614 34.2318L 5.36167 35.101C 8.50488 36.8891 11.5744 36.9445 14.4764 35.0876L 13.9375 34.2453ZM 5.98333 34.3351C 2.89601 30.8533 1.19061 27.3843 0.490513 23.8196L -0.490513 24.0135C 0.243285 27.7046 2.06547 31.4103 5.23448 34.9978L 5.98333 34.3351ZM 0.325765 24.2959L 28.1735 0.379311L 27.522 -0.379311L -0.325765 23.5373L 0.325765 24.2959Z"/>
<path id="path6_fill" fill-rule="evenodd" d="M 6.96562 0C 9.17125 2.2102 11.0965 4.74056 12.2988 8.09529C 12.8585 12.0179 12.8231 15.2891 12.2988 18.0252C 10.9244 17.0945 9.70675 16.605 8.70703 16.73C 9.63605 18.3217 10.0779 20.1819 10.7342 22.9988L 10.5833 30.1974C 7.42572 28.3867 3.76205 28.915 0 29.8981L 6.96562 0Z"/>
<path id="path7_stroke" d="M 6.96562 0L 7.31954 -0.353187C 7.19122 -0.481778 7.00324 -0.530649 6.82854 -0.48084C 6.65383 -0.431031 6.51989 -0.29038 6.47867 -0.113451L 6.96562 0ZM 12.2988 8.09529L 12.7938 8.02467C 12.789 7.99124 12.7809 7.95838 12.7695 7.92659L 12.2988 8.09529ZM 12.2988 18.0252L 12.0185 18.4392C 12.1577 18.5335 12.335 18.5514 12.4904 18.487C 12.6457 18.4226 12.7582 18.2844 12.7899 18.1193L 12.2988 18.0252ZM 8.70703 16.73L 8.64504 16.2338C 8.47834 16.2546 8.33325 16.3578 8.2588 16.5084C 8.18436 16.659 8.19052 16.8369 8.2752 16.982L 8.70703 16.73ZM 10.7342 22.9988L 11.234 23.0093C 11.2349 22.9676 11.2306 22.926 11.2211 22.8854L 10.7342 22.9988ZM 10.5833 30.1974L 10.3346 30.6312C 10.4877 30.719 10.6758 30.7196 10.8294 30.6327C 10.9831 30.5458 11.0795 30.3844 11.0832 30.2079L 10.5833 30.1974ZM 0 29.8981L -0.486959 29.7846C -0.5267 29.9552 -0.47429 30.1341 -0.3488 30.2563C -0.223311 30.3785 -0.0430388 30.4261 0.126416 30.3818L 0 29.8981ZM 6.6117 0.353187C 8.79448 2.5389 10.657 4.97908 11.8281 8.26399L 12.7695 7.92659C 11.5359 4.50204 9.54801 1.88149 7.31954 -0.353187L 6.6117 0.353187ZM 11.8038 8.16591C 12.3596 12.0506 12.3256 15.2391 11.8078 17.9311L 12.7899 18.1193C 13.3206 15.339 13.3574 11.9852 12.7938 8.02467L 11.8038 8.16591ZM 12.5792 17.6112C 11.1862 16.6679 9.83608 16.085 8.64504 16.2338L 8.76902 17.2261C 9.57741 17.1251 10.6627 17.5211 12.0185 18.4392L 12.5792 17.6112ZM 8.2752 16.982C 9.17186 18.5075 9.59117 20.2964 10.2472 23.1123L 11.2211 22.8854C 10.5646 20.0674 10.1002 18.1359 9.13886 16.4779L 8.2752 16.982ZM 10.2343 22.9884L 10.0835 30.187L 11.0832 30.2079L 11.234 23.0093L 10.2343 22.9884ZM 10.8321 29.7637C 7.48512 27.8444 3.64046 28.4299 -0.126416 29.4143L 0.126416 30.3818C 3.88364 29.4 7.36632 28.9291 10.3346 30.6312L 10.8321 29.7637ZM 0.486959 30.0115L 7.45258 0.113451L 6.47867 -0.113451L -0.486959 29.7846L 0.486959 30.0115Z"/>
<path id="path8_fill" fill-rule="evenodd" d="M 13.0462 0C 10.25 1.40686 7.61783 3.20458 5.40896 6.01129C 3.62868 9.55766 2.62095 12.6728 2.24763 15.4334C 3.84794 14.9806 5.15918 14.8971 6.06776 15.3288C 4.67935 16.5481 3.66785 18.1747 2.14848 20.6425L 0 27.52C 3.57247 26.7906 6.88044 28.4389 10.137 30.5497L 13.0462 0Z"/>
<path id="path9_stroke" d="M 13.0462 0L 13.5439 0.0473998C 13.5612 -0.133767 13.4786 -0.310001 13.3284 -0.412727C 13.1782 -0.515453 12.984 -0.528446 12.8214 -0.446651L 13.0462 0ZM 5.40896 6.01129L 5.01605 5.70207C 4.99526 5.72848 4.97719 5.75693 4.96211 5.78697L 5.40896 6.01129ZM 2.24763 15.4334L 1.75214 15.3664C 1.72955 15.5334 1.79263 15.7006 1.91992 15.811C 2.04721 15.9215 2.22158 15.9604 2.38375 15.9145L 2.24763 15.4334ZM 6.06776 15.3288L 6.3977 15.7045C 6.52409 15.5935 6.5862 15.4264 6.56297 15.2598C 6.53975 15.0932 6.4343 14.9494 6.28236 14.8772L 6.06776 15.3288ZM 2.14848 20.6425L 1.7227 20.3804C 1.70091 20.4158 1.68362 20.4538 1.67123 20.4934L 2.14848 20.6425ZM 0 27.52L -0.477254 27.3709C -0.530003 27.5397 -0.489603 27.7239 -0.371015 27.8551C -0.252428 27.9864 -0.0733058 28.0452 0.100019 28.0099L 0 27.52ZM 10.137 30.5497L 9.86502 30.9693C 10.0117 31.0643 10.1973 31.0759 10.3546 30.9998C 10.512 30.9237 10.6182 30.771 10.6347 30.5971L 10.137 30.5497ZM 12.8214 -0.446651C 9.9961 0.976137 7.27641 2.83929 5.01605 5.70207L 5.80188 6.32051C 7.95924 3.56987 10.5039 1.83758 13.2709 0.446651L 12.8214 -0.446651ZM 4.96211 5.78697C 3.16604 9.368 2.1334 12.562 1.75214 15.3664L 2.74312 15.5004C 3.10849 12.7837 4.09131 9.74731 5.85582 6.23561L 4.96211 5.78697ZM 2.38375 15.9145C 3.96312 15.4677 5.11901 15.4316 5.85316 15.7804L 6.28236 14.8772C 5.19935 14.3626 3.73276 14.4936 2.1115 14.9523L 2.38375 15.9145ZM 5.73783 14.9531C 4.29798 16.2248 3.24266 17.9116 1.7227 20.3804L 2.57426 20.9047C 4.09304 18.4378 5.06072 16.8715 6.3977 15.7045L 5.73783 14.9531ZM 1.67123 20.4934L -0.477254 27.3709L 0.477254 27.6691L 2.62573 20.7916L 1.67123 20.4934ZM 0.100019 28.0099C 3.45888 27.3241 6.61319 28.8615 9.86502 30.9693L 10.4089 30.1301C 7.14769 28.0163 3.68607 26.2571 -0.100019 27.0301L 0.100019 28.0099ZM 10.6347 30.5971L 13.5439 0.0473998L 12.5484 -0.0473998L 9.63923 30.5023L 10.6347 30.5971Z"/>
<path id="path10_fill" fill-rule="evenodd" d="M 0.867168 4.78204C 3.80977 2.54731 7.31143 0.832548 11.7604 0C 10.1374 2.10971 9.2549 4.20831 9.70027 6.28764C 13.285 3.05268 17.2715 0.891557 21.8942 0.431172C 20.187 3.20517 19.4647 5.96514 19.9419 8.70758C 21.8165 7.88087 23.9367 7.56889 26.3909 7.95566C 28.1046 8.59015 29.109 9.44022 29.4796 10.4819C 26.4958 10.8331 24.4085 11.7836 22.6512 12.9539L 0 6.93148L 0.867168 4.78204Z"/>
<path id="path11_stroke" d="M 0.867168 4.78204L 0.564767 4.38385C 0.492951 4.43839 0.437222 4.51134 0.403482 4.59497L 0.867168 4.78204ZM 11.7604 0L 12.1567 0.304872C 12.2831 0.140585 12.295 -0.0846485 12.1866 -0.261355C 12.0783 -0.438061 11.8722 -0.529595 11.6684 -0.491469L 11.7604 0ZM 9.70027 6.28764L 9.21136 6.39236C 9.24876 6.56699 9.37647 6.70841 9.5464 6.76337C 9.71632 6.81834 9.90266 6.77849 10.0352 6.65884L 9.70027 6.28764ZM 21.8942 0.431172L 22.32 0.69324C 22.4197 0.531379 22.4189 0.327037 22.3181 0.165926C 22.2173 0.004816 22.0338 -0.0852012 21.8447 -0.0663662L 21.8942 0.431172ZM 19.9419 8.70758L 19.4493 8.79329C 19.4757 8.94482 19.5703 9.07578 19.7059 9.14837C 19.8415 9.22097 20.003 9.22713 20.1437 9.16507L 19.9419 8.70758ZM 26.3909 7.95566L 26.5645 7.48676C 26.5335 7.47528 26.5014 7.4669 26.4687 7.46175L 26.3909 7.95566ZM 29.4796 10.4819L 29.538 10.9785C 29.6892 10.9607 29.824 10.8751 29.9043 10.7458C 29.9846 10.6165 30.0017 10.4577 29.9507 10.3144L 29.4796 10.4819ZM 22.6512 12.9539L 22.5228 13.4371C 22.6613 13.4739 22.809 13.4495 22.9284 13.37L 22.6512 12.9539ZM 0 6.93148L -0.463686 6.74441C -0.517319 6.87735 -0.511314 7.02691 -0.447195 7.15512C -0.383076 7.28333 -0.267011 7.37786 -0.128474 7.41469L 0 6.93148ZM 1.16957 5.18023C 4.07215 2.97293 7.4688 1.30714 11.8524 0.491469L 11.6684 -0.491469C 7.15406 0.35796 3.54738 2.12168 0.564767 4.38385L 1.16957 5.18023ZM 11.3641 -0.304872C 9.70944 1.84597 8.71979 4.09731 9.21136 6.39236L 10.1892 6.18292C 9.79002 4.31932 10.5653 2.37344 12.1567 0.304872L 11.3641 -0.304872ZM 10.0352 6.65884C 13.5737 3.46093 17.4183 1.36952 21.9438 0.928711L 21.8447 -0.0663662C 17.1247 0.413596 12.9963 2.64442 9.36529 5.91644L 10.0352 6.65884ZM 21.4684 0.169105C 19.7163 3.01599 18.9457 5.89907 19.4493 8.79329L 20.4345 8.62187C 19.9838 6.03121 20.6577 3.39434 22.32 0.69324L 21.4684 0.169105ZM 20.1437 9.16507C 21.955 8.3613 23.9341 8.06888 26.3131 8.44956L 26.4687 7.46175C 23.9392 7.06889 21.6779 7.40045 19.7402 8.25009L 20.1437 9.16507ZM 26.2173 8.42455C 27.8701 9.0365 28.71 9.81027 29.0085 10.6495L 29.9507 10.3144C 29.5081 9.07017 28.3391 8.14379 26.5645 7.48676L 26.2173 8.42455ZM 29.4212 9.98536C 26.3613 10.3515 24.1656 11.3466 22.3741 12.5377L 22.9284 13.37C 24.6515 12.2206 26.6302 11.3146 29.538 10.9785L 29.4212 9.98536ZM 22.7797 12.4707L 0.128474 6.44826L -0.128474 7.41469L 22.5228 13.4371L 22.7797 12.4707ZM 0.463686 7.11855L 1.33085 4.96911L 0.403482 4.59497L -0.463686 6.74441L 0.463686 7.11855Z"/>
<path id="path12_fill" fill-rule="evenodd" d="M 9.45231 3.70797C 8.98385 5.15479 8.41542 6.53215 7.71456 7.70455L 0 0L 9.45231 3.70797Z"/>
<path id="path13_stroke" d="M 9.45231 3.70797L 9.928 3.86199C 10.0094 3.61048 9.88101 3.33904 9.63491 3.2425L 9.45231 3.70797ZM 7.71456 7.70455L 7.36123 8.05833C 7.47024 8.16719 7.62334 8.21973 7.77621 8.20073C 7.92909 8.18174 8.06468 8.09333 8.14372 7.9611L 7.71456 7.70455ZM 0 0L 0.182594 -0.465467C -0.0378756 -0.551953 -0.288779 -0.471904 -0.418425 -0.273716C -0.548071 -0.0755276 -0.520894 0.18643 -0.353324 0.353783L 0 0ZM 8.97662 3.55395C 8.51456 4.98228 7.96853 6.30789 7.2854 7.448L 8.14372 7.9611C 8.86231 6.7564 9.45315 5.3273 9.928 3.86199L 8.97662 3.55395ZM 8.06788 7.35077L 0.353324 -0.353783L -0.353324 0.353783L 7.36123 8.05833L 8.06788 7.35077ZM -0.182594 0.465467L 9.26972 4.17343L 9.63491 3.2425L 0.182594 -0.465467L -0.182594 0.465467Z"/>
<path id="path14_fill" fill-rule="evenodd" d="M 0 3.70802C 0.468342 5.15485 1.03683 6.53215 1.73787 7.70455L 9.45225 0L 0 3.70802Z"/>
<path id="path15_stroke" d="M 0 3.70802L -0.182598 3.24256C -0.428686 3.3391 -0.557109 3.61051 -0.475698 3.86201L 0 3.70802ZM 1.73787 7.70455L 1.30874 7.96115C 1.38779 8.09336 1.52338 8.18175 1.67625 8.20074C 1.82912 8.21972 1.9822 8.16718 2.0912 8.05833L 1.73787 7.70455ZM 9.45225 0L 9.80558 0.353779C 9.97315 0.186424 10.0003 -0.0755331 9.87068 -0.27372C 9.74103 -0.471906 9.49012 -0.551953 9.26965 -0.465466L 9.45225 0ZM -0.475698 3.86201C -0.00095658 5.32736 0.589962 6.75644 1.30874 7.96115L 2.16701 7.44795C 1.4837 6.30785 0.93764 4.98234 0.475698 3.55404L -0.475698 3.86201ZM 2.0912 8.05833L 9.80558 0.353779L 9.09892 -0.353779L 1.38454 7.35077L 2.0912 8.05833ZM 9.26965 -0.465466L -0.182598 3.24256L 0.182598 4.17349L 9.63485 0.465466L 9.26965 -0.465466Z"/>
<path id="path16_fill" fill-rule="evenodd" d="M 23.9942 0C 37.2368 0 47.988 10.6625 47.988 23.7957C 47.988 36.929 37.2368 47.5916 23.9942 47.5916C 10.7514 47.5916 0 36.929 0 23.7957C 0 10.6625 10.7514 0 23.9942 0Z"/>
<path id="path17_fill" fill-rule="evenodd" d="M 14.3388 0C 22.2523 0 28.6771 6.37177 28.6771 14.2205C 28.6771 22.0687 22.2523 28.4406 14.3388 28.4406C 6.42494 28.4406 0 22.0687 0 14.2205C 0 6.37177 6.42494 0 14.3388 0Z"/>
<path id="path18_stroke" d="M 14.3388 0.5C 21.9801 0.5 28.1771 6.6518 28.1771 14.2205L 29.1771 14.2205C 29.1771 6.09174 22.5245 -0.5 14.3388 -0.5L 14.3388 0.5ZM 28.1771 14.2205C 28.1771 21.7886 21.9801 27.9406 14.3388 27.9406L 14.3388 28.9406C 22.5245 28.9406 29.1771 22.3487 29.1771 14.2205L 28.1771 14.2205ZM 14.3388 27.9406C 6.69716 27.9406 0.5 21.7886 0.5 14.2205L -0.5 14.2205C -0.5 22.3487 6.15272 28.9406 14.3388 28.9406L 14.3388 27.9406ZM 0.5 14.2205C 0.5 6.65181 6.69716 0.5 14.3388 0.5L 14.3388 -0.5C 6.15271 -0.5 -0.5 6.09173 -0.5 14.2205L 0.5 14.2205Z"/>
<path id="path19_fill" fill-rule="evenodd" d="M 8.43604 0C 13.0918 0 16.8715 3.74851 16.8715 8.36638C 16.8715 12.9837 13.0918 16.7322 8.43604 16.7322C 3.78031 16.7322 0 12.9837 0 8.36638C 0 3.74851 3.78031 0 8.43604 0Z"/>
<path id="path20_fill" fill-rule="evenodd" d="M 4.4625 0C 6.92556 0 8.925 1.9831 8.925 4.42571C 8.925 6.86832 6.92556 8.85142 4.4625 8.85142C 1.99944 8.85142 0 6.86832 0 4.42571C 0 1.9831 1.99944 0 4.4625 0Z"/>
<path id="path21_stroke" d="M 4.4625 0.5C 6.65332 0.5 8.425 2.26313 8.425 4.42571L 9.425 4.42571C 9.425 1.70308 7.19781 -0.5 4.4625 -0.5L 4.4625 0.5ZM 8.425 4.42571C 8.425 6.58829 6.65332 8.35142 4.4625 8.35142L 4.4625 9.35142C 7.19781 9.35142 9.425 7.14835 9.425 4.42571L 8.425 4.42571ZM 4.4625 8.35142C 2.27168 8.35142 0.5 6.58829 0.5 4.42571L -0.5 4.42571C -0.5 7.14835 1.72719 9.35142 4.4625 9.35142L 4.4625 8.35142ZM 0.5 4.42571C 0.5 2.26313 2.27168 0.5 4.4625 0.5L 4.4625 -0.5C 1.72719 -0.5 -0.5 1.70308 -0.5 4.42571L 0.5 4.42571Z"/>
<path id="path22_fill" d="M 15.4576 19.3604C 15.2379 21.2402 14.5421 22.6929 13.3702 23.7183C 12.2065 24.7355 10.6562 25.2441 8.71936 25.2441C 6.61975 25.2441 4.93518 24.4914 3.66565 22.9858C 2.40426 21.4803 1.77356 19.4661 1.77356 16.9434L 1.77356 15.2344C 1.77356 13.5824 2.06653 12.1297 2.65247 10.8765C 3.24654 9.62321 4.08476 8.66292 5.16711 7.99561C 6.24947 7.32015 7.50273 6.98242 8.92688 6.98242C 10.8149 6.98242 12.3286 7.51139 13.4679 8.56934C 14.6072 9.61914 15.2705 11.0758 15.4576 12.9395L 13.1017 12.9395C 12.8982 11.5234 12.4547 10.498 11.7711 9.86328C 11.0957 9.22852 10.1476 8.91113 8.92688 8.91113C 7.42948 8.91113 6.25354 9.46452 5.39905 10.5713C 4.55269 11.6781 4.12952 13.2528 4.12952 15.2954L 4.12952 17.0166C 4.12952 18.9453 4.53235 20.4793 5.33801 21.6187C 6.14368 22.758 7.27079 23.3276 8.71936 23.3276C 10.0214 23.3276 11.0184 23.0347 11.7101 22.4487C 12.41 21.8547 12.8738 20.8252 13.1017 19.3604L 15.4576 19.3604ZM 21.2238 13.3911C 22.2248 12.1623 23.5269 11.5479 25.1301 11.5479C 27.9214 11.5479 29.3293 13.1226 29.3537 16.272L 29.3537 25L 27.0954 25L 27.0954 16.2598C 27.0873 15.3076 26.8675 14.6037 26.4362 14.1479C 26.013 13.6922 25.3498 13.4644 24.4465 13.4644C 23.7141 13.4644 23.0711 13.6597 22.5178 14.0503C 21.9644 14.4409 21.5331 14.9536 21.2238 15.5884L 21.2238 25L 18.9655 25L 18.9655 6.25L 21.2238 6.25L 21.2238 13.3911ZM 38.8674 25.2441C 37.0771 25.2441 35.6204 24.6582 34.4973 23.4863C 33.3743 22.3063 32.8127 20.7316 32.8127 18.7622L 32.8127 18.3472C 32.8127 17.0369 33.061 15.8691 33.5574 14.8438C 34.0619 13.8102 34.7618 13.0046 35.657 12.4268C 36.5603 11.8408 37.5369 11.5479 38.5867 11.5479C 40.3038 11.5479 41.6384 12.1134 42.5906 13.2446C 43.5427 14.3758 44.0188 15.9953 44.0188 18.103L 44.0188 19.043L 35.071 19.043C 35.1036 20.3451 35.482 21.3989 36.2063 22.2046C 36.9387 23.0021 37.8665 23.4009 38.9895 23.4009C 39.787 23.4009 40.4625 23.2381 41.0159 22.9126C 41.5693 22.5871 42.0535 22.1558 42.4685 21.6187L 43.8479 22.6929C 42.7411 24.3937 41.081 25.2441 38.8674 25.2441ZM 38.5867 13.4033C 37.6752 13.4033 36.9102 13.737 36.2917 14.4043C 35.6733 15.0635 35.2908 15.9912 35.1443 17.1875L 41.7605 17.1875L 41.7605 17.0166C 41.6954 15.8691 41.3861 14.9821 40.8328 14.3555C 40.2794 13.7207 39.5307 13.4033 38.5867 13.4033ZM 46.7576 18.2861C 46.7576 16.2272 47.2337 14.5915 48.1859 13.3789C 49.138 12.1582 50.3994 11.5479 51.97 11.5479C 53.5814 11.5479 54.8387 12.1175 55.742 13.2568L 55.8519 11.792L 57.9149 11.792L 57.9149 24.6826C 57.9149 26.3916 57.4062 27.7384 56.389 28.7231C 55.3799 29.7078 54.0208 30.2002 52.3118 30.2002C 51.3597 30.2002 50.4279 29.9967 49.5164 29.5898C 48.605 29.1829 47.9092 28.6255 47.429 27.9175L 48.6009 26.5625C 49.5693 27.7588 50.7534 28.3569 52.1531 28.3569C 53.2518 28.3569 54.1063 28.0477 54.7166 27.4292C 55.3351 26.8107 55.6443 25.9399 55.6443 24.8169L 55.6443 23.6816C 54.741 24.7233 53.5081 25.2441 51.9456 25.2441C 50.3994 25.2441 49.1461 24.6216 48.1859 23.3765C 47.2337 22.1313 46.7576 20.4346 46.7576 18.2861ZM 49.0281 18.5425C 49.0281 20.0317 49.3333 21.2036 49.9437 22.0581C 50.554 22.9045 51.4085 23.3276 52.5071 23.3276C 53.9313 23.3276 54.977 22.6807 55.6443 21.3867L 55.6443 15.3564C 54.9526 14.0951 53.915 13.4644 52.5316 13.4644C 51.4329 13.4644 50.5744 13.8916 49.9559 14.7461C 49.3374 15.6006 49.0281 16.866 49.0281 18.5425ZM 61.3861 18.2739C 61.3861 16.98 61.6384 15.8162 62.1429 14.7827C 62.6556 13.7492 63.3637 12.9517 64.267 12.3901C 65.1784 11.8286 66.216 11.5479 67.3798 11.5479C 69.1783 11.5479 70.6309 12.1704 71.7377 13.4155C 72.8526 14.6606 73.41 16.3167 73.41 18.3838L 73.41 18.5425C 73.41 19.8283 73.1618 20.9839 72.6654 22.0093C 72.1771 23.0265 71.4732 23.82 70.5536 24.3896C 69.6421 24.9593 68.5923 25.2441 67.4042 25.2441C 65.6138 25.2441 64.1612 24.6216 63.0463 23.3765C 61.9395 22.1313 61.3861 20.4834 61.3861 18.4326L 61.3861 18.2739ZM 63.6566 18.5425C 63.6566 20.0073 63.9943 21.1833 64.6698 22.0703C 65.3534 22.9574 66.2649 23.4009 67.4042 23.4009C 68.5516 23.4009 69.4631 22.9533 70.1386 22.0581C 70.814 21.1548 71.1517 19.8934 71.1517 18.2739C 71.1517 16.8254 70.8059 15.6535 70.1141 14.7583C 69.4305 13.855 68.5191 13.4033 67.3798 13.4033C 66.2649 13.4033 65.3656 13.8468 64.682 14.7339C 63.9984 15.6209 63.6566 16.8905 63.6566 18.5425ZM 85.0478 23.6938C 84.1689 24.7274 82.879 25.2441 81.1782 25.2441C 79.7703 25.2441 78.6961 24.8372 77.9555 24.0234C 77.2231 23.2015 76.8528 21.9889 76.8447 20.3857L 76.8447 11.792L 79.103 11.792L 79.103 20.3247C 79.103 22.3267 79.9168 23.3276 81.5444 23.3276C 83.2696 23.3276 84.4171 22.6847 84.9868 21.3989L 84.9868 11.792L 87.2451 11.792L 87.2451 25L 85.0966 25L 85.0478 23.6938ZM 113.476 16.022C 113.476 17.9028 113.16 19.5464 112.527 20.9526C 111.894 22.3501 110.998 23.418 109.837 24.1562C 108.677 24.8945 107.324 25.2637 105.777 25.2637C 104.265 25.2637 102.925 24.8945 101.756 24.1562C 100.587 23.4092 99.6773 22.3501 99.0269 20.979C 98.3853 19.5991 98.0557 18.0039 98.0382 16.1934L 98.0382 14.8091C 98.0382 12.9634 98.359 11.333 99.0006 9.91797C 99.6422 8.50293 100.547 7.42188 101.716 6.6748C 102.894 5.91895 104.239 5.54102 105.751 5.54102C 107.289 5.54102 108.642 5.91455 109.811 6.66162C 110.989 7.3999 111.894 8.47656 112.527 9.8916C 113.16 11.2979 113.476 12.937 113.476 14.8091L 113.476 16.022ZM 110.958 14.7827C 110.958 12.5063 110.501 10.7617 109.587 9.54883C 108.673 8.32715 107.394 7.71631 105.751 7.71631C 104.151 7.71631 102.89 8.32715 101.967 9.54883C 101.053 10.7617 100.583 12.4492 100.556 14.6113L 100.556 16.022C 100.556 18.228 101.018 19.9639 101.94 21.2295C 102.872 22.4863 104.151 23.1147 105.777 23.1147C 107.412 23.1147 108.677 22.5215 109.574 21.335C 110.47 20.1396 110.932 18.4302 110.958 16.2065L 110.958 14.7827ZM 135.873 19.9902L 127.831 19.9902L 126.025 25L 123.414 25L 130.744 5.80469L 132.959 5.80469L 140.302 25L 137.705 25L 135.873 19.9902ZM 128.595 17.9072L 135.121 17.9072L 131.852 8.9292L 128.595 17.9072ZM 146.069 17.4854L 146.069 25L 143.538 25L 143.538 5.80469L 150.617 5.80469C 152.718 5.80469 154.362 6.34082 155.548 7.41309C 156.743 8.48535 157.341 9.90479 157.341 11.6714C 157.341 13.5347 156.757 14.9717 155.588 15.9824C 154.427 16.9844 152.762 17.4854 150.591 17.4854L 146.069 17.4854ZM 146.069 15.4155L 150.617 15.4155C 151.971 15.4155 153.008 15.0991 153.729 14.4663C 154.449 13.8247 154.81 12.9019 154.81 11.6978C 154.81 10.5552 154.449 9.64111 153.729 8.95557C 153.008 8.27002 152.019 7.91406 150.762 7.8877L 146.069 7.8877L 146.069 15.4155ZM 163.754 17.4854L 163.754 25L 161.222 25L 161.222 5.80469L 168.302 5.80469C 170.403 5.80469 172.046 6.34082 173.233 7.41309C 174.428 8.48535 175.026 9.90479 175.026 11.6714C 175.026 13.5347 174.441 14.9717 173.272 15.9824C 172.112 16.9844 170.447 17.4854 168.276 17.4854L 163.754 17.4854ZM 163.754 15.4155L 168.302 15.4155C 169.656 15.4155 170.693 15.0991 171.413 14.4663C 172.134 13.8247 172.494 12.9019 172.494 11.6978C 172.494 10.5552 172.134 9.64111 171.413 8.95557C 170.693 8.27002 169.704 7.91406 168.447 7.8877L 163.754 7.8877L 163.754 15.4155Z"/>
</defs>
</svg>
