<?xml version="1.0" encoding="UTF-8"?>
<svg width="203px" height="199px" viewBox="0 0 203 199" version="1.1" xmlns="http://www.w3.org/2000/svg" xmlns:xlink="http://www.w3.org/1999/xlink" xmlns:sketch="http://www.bohemiancoding.com/sketch/ns">
    <!-- Generator: Sketch 3.4.4 (17249) - http://www.bohemiancoding.com/sketch -->
    <title>Page-1</title>
    <desc>Created with Sketch.</desc>
    <defs></defs>
    <g id="Page-1" stroke="none" stroke-width="1" fill="none" fill-rule="evenodd" sketch:type="MSPage">
        <g id="desktop" sketch:type="MSLayerGroup" transform="translate(-979.000000, -212.000000)">
            <g id="Desktop-HD" sketch:type="MSShapeGroup">
                <g id="Web">
                    <g id="Desktop-HD">
                        <g id="Group-10" transform="translate(761.000000, 212.000000)">
                            <g id="Group-9" transform="translate(82.000000, 0.000000)">
                                <g id="Page-1" transform="translate(136.000000, 0.000000)">
                                    <path d="M103.971036,8.31947368 C153.393627,8.31947368 193.518555,48.3715789 193.518555,97.7044737 C193.518555,147.037368 153.393627,187.089474 103.971036,187.089474 C54.5484455,187.089474 14.4235182,147.037368 14.4235182,97.7044737 C14.4235182,48.3715789 54.5484455,8.31947368 103.971036,8.31947368 L103.971036,8.31947368 Z" id="Fill-1" fill="#9ADA77"></path>
                                    <path d="M103.971036,8.31947368 C153.393627,8.31947368 193.518555,48.3715789 193.518555,97.7044737 C193.518555,147.037368 153.393627,187.089474 103.971036,187.089474 C54.5484455,187.089474 14.4235182,147.037368 14.4235182,97.7044737 C14.4235182,48.3715789 54.5484455,8.31947368 103.971036,8.31947368 L103.971036,8.31947368 Z" id="Stroke-2" stroke="#9ADA77" stroke-width="0.24"></path>
                                    <path d="M24.9262636,136.480526 C31.8749273,156.136579 38.6915091,175.768947 48.1457727,195.874474 C52.7876182,198.863947 57.6714818,198.800526 62.7818091,195.874474 C68.107,189.818684 71.1085,183.672368 72.3294,177.456842 L24.9262636,136.480526 L24.9262636,136.480526 Z" id="Fill-3" fill="#9ADA77"></path>
                                    <path d="M24.9262636,136.480526 C31.8749273,156.136579 38.6915091,175.768947 48.1457727,195.874474 C52.7876182,198.863947 57.6714818,198.800526 62.7818091,195.874474 C68.107,189.818684 71.1085,183.672368 72.3294,177.456842 L24.9262636,136.480526 L24.9262636,136.480526 Z" id="Stroke-4" stroke="#9ADA77" stroke-width="0.24"></path>
                                    <path d="M184.2607,136.480526 C177.312036,156.136579 170.495455,175.768947 161.041191,195.874474 C156.399345,198.863947 151.515482,198.800526 146.405155,195.874474 C141.079964,189.818684 138.078464,183.672368 136.857564,177.456842 L184.2607,136.480526 L184.2607,136.480526 Z" id="Fill-5" fill="#9ADA77"></path>
                                    <path d="M184.2607,136.480526 C177.312036,156.136579 170.495455,175.768947 161.041191,195.874474 C156.399345,198.863947 151.515482,198.800526 146.405155,195.874474 C141.079964,189.818684 138.078464,183.672368 136.857564,177.456842 L184.2607,136.480526 L184.2607,136.480526 Z" id="Stroke-6" stroke="#9ADA77" stroke-width="0.24"></path>
                                    <path d="M192.197473,83.5939474 C195.951391,87.3810526 199.228391,91.7155263 201.275264,97.4634211 C202.228573,104.184211 202.1682,109.788947 201.275264,114.476579 C198.935755,112.882105 196.863045,112.043421 195.161536,112.257632 C196.743355,114.984737 197.495509,118.171842 198.612536,122.998158 L198.355491,135.331316 C192.980736,132.229211 186.744418,133.134211 180.340691,134.818421 L192.197473,83.5939474 L192.197473,83.5939474 Z" id="Fill-7" fill="#9ADA77"></path>
                                    <path d="M192.197473,83.5939474 C195.951391,87.3810526 199.228391,91.7155263 201.275264,97.4634211 C202.228573,104.184211 202.1682,109.788947 201.275264,114.476579 C198.935755,112.882105 196.863045,112.043421 195.161536,112.257632 C196.743355,114.984737 197.495509,118.171842 198.612536,122.998158 L198.355491,135.331316 C192.980736,132.229211 186.744418,133.134211 180.340691,134.818421 L192.197473,83.5939474 L192.197473,83.5939474 Z" id="Stroke-8" stroke="#9ADA77" stroke-width="0.24"></path>
                                    <path d="M22.3990455,62.8294737 C17.6390909,65.2397368 13.1585909,68.3197368 9.3986091,73.1284211 C6.36810909,79.205 4.65262727,84.5421053 4.01726364,89.2713158 C6.74141818,88.4957895 8.97336364,88.3531579 10.5201182,89.0926316 C8.15661818,91.1818421 6.43480909,93.9686842 3.84853636,98.1960526 L0.19110909,109.979474 C6.27240909,108.73 11.9034182,111.553947 17.4469,115.170526 L22.3990455,62.8294737 L22.3990455,62.8294737 Z" id="Fill-9" fill="#9ADA77"></path>
                                    <path d="M22.3990455,62.8294737 C17.6390909,65.2397368 13.1585909,68.3197368 9.3986091,73.1284211 C6.36810909,79.205 4.65262727,84.5421053 4.01726364,89.2713158 C6.74141818,88.4957895 8.97336364,88.3531579 10.5201182,89.0926316 C8.15661818,91.1818421 6.43480909,93.9686842 3.84853636,98.1960526 L0.19110909,109.979474 C6.27240909,108.73 11.9034182,111.553947 17.4469,115.170526 L22.3990455,62.8294737 L22.3990455,62.8294737 Z" id="Stroke-10" stroke="#9ADA77" stroke-width="0.24"></path>
                                    <path d="M103.631209,8.50868421 C108.640564,4.68026316 114.601118,1.74289474 122.174073,0.315789474 C119.411955,3.93026316 117.909491,7.52605263 118.667445,11.0886842 C124.769309,5.54657895 131.555045,1.84394737 139.424327,1.05473684 C136.518264,5.80763158 135.288927,10.5360526 136.101455,15.2344737 C139.291718,13.8181579 142.9009,13.2836842 147.079273,13.9468421 C149.995882,15.0339474 151.706091,16.4897368 152.336709,18.2752632 C147.257227,18.8763158 143.704991,20.5044737 140.712982,22.5094737 L102.154845,12.1915789 L103.631209,8.50868421 L103.631209,8.50868421 Z" id="Fill-11" fill="#9ADA77"></path>
                                    <path d="M103.631209,8.50868421 C108.640564,4.68026316 114.601118,1.74289474 122.174073,0.315789474 C119.411955,3.93026316 117.909491,7.52605263 118.667445,11.0886842 C124.769309,5.54657895 131.555045,1.84394737 139.424327,1.05473684 C136.518264,5.80763158 135.288927,10.5360526 136.101455,15.2344737 C139.291718,13.8181579 142.9009,13.2836842 147.079273,13.9468421 C149.995882,15.0339474 151.706091,16.4897368 152.336709,18.2752632 C147.257227,18.8763158 143.704991,20.5044737 140.712982,22.5094737 L102.154845,12.1915789 L103.631209,8.50868421 L103.631209,8.50868421 Z" id="Stroke-12" stroke="#9ADA77" stroke-width="0.24"></path>
                                    <path d="M71.4114182,181.125 C70.6141818,183.603947 69.6463727,185.963684 68.4534182,187.972368 L55.3214273,174.772105 L71.4114182,181.125 L71.4114182,181.125 Z" id="Fill-13" fill="#9ADA77"></path>
                                    <path d="M71.4114182,181.125 C70.6141818,183.603947 69.6463727,185.963684 68.4534182,187.972368 L55.3214273,174.772105 L71.4114182,181.125 L71.4114182,181.125 Z" id="Stroke-14" stroke="#9ADA77" stroke-width="0.24"></path>
                                    <path d="M137.623691,180.730789 C138.421191,183.209474 139.388736,185.569211 140.581955,187.577895 L153.713945,174.377632 L137.623691,180.730789 L137.623691,180.730789 Z" id="Fill-15" fill="#9ADA77"></path>
                                    <path d="M137.623691,180.730789 C138.421191,183.209474 139.388736,185.569211 140.581955,187.577895 L153.713945,174.377632 L137.623691,180.730789 L137.623691,180.730789 Z" id="Stroke-16" stroke="#9ADA77" stroke-width="0.24"></path>
                                    <path d="M106.674627,42.4465789 C129.216591,42.4465789 147.517964,60.7147368 147.517964,83.2160526 C147.517964,105.717105 129.216591,123.985263 106.674627,123.985263 C84.1324,123.985263 65.8310273,105.717105 65.8310273,83.2160526 C65.8310273,60.7147368 84.1324,42.4465789 106.674627,42.4465789 L106.674627,42.4465789 Z" id="Fill-17" fill="#EEEEEE"></path>
                                    <path d="M131.676318,82.7389474 C131.676318,96.1855263 120.739364,107.102632 107.268336,107.102632 C93.7973091,107.102632 82.8606182,96.1855263 82.8606182,82.7389474 C82.8606182,69.2923684 93.7973091,58.3755263 107.268336,58.3755263 C120.739364,58.3755263 131.676318,69.2923684 131.676318,82.7389474 Z" id="Fill-18" fill="#1A1A1B"></path>
                                    <path d="M107.268336,58.3755263 C120.739364,58.3755263 131.676318,69.2923684 131.676318,82.7389474 C131.676318,96.1855263 120.739364,107.102632 107.268336,107.102632 C93.7973091,107.102632 82.8606182,96.1855263 82.8606182,82.7389474 C82.8606182,69.2923684 93.7973091,58.3755263 107.268336,58.3755263 L107.268336,58.3755263 Z" id="Stroke-19" stroke="#1A1A1B" stroke-width="0.24"></path>
                                    <path d="M123.017709,52.5586842 C130.942882,52.5586842 137.377191,58.9813158 137.377191,66.8923684 C137.377191,74.8031579 130.942882,81.2257895 123.017709,81.2257895 C115.092273,81.2257895 108.657964,74.8031579 108.657964,66.8923684 C108.657964,58.9813158 115.092273,52.5586842 123.017709,52.5586842 L123.017709,52.5586842 Z" id="Fill-20" fill="#F9F9F9"></path>
                                    <path d="M101.079473,131.807105 C105.272082,131.807105 108.675891,135.204737 108.675891,139.389737 C108.675891,143.574474 105.272082,146.972105 101.079473,146.972105 C96.8868636,146.972105 93.4830545,143.574474 93.4830545,139.389737 C93.4830545,135.204737 96.8868636,131.807105 101.079473,131.807105 L101.079473,131.807105 Z" id="Fill-21" fill="#A82670"></path>
                                    <path d="M101.079473,131.807105 C105.272082,131.807105 108.675891,135.204737 108.675891,139.389737 C108.675891,143.574474 105.272082,146.972105 101.079473,146.972105 C96.8868636,146.972105 93.4830545,143.574474 93.4830545,139.389737 C93.4830545,135.204737 96.8868636,131.807105 101.079473,131.807105 L101.079473,131.807105 Z" id="Stroke-22" stroke="#A82670" stroke-width="0.24"></path>
                                </g>
                            </g>
                        </g>
                    </g>
                </g>
            </g>
        </g>
    </g>
</svg>