<svg width="142" height="140" viewBox="0 0 142 140" version="1.1" xmlns="http://www.w3.org/2000/svg" xmlns:xlink="http://www.w3.org/1999/xlink">
<title>Group 68</title>
<desc>Created using Figma</desc>
<g id="Canvas" transform="translate(-525 -1620)">
<g id="Group 68">
<g id="Fill 112">
<use xlink:href="#path0_fill" transform="translate(525.237 1664.72)" fill="#79CE4D"/>
</g>
<g id="Stroke 113">
<use xlink:href="#path1_stroke" transform="translate(525.237 1664.72)" fill="#79CE4D"/>
</g>
<g id="Fill 104">
<use xlink:href="#path2_fill" transform="translate(535.192 1626.56)" fill="#79CE4D"/>
</g>
<g id="Stroke 105">
<use xlink:href="#path3_stroke" transform="translate(535.192 1626.56)" fill="#79CE4D"/>
</g>
<g id="Fill 106">
<use xlink:href="#path4_fill" transform="translate(542.54 1716.27)" fill="#79CE4D"/>
</g>
<g id="Stroke 107">
<use xlink:href="#path5_stroke" transform="translate(542.54 1716.27)" fill="#79CE4D"/>
</g>
<g id="Fill 108">
<use xlink:href="#path6_fill" transform="translate(620.835 1716.27)" fill="#79CE4D"/>
</g>
<g id="Stroke 109">
<use xlink:href="#path7_stroke" transform="translate(620.835 1716.27)" fill="#79CE4D"/>
</g>
<g id="Fill 110">
<use xlink:href="#path8_fill" transform="translate(651.253 1679.25)" fill="#79CE4D"/>
</g>
<g id="Stroke 111">
<use xlink:href="#path9_stroke" transform="translate(651.253 1679.25)" fill="#79CE4D"/>
</g>
<g id="Fill 114">
<use xlink:href="#path10_fill" transform="translate(596.561 1620.96)" fill="#79CE4D"/>
</g>
<g id="Stroke 115">
<use xlink:href="#path11_stroke" transform="translate(596.561 1620.96)" fill="#79CE4D"/>
</g>
<g id="Fill 116">
<use xlink:href="#path12_fill" transform="translate(563.801 1743.08)" fill="#4A8C27"/>
</g>
<g id="Stroke 117">
<use xlink:href="#path13_stroke" transform="translate(563.801 1743.08)" fill="#4A8D26"/>
</g>
<g id="Fill 118">
<use xlink:href="#path14_fill" transform="translate(621.372 1742.8)" fill="#4A8C27"/>
</g>
<g id="Stroke 119">
<use xlink:href="#path15_stroke" transform="translate(621.372 1742.8)" fill="#4A8D26"/>
</g>
<g id="Fill 120">
<use xlink:href="#path16_fill" transform="translate(571.152 1650.45)" fill="#EEEEEE"/>
</g>
<g id="Fill 121">
<use xlink:href="#path17_fill" transform="translate(583.065 1661.6)" fill="#1A1A1B"/>
</g>
<g id="Stroke 122">
<use xlink:href="#path18_stroke" transform="translate(583.065 1661.6)" fill="#1A1A1B"/>
</g>
<g id="Fill 123">
<use xlink:href="#path19_fill" transform="translate(601.11 1657.53)" fill="#F9F9F9"/>
</g>
<g id="Fill 124">
<use xlink:href="#path20_fill" transform="translate(579.856 1716.93)" fill="#A82670"/>
</g>
<g id="Stroke 125">
<use xlink:href="#path21_stroke" transform="translate(579.856 1716.93)" fill="#A82670"/>
</g>
</g>
</g>
<defs>
<path id="path0_fill" fill-rule="evenodd" d="M 15.5346 0C 12.205 1.68737 9.07085 3.84447 6.44053 7.21C 4.32086 11.4634 3.12086 15.1992 2.67624 18.5095C 4.58181 17.9679 6.14325 17.8684 7.22503 18.3842C 5.57175 19.8468 4.36751 21.7976 2.55821 24.7579L 0 33.0068C 4.25391 32.1318 8.19266 34.1084 12.0704 36.6395L 15.5346 0Z"/>
<path id="path1_stroke" d="M 15.5346 0L 15.6541 0.0112956C 15.6582 -0.0322348 15.6383 -0.0745584 15.6022 -0.0991751C 15.566 -0.123792 15.5194 -0.126805 15.4804 -0.10704L 15.5346 0ZM 6.44053 7.21L 6.34598 7.13611C 6.34102 7.14245 6.33672 7.14927 6.33313 7.15648L 6.44053 7.21ZM 2.67624 18.5095L 2.55731 18.4935C 2.55192 18.5336 2.5671 18.5737 2.59768 18.6002C 2.62826 18.6267 2.67013 18.636 2.70904 18.6249L 2.67624 18.5095ZM 7.22503 18.3842L 7.30455 18.4741C 7.3347 18.4474 7.34947 18.4074 7.34386 18.3675C 7.33826 18.3276 7.31303 18.2932 7.27668 18.2759L 7.22503 18.3842ZM 2.55821 24.7579L 2.45582 24.6953C 2.45065 24.7038 2.44654 24.7129 2.4436 24.7223L 2.55821 24.7579ZM 0 33.0068L -0.114615 32.9713C -0.127187 33.0118 -0.117409 33.056 -0.0889013 33.0874C -0.0603933 33.1189 -0.0173958 33.1329 0.024177 33.1244L 0 33.0068ZM 12.0704 36.6395L 12.0048 36.74C 12.04 36.7629 12.0846 36.7658 12.1225 36.7476C 12.1603 36.7293 12.1859 36.6926 12.1898 36.6508L 12.0704 36.6395ZM 15.4804 -0.10704C 12.1437 1.58419 8.98861 3.75709 6.34598 7.13611L 6.53508 7.2839C 9.15309 3.93186 12.2663 1.79054 15.5889 0.10704L 15.4804 -0.10704ZM 6.33313 7.15648C 4.20971 11.4182 3.00381 15.1728 2.55731 18.4935L 2.79517 18.5254C 3.23792 15.2257 4.432 11.5087 6.54793 7.26352L 6.33313 7.15648ZM 2.70904 18.6249C 4.60953 18.0848 6.13357 17.9967 7.17339 18.4925L 7.27668 18.2759C 6.15293 17.7401 4.55409 17.851 2.64343 18.394L 2.70904 18.6249ZM 7.14552 18.2943C 5.47995 19.7696 4.26526 21.7348 2.45582 24.6953L 2.6606 24.8205C 4.46977 21.8604 5.66355 19.9241 7.30455 18.4741L 7.14552 18.2943ZM 2.4436 24.7223L -0.114615 32.9713L 0.114615 33.0424L 2.67283 24.7934L 2.4436 24.7223ZM 0.024177 33.1244C 4.22646 32.26 8.12811 34.2096 12.0048 36.74L 12.136 36.539C 8.25722 34.0073 4.28137 32.0037 -0.024177 32.8893L 0.024177 33.1244ZM 12.1898 36.6508L 15.6541 0.0112956L 15.4151 -0.0112956L 11.9509 36.6282L 12.1898 36.6508Z"/>
<path id="path2_fill" fill-rule="evenodd" d="M 62.639 0C 97.2114 0 125.278 28.0368 125.278 62.5689C 125.278 97.1029 97.2114 125.138 62.639 125.138C 28.0684 125.138 0 97.1029 0 62.5689C 0 28.0368 28.0684 0 62.639 0Z"/>
<path id="path3_stroke" d="M 62.639 0.12C 97.1452 0.12 125.158 28.1032 125.158 62.5689L 125.398 62.5689C 125.398 27.9704 97.2775 -0.12 62.639 -0.12L 62.639 0.12ZM 125.158 62.5689C 125.158 97.0365 97.1452 125.018 62.639 125.018L 62.639 125.258C 97.2775 125.258 125.398 97.1693 125.398 62.5689L 125.158 62.5689ZM 62.639 125.018C 28.1346 125.018 0.12 97.0365 0.12 62.5689L -0.12 62.5689C -0.12 97.1693 28.0023 125.258 62.639 125.258L 62.639 125.018ZM 0.12 62.5689C 0.12 28.1032 28.1346 0.12 62.639 0.12L 62.639 -0.12C 28.0023 -0.12 -0.12 27.9704 -0.12 62.5689L 0.12 62.5689Z"/>
<path id="path4_fill" fill-rule="evenodd" d="M 0 0C 4.85935 13.7587 9.62834 27.5026 16.2415 41.5763C 19.489 43.6682 22.9044 43.6238 26.4802 41.5763C 30.2036 37.3358 32.3041 33.0345 33.1579 28.6834L 0 0Z"/>
<path id="path5_stroke" d="M 0 0L 0.0785081 -0.090755C 0.0373394 -0.126368 -0.0226441 -0.129809 -0.0676152 -0.0991372C -0.112586 -0.0684653 -0.131278 -0.0113648 -0.11315 0.0399629L 0 0ZM 16.2415 41.5763L 16.1329 41.6273C 16.1424 41.6477 16.1576 41.665 16.1765 41.6772L 16.2415 41.5763ZM 26.4802 41.5763L 26.5399 41.6805C 26.5514 41.6739 26.5617 41.6654 26.5704 41.6555L 26.4802 41.5763ZM 33.1579 28.6834L 33.2757 28.7065C 33.284 28.6643 33.269 28.6208 33.2364 28.5927L 33.1579 28.6834ZM -0.11315 0.0399629C 4.74609 13.7983 9.51719 27.5479 16.1329 41.6273L 16.3501 41.5253C 9.73948 27.4574 4.97261 13.719 0.11315 -0.0399629L -0.11315 0.0399629ZM 16.1765 41.6772C 19.4662 43.7963 22.93 43.7474 26.5399 41.6805L 26.4206 41.4722C 22.8788 43.5002 19.5118 43.5402 16.3065 41.4754L 16.1765 41.6772ZM 26.5704 41.6555C 30.3035 37.4023 32.4178 33.0727 33.2757 28.7065L 33.0402 28.6603C 32.1903 32.9963 30.1037 37.2693 26.3901 41.4971L 26.5704 41.6555ZM 33.2364 28.5927L 0.0785081 -0.090755L -0.0785081 0.090755L 33.0794 28.7742L 33.2364 28.5927Z"/>
<path id="path6_fill" fill-rule="evenodd" d="M 33.1598 0C 28.2986 13.7587 23.5296 27.5026 16.9164 41.5763C 13.6707 43.6682 10.2535 43.6238 6.67953 41.5763C 2.95434 37.3358 0.853844 33.0345 0 28.6834L 33.1598 0Z"/>
<path id="path7_stroke" d="M 33.1598 0L 33.2729 0.0399764C 33.291 -0.0113511 33.2724 -0.0684559 33.2274 -0.0991323C 33.1824 -0.129809 33.1224 -0.126371 33.0813 -0.0907572L 33.1598 0ZM 16.9164 41.5763L 16.9814 41.6772C 17.0004 41.665 17.0155 41.6477 17.025 41.6273L 16.9164 41.5763ZM 6.67953 41.5763L 6.58938 41.6555C 6.5981 41.6654 6.60841 41.6739 6.61988 41.6804L 6.67953 41.5763ZM 0 28.6834L -0.0785056 28.5927C -0.111067 28.6208 -0.126045 28.6643 -0.117754 28.7065L 0 28.6834ZM 33.0466 -0.0399764C 28.1853 13.719 23.4184 27.4574 16.8078 41.5253L 17.025 41.6273C 23.6407 27.5479 28.4118 13.7983 33.2729 0.0399764L 33.0466 -0.0399764ZM 16.8514 41.4755C 13.6479 43.5401 10.2791 43.5002 6.73918 41.4722L 6.61988 41.6804C 10.2279 43.7474 13.6935 43.7963 16.9814 41.6772L 16.8514 41.4755ZM 6.76969 41.4971C 3.05421 37.2693 0.9676 32.9963 0.117754 28.6603L -0.117754 28.7065C 0.740089 33.0727 2.85446 37.4023 6.58938 41.6555L 6.76969 41.4971ZM 0.0785056 28.7742L 33.2383 0.0907572L 33.0813 -0.0907572L -0.0785056 28.5927L 0.0785056 28.7742Z"/>
<path id="path8_fill" fill-rule="evenodd" d="M 8.29317 0C 10.9192 2.65079 13.2115 5.68474 14.6444 9.70789C 15.3102 14.4126 15.2678 18.3363 14.6444 21.6171C 13.0068 20.5026 11.5573 19.915 10.3678 20.0642C 11.4743 21.9726 11.9999 24.2053 12.7818 27.5837L 12.6011 36.2158C 8.84088 34.0439 4.47945 34.6776 0 35.8566L 8.29317 0Z"/>
<path id="path9_stroke" d="M 8.29317 0L 8.37842 -0.0844545C 8.34765 -0.115509 8.30244 -0.127377 8.26039 -0.115435C 8.21834 -0.103493 8.18611 -0.0696295 8.17626 -0.0270406L 8.29317 0ZM 14.6444 9.70789L 14.7633 9.69108C 14.7621 9.68309 14.7602 9.67523 14.7575 9.66763L 14.6444 9.70789ZM 14.6444 21.6171L 14.5769 21.7163C 14.6104 21.7391 14.653 21.7434 14.6904 21.728C 14.7277 21.7125 14.7548 21.6792 14.7623 21.6395L 14.6444 21.6171ZM 10.3678 20.0642L 10.3529 19.9451C 10.313 19.9502 10.2782 19.9748 10.2603 20.0109C 10.2425 20.047 10.2438 20.0896 10.264 20.1244L 10.3678 20.0642ZM 12.7818 27.5837L 12.9018 27.5862C 12.902 27.5763 12.901 27.5663 12.8988 27.5566L 12.7818 27.5837ZM 12.6011 36.2158L 12.5411 36.3197C 12.5778 36.3409 12.6231 36.3412 12.66 36.3203C 12.697 36.2995 12.7202 36.2607 12.7211 36.2183L 12.6011 36.2158ZM 0 35.8566L -0.116914 35.8295C -0.126386 35.8705 -0.113737 35.9134 -0.0835678 35.9427C -0.0533991 35.972 -0.0101108 35.9833 0.0305427 35.9726L 0 35.8566ZM 8.20792 0.0844545C 10.8285 2.72936 13.1059 5.7417 14.5314 9.74816L 14.7575 9.66763C 13.3172 5.62777 11.0099 2.57222 8.37842 -0.0844545L 8.20792 0.0844545ZM 14.5256 9.72471C 15.1904 14.4204 15.1484 18.3244 14.5266 21.5947L 14.7623 21.6395C 15.3872 18.3482 15.4299 14.4049 14.7633 9.69108L 14.5256 9.72471ZM 14.712 21.5179C 13.0701 20.4005 11.5886 19.7901 10.3529 19.9451L 10.3828 20.1833C 11.526 20.0399 12.9436 20.6047 14.5769 21.7163L 14.712 21.5179ZM 10.264 20.1244C 11.3628 22.017 11.8831 24.2325 12.6649 27.6107L 12.8988 27.5566C 12.1168 24.178 11.5859 21.9283 10.4717 20.004L 10.264 20.1244ZM 12.6619 27.5812L 12.4811 36.2133L 12.7211 36.2183L 12.9018 27.5862L 12.6619 27.5812ZM 12.6611 36.1119C 8.85525 33.9137 4.45009 34.5613 -0.0305427 35.7405L 0.0305427 35.9726C 4.50882 34.794 8.82652 34.1742 12.5411 36.3197L 12.6611 36.1119ZM 0.116914 35.8836L 8.41008 0.0270406L 8.17626 -0.0270406L -0.116914 35.8295L 0.116914 35.8836Z"/>
<path id="path10_fill" fill-rule="evenodd" d="M 1.03273 5.73632C 4.53662 3.05605 8.70626 1.00026 14.0045 0C 12.0718 2.53105 11.0207 5.04737 11.5518 7.54158C 15.8192 3.66211 20.566 1.07026 26.0708 0.517632C 24.0386 3.84447 23.1774 7.15474 23.7472 10.4429C 25.9786 9.45184 28.5033 9.0779 31.4244 9.54211C 33.4659 10.3029 34.6609 11.3216 35.1035 12.5724C 31.5498 12.9924 29.0657 14.1326 26.9726 15.5363L 0 8.31342L 1.03273 5.73632Z"/>
<path id="path11_stroke" d="M 1.03273 5.73632L 0.959819 5.641C 0.942666 5.65412 0.929371 5.67163 0.921338 5.69168L 1.03273 5.73632ZM 14.0045 0L 14.0999 0.0728266C 14.1301 0.0333235 14.1327 -0.0206865 14.1067 -0.0629909C 14.0806 -0.105295 14.0311 -0.127138 13.9823 -0.117917L 14.0045 0ZM 11.5518 7.54158L 11.4344 7.56657C 11.4434 7.6086 11.4741 7.64263 11.515 7.6558C 11.5559 7.66897 11.6007 7.65927 11.6325 7.63037L 11.5518 7.54158ZM 26.0708 0.517632L 26.1732 0.580187C 26.197 0.541308 26.1967 0.492333 26.1724 0.453763C 26.1482 0.415193 26.1042 0.393681 26.0588 0.398232L 26.0708 0.517632ZM 23.7472 10.4429L 23.629 10.4634C 23.6353 10.4998 23.658 10.5313 23.6907 10.5487C 23.7233 10.5662 23.7621 10.5676 23.7959 10.5526L 23.7472 10.4429ZM 31.4244 9.54211L 31.4663 9.42966C 31.4589 9.42688 31.4511 9.42484 31.4432 9.42359L 31.4244 9.54211ZM 35.1035 12.5724L 35.1176 12.6915C 35.1538 12.6873 35.1861 12.6667 35.2054 12.6358C 35.2247 12.6048 35.2288 12.5667 35.2166 12.5323L 35.1035 12.5724ZM 26.9726 15.5363L 26.9416 15.6522C 26.975 15.6612 27.0107 15.6553 27.0395 15.636L 26.9726 15.5363ZM 0 8.31342L -0.111389 8.26878C -0.124155 8.30064 -0.12267 8.33644 -0.107312 8.36713C -0.0919536 8.39781 -0.0641906 8.42046 -0.0310406 8.42934L 0 8.31342ZM 1.10564 5.83163C 4.59991 3.15801 8.74427 1.11408 14.0268 0.117917L 13.9823 -0.117917C 8.66825 0.886443 4.47334 2.9541 0.959819 5.641L 1.10564 5.83163ZM 13.9091 -0.0728266C 11.9689 2.46815 10.8924 5.02094 11.4344 7.56657L 11.6692 7.51659C 11.149 5.0738 12.1748 2.59395 14.0999 0.0728266L 13.9091 -0.0728266ZM 11.6325 7.63037C 15.8888 3.75985 20.6015 1.18491 26.0828 0.637031L 26.0588 0.398232C 20.5306 0.95562 15.7496 3.56436 11.4711 7.45279L 11.6325 7.63037ZM 25.9684 0.455076C 23.9255 3.79936 23.0528 7.13901 23.629 10.4634L 23.8654 10.4224C 23.3019 7.17046 24.1516 3.88959 26.1732 0.580187L 25.9684 0.455076ZM 23.7959 10.5526C 26.0121 9.56709 28.5026 9.19789 31.4056 9.66062L 31.4432 9.42359C 28.5039 8.9579 25.9452 9.3366 23.6985 10.3332L 23.7959 10.5526ZM 31.3825 9.65455C 33.4091 10.4098 34.5649 11.41 34.9904 12.6124L 35.2166 12.5323C 34.7569 11.2332 33.5227 10.196 31.4663 9.42966L 31.3825 9.65455ZM 35.0894 12.4532C 31.5174 12.8768 29.0071 14.0279 26.9058 15.4367L 27.0395 15.636C 29.1244 14.2373 31.5823 13.1079 35.1176 12.6915L 35.0894 12.4532ZM 27.0037 15.4204L 0.0310406 8.1975L -0.0310406 8.42934L 26.9416 15.6522L 27.0037 15.4204ZM 0.111389 8.35806L 1.14412 5.78095L 0.921338 5.69168L -0.111389 8.26878L 0.111389 8.35806Z"/>
<path id="path12_fill" fill-rule="evenodd" d="M 11.2549 4.44684C 10.6961 6.18211 10.0193 7.83263 9.18574 9.24L 0 0L 11.2549 4.44684Z"/>
<path id="path13_stroke" d="M 11.2549 4.44684L 11.3691 4.48362C 11.3885 4.42341 11.3578 4.35848 11.299 4.33524L 11.2549 4.44684ZM 9.18574 9.24L 9.10064 9.3246C 9.12682 9.35094 9.16372 9.36367 9.20057 9.35908C 9.23742 9.35449 9.27007 9.3331 9.28899 9.30115L 9.18574 9.24ZM 0 0L 0.0440954 -0.111605C -0.00874235 -0.132481 -0.068979 -0.113444 -0.100223 -0.0659946C -0.131468 -0.0185452 -0.125156 0.044312 -0.0851023 0.0846026L 0 0ZM 11.1407 4.41006C 10.5834 6.14092 9.91188 7.77915 9.08249 9.17885L 9.28899 9.30115C 10.1267 7.88611 10.8088 6.22329 11.3691 4.48362L 11.1407 4.41006ZM 9.27084 9.1554L 0.0851023 -0.0846026L -0.0851023 0.0846026L 9.10064 9.3246L 9.27084 9.1554ZM -0.0440954 0.111605L 11.2108 4.55845L 11.299 4.33524L 0.0440954 -0.111605L -0.0440954 0.111605Z"/>
<path id="path14_fill" fill-rule="evenodd" d="M 0 4.44684C 0.556935 6.18211 1.23374 7.83447 2.06914 9.24L 11.2549 0L 0 4.44684Z"/>
<path id="path15_stroke" d="M 0 4.44684L -0.0440954 4.33524C -0.102888 4.35847 -0.133578 4.42332 -0.114259 4.48351L 0 4.44684ZM 2.06914 9.24L 1.96599 9.30131C 1.98494 9.33321 2.01759 9.35454 2.05441 9.35909C 2.09123 9.36365 2.12809 9.35091 2.15425 9.3246L 2.06914 9.24ZM 11.2549 0L 11.34 0.0846026C 11.38 0.044312 11.3864 -0.0185452 11.3551 -0.0659946C 11.3239 -0.113444 11.2636 -0.132481 11.2108 -0.111605L 11.2549 0ZM -0.114259 4.48351C 0.444196 6.22321 1.12635 7.88802 1.96599 9.30131L 2.1723 9.17869C 1.34113 7.78093 0.669674 6.141 0.114259 4.41017L -0.114259 4.48351ZM 2.15425 9.3246L 11.34 0.0846026L 11.1698 -0.0846026L 1.98404 9.1554L 2.15425 9.3246ZM 11.2108 -0.111605L -0.0440954 4.33524L 0.0440954 4.55845L 11.299 0.111605L 11.2108 -0.111605Z"/>
<path id="path16_fill" fill-rule="evenodd" d="M 28.5715 0C 44.339 0 57.1412 12.7879 57.1412 28.5379C 57.1412 44.2897 44.339 57.0776 28.5715 57.0776C 12.8021 57.0776 0 44.2897 0 28.5379C 0 12.7879 12.8021 0 28.5715 0Z"/>
<path id="path17_fill" fill-rule="evenodd" d="M 17.0732 0C 26.495 0 34.1464 7.64105 34.1464 17.0542C 34.1464 26.4674 26.495 34.1084 17.0732 34.1084C 7.64956 34.1084 0 26.4674 0 17.0542C 0 7.64105 7.64956 0 17.0732 0Z"/>
<path id="path18_stroke" d="M 17.0732 0.12C 26.4288 0.12 34.0264 7.70746 34.0264 17.0542L 34.2664 17.0542C 34.2664 7.57464 26.5611 -0.12 17.0732 -0.12L 17.0732 0.12ZM 34.0264 17.0542C 34.0264 26.401 26.4288 33.9884 17.0732 33.9884L 17.0732 34.2284C 26.5611 34.2284 34.2664 26.5338 34.2664 17.0542L 34.0264 17.0542ZM 17.0732 33.9884C 7.71571 33.9884 0.12 26.401 0.12 17.0542L -0.12 17.0542C -0.12 26.5338 7.58341 34.2284 17.0732 34.2284L 17.0732 33.9884ZM 0.12 17.0542C 0.12 7.70745 7.71571 0.12 17.0732 0.12L 17.0732 -0.12C 7.58341 -0.12 -0.12 7.57465 -0.12 17.0542L 0.12 17.0542Z"/>
<path id="path19_fill" fill-rule="evenodd" d="M 10.0451 0C 15.5886 0 20.0884 4.49474 20.0884 10.0321C 20.0884 15.5713 15.5886 20.0661 10.0451 20.0661C 4.49974 20.0661 0 15.5713 0 10.0321C 0 4.49474 4.49974 0 10.0451 0Z"/>
<path id="path20_fill" fill-rule="evenodd" d="M 39.0998 12.0091C 36.778 7.25833 32.778 3.53543 27.8707 1.55885C 16.9035 -2.86036 4.42597 2.43754 0 13.3925C 4.42597 2.43754 16.9035 -2.86036 27.8707 1.55885C 32.778 3.53543 36.778 7.25833 39.0998 12.0091Z"/>
<path id="path21_stroke" d="M 38.5607 12.2726C 38.7062 12.5703 39.0655 12.6937 39.3632 12.5482C 39.661 12.4027 39.7844 12.0434 39.6389 11.7457L 38.5607 12.2726ZM 27.8707 1.55885L 27.6465 2.11537L 27.6466 2.1154L 27.8707 1.55885ZM -0.556313 13.1678C -0.680443 13.475 -0.532001 13.8247 -0.224758 13.9488C 0.0824849 14.073 0.432182 13.9245 0.556313 13.6173L -0.556313 13.1678ZM 27.8707 1.55885L 27.6465 2.11537L 27.6466 2.1154L 27.8707 1.55885ZM 39.6389 11.7457C 37.26 6.90101 33.0999 3.02907 28.0949 1.0023L 27.6466 2.1154C 32.4562 4.04179 36.296 7.61564 38.5607 12.2726L 39.6389 11.7457ZM 28.095 1.00233C 16.821 -3.54049 3.99387 1.90535 -0.556313 13.1678L 0.556313 13.6173C 4.85808 2.96973 16.9861 -2.18023 27.6465 2.11537L 28.095 1.00233ZM 0.556313 13.6173C 4.85808 2.96973 16.9861 -2.18023 27.6465 2.11537L 28.095 1.00233C 16.821 -3.54049 3.99387 1.90535 -0.556313 13.1678L 0.556313 13.6173ZM 27.6466 2.1154C 32.4562 4.04179 36.296 7.61564 38.5607 12.2726L 39.6389 11.7457C 37.26 6.90101 33.0999 3.02907 28.0949 1.0023L 27.6466 2.1154Z"/>
</defs>
</svg>
