<svg width="143" height="140" viewBox="0 0 143 140" version="1.1" xmlns="http://www.w3.org/2000/svg" xmlns:xlink="http://www.w3.org/1999/xlink">
<title>Group 71</title>
<desc>Created using Figma</desc>
<g id="Canvas" transform="translate(30 -1621)">
<g id="Group 71">
<g id="Fill 76">
<use xlink:href="#path0_fill" transform="translate(-19.2111 1626.98)" fill="#79CE4D"/>
</g>
<g id="Stroke 77">
<use xlink:href="#path1_stroke" transform="translate(-19.2111 1626.98)" fill="#79CE4D"/>
</g>
<g id="Fill 78">
<use xlink:href="#path2_fill" transform="translate(-11.8644 1717.34)" fill="#79CE4D"/>
</g>
<g id="Stroke 79">
<use xlink:href="#path3_stroke" transform="translate(-11.8644 1717.34)" fill="#79CE4D"/>
</g>
<g id="Fill 80">
<use xlink:href="#path4_fill" transform="translate(66.4324 1717.34)" fill="#79CE4D"/>
</g>
<g id="Stroke 81">
<use xlink:href="#path5_stroke" transform="translate(66.4324 1717.34)" fill="#79CE4D"/>
</g>
<g id="Fill 82">
<use xlink:href="#path6_fill" transform="translate(96.8492 1680.05)" fill="#79CE4D"/>
</g>
<g id="Stroke 83">
<use xlink:href="#path7_stroke" transform="translate(96.8492 1680.05)" fill="#79CE4D"/>
</g>
<g id="Fill 84">
<use xlink:href="#path8_fill" transform="translate(-29.1668 1665.41)" fill="#79CE4D"/>
</g>
<g id="Stroke 85">
<use xlink:href="#path9_stroke" transform="translate(-29.1668 1665.41)" fill="#79CE4D"/>
</g>
<g id="Fill 86">
<use xlink:href="#path10_fill" transform="translate(42.1576 1621.34)" fill="#79CE4D"/>
</g>
<g id="Stroke 87">
<use xlink:href="#path11_stroke" transform="translate(42.1576 1621.34)" fill="#79CE4D"/>
</g>
<g id="Fill 88">
<use xlink:href="#path12_fill" transform="translate(9.39725 1744.34)" fill="#4A8C27"/>
</g>
<g id="Stroke 89">
<use xlink:href="#path13_stroke" transform="translate(9.39725 1744.34)" fill="#4A8D26"/>
</g>
<g id="Fill 90">
<use xlink:href="#path14_fill" transform="translate(66.9683 1744.06)" fill="#4A8C27"/>
</g>
<g id="Stroke 91">
<use xlink:href="#path15_stroke" transform="translate(66.9683 1744.06)" fill="#4A8D26"/>
</g>
<g id="Fill 92">
<use xlink:href="#path16_fill" transform="translate(16.7488 1651.04)" fill="#EEEEEE"/>
</g>
<g id="Fill 93">
<use xlink:href="#path17_fill" transform="translate(28.6611 1662.27)" fill="#1A1A1B"/>
</g>
<g id="Stroke 94">
<use xlink:href="#path18_stroke" transform="translate(28.6611 1662.27)" fill="#1A1A1B"/>
</g>
<g id="Fill 95">
<use xlink:href="#path19_fill" transform="translate(46.7066 1658.17)" fill="#F9F9F9"/>
</g>
<g id="Fill 96">
<use xlink:href="#path20_fill" transform="translate(10.0971 1683.06)" fill="#79CE4D"/>
</g>
<g id="Stroke 97">
<use xlink:href="#path21_stroke" transform="translate(10.0971 1683.06)" fill="#79CE4D"/>
</g>
<g id="Fill 98">
<use xlink:href="#path22_fill" transform="translate(8.79864 1696.68)" fill="#A82670"/>
</g>
<g id="Stroke 99">
<use xlink:href="#path23_stroke" transform="translate(8.79864 1696.68)" fill="#A82670"/>
</g>
<g id="Fill 100">
<use xlink:href="#path24_fill" transform="translate(4.62864 1693.53)" fill="#A82670"/>
</g>
<g id="Stroke 101">
<use xlink:href="#path25_stroke" transform="translate(4.62864 1693.53)" fill="#A82670"/>
</g>
<g id="Fill 102">
<use xlink:href="#path26_fill" transform="translate(78.0126 1693.53)" fill="#A82670"/>
</g>
<g id="Stroke 103">
<use xlink:href="#path27_stroke" transform="translate(78.0126 1693.53)" fill="#A82670"/>
</g>
</g>
</g>
<defs>
<path id="path0_fill" fill-rule="evenodd" d="M 62.6392 0C 97.2106 0 125.278 28.2382 125.278 63.0196C 125.278 97.8011 97.2106 126.039 62.6392 126.039C 28.0677 126.039 0 97.8011 0 63.0196C 0 28.2382 28.0677 0 62.6392 0Z"/>
<path id="path1_stroke" d="M 62.6392 0.12C 97.1437 0.12 125.158 28.3038 125.158 63.0196L 125.398 63.0196C 125.398 28.1726 97.2776 -0.12 62.6392 -0.12L 62.6392 0.12ZM 125.158 63.0196C 125.158 97.7355 97.1437 125.919 62.6392 125.919L 62.6392 126.159C 97.2776 126.159 125.398 97.8667 125.398 63.0196L 125.158 63.0196ZM 62.6392 125.919C 28.1346 125.919 0.12 97.7355 0.12 63.0196L -0.12 63.0196C -0.12 97.8667 28.0007 126.159 62.6392 126.159L 62.6392 125.919ZM 0.12 63.0196C 0.12 28.3038 28.1346 0.12 62.6392 0.12L 62.6392 -0.12C 28.0007 -0.12 -0.12 28.1726 -0.12 63.0196L 0.12 63.0196Z"/>
<path id="path2_fill" fill-rule="evenodd" d="M 0 0C 4.86064 13.8582 9.62889 27.6998 16.2422 41.8749C 19.4892 43.9827 22.9055 43.9378 26.4802 41.8749C 30.2052 37.6053 32.3048 33.2719 33.1588 28.8898L 0 0Z"/>
<path id="path3_stroke" d="M 0 0L 0.0788284 -0.090477C 0.0377629 -0.126255 -0.0222483 -0.12989 -0.0673319 -0.0993298C -0.112415 -0.0687694 -0.131263 -0.0116789 -0.113237 0.0397168L 0 0ZM 16.2422 41.8749L 16.1335 41.9256C 16.143 41.946 16.158 41.9633 16.1769 41.9755L 16.2422 41.8749ZM 26.4802 41.8749L 26.5402 41.9788C 26.5517 41.9722 26.562 41.9637 26.5707 41.9538L 26.4802 41.8749ZM 33.1588 28.8898L 33.2766 28.9127C 33.2848 28.8707 33.27 28.8274 33.2377 28.7993L 33.1588 28.8898ZM -0.113237 0.0397168C 4.74729 13.8976 9.51764 27.7447 16.1335 41.9256L 16.351 41.8241C 9.74014 27.6548 4.97399 13.8188 0.113237 -0.0397168L -0.113237 0.0397168ZM 16.1769 41.9755C 19.4662 44.1109 22.9313 44.0615 26.5402 41.9788L 26.4203 41.7709C 22.8797 43.8142 19.5122 43.8546 16.3076 41.7742L 16.1769 41.9755ZM 26.5707 41.9538C 30.3053 37.6715 32.4187 33.3099 33.2766 28.9127L 33.0411 28.8668C 32.191 33.234 30.1052 37.5391 26.3898 41.796L 26.5707 41.9538ZM 33.2377 28.7993L 0.0788284 -0.090477L -0.0788284 0.090477L 33.08 28.9803L 33.2377 28.7993Z"/>
<path id="path4_fill" fill-rule="evenodd" d="M 33.1588 0C 28.2982 13.8582 23.53 27.6998 16.9166 41.8749C 13.6696 43.9827 10.2533 43.9378 6.67861 41.8749C 2.9536 37.6053 0.854029 33.2719 0 28.8898L 33.1588 0Z"/>
<path id="path5_stroke" d="M 33.1588 0L 33.2721 0.0397168C 33.2901 -0.0116789 33.2713 -0.0687694 33.2262 -0.0993298C 33.1811 -0.12989 33.1211 -0.126255 33.08 -0.090477L 33.1588 0ZM 16.9166 41.8749L 16.982 41.9755C 17.0008 41.9633 17.0159 41.946 17.0254 41.9256L 16.9166 41.8749ZM 6.67861 41.8749L 6.58819 41.9538C 6.59688 41.9637 6.60717 41.9722 6.61863 41.9788L 6.67861 41.8749ZM 0 28.8898L -0.0788284 28.7993C -0.111132 28.8274 -0.12598 28.8707 -0.117784 28.9127L 0 28.8898ZM 33.0456 -0.0397168C 28.1849 13.8188 23.4187 27.6548 16.8079 41.8241L 17.0254 41.9256C 23.6412 27.7447 28.4116 13.8976 33.2721 0.0397168L 33.0456 -0.0397168ZM 16.8513 41.7742C 13.6466 43.8546 10.2791 43.8142 6.73859 41.7709L 6.61863 41.9788C 10.2275 44.0615 13.6926 44.1109 16.982 41.9755L 16.8513 41.7742ZM 6.76903 41.796C 3.05369 37.5391 0.967868 33.234 0.117784 28.8668L -0.117784 28.9127C 0.740189 33.3099 2.85351 37.6715 6.58819 41.9538L 6.76903 41.796ZM 0.0788284 28.9803L 33.2377 0.090477L 33.08 -0.090477L -0.0788284 28.7993L 0.0788284 28.9803Z"/>
<path id="path6_fill" fill-rule="evenodd" d="M 8.29391 0C 10.9198 2.66986 13.2121 5.72601 14.6439 9.77829C 15.3107 14.5169 15.2685 18.4682 14.6439 21.7732C 13.0074 20.649 11.5575 20.0577 10.3673 20.2087C 11.4738 22.1314 11.9999 24.3785 12.7813 27.7812L 12.6015 36.4765C 8.8418 34.2894 4.47945 34.9275 0 36.1149L 8.29391 0Z"/>
<path id="path7_stroke" d="M 8.29391 0L 8.37946 -0.0841454C 8.34873 -0.11539 8.30341 -0.127398 8.26124 -0.115469C 8.21907 -0.10354 8.18676 -0.0695716 8.17695 -0.0268592L 8.29391 0ZM 14.6439 9.77829L 14.7627 9.76157C 14.7616 9.75365 14.7597 9.74586 14.757 9.73831L 14.6439 9.77829ZM 14.6439 21.7732L 14.5759 21.8721C 14.6094 21.8951 14.6521 21.8996 14.6896 21.8841C 14.7271 21.8687 14.7543 21.8353 14.7618 21.7955L 14.6439 21.7732ZM 10.3673 20.2087L 10.3522 20.0897C 10.3124 20.0948 10.2777 20.1194 10.2598 20.1553C 10.242 20.1913 10.2433 20.2338 10.2633 20.2686L 10.3673 20.2087ZM 12.7813 27.7812L 12.9013 27.7837C 12.9015 27.7738 12.9005 27.764 12.8982 27.7543L 12.7813 27.7812ZM 12.6015 36.4765L 12.5411 36.5802C 12.5779 36.6016 12.6232 36.602 12.6602 36.5812C 12.6973 36.5603 12.7206 36.5215 12.7215 36.479L 12.6015 36.4765ZM 0 36.1149L -0.116955 36.0881C -0.126366 36.129 -0.113645 36.1719 -0.0834247 36.2012C -0.053204 36.2304 -0.00989097 36.2417 0.030748 36.2309L 0 36.1149ZM 8.20835 0.0841454C 10.8288 2.74811 13.1063 5.78265 14.5307 9.81827L 14.757 9.73831C 13.3179 5.66936 11.0108 2.59161 8.37946 -0.0841454L 8.20835 0.0841454ZM 14.5251 9.79502C 15.191 14.5246 15.1491 18.4564 14.526 21.7509L 14.7618 21.7955C 15.3879 18.4801 15.4305 14.5091 14.7627 9.76157L 14.5251 9.79502ZM 14.7118 21.6743C 13.071 20.5471 11.589 19.9328 10.3522 20.0897L 10.3824 20.3278C 11.526 20.1827 12.9437 20.7509 14.5759 21.8721L 14.7118 21.6743ZM 10.2633 20.2686C 11.3622 22.1755 11.883 24.4056 12.6643 27.8081L 12.8982 27.7543C 12.1168 24.3514 11.5854 22.0874 10.4713 20.1489L 10.2633 20.2686ZM 12.6613 27.7787L 12.4815 36.474L 12.7215 36.479L 12.9013 27.7837L 12.6613 27.7787ZM 12.6618 36.3728C 8.85628 34.159 4.4499 34.8112 -0.030748 35.9989L 0.030748 36.2309C 4.50901 35.0438 8.82733 34.4198 12.5411 36.5802L 12.6618 36.3728ZM 0.116955 36.1418L 8.41086 0.0268592L 8.17695 -0.0268592L -0.116955 36.0881L 0.116955 36.1418Z"/>
<path id="path8_fill" fill-rule="evenodd" d="M 15.5346 0C 12.205 1.69932 9.07085 3.87083 6.44071 7.26131C 4.32086 11.5455 3.12086 15.3082 2.67642 18.6426C 4.58199 18.0957 6.14325 17.9953 7.22522 18.5165C 5.57193 19.9894 4.36751 21.9543 2.5584 24.9349L 0 33.2426C 4.25391 32.3615 8.19285 34.3527 12.0706 36.9023L 15.5346 0Z"/>
<path id="path9_stroke" d="M 15.5346 0L 15.6541 0.0112152C 15.6582 -0.0323646 15.6382 -0.0747147 15.602 -0.0992941C 15.5658 -0.123873 15.5191 -0.126782 15.4801 -0.106884L 15.5346 0ZM 6.44071 7.26131L 6.3459 7.18776C 6.34098 7.1941 6.33672 7.20091 6.33316 7.2081L 6.44071 7.26131ZM 2.67642 18.6426L 2.55748 18.6268C 2.55213 18.6669 2.56738 18.707 2.59803 18.7335C 2.62869 18.7599 2.67061 18.7691 2.70953 18.758L 2.67642 18.6426ZM 7.22522 18.5165L 7.30504 18.6061C 7.33499 18.5794 7.34963 18.5395 7.34405 18.4998C 7.33848 18.4601 7.31343 18.4258 7.27729 18.4084L 7.22522 18.5165ZM 2.5584 24.9349L 2.45581 24.8726C 2.45069 24.8811 2.44662 24.8901 2.44371 24.8996L 2.5584 24.9349ZM 0 33.2426L -0.114685 33.2073C -0.127173 33.2479 -0.117318 33.292 -0.0887658 33.3234C -0.0602137 33.3548 -0.0172094 33.3687 0.0243389 33.3601L 0 33.2426ZM 12.0706 36.9023L 12.0046 37.0026C 12.0398 37.0257 12.0845 37.0287 12.1225 37.0105C 12.1605 36.9923 12.1861 36.9555 12.19 36.9135L 12.0706 36.9023ZM 15.4801 -0.106884C 12.1434 1.59633 8.98831 3.78373 6.3459 7.18776L 6.53553 7.33487C 9.15339 3.95794 12.2666 1.80231 15.5892 0.106884L 15.4801 -0.106884ZM 6.33316 7.2081C 4.2096 11.5006 3.00377 15.2819 2.55748 18.6268L 2.79537 18.6585C 3.23796 15.3344 4.43211 11.5905 6.54827 7.31453L 6.33316 7.2081ZM 2.70953 18.758C 4.60996 18.2125 6.13346 18.1238 7.17314 18.6246L 7.27729 18.4084C 6.15304 17.8668 4.55402 17.9789 2.64332 18.5273L 2.70953 18.758ZM 7.14539 18.4269C 5.47988 19.9125 4.26507 21.8918 2.45581 24.8726L 2.66098 24.9972C 4.46996 22.0168 5.66399 20.0664 7.30504 18.6061L 7.14539 18.4269ZM 2.44371 24.8996L -0.114685 33.2073L 0.114685 33.2779L 2.67308 24.9702L 2.44371 24.8996ZM 0.0243389 33.3601C 4.22625 32.4898 8.12786 34.4536 12.0046 37.0026L 12.1365 36.8021C 8.25783 34.2518 4.28158 32.2332 -0.0243389 33.1251L 0.0243389 33.3601ZM 12.19 36.9135L 15.6541 0.0112152L 15.4151 -0.0112152L 11.9511 36.8911L 12.19 36.9135Z"/>
<path id="path10_fill" fill-rule="evenodd" d="M 1.03273 5.77629C 4.53681 3.07711 8.70626 1.00616 14.0036 0C 12.0715 2.54833 11.0205 5.08368 11.5507 7.59546C 15.819 3.68789 20.5657 1.07741 26.0703 0.520984C 24.0375 3.87195 23.1775 7.20565 23.7459 10.5182C 25.9775 9.51966 28.5022 9.14283 31.425 9.61038C 33.4652 10.3768 34.6615 11.4032 35.1026 12.6621C 31.5494 13.0858 29.0646 14.2339 26.9717 15.6473L 0 8.37304L 1.03273 5.77629Z"/>
<path id="path11_stroke" d="M 1.03273 5.77629L 0.959498 5.68122C 0.942414 5.69438 0.929191 5.7119 0.921222 5.73194L 1.03273 5.77629ZM 14.0036 0L 14.0992 0.0725003C 14.1292 0.0329347 14.1318 -0.0210195 14.1056 -0.0632217C 14.0794 -0.105424 14.03 -0.127157 13.9812 -0.117892L 14.0036 0ZM 11.5507 7.59546L 11.4333 7.62025C 11.4422 7.6624 11.473 7.69655 11.514 7.70972C 11.555 7.72289 11.5999 7.71306 11.6317 7.68397L 11.5507 7.59546ZM 26.0703 0.520984L 26.1729 0.583224C 26.1965 0.544316 26.196 0.495405 26.1717 0.456925C 26.1475 0.418444 26.1035 0.397016 26.0582 0.401593L 26.0703 0.520984ZM 23.7459 10.5182L 23.6276 10.5385C 23.6339 10.575 23.6567 10.6066 23.6894 10.6241C 23.7221 10.6415 23.7611 10.6429 23.7949 10.6277L 23.7459 10.5182ZM 31.425 9.61038L 31.4672 9.49805C 31.4596 9.49522 31.4519 9.49316 31.4439 9.49189L 31.425 9.61038ZM 35.1026 12.6621L 35.1168 12.7812C 35.1529 12.7769 35.1852 12.7564 35.2044 12.7256C 35.2237 12.6947 35.2279 12.6567 35.2158 12.6224L 35.1026 12.6621ZM 26.9717 15.6473L 26.9405 15.7632C 26.9741 15.7723 27.01 15.7663 27.0389 15.7468L 26.9717 15.6473ZM 0 8.37304L -0.111505 8.3287C -0.124154 8.3605 -0.12262 8.39619 -0.10729 8.42679C -0.0919598 8.45739 -0.0642927 8.47999 -0.0312476 8.4889L 0 8.37304ZM 1.10596 5.87135C 4.60042 3.17887 8.7445 1.1199 14.026 0.117892L 13.9812 -0.117892C 8.66802 0.892418 4.4732 2.97536 0.959498 5.68122L 1.10596 5.87135ZM 13.908 -0.0725003C 11.9682 2.48587 10.8923 5.05745 11.4333 7.62025L 11.6681 7.57068C 11.1487 5.10991 12.1747 2.6108 14.0992 0.0725003L 13.908 -0.0725003ZM 11.6317 7.68397C 15.8889 3.78542 20.6013 1.19198 26.0823 0.640376L 26.0582 0.401593C 20.53 0.962829 15.7491 3.59037 11.4697 7.50695L 11.6317 7.68397ZM 25.9677 0.458745C 23.9243 3.82717 23.0531 7.19006 23.6276 10.5385L 23.8642 10.4979C 23.302 7.22124 24.1507 3.91672 26.1729 0.583224L 25.9677 0.458745ZM 23.7949 10.6277C 26.0112 9.63483 28.5015 9.26283 31.406 9.72888L 31.4439 9.49189C 28.5028 9.02283 25.9438 9.40448 23.6969 10.4087L 23.7949 10.6277ZM 31.3828 9.72272C 33.4079 10.4835 34.5652 11.4913 34.9893 12.7018L 35.2158 12.6224C 34.7578 11.3152 33.5224 10.2701 31.4672 9.49805L 31.3828 9.72272ZM 35.0884 12.5429C 31.5168 12.9704 29.0057 14.1294 26.9045 15.5479L 27.0389 15.7468C 29.1236 14.3385 31.5821 13.2013 35.1168 12.7812L 35.0884 12.5429ZM 27.0029 15.5315L 0.0312476 8.25718L -0.0312476 8.4889L 26.9405 15.7632L 27.0029 15.5315ZM 0.111505 8.41739L 1.14423 5.82063L 0.921222 5.73194L -0.111505 8.3287L 0.111505 8.41739Z"/>
<path id="path12_fill" fill-rule="evenodd" d="M 11.2551 4.47902C 10.6974 6.22677 10.0204 7.89047 9.18592 9.30666L 0 0L 11.2551 4.47902Z"/>
<path id="path13_stroke" d="M 11.2551 4.47902L 11.3694 4.5155C 11.3885 4.45546 11.358 4.39083 11.2994 4.36752L 11.2551 4.47902ZM 9.18592 9.30666L 9.10052 9.39096C 9.12669 9.41747 9.1637 9.43033 9.20067 9.42575C 9.23765 9.42117 9.2704 9.39968 9.28931 9.36758L 9.18592 9.30666ZM 0 0L 0.0443703 -0.111496C -0.00839236 -0.132493 -0.0686495 -0.113631 -0.100023 -0.0662974C -0.131397 -0.0189638 -0.125297 0.0438811 -0.085405 0.084297L 0 0ZM 11.1407 4.44254C 10.5846 6.18588 9.91285 7.83725 9.08254 9.24574L 9.28931 9.36758C 10.128 7.94368 10.8102 6.26765 11.3694 4.5155L 11.1407 4.44254ZM 9.27133 9.22236L 0.085405 -0.084297L -0.085405 0.084297L 9.10052 9.39096L 9.27133 9.22236ZM -0.0443703 0.111496L 11.2107 4.59051L 11.2994 4.36752L 0.0443703 -0.111496L -0.0443703 0.111496Z"/>
<path id="path14_fill" fill-rule="evenodd" d="M 0 4.47902C 0.557857 6.22658 1.23466 7.89028 2.06933 9.30647L 11.2553 0L 0 4.47902Z"/>
<path id="path15_stroke" d="M 0 4.47902L -0.0443697 4.36752C -0.102932 4.39083 -0.133484 4.45547 -0.114317 4.51551L 0 4.47902ZM 2.06933 9.30647L 1.96595 9.3674C 1.98486 9.3995 2.01761 9.42099 2.05459 9.42557C 2.09156 9.43014 2.12856 9.41729 2.15473 9.39077L 2.06933 9.30647ZM 11.2553 0L 11.3407 0.0842979C 11.3805 0.0438823 11.3866 -0.0189627 11.3553 -0.0662966C 11.3239 -0.113631 11.2636 -0.132493 11.2109 -0.111496L 11.2553 0ZM -0.114317 4.51551C 0.445037 6.26747 1.12711 7.9435 1.96595 9.3674L 2.17271 9.24555C 1.34222 7.83706 0.670677 6.18569 0.114317 4.44253L -0.114317 4.51551ZM 2.15473 9.39077L 11.3407 0.0842979L 11.1698 -0.0842979L 1.98392 9.22218L 2.15473 9.39077ZM 11.2109 -0.111496L -0.0443697 4.36752L 0.0443697 4.59052L 11.2996 0.111496L 11.2109 -0.111496Z"/>
<path id="path16_fill" fill-rule="evenodd" d="M 28.5704 0C 44.3387 0 57.1406 12.8797 57.1406 28.7439C 57.1406 44.608 44.3387 57.4877 28.5704 57.4877C 12.8019 57.4877 0 44.608 0 28.7439C 0 12.8797 12.8019 0 28.5704 0Z"/>
<path id="path17_fill" fill-rule="evenodd" d="M 17.0734 0C 26.4965 0 34.1469 7.69677 34.1469 17.1773C 34.1469 26.6576 26.4965 34.3544 17.0734 34.3544C 7.6503 34.3544 0 26.6576 0 17.1773C 0 7.69677 7.6503 0 17.0734 0Z"/>
<path id="path18_stroke" d="M 17.0734 0.12C 26.4295 0.12 34.0269 7.76236 34.0269 17.1773L 34.2669 17.1773C 34.2669 7.63118 26.5634 -0.12 17.0734 -0.12L 17.0734 0.12ZM 34.0269 17.1773C 34.0269 26.592 26.4295 34.2344 17.0734 34.2344L 17.0734 34.4744C 26.5634 34.4744 34.2669 26.7232 34.2669 17.1773L 34.0269 17.1773ZM 17.0734 34.2344C 7.71725 34.2344 0.12 26.592 0.12 17.1773L -0.12 17.1773C -0.12 26.7232 7.58334 34.4744 17.0734 34.4744L 17.0734 34.2344ZM 0.12 17.1773C 0.12 7.76235 7.71726 0.12 17.0734 0.12L 17.0734 -0.12C 7.58334 -0.12 -0.12 7.63118 -0.12 17.1773L 0.12 17.1773Z"/>
<path id="path19_fill" fill-rule="evenodd" d="M 10.0447 0C 15.5885 0 20.0893 4.52819 20.0893 10.1058C 20.0893 15.6832 15.5885 20.2115 10.0447 20.2115C 4.50085 20.2115 0 15.6832 0 10.1058C 0 4.52819 4.50085 0 10.0447 0Z"/>
<path id="path20_fill" fill-rule="evenodd" d="M 68.1263 11.4292C 59.0499 4.03466 47.7249 0 36.0459 0C 22.526 0 9.55992 5.40317 0 15.0213L 20.6287 35.7752C 24.7176 31.6615 30.2633 29.3505 36.0459 29.3505C 41.0411 29.3505 45.8848 31.0761 49.7669 34.2388L 68.1263 11.4292Z"/>
<path id="path21_stroke" d="M 68.1263 11.4292L 68.2197 11.5044C 68.2611 11.453 68.2532 11.3778 68.202 11.3362L 68.1263 11.4292ZM 0 15.0213L -0.0851102 14.9368C -0.13163 14.9836 -0.13163 15.0591 -0.085109 15.1059L 0 15.0213ZM 20.6287 35.7752L 20.5436 35.8598C 20.5661 35.8825 20.5968 35.8952 20.6287 35.8952C 20.6607 35.8952 20.6913 35.8825 20.7138 35.8598L 20.6287 35.7752ZM 49.7669 34.2388L 49.6911 34.3318C 49.7159 34.352 49.7477 34.3615 49.7795 34.3581C 49.8113 34.3548 49.8404 34.3389 49.8604 34.314L 49.7669 34.2388ZM 68.202 11.3362C 59.1088 3.9301 47.7453 -0.118247 36.0459 -0.12L 36.0459 0.12C 47.7045 0.118247 58.991 4.13922 68.0505 11.5222L 68.202 11.3362ZM 36.0459 -0.12C 22.4939 -0.12 9.49726 5.29599 -0.0851102 14.9368L 0.0851102 15.1059C 9.62258 5.51035 22.5581 0.12 36.0459 0.12L 36.0459 -0.12ZM -0.085109 15.1059L 20.5436 35.8598L 20.7138 35.6906L 0.085109 14.9368L -0.085109 15.1059ZM 20.7138 35.8598C 24.7803 31.7687 30.2954 29.4705 36.0459 29.4705L 36.0459 29.2305C 30.2313 29.2305 24.6549 31.5543 20.5436 35.6906L 20.7138 35.8598ZM 36.0459 29.4705C 41.0207 29.4687 45.8259 31.1807 49.6911 34.3318L 49.8427 34.1457C 45.9437 30.9716 41.0616 29.2322 36.0459 29.2305L 36.0459 29.4705ZM 49.8604 34.314L 68.2197 11.5044L 68.0328 11.3539L 49.6735 34.1635L 49.8604 34.314Z"/>
<path id="path22_fill" fill-rule="evenodd" d="M 0 0C 7.9638 10.1959 21.1573 16.2923 35.259 16.2923C 49.3607 16.2923 62.554 10.1959 70.5179 0C 62.554 10.1959 49.3607 16.2923 35.259 16.2923C 21.1573 16.2923 7.9638 10.1959 0 0Z"/>
<path id="path23_stroke" d="M 0.472854 -0.369335C 0.268876 -0.630486 -0.108185 -0.676833 -0.369335 -0.472854C -0.630486 -0.268876 -0.676833 0.108185 -0.472854 0.369335L 0.472854 -0.369335ZM 70.9908 0.369341C 71.1948 0.108193 71.1484 -0.268869 70.8873 -0.47285C 70.6261 -0.676832 70.2491 -0.630489 70.0451 -0.369341L 70.9908 0.369341ZM -0.472854 0.369335C 7.61591 10.7253 20.9916 16.8923 35.259 16.8923L 35.259 15.6923C 21.3229 15.6923 8.31169 9.66661 0.472854 -0.369335L -0.472854 0.369335ZM 35.259 16.8923C 49.5263 16.8923 62.9018 10.7253 70.9908 0.369341L 70.0451 -0.369341C 62.2061 9.66661 49.195 15.6923 35.259 15.6923L 35.259 16.8923ZM 70.0451 -0.369341C 62.2061 9.66661 49.195 15.6923 35.259 15.6923L 35.259 16.8923C 49.5263 16.8923 62.9018 10.7253 70.9908 0.369341L 70.0451 -0.369341ZM 35.259 15.6923C 21.3229 15.6923 8.31169 9.66661 0.472854 -0.369335L -0.472854 0.369335C 7.61591 10.7253 20.9916 16.8923 35.259 16.8923L 35.259 15.6923Z"/>
<path id="path24_fill" fill-rule="evenodd" d="M 0 4.78905L 5.46626 0L 0 4.78905Z"/>
<path id="path25_stroke" d="M -0.395387 4.33775C -0.644631 4.55612 -0.669664 4.93519 -0.451298 5.18444C -0.232932 5.43368 0.146142 5.45871 0.395387 5.24035L -0.395387 4.33775ZM 5.86165 0.451298C 6.11089 0.232932 6.13593 -0.146142 5.91756 -0.395387C 5.69919 -0.644631 5.32012 -0.669664 5.07088 -0.451298L 5.86165 0.451298ZM 0.395387 5.24035L 5.86165 0.451298L 5.07088 -0.451298L -0.395387 4.33775L 0.395387 5.24035Z"/>
<path id="path26_fill" fill-rule="evenodd" d="M 5.46608 4.78905L 0 0L 5.46608 4.78905Z"/>
<path id="path27_stroke" d="M 5.07068 5.24034C 5.31992 5.45871 5.699 5.43368 5.91737 5.18444C 6.13574 4.9352 6.11071 4.55613 5.86147 4.33776L 5.07068 5.24034ZM 0.395394 -0.451291C 0.146153 -0.669661 -0.232921 -0.644635 -0.451291 -0.395394C -0.669661 -0.146153 -0.644635 0.232921 -0.395394 0.451291L 0.395394 -0.451291ZM 5.86147 4.33776L 0.395394 -0.451291L -0.395394 0.451291L 5.07068 5.24034L 5.86147 4.33776Z"/>
</defs>
</svg>
