<?xml version="1.0" encoding="UTF-8"?>
<svg width="40px" height="40px" viewBox="0 0 40 40" version="1.1" xmlns="http://www.w3.org/2000/svg" xmlns:xlink="http://www.w3.org/1999/xlink">
    <!-- Generator: Sketch 42 (36781) - http://www.bohemiancoding.com/sketch -->
    <title>flaticon1487166400-svg</title>
    <desc>Created with Sketch.</desc>
    <defs></defs>
    <g id="Page-1" stroke="none" stroke-width="1" fill="none" fill-rule="evenodd">
        <g id="desktop" transform="translate(-200.000000, -739.000000)" fill="#475993">
            <g id="Desktop-HD">
                <g id="Web">
                    <g id="Desktop-HD">
                        <g id="Group-5" transform="translate(120.000000, 228.000000)">
                            <g id="Rectangle-16-Clipped" transform="translate(0.000000, 493.000000)">
                                <g id="Rectangle-16">
                                    <g id="flaticon1487166400-svg" transform="translate(80.000000, 18.000000)">
                                        <g id="Layer_1">
                                            <path d="M34.5917848,0 L5.38748166,0 C2.41222494,0 0.000195599022,2.41193154 0.000195599022,5.38728606 L0.000195599022,34.5917848 C0.000195599022,37.5671394 2.41212714,39.9790709 5.38748166,39.9790709 L19.7909046,39.9790709 L19.8154523,25.6927139 L16.1038631,25.6927139 C15.6215159,25.6927139 15.2300244,25.3026895 15.2281663,24.8203423 L15.2103667,20.2152567 C15.2085086,19.7302689 15.6011736,19.3361369 16.0861614,19.3361369 L19.7910024,19.3361369 L19.7910024,14.8864548 C19.7910024,9.72264059 22.9447433,6.91090465 27.551198,6.91090465 L31.3311491,6.91090465 C31.8147677,6.91090465 32.2069438,7.30298289 32.2069438,7.78669927 L32.2069438,11.6697311 C32.2069438,12.1532518 31.8150611,12.5452323 31.3316381,12.5455257 L29.0119315,12.5466015 C26.5067971,12.5466015 26.0217115,13.7370171 26.0217115,15.4840098 L26.0217115,19.3362347 L31.526357,19.3362347 C32.0508557,19.3362347 32.4577995,19.7942298 32.3959902,20.31511 L31.8501711,24.9201956 C31.7979462,25.3608802 31.4242543,25.6929095 30.9805379,25.6929095 L26.0462592,25.6929095 L26.0217115,39.9792665 L34.5919804,39.9792665 C37.5672372,39.9792665 39.9791687,37.567335 39.9791687,34.5920782 L39.9791687,5.38728606 C39.9790709,2.41193154 37.5671394,0 34.5917848,0 L34.5917848,0 Z" id="Shape"></path>
                                        </g>
                                    </g>
                                </g>
                            </g>
                        </g>
                    </g>
                </g>
            </g>
        </g>
    </g>
</svg>