<?xml version="1.0" encoding="UTF-8"?>
<svg width="54px" height="54px" viewBox="0 0 54 54" version="1.1" xmlns="http://www.w3.org/2000/svg" xmlns:xlink="http://www.w3.org/1999/xlink">
    <!-- Generator: Sketch 42 (36781) - http://www.bohemiancoding.com/sketch -->
    <title>Group-2</title>
    <desc>Created with Sketch.</desc>
    <defs></defs>
    <g id="Page-1" stroke="none" stroke-width="1" fill="none" fill-rule="evenodd">
        <g id="desktop" transform="translate(-636.000000, -40.000000)">
            <g id="Desktop-HD">
                <g id="Web">
                    <g id="Desktop-HD">
                        <g id="Group-3" transform="translate(636.000000, 40.000000)">
                            <g id="Group-2">
                                <path d="M27,54 C41.9116882,54 54,41.9116882 54,27 C54,12.0883118 41.9116882,0 27,0 C12.0883118,0 0,12.0883118 0,27 C0,41.9116882 12.0883118,54 27,54 Z" id="Oval" fill="#E1E5F0"></path>
                                <g id="flaticon1487164902-svg" transform="translate(17.000000, 17.000000)" fill="#78879D">
                                    <g id="Capa_1">
                                        <path d="M11.9074208,9.96235294 L19.5251584,2.34733032 C20.0588235,1.81085973 20.0588235,0.938733032 19.5251584,0.402352941 C18.9886878,-0.134117647 18.1138462,-0.134117647 17.580181,0.402352941 L9.96244344,8.01737557 L2.34733032,0.402352941 C1.81085973,-0.134117647 0.938733032,-0.134117647 0.402352941,0.402352941 C-0.134027149,0.938823529 -0.134117647,1.81095023 0.402352941,2.34733032 L8.01737557,9.96235294 L0.402352941,17.5800905 C-0.134117647,18.1137557 -0.134117647,18.9886878 0.402352941,19.5250679 C0.938823529,20.058733 1.81095023,20.058733 2.34733032,19.5250679 L9.96235294,11.9073303 L17.5800905,19.5250679 C18.1137557,20.058733 18.9886878,20.058733 19.5250679,19.5250679 C20.058733,18.9885973 20.058733,18.1137557 19.5250679,17.5800905 L11.9074208,9.96235294 L11.9074208,9.96235294 Z" id="Shape"></path>
                                    </g>
                                </g>
                            </g>
                        </g>
                    </g>
                </g>
            </g>
        </g>
    </g>
</svg>