<svg width="193" height="189" viewBox="0 0 193 189" version="1.1" xmlns="http://www.w3.org/2000/svg" xmlns:xlink="http://www.w3.org/1999/xlink">
<title>Group 56</title>
<desc>Created using Figma</desc>
<g id="Canvas" transform="translate(-112 -2200)">
<g id="Group 56">
<g id="Fill 126">
<use xlink:href="#path0_fill" transform="translate(125.664 2207.9)" fill="#79CE4D"/>
</g>
<g id="Stroke 127">
<use xlink:href="#path1_stroke" transform="translate(125.664 2207.9)" fill="#79CE4D"/>
</g>
<g id="Fill 128">
<use xlink:href="#path2_fill" transform="translate(135.649 2329.66)" fill="#79CE4D"/>
</g>
<g id="Stroke 129">
<use xlink:href="#path3_stroke" transform="translate(135.649 2329.66)" fill="#79CE4D"/>
</g>
<g id="Fill 130">
<use xlink:href="#path4_fill" transform="translate(242.067 2329.66)" fill="#79CE4D"/>
</g>
<g id="Stroke 131">
<use xlink:href="#path5_stroke" transform="translate(242.067 2329.66)" fill="#79CE4D"/>
</g>
<g id="Fill 132">
<use xlink:href="#path6_fill" transform="translate(283.408 2279.41)" fill="#79CE4D"/>
</g>
<g id="Stroke 133">
<use xlink:href="#path7_stroke" transform="translate(283.408 2279.41)" fill="#79CE4D"/>
</g>
<g id="Fill 134">
<use xlink:href="#path8_fill" transform="translate(112.132 2259.69)" fill="#79CE4D"/>
</g>
<g id="Stroke 135">
<use xlink:href="#path9_stroke" transform="translate(112.132 2259.69)" fill="#79CE4D"/>
</g>
<g id="Fill 136">
<use xlink:href="#path10_fill" transform="translate(209.073 2200.3)" fill="#79CE4D"/>
</g>
<g id="Stroke 137">
<use xlink:href="#path11_stroke" transform="translate(209.073 2200.3)" fill="#79CE4D"/>
</g>
<g id="Fill 138">
<use xlink:href="#path12_fill" transform="translate(164.547 2366.03)" fill="#4A8C27"/>
</g>
<g id="Stroke 139">
<use xlink:href="#path13_stroke" transform="translate(164.547 2366.03)" fill="#4A8D26"/>
</g>
<g id="Fill 140">
<use xlink:href="#path14_fill" transform="translate(242.795 2365.66)" fill="#4A8C27"/>
</g>
<g id="Stroke 141">
<use xlink:href="#path15_stroke" transform="translate(242.795 2365.66)" fill="#4A8D26"/>
</g>
<g id="Stroke 144">
<use xlink:href="#path16_stroke" transform="translate(190.73 2255.46)" fill="#1A1A1B"/>
</g>
<g id="Fill 142">
<use xlink:href="#path17_fill" transform="translate(174.539 2240.32)" fill="#EEEEEE"/>
</g>
<g id="Fill 143">
<use xlink:href="#path18_fill" transform="translate(190.73 2255.46)" fill="#1A1A1B"/>
</g>
<g id="Fill 145">
<use xlink:href="#path19_fill" transform="translate(215.256 2249.93)" fill="#F9F9F9"/>
</g>
<g id="Fill 146">
<use xlink:href="#path20_fill" transform="translate(200.829 2325.22)" fill="#A82670"/>
</g>
<g id="Stroke 147">
<use xlink:href="#path21_stroke" transform="translate(200.829 2325.22)" fill="#A82670"/>
</g>
</g>
</g>
<defs>
<path id="path0_fill" fill-rule="evenodd" d="M 85.1363 0C 132.124 0 170.273 38.05 170.273 84.915C 170.273 131.783 132.124 169.83 85.1363 169.83C 38.1483 169.83 0 131.783 0 84.915C 0 38.05 38.1483 0 85.1363 0Z"/>
<path id="path1_stroke" d="M 85.1363 0.12C 132.058 0.12 170.153 38.1166 170.153 84.915L 170.393 84.915C 170.393 37.9834 132.19 -0.12 85.1363 -0.12L 85.1363 0.12ZM 170.153 84.915C 170.153 131.716 132.058 169.71 85.1363 169.71L 85.1363 169.95C 132.19 169.95 170.393 131.849 170.393 84.915L 170.153 84.915ZM 85.1363 169.71C 38.2143 169.71 0.12 131.716 0.12 84.915L -0.12 84.915C -0.12 131.849 38.0823 169.95 85.1363 169.95L 85.1363 169.71ZM 0.12 84.915C 0.12 38.1166 38.2143 0.12 85.1363 0.12L 85.1363 -0.12C 38.0823 -0.12 -0.12 37.9834 -0.12 84.915L 0.12 84.915Z"/>
<path id="path2_fill" fill-rule="evenodd" d="M 0 0C 6.60636 18.6725 13.0872 37.325 22.0757 56.425C 26.4889 59.264 31.1322 59.2038 35.9907 56.425C 41.0536 50.67 43.9072 44.8325 45.068 38.9275L 0 0Z"/>
<path id="path3_stroke" d="M 0 0L 0.0784403 -0.0908136C 0.0372483 -0.126393 -0.0227318 -0.129792 -0.0676794 -0.0990934C -0.112627 -0.0683948 -0.131283 -0.0112886 -0.113128 0.040025L 0 0ZM 22.0757 56.425L 21.9671 56.4761C 21.9767 56.4965 21.9918 56.5137 22.0108 56.5259L 22.0757 56.425ZM 35.9907 56.425L 36.0503 56.5292C 36.0618 56.5226 36.0721 56.5142 36.0808 56.5043L 35.9907 56.425ZM 45.068 38.9275L 45.1858 38.9506C 45.1941 38.9084 45.1791 38.8649 45.1464 38.8367L 45.068 38.9275ZM -0.113128 0.040025C 6.49312 18.7122 12.976 37.3703 21.9671 56.4761L 22.1843 56.3739C 13.1983 37.2797 6.71961 18.6328 0.113128 -0.040025L -0.113128 0.040025ZM 22.0108 56.5259C 26.4661 59.392 31.1578 59.3274 36.0503 56.5292L 35.9312 56.3208C 31.1066 59.0801 26.5116 59.136 22.1406 56.3241L 22.0108 56.5259ZM 36.0808 56.5043C 41.1534 50.7366 44.021 44.8708 45.1858 38.9506L 44.9503 38.9044C 43.7935 44.7943 40.9538 50.6034 35.9006 56.3457L 36.0808 56.5043ZM 45.1464 38.8367L 0.0784403 -0.0908136L -0.0784403 0.0908136L 44.9896 39.0183L 45.1464 38.8367Z"/>
<path id="path4_fill" fill-rule="evenodd" d="M 45.068 0C 38.4616 18.6725 31.9809 37.325 22.9923 56.425C 18.5791 59.264 13.9359 59.2038 9.07727 56.425C 4.0144 50.67 1.16076 44.8325 0 38.9275L 45.068 0Z"/>
<path id="path5_stroke" d="M 45.068 0L 45.1811 0.040025C 45.1993 -0.0112886 45.1806 -0.0683948 45.1357 -0.0990934C 45.0907 -0.129792 45.0308 -0.126393 44.9896 -0.0908136L 45.068 0ZM 22.9923 56.425L 23.0572 56.5259C 23.0762 56.5137 23.0913 56.4965 23.1009 56.4761L 22.9923 56.425ZM 9.07727 56.425L 8.98717 56.5043C 8.9959 56.5142 9.00621 56.5226 9.01769 56.5292L 9.07727 56.425ZM 0 38.9275L -0.0784403 38.8367C -0.111056 38.8649 -0.126059 38.9084 -0.117747 38.9506L 0 38.9275ZM 44.9549 -0.040025C 38.3484 18.6328 31.8697 37.2797 22.8837 56.3739L 23.1009 56.4761C 32.092 37.3703 38.5749 18.7122 45.1811 0.040025L 44.9549 -0.040025ZM 22.9274 56.3241C 18.5564 59.136 13.9614 59.0801 9.13684 56.3208L 9.01769 56.5292C 13.9103 59.3274 18.6019 59.392 23.0572 56.5259L 22.9274 56.3241ZM 9.16736 56.3457C 4.11424 50.6034 1.2745 44.7943 0.117747 38.9044L -0.117747 38.9506C 1.04702 44.8708 3.91456 50.7366 8.98717 56.5043L 9.16736 56.3457ZM 0.0784403 39.0183L 45.1464 0.0908136L 44.9896 -0.0908136L -0.0784403 38.8367L 0.0784403 39.0183Z"/>
<path id="path6_fill" fill-rule="evenodd" d="M 11.2727 0C 14.8417 3.5975 17.9573 7.715 19.9033 13.175C 20.8097 19.56 20.7523 24.885 19.9033 29.3375C 17.6791 27.825 15.7084 27.0275 14.0908 27.23C 15.5947 29.82 16.3098 32.85 17.3718 37.435L 17.1274 49.15C 12.0174 46.2025 6.08827 47.0625 0 48.6625L 11.2727 0Z"/>
<path id="path7_stroke" d="M 11.2727 0L 11.3579 -0.0845146C 11.3271 -0.115531 11.2819 -0.127373 11.2399 -0.115429C 11.1979 -0.103486 11.1657 -0.0696444 11.1558 -0.027081L 11.2727 0ZM 19.9033 13.175L 20.0221 13.1581C 20.021 13.1502 20.0191 13.1423 20.0163 13.1347L 19.9033 13.175ZM 19.9033 29.3375L 19.8358 29.4367C 19.8693 29.4595 19.9119 29.4638 19.9492 29.4484C 19.9866 29.4329 20.0136 29.3997 20.0212 29.36L 19.9033 29.3375ZM 14.0908 27.23L 14.0758 27.1109C 14.0359 27.1159 14.0011 27.1406 13.9832 27.1767C 13.9654 27.2128 13.9668 27.2554 13.987 27.2903L 14.0908 27.23ZM 17.3718 37.435L 17.4917 37.4375C 17.4919 37.4276 17.4909 37.4176 17.4887 37.4079L 17.3718 37.435ZM 17.1274 49.15L 17.0674 49.2539C 17.1042 49.2751 17.1494 49.2754 17.1863 49.2545C 17.2233 49.2337 17.2465 49.1949 17.2473 49.1525L 17.1274 49.15ZM 0 48.6625L -0.116904 48.6354C -0.126391 48.6764 -0.113756 48.7193 -0.0835983 48.7486C -0.0534403 48.7779 -0.0101566 48.7892 0.0305004 48.7786L 0 48.6625ZM 11.1875 0.0845146C 14.7511 3.67614 17.8517 7.77201 19.7903 13.2153L 20.0163 13.1347C 18.0629 7.65799 14.9323 3.51886 11.3579 -0.0845146L 11.1875 0.0845146ZM 19.7845 13.1919C 20.6899 19.5678 20.6329 24.8731 19.7854 29.315L 20.0212 29.36C 20.8717 24.8969 20.9294 19.5522 20.0221 13.1581L 19.7845 13.1919ZM 19.9708 29.2383C 17.7422 27.7228 15.7397 26.9027 14.0758 27.1109L 14.1057 27.3491C 15.6772 27.1523 17.6159 27.9272 19.8358 29.4367L 19.9708 29.2383ZM 13.987 27.2903C 15.4832 29.8644 16.1929 32.8773 17.2548 37.4621L 17.4887 37.4079C 16.4266 32.8227 15.7061 29.7756 14.1945 27.1697L 13.987 27.2903ZM 17.2518 37.4325L 17.0074 49.1475L 17.2473 49.1525L 17.4917 37.4375L 17.2518 37.4325ZM 17.1873 49.0461C 12.0317 46.0722 6.05894 46.9461 -0.0305004 48.5464L 0.0305004 48.7786C 6.11761 47.1789 12.003 46.3328 17.0674 49.2539L 17.1873 49.0461ZM 0.116904 48.6896L 11.3896 0.027081L 11.1558 -0.027081L -0.116904 48.6354L 0.116904 48.6896Z"/>
<path id="path8_fill" fill-rule="evenodd" d="M 21.1139 0C 16.5885 2.29 12.3287 5.2175 8.75393 9.785C 5.87271 15.5575 4.24174 20.6275 3.63767 25.12C 6.22763 24.385 8.34963 24.25 9.82019 24.95C 7.57312 26.935 5.93613 29.5825 3.47726 33.6L 0 44.795C 5.78173 43.6075 11.1353 46.29 16.4058 49.725L 21.1139 0Z"/>
<path id="path9_stroke" d="M 21.1139 0L 21.2334 0.0113116C 21.2375 -0.0322083 21.2177 -0.0745261 21.1815 -0.0991504C 21.1454 -0.123775 21.0988 -0.12681 21.0598 -0.107072L 21.1139 0ZM 8.75393 9.785L 8.65943 9.71104C 8.65447 9.71738 8.65016 9.72421 8.64656 9.73141L 8.75393 9.785ZM 3.63767 25.12L 3.51874 25.104C 3.51335 25.1441 3.52852 25.1842 3.55909 25.2107C 3.58966 25.2372 3.63152 25.2465 3.67043 25.2354L 3.63767 25.12ZM 9.82019 24.95L 9.89964 25.0399C 9.92984 25.0133 9.94463 24.9732 9.93902 24.9333C 9.93341 24.8934 9.90815 24.859 9.87177 24.8417L 9.82019 24.95ZM 3.47726 33.6L 3.37491 33.5374C 3.36972 33.5458 3.36561 33.5549 3.36266 33.5644L 3.47726 33.6ZM 0 44.795L -0.114599 44.7594C -0.12719 44.7999 -0.117429 44.8441 -0.0889308 44.8756C -0.0604322 44.907 -0.0174357 44.9211 0.0241426 44.9125L 0 44.795ZM 16.4058 49.725L 16.3402 49.8255C 16.3754 49.8485 16.42 49.8513 16.4579 49.8331C 16.4957 49.8148 16.5213 49.7781 16.5252 49.7363L 16.4058 49.725ZM 21.0598 -0.107072C 16.5273 2.18678 12.2465 5.13006 8.65943 9.71104L 8.84843 9.85896C 12.4109 5.30494 16.6497 2.39321 21.1681 0.107072L 21.0598 -0.107072ZM 8.64656 9.73141C 5.76159 15.5122 4.1247 20.601 3.51874 25.104L 3.7566 25.136C 4.35878 20.654 5.98384 15.6028 8.8613 9.83859L 8.64656 9.73141ZM 3.67043 25.2354C 6.25531 24.5019 8.33997 24.3783 9.76862 25.0584L 9.87177 24.8417C 8.35929 24.1217 6.19996 24.2681 3.60491 25.0046L 3.67043 25.2354ZM 9.74075 24.8601C 7.48138 26.8576 5.83392 29.5196 3.37491 33.5374L 3.57961 33.6626C 6.03834 29.6454 7.66486 27.0124 9.89964 25.0399L 9.74075 24.8601ZM 3.36266 33.5644L -0.114599 44.7594L 0.114599 44.8306L 3.59186 33.6356L 3.36266 33.5644ZM 0.0241426 44.9125C 5.75432 43.7356 11.0709 46.3912 16.3402 49.8255L 16.4713 49.6245C 11.1998 46.1888 5.80914 43.4794 -0.0241426 44.6775L 0.0241426 44.9125ZM 16.5252 49.7363L 21.2334 0.0113116L 20.9945 -0.0113116L 16.2863 49.7137L 16.5252 49.7363Z"/>
<path id="path10_fill" fill-rule="evenodd" d="M 1.40364 7.785C 6.16622 4.1475 11.8332 1.3575 19.0331 0C 16.407 3.435 14.9786 6.85 15.6992 10.235C 21.5005 4.97 27.9519 1.4525 35.4335 0.7025C 32.6706 5.2175 31.5019 9.71 32.2744 14.1725C 35.3075 12.8275 38.7389 12.32 42.7114 12.95C 45.4843 13.9825 47.1103 15.365 47.7099 17.0625C 42.8806 17.6325 39.5033 19.18 36.6587 21.085L 0 11.2825L 1.40364 7.785Z"/>
<path id="path11_stroke" d="M 1.40364 7.785L 1.3308 7.68963C 1.31363 7.70275 1.30032 7.72025 1.29227 7.74031L 1.40364 7.785ZM 19.0331 0L 19.1284 0.0728816C 19.1586 0.03339 19.1613 -0.0206279 19.1352 -0.0629493C 19.1091 -0.105271 19.0597 -0.127133 19.0108 -0.117922L 19.0331 0ZM 15.6992 10.235L 15.5818 10.26C 15.5907 10.302 15.6215 10.336 15.6623 10.3492C 15.7032 10.3624 15.748 10.3527 15.7798 10.3239L 15.6992 10.235ZM 35.4335 0.7025L 35.5359 0.765136C 35.5597 0.726264 35.5594 0.677272 35.5352 0.638679C 35.5109 0.600086 35.4669 0.578553 35.4216 0.583098L 35.4335 0.7025ZM 32.2744 14.1725L 32.1561 14.193C 32.1624 14.2294 32.1852 14.2609 32.2178 14.2783C 32.2504 14.2958 32.2892 14.2972 32.323 14.2822L 32.2744 14.1725ZM 42.7114 12.95L 42.7533 12.8375C 42.7458 12.8348 42.7381 12.8327 42.7302 12.8315L 42.7114 12.95ZM 47.7099 17.0625L 47.7239 17.1817C 47.7601 17.1774 47.7924 17.1569 47.8117 17.1259C 47.831 17.095 47.8351 17.0569 47.823 17.0225L 47.7099 17.0625ZM 36.6587 21.085L 36.6277 21.2009C 36.6611 21.2099 36.6968 21.2039 36.7255 21.1847L 36.6587 21.085ZM 0 11.2825L -0.111366 11.2378C -0.124155 11.2697 -0.12268 11.3055 -0.107316 11.3362C -0.0919517 11.3669 -0.0641695 11.3896 -0.0309988 11.3984L 0 11.2825ZM 1.47647 7.88037C 6.22944 4.2495 11.8711 1.47134 19.0553 0.117922L 19.0108 -0.117922C 11.7952 1.24366 6.103 4.0455 1.3308 7.68963L 1.47647 7.88037ZM 18.9377 -0.0728816C 16.3041 3.37203 14.8502 6.82352 15.5818 10.26L 15.8165 10.21C 15.1069 6.87648 16.5099 3.49797 19.1284 0.0728816L 18.9377 -0.0728816ZM 15.7798 10.3239C 21.57 5.0678 27.9873 1.56716 35.4455 0.821902L 35.4216 0.583098C 27.9165 1.33784 21.4309 4.8722 15.6185 10.1461L 15.7798 10.3239ZM 35.3312 0.639864C 32.5576 5.17235 31.3773 9.69425 32.1561 14.193L 32.3926 14.152C 31.6264 9.72575 32.7837 5.26265 35.5359 0.765136L 35.3312 0.639864ZM 32.323 14.2822C 35.3409 12.9428 38.7382 12.44 42.6926 13.0685L 42.7302 12.8315C 38.7395 12.2 35.2741 12.7122 32.2257 14.0628L 32.323 14.2822ZM 42.6695 13.0625C 45.4277 14.0895 47.0143 15.4535 47.5967 17.1025L 47.823 17.0225C 47.2063 15.2765 45.541 13.8755 42.7533 12.8375L 42.6695 13.0625ZM 47.6958 16.9433C 42.8482 17.517 39.4448 19.0753 36.5919 20.9853L 36.7255 21.1847C 39.5619 19.2847 42.913 17.748 47.7239 17.1817L 47.6958 16.9433ZM 36.6897 20.9691L 0.0309988 11.1666L -0.0309988 11.3984L 36.6277 21.2009L 36.6897 20.9691ZM 0.111366 11.3272L 1.515 7.82969L 1.29227 7.74031L -0.111366 11.2378L 0.111366 11.3272Z"/>
<path id="path12_fill" fill-rule="evenodd" d="M 15.2974 6.035C 14.5394 8.39 13.6193 10.63 12.4851 12.54L 0 0L 15.2974 6.035Z"/>
<path id="path13_stroke" d="M 15.2974 6.035L 15.4116 6.07176C 15.431 6.01153 15.4003 5.94659 15.3414 5.92337L 15.2974 6.035ZM 12.4851 12.54L 12.4001 12.6247C 12.4262 12.651 12.4631 12.6637 12.4999 12.6591C 12.5367 12.6545 12.5693 12.6332 12.5883 12.6013L 12.4851 12.54ZM 0 0L 0.0440383 -0.111627C -0.00881514 -0.132478 -0.0690477 -0.113405 -0.100265 -0.0659313C -0.131482 -0.0184577 -0.125127 0.0444022 -0.0850388 0.0846664L 0 0ZM 15.1832 5.99823C 14.4267 8.34879 13.5119 10.5764 12.3819 12.4787L 12.5883 12.6013C 13.7267 10.6836 14.6521 8.43121 15.4116 6.07176L 15.1832 5.99823ZM 12.5701 12.4553L 0.0850388 -0.0846664L -0.0850388 0.0846664L 12.4001 12.6247L 12.5701 12.4553ZM -0.0440383 0.111627L 15.2533 6.14663L 15.3414 5.92337L 0.0440383 -0.111627L -0.0440383 0.111627Z"/>
<path id="path14_fill" fill-rule="evenodd" d="M 0 6.035C 0.758214 8.39 1.6781 10.6325 2.81254 12.54L 15.2976 0L 0 6.035Z"/>
<path id="path15_stroke" d="M 0 6.035L -0.0440376 5.92337C -0.102904 5.9466 -0.133619 6.01154 -0.114226 6.07178L 0 6.035ZM 2.81254 12.54L 2.7094 12.6013C 2.72835 12.6332 2.76097 12.6545 2.79777 12.6591C 2.83457 12.6637 2.87141 12.6509 2.89758 12.6247L 2.81254 12.54ZM 15.2976 0L 15.3827 0.0846664C 15.4228 0.0444022 15.4291 -0.0184575 15.3979 -0.0659311C 15.3667 -0.113405 15.3064 -0.132478 15.2536 -0.111627L 15.2976 0ZM -0.114226 6.07178C 0.645505 8.43119 1.57073 10.6861 2.7094 12.6013L 2.91567 12.4787C 1.78547 10.5789 0.870924 8.34881 0.114226 5.99822L -0.114226 6.07178ZM 2.89758 12.6247L 15.3827 0.0846664L 15.2126 -0.0846664L 2.7275 12.4553L 2.89758 12.6247ZM 15.2536 -0.111627L -0.0440376 5.92337L 0.0440376 6.14663L 15.3417 0.111627L 15.2536 -0.111627Z"/>
<path id="path16_stroke" d="M 23.2054 0.12C 35.9468 0.12 46.291 10.4366 46.291 23.145L 46.531 23.145C 46.531 10.3034 36.0788 -0.12 23.2054 -0.12L 23.2054 0.12ZM 46.291 23.145C 46.291 35.8534 35.9468 46.17 23.2054 46.17L 23.2054 46.41C 36.0788 46.41 46.531 35.9866 46.531 23.145L 46.291 23.145ZM 23.2054 46.17C 10.4639 46.17 0.12 35.8534 0.12 23.145L -0.12 23.145C -0.12 35.9866 10.332 46.41 23.2054 46.41L 23.2054 46.17ZM 0.12 23.145C 0.12 10.4366 10.4639 0.12 23.2054 0.12L 23.2054 -0.12C 10.332 -0.12 -0.12 10.3034 -0.12 23.145L 0.12 23.145Z"/>
<path id="path17_fill" fill-rule="evenodd" d="M 38.8316 0C 60.2631 0 77.6629 17.355 77.6629 38.73C 77.6629 60.1075 60.2631 77.4625 38.8316 77.4625C 17.3998 77.4625 0 60.1075 0 38.73C 0 17.355 17.3998 0 38.8316 0Z"/>
<path id="path18_fill" fill-rule="evenodd" d="M 23.2054 0C 36.0128 0 46.411 10.37 46.411 23.145C 46.411 35.92 36.0128 46.29 23.2054 46.29C 10.3979 46.29 0 35.92 0 23.145C 0 10.37 10.3979 0 23.2054 0Z"/>
<path id="path19_fill" fill-rule="evenodd" d="M 13.6524 0C 21.1871 0 27.3045 6.1 27.3045 13.615C 27.3045 21.1325 21.1871 27.2325 13.6524 27.2325C 6.11735 27.2325 0 21.1325 0 13.615C 0 6.1 6.11735 0 13.6524 0Z"/>
<path id="path20_fill" fill-rule="evenodd" d="M 7.22221 0C 11.2083 0 14.4444 3.2275 14.4444 7.2025C 14.4444 11.18 11.2083 14.4075 7.22221 14.4075C 3.23613 14.4075 0 11.18 0 7.2025C 0 3.2275 3.23613 0 7.22221 0Z"/>
<path id="path21_stroke" d="M 7.22221 0.12C 11.1423 0.12 14.3244 3.29408 14.3244 7.2025L 14.5644 7.2025C 14.5644 3.16092 11.2743 -0.12 7.22221 -0.12L 7.22221 0.12ZM 14.3244 7.2025C 14.3244 11.1134 11.1423 14.2875 7.22221 14.2875L 7.22221 14.5275C 11.2743 14.5275 14.5644 11.2466 14.5644 7.2025L 14.3244 7.2025ZM 7.22221 14.2875C 3.30213 14.2875 0.12 11.1134 0.12 7.2025L -0.12 7.2025C -0.12 11.2466 3.17014 14.5275 7.22221 14.5275L 7.22221 14.2875ZM 0.12 7.2025C 0.12 3.29408 3.3021 0.12 7.22221 0.12L 7.22221 -0.12C 3.17017 -0.12 -0.12 3.16092 -0.12 7.2025L 0.12 7.2025Z"/>
</defs>
</svg>
