<?xml version="1.0" encoding="UTF-8"?>
<svg width="53px" height="51px" viewBox="0 0 53 51" version="1.1" xmlns="http://www.w3.org/2000/svg" xmlns:xlink="http://www.w3.org/1999/xlink" xmlns:sketch="http://www.bohemiancoding.com/sketch/ns">
    <!-- Generator: Sketch 3.4.4 (17249) - http://www.bohemiancoding.com/sketch -->
    <title>Group</title>
    <desc>Created with Sketch.</desc>
    <defs></defs>
    <g id="Page-1" stroke="none" stroke-width="1" fill="none" fill-rule="evenodd" sketch:type="MSPage">
        <g id="desktop" sketch:type="MSLayerGroup" transform="translate(-334.000000, -39.000000)">
            <g id="Desktop-HD" sketch:type="MSShapeGroup">
                <g id="Web">
                    <g id="Desktop-HD">
                        <g id="Group" transform="translate(334.000000, 40.000000)">
                            <path d="M48.8198941,32.2100894 C52.9947294,28.195559 52.9976353,21.6798443 48.8264706,17.6688408 L33.6849882,3.10857756 C29.5138235,-0.902425953 22.7380706,-0.899512429 18.5632353,3.11501798 L3.43490588,17.6625537 C-0.739776471,21.6770841 -0.742835294,28.1927989 3.42832941,32.2038024 L18.5698118,46.7640656 C22.7409765,50.7750691 29.5168824,50.7721556 33.6915647,46.7577785 L48.8198941,32.2100894 L48.8198941,32.2100894 Z" id="Fill-1" fill="#79CE4D"></path>
                            <path d="M48.8198941,32.2100894 C52.9947294,28.195559 52.9976353,21.6798443 48.8264706,17.6688408 L33.6849882,3.10857756 C29.5138235,-0.902425953 22.7380706,-0.899512429 18.5632353,3.11501798 L3.43490588,17.6625537 C-0.739776471,21.6770841 -0.742835294,28.1927989 3.42832941,32.2038024 L18.5698118,46.7640656 C22.7409765,50.7750691 29.5168824,50.7721556 33.6915647,46.7577785 L48.8198941,32.2100894 L48.8198941,32.2100894 Z" id="Stroke-2" stroke="#76C74B" stroke-width="0.24"></path>
                            <path d="M26.2951765,12.081467 C33.3954706,12.081467 39.1599765,17.6246779 39.1599765,24.4524465 C39.1599765,31.2800617 33.3954706,36.8232725 26.2951765,36.8232725 C19.1948824,36.8232725 13.4303765,31.2800617 13.4303765,24.4524465 C13.4303765,17.6246779 19.1948824,12.081467 26.2951765,12.081467 L26.2951765,12.081467 L26.2951765,12.081467 Z" id="Fill-3" fill="#EBEBEB"></path>
                            <path d="M26.2951765,12.081467 C33.3954706,12.081467 39.1599765,17.6246779 39.1599765,24.4524465 C39.1599765,31.2800617 33.3954706,36.8232725 26.2951765,36.8232725 C19.1948824,36.8232725 13.4303765,31.2800617 13.4303765,24.4524465 C13.4303765,17.6246779 19.1948824,12.081467 26.2951765,12.081467 L26.2951765,12.081467 L26.2951765,12.081467 Z" id="Stroke-4" stroke="#EAEAEA" stroke-width="0.24"></path>
                            <path d="M26.4822235,16.9148513 C30.7252706,16.9148513 34.1701176,20.2275289 34.1701176,24.3076903 C34.1701176,28.3878517 30.7252706,31.7005293 26.4822235,31.7005293 C22.2391765,31.7005293 18.7943294,28.3878517 18.7943294,24.3076903 C18.7943294,20.2275289 22.2391765,16.9148513 26.4822235,16.9148513 L26.4822235,16.9148513 L26.4822235,16.9148513 Z" id="Fill-5" fill="#1A1A1B"></path>
                            <path d="M26.4822235,16.9148513 C30.7252706,16.9148513 34.1701176,20.2275289 34.1701176,24.3076903 C34.1701176,28.3878517 30.7252706,31.7005293 26.4822235,31.7005293 C22.2391765,31.7005293 18.7943294,28.3878517 18.7943294,24.3076903 C18.7943294,20.2275289 22.2391765,16.9148513 26.4822235,16.9148513 L26.4822235,16.9148513 L26.4822235,16.9148513 Z" id="Stroke-6" stroke="#1A1A1B" stroke-width="0.24"></path>
                            <path d="M31.4428706,15.1498686 C33.9391765,15.1498686 35.9658,17.09871 35.9658,19.4991477 C35.9658,21.8995854 33.9391765,23.8485801 31.4428706,23.8485801 C28.9465647,23.8485801 26.9199412,21.8995854 26.9199412,19.4991477 C26.9199412,17.09871 28.9465647,15.1498686 31.4428706,15.1498686 L31.4428706,15.1498686 L31.4428706,15.1498686 Z" id="Fill-7" fill="#F9F9F9"></path>
                            <path d="M31.4428706,15.1498686 C33.9391765,15.1498686 35.9658,17.09871 35.9658,19.4991477 C35.9658,21.8995854 33.9391765,23.8485801 31.4428706,23.8485801 C28.9465647,23.8485801 26.9199412,21.8995854 26.9199412,19.4991477 C26.9199412,17.09871 28.9465647,15.1498686 31.4428706,15.1498686 L31.4428706,15.1498686 L31.4428706,15.1498686 Z" id="Stroke-8" stroke="#F9FAF9" stroke-width="0.24"></path>
                        </g>
                    </g>
                </g>
            </g>
        </g>
    </g>
</svg>