<?xml version="1.0" encoding="UTF-8"?>
<svg width="85px" height="123px" viewBox="0 0 85 123" version="1.1" xmlns="http://www.w3.org/2000/svg" xmlns:xlink="http://www.w3.org/1999/xlink">
    <!-- Generator: Sketch 43.1 (39012) - http://www.bohemiancoding.com/sketch -->
    <title>Group 6</title>
    <desc>Created with Sketch.</desc>
    <defs></defs>
    <g id="Web" stroke="none" stroke-width="1" fill="none" fill-rule="evenodd">
        <g id="LandingPage-(&lt;1170)" transform="translate(-1315.000000, -692.000000)">
            <g id="Group-6" transform="translate(1368.852814, 750.852814) rotate(-45.000000) translate(-1368.852814, -750.852814) translate(1308.852814, 690.852814)">
                <g id="Page-1">
                    <path d="M62.1641949,5.03285849 C91.1372017,5.03285849 114.6601,29.2374476 114.6601,59.0505604 C114.6601,88.8637908 91.1372017,113.068341 62.1641949,113.068341 C33.1909539,113.068341 9.66840713,88.8637908 9.66840713,59.0505604 C9.66840713,29.2374476 33.1909539,5.03285849 62.1641949,5.03285849 Z" id="Fill-1" fill="#79CE4D"></path>
                    <path d="M62.1641949,5.03285849 C91.1372017,5.03285849 114.6601,29.2374476 114.6601,59.0505604 C114.6601,88.8637908 91.1372017,113.068341 62.1641949,113.068341 C33.1909539,113.068341 9.66840713,88.8637908 9.66840713,59.0505604 C9.66840713,29.2374476 33.1909539,5.03285849 62.1641949,5.03285849 Z" id="Stroke-2" stroke="#79CE4D" stroke-linecap="round" stroke-linejoin="round"></path>
                    <path d="M15.8254639,82.4839774 C19.8990462,94.3626678 23.8951156,106.227055 29.4374976,118.377354 C32.1587642,120.184018 35.0217796,120.145614 38.0176797,118.377354 C41.1392794,114.717667 42.8992307,111.003274 43.615004,107.246989 L15.8254639,82.4839774 Z" id="Fill-3" fill="#79CE4D"></path>
                    <path d="M15.8254639,82.4839774 C19.8990462,94.3626678 23.8951156,106.227055 29.4374976,118.377354 C32.1587642,120.184018 35.0217796,120.145614 38.0176797,118.377354 C41.1392794,114.717667 42.8992307,111.003274 43.615004,107.246989 L15.8254639,82.4839774 Z" id="Stroke-4" stroke="#79CE4D" stroke-linecap="round" stroke-linejoin="round"></path>
                    <path d="M109.23264,82.4839774 C105.159019,94.3626678 101.163105,106.227055 95.62045,118.377354 C92.8994959,120.184018 90.0364024,120.145614 87.0405413,118.377354 C83.9185511,114.717667 82.1589903,111.003274 81.4432169,107.246989 L109.23264,82.4839774 Z" id="Fill-5" fill="#79CE4D"></path>
                    <path d="M109.23264,82.4839774 C105.159019,94.3626678 101.163105,106.227055 95.62045,118.377354 C92.8994959,120.184018 90.0364024,120.145614 87.0405413,118.377354 C83.9185511,114.717667 82.1589903,111.003274 81.4432169,107.246989 L109.23264,82.4839774 Z" id="Stroke-6" stroke="#79CE4D" stroke-linecap="round" stroke-linejoin="round"></path>
                    <path d="M113.885362,50.5233471 C116.08618,52.8119006 118.007405,55.4311972 119.206999,58.9047827 C119.766184,62.9665734 119.730649,66.3535543 119.206999,69.1864231 C117.835588,68.222801 116.620374,67.7161058 115.623055,67.8454248 C116.550476,69.4932617 116.991342,71.4193303 117.646199,74.3360605 L117.495468,81.7894955 C114.344582,79.9148017 110.688788,80.4614682 106.93459,81.4795611 L113.885362,50.5233471 Z" id="Fill-7" fill="#79CE4D"></path>
                    <path d="M113.885362,50.5233471 C116.08618,52.8119006 118.007405,55.4311972 119.206999,58.9047827 C119.766184,62.9665734 119.730649,66.3535543 119.206999,69.1864231 C117.835588,68.222801 116.620374,67.7161058 115.623055,67.8454248 C116.550476,69.4932617 116.991342,71.4193303 117.646199,74.3360605 L117.495468,81.7894955 C114.344582,79.9148017 110.688788,80.4614682 106.93459,81.4795611 L113.885362,50.5233471 Z" id="Stroke-8" stroke="#79CE4D" stroke-linecap="round" stroke-linejoin="round"></path>
                    <path d="M14.343856,37.9747062 C11.5535113,39.4313079 8.92686122,41.2923251 6.72256819,44.1984747 C4.94606006,47.870741 3.94042385,51.0962692 3.56785463,53.9542181 C5.1648532,53.4855348 6.47331661,53.3993222 7.38004098,53.8460604 C5.99449429,55.1086836 4.9851484,56.792965 3.4689428,59.3476021 L1.32490281,66.4687657 C4.88990719,65.7136214 8.19101651,67.4202397 11.440737,69.60573 L14.343856,37.9747062 Z" id="Fill-9" fill="#79CE4D"></path>
                    <path d="M14.343856,37.9747062 C11.5535113,39.4313079 8.92686122,41.2923251 6.72256819,44.1984747 C4.94606006,47.870741 3.94042385,51.0962692 3.56785463,53.9542181 C5.1648532,53.4855348 6.47331661,53.3993222 7.38004098,53.8460604 C5.99449429,55.1086836 4.9851484,56.792965 3.4689428,59.3476021 L1.32490281,66.4687657 C4.88990719,65.7136214 8.19101651,67.4202397 11.440737,69.60573 L14.343856,37.9747062 Z" id="Stroke-10" stroke="#79CE4D" stroke-linecap="round" stroke-linejoin="round"></path>
                    <path d="M61.9650436,5.14689429 C64.9015497,2.83365255 68.3956797,1.05845603 72.8351928,0.195937806 C71.2162095,2.38025247 70.3352576,4.55320274 70.7796385,6.70616735 C74.3569434,3.35719837 78.3348939,1.11958862 82.9481764,0.642284129 C81.2444561,3.51473237 80.5236063,6.37228933 81.0000076,9.21182002 C82.8704683,8.35596368 84.9861585,8.0326663 87.4357201,8.43355505 C89.1456882,9.09033858 90.1480833,9.97009933 90.5178801,11.0493248 C87.5399817,11.4125935 85.4574833,12.3965931 83.7033895,13.6082725 L61.099321,7.37274777 L61.9650436,5.14689429 Z" id="Fill-11" fill="#79CE4D"></path>
                    <path d="M61.9650436,5.14689429 C64.9015497,2.83365255 68.3956797,1.05845603 72.8351928,0.195937806 C71.2162095,2.38025247 70.3352576,4.55320274 70.7796385,6.70616735 C74.3569434,3.35719837 78.3348939,1.11958862 82.9481764,0.642284129 C81.2444561,3.51473237 80.5236063,6.37228933 81.0000076,9.21182002 C82.8704683,8.35596368 84.9861585,8.0326663 87.4357201,8.43355505 C89.1456882,9.09033858 90.1480833,9.97009933 90.5178801,11.0493248 C87.5399817,11.4125935 85.4574833,12.3965931 83.7033895,13.6082725 L61.099321,7.37274777 L61.9650436,5.14689429 Z" id="Stroke-12" stroke="#79CE4D" stroke-linecap="round" stroke-linejoin="round"></path>
                    <path d="M43.0765144,109.46383 C42.6090945,110.961853 42.0417084,112.387927 41.3423357,113.60184 L33.6440818,105.624585 L43.0765144,109.46383 Z" id="Fill-13" fill="#4A8C26"></path>
                    <path d="M43.0765144,109.46383 C42.6090945,110.961853 42.0417084,112.387927 41.3423357,113.60184 L33.6440818,105.624585 L43.0765144,109.46383 Z" id="Stroke-14" stroke="#4A8D26" stroke-linecap="round" stroke-linejoin="round"></path>
                    <path d="M63.7492054,25.6568801 C76.9638736,25.6568801 87.6926644,36.6967998 87.6926644,50.2948836 C87.6926644,63.8929673 76.9638736,74.9328871 63.7492054,74.9328871 C50.5341467,74.9328871 39.8053559,63.8929673 39.8053559,50.2948836 C39.8053559,36.6967998 50.5341467,25.6568801 63.7492054,25.6568801 Z" id="Fill-17" fill="#EEEEEE"></path>
                    <path d="M63.7492054,25.6568801 C76.9638736,25.6568801 87.6926644,36.6967998 87.6926644,50.2948836 C87.6926644,63.8929673 76.9638736,74.9328871 63.7492054,74.9328871 C50.5341467,74.9328871 39.8053559,63.8929673 39.8053559,50.2948836 C39.8053559,36.6967998 50.5341467,25.6568801 63.7492054,25.6568801 Z" id="Stroke-18" stroke="#EEEEEE" stroke-linejoin="round"></path>
                    <path d="M64.0971345,35.2829126 C71.9944617,35.2829126 78.4059636,41.8805304 78.4059636,50.0064631 C78.4059636,58.1327877 71.9944617,64.7300136 64.0971345,64.7300136 C56.1998073,64.7300136 49.7883054,58.1327877 49.7883054,50.0064631 C49.7883054,41.8805304 56.1998073,35.2829126 64.0971345,35.2829126 Z" id="Fill-19" fill="#1A1A1B"></path>
                    <path d="M64.0971345,35.2829126 C71.9944617,35.2829126 78.4059636,41.8805304 78.4059636,50.0064631 C78.4059636,58.1327877 71.9944617,64.7300136 64.0971345,64.7300136 C56.1998073,64.7300136 49.7883054,58.1327877 49.7883054,50.0064631 C49.7883054,41.8805304 56.1998073,35.2829126 64.0971345,35.2829126 Z" id="Stroke-20" stroke="#1A1A1B" stroke-linejoin="round"></path>
                    <path d="M73.3299472,31.7677884 C77.976031,31.7677884 81.7481919,35.6489245 81.7481919,40.4298069 C81.7481919,45.2106894 77.976031,49.0922173 73.3299472,49.0922173 C68.6838634,49.0922173 64.9117026,45.2106894 64.9117026,40.4298069 C64.9117026,35.6489245 68.6838634,31.7677884 73.3299472,31.7677884 Z" id="Fill-21" fill="#F9F9F9"></path>
                    <path d="M37.4862189,81.5971237 C37.5795467,80.320393 38.2320602,79.1510362 39.2676473,78.4037294 C40.3032343,77.6564226 41.6156807,77.4083653 42.8512001,77.7257846 C56.9171426,81.2753939 70.7257505,81.2927148 85.42312,77.7967141 C86.6254474,77.5082936 87.8925967,77.7238252 88.9328696,78.3939325 C90.1246538,79.1608331 90.494841,80.3435137 90.3320055,82.0935126 C87.2404737,104.356554 41.1232692,105.53896 37.7685452,83.914441 C37.5498693,83.0819796 37.4502936,82.3069672 37.4862189,81.5971237 Z" id="Fill-22" fill="#94286D"></path>
                    <path d="M49.1084573,97.0019892 C52.423351,92.5984046 57.6114389,89.7615778 63.4383731,89.7615778 C69.1505023,89.7615778 74.2487769,92.4877389 77.570309,96.7435472 C68.8822338,100.39187 57.5122537,100.515899 49.1084573,97.0019892 Z" id="Fill-23" fill="#E773A4"></path>
                    <path d="M8.57526147,91.2940074 C9.91312899,93.4578662 12.0637293,94.9891201 14.5408596,95.5416255 C17.017951,96.0941701 19.6124244,95.6212938 21.7377208,94.2299003 C21.737916,94.2297827 21.7381113,94.2296652 21.7383065,94.2295476 C26.0203339,91.4262262 27.2876393,85.7042545 24.5920672,81.3445599 C22.3664143,77.7449865 19.7272293,73.4762854 17.473539,69.8314504 C16.1356324,67.6675132 13.9850712,66.1364552 11.5079408,65.5839106 C9.03084947,65.031366 6.43637599,65.503968 4.31107965,66.8955183 C4.31088441,66.8955183 4.31068916,66.8959101 4.31049392,66.8959101 C0.0284665786,69.6993883 -1.23883888,75.4211641 1.45673319,79.7807803 C3.68234713,83.3805105 6.32153204,87.6489764 8.57526147,91.2940074 Z" id="Fill-24" fill="#262626"></path>
                    <path d="M10.0173125,66.8798432 C10.8745614,66.8798432 11.5705368,67.5961919 11.5705368,68.477912 C11.5705368,69.360024 10.8745614,70.0763726 10.0173125,70.0763726 C9.1601026,70.0763726 8.46412721,69.360024 8.46412721,68.477912 C8.46412721,67.5961919 9.1601026,66.8798432 10.0173125,66.8798432 Z" id="Fill-25" fill="#FFFFFF"></path>
                </g>
            </g>
        </g>
    </g>
</svg>