<svg width="205" height="100" viewBox="0 0 205 100" version="1.1" xmlns="http://www.w3.org/2000/svg" xmlns:xlink="http://www.w3.org/1999/xlink">
<title>Group 53</title>
<desc>Created using Figma</desc>
<g id="Canvas" transform="translate(-673 -2665)">
<g id="Group 53">
<g id="Group 55">
<g id="Oval 3">
<use xlink:href="#path0_fill" transform="matrix(-1 0 0 1 774 2665)" fill="#FFFFFF"/>
</g>
<g id="Page 1">
<g id="Group 3">
<g id="Fill 1">
<use xlink:href="#path1_fill" transform="matrix(-1 0 0 1 744.422 2699.9)"/>
</g>
<g id="Fill 2">
<use xlink:href="#path2_fill" transform="matrix(-1 0 0 1 744.422 2723.8)"/>
</g>
<g id="Fill 3">
<use xlink:href="#path3_fill" transform="matrix(-1 0 0 1 735.989 2722.83)" fill="#FF0069"/>
</g>
<g id="Fill 4">
<use xlink:href="#path4_fill" transform="matrix(-1 0 0 1 721.543 2713.5)" fill="#FF0069"/>
</g>
<g id="Fill 5">
<use xlink:href="#path4_fill" transform="matrix(-1 0 0 1 721.543 2718.15)" fill="#FF0069"/>
</g>
<g id="Fill 6">
<use xlink:href="#path5_fill" transform="matrix(-1 0 0 1 717.913 2716.29)" fill="#FF0069"/>
</g>
</g>
<g id="Fill 7">
<use xlink:href="#path6_fill" transform="matrix(-1 0 0 1 729.756 2676)"/>
</g>
</g>
</g>
<g id="Group">
<g id="Feito pela Mouse Lab">
<use xlink:href="#path7_fill" transform="translate(774 2703)" fill="#343434"/>
</g>
</g>
</g>
</g>
<defs>
<path id="path0_fill" fill-rule="evenodd" d="M 50.5 100C 78.3904 100 101 77.6142 101 50C 101 22.3858 78.3904 0 50.5 0C 22.6096 0 0 22.3858 0 50C 0 77.6142 22.6096 100 50.5 100Z"/>
<path id="path1_fill" fill-rule="evenodd" d="M 0 7.02915L 0 21.0875L 7.33298 21.0875L 7.33298 10.5437C 7.33298 8.60296 8.97482 7.02915 10.9995 7.02915C 13.0241 7.02915 14.666 8.60296 14.666 10.5437L 14.666 17.5729L 21.9988 17.5729L 21.9988 10.5437C 21.9988 8.60296 23.641 7.02915 25.6653 7.02915C 27.6899 7.02915 29.3321 8.60296 29.3321 10.5437L 29.3321 21.0875L 36.665 21.0875L 36.665 7.02915C 36.665 3.14695 33.3821 0 29.3321 0L 7.33298 0C 3.28296 0 0 3.14695 0 7.02915Z"/>
<path id="path2_fill" fill-rule="evenodd" d="M 29.3321 0L 29.3321 7.11904C 29.3321 12.942 24.4069 17.6628 18.3323 17.6628C 12.2578 17.6628 7.33298 12.942 7.33298 7.11904L 7.33298 0L 0 0L 0 7.02915C 0 16.7343 8.20779 24.602 18.3323 24.602C 28.4569 24.602 36.665 16.7343 36.665 7.02915L 36.665 0L 29.3321 0Z"/>
<path id="path3_fill" fill-rule="evenodd" d="M 16.5739 4.77901C 15.7806 4.77901 15.1375 4.1625 15.1375 3.40176C 15.1375 2.64068 15.7806 2.02417 16.5739 2.02417C 17.3675 2.02417 18.0107 2.64068 18.0107 3.40176C 18.0107 4.1625 17.3675 4.77901 16.5739 4.77901ZM 16.5739 9.4272C 15.7806 9.4272 15.1375 8.81002 15.1375 8.04928C 15.1375 7.28887 15.7806 6.67236 16.5739 6.67236C 17.3675 6.67236 18.0107 7.28887 18.0107 8.04928C 18.0107 8.81002 17.3675 9.4272 16.5739 9.4272ZM 13.4239 6.64349C 12.8951 6.64349 12.4661 6.23225 12.4661 5.72543C 12.4661 5.2186 12.8951 4.80737 13.4239 4.80737C 13.9533 4.80737 14.3823 5.2186 14.3823 5.72543C 14.3823 6.23225 13.9533 6.64349 13.4239 6.64349ZM 19.7991 0.761534C 14.6661 -3.03413 6.59965 8.97876 0 1.57695L 0 8.08586C 0 13.3269 4.43203 17.5753 9.89945 17.5753C 15.367 17.5753 19.7991 13.3269 19.7991 8.08586L 19.7991 0.761534Z"/>
<path id="path4_fill" fill-rule="evenodd" d="M 1.43643 0C 0.643155 0 0 0.61651 0 1.37692C 0 2.13833 0.643155 2.75484 1.43643 2.75484C 2.23005 2.75484 2.8732 2.13833 2.8732 1.37692C 2.8732 0.61651 2.23005 0 1.43643 0Z"/>
<path id="path5_fill" fill-rule="evenodd" d="M 0.957734 0C 0.429003 0 0 0.41123 0 0.918056C 0 1.42555 0.429003 1.83678 0.957734 1.83678C 1.48647 1.83678 1.91547 1.42555 1.91547 0.918056C 1.91547 0.41123 1.48647 0 0.957734 0Z"/>
<path id="path6_fill" fill-rule="evenodd" d="M 21.9991 0L 21.9991 10.5441L 0 10.5441L 0 21.7905L 7.33281 21.7905L 7.33281 17.5732L 29.332 17.5732L 29.332 0L 21.9991 0Z"/>
<path id="path7_fill" d="M 18.8193 14L 17.8113 14L 17.8113 4.088L 23.7893 4.088L 23.7893 4.984L 18.8193 4.984L 18.8193 8.428L 23.4393 8.428L 23.4393 9.31L 18.8193 9.31L 18.8193 14ZM 30.8347 10.22C 30.8067 9.604 30.6061 9.09533 30.2327 8.694C 29.8687 8.28333 29.3461 8.078 28.6647 8.078C 28.3474 8.078 28.0534 8.13867 27.7827 8.26C 27.5121 8.372 27.2741 8.53067 27.0687 8.736C 26.8634 8.932 26.7001 9.16067 26.5787 9.422C 26.4574 9.674 26.3874 9.94 26.3687 10.22L 30.8347 10.22ZM 31.8007 10.528C 31.8007 10.5933 31.8007 10.6633 31.8007 10.738C 31.8007 10.8127 31.7961 10.892 31.7867 10.976L 26.3547 10.976C 26.3641 11.3027 26.4294 11.6107 26.5507 11.9C 26.6721 12.1893 26.8401 12.4413 27.0547 12.656C 27.2694 12.8707 27.5214 13.0433 27.8107 13.174C 28.1001 13.2953 28.4127 13.356 28.7487 13.356C 29.2434 13.356 29.6681 13.244 30.0227 13.02C 30.3867 12.7867 30.6621 12.5207 30.8487 12.222L 31.5627 12.782C 31.1707 13.2767 30.7367 13.6313 30.2607 13.846C 29.7941 14.0607 29.2901 14.168 28.7487 14.168C 28.2634 14.168 27.8107 14.084 27.3907 13.916C 26.9801 13.7387 26.6254 13.496 26.3267 13.188C 26.0281 12.88 25.7901 12.516 25.6127 12.096C 25.4447 11.676 25.3607 11.2187 25.3607 10.724C 25.3607 10.2293 25.4447 9.772 25.6127 9.352C 25.7807 8.932 26.0141 8.568 26.3127 8.26C 26.6114 7.952 26.9614 7.714 27.3627 7.546C 27.7641 7.36867 28.1981 7.28 28.6647 7.28C 29.1781 7.28 29.6307 7.36867 30.0227 7.546C 30.4147 7.714 30.7414 7.94733 31.0027 8.246C 31.2641 8.53533 31.4601 8.876 31.5907 9.268C 31.7307 9.66 31.8007 10.08 31.8007 10.528ZM 35.7044 14L 34.7524 14L 34.7524 7.448L 35.7044 7.448L 35.7044 14ZM 35.9004 4.928C 35.9004 5.124 35.8304 5.28733 35.6904 5.418C 35.5504 5.53933 35.3964 5.6 35.2284 5.6C 35.0604 5.6 34.9064 5.53933 34.7664 5.418C 34.6264 5.28733 34.5564 5.124 34.5564 4.928C 34.5564 4.732 34.6264 4.57333 34.7664 4.452C 34.9064 4.32133 35.0604 4.256 35.2284 4.256C 35.3964 4.256 35.5504 4.32133 35.6904 4.452C 35.8304 4.57333 35.9004 4.732 35.9004 4.928ZM 42.0824 8.246L 40.2344 8.246L 40.2344 12.068C 40.2344 12.3107 40.2578 12.5113 40.3044 12.67C 40.3511 12.8287 40.4164 12.9547 40.5004 13.048C 40.5938 13.132 40.7011 13.1927 40.8224 13.23C 40.9438 13.258 41.0744 13.272 41.2144 13.272C 41.3451 13.272 41.4804 13.2533 41.6204 13.216C 41.7698 13.1787 41.9098 13.1273 42.0404 13.062L 42.0824 13.888C 41.9144 13.9533 41.7371 14 41.5504 14.028C 41.3731 14.0653 41.1771 14.084 40.9624 14.084C 40.7851 14.084 40.5984 14.0607 40.4024 14.014C 40.2064 13.9673 40.0244 13.8787 39.8564 13.748C 39.6884 13.6173 39.5484 13.44 39.4364 13.216C 39.3338 12.992 39.2824 12.698 39.2824 12.334L 39.2824 8.246L 37.9244 8.246L 37.9244 7.448L 39.2824 7.448L 39.2824 5.6L 40.2344 5.6L 40.2344 7.448L 42.0824 7.448L 42.0824 8.246ZM 50.9718 10.724C 50.9718 11.2187 50.8831 11.676 50.7058 12.096C 50.5378 12.516 50.2998 12.88 49.9918 13.188C 49.6838 13.496 49.3151 13.7387 48.8858 13.916C 48.4565 14.084 47.9851 14.168 47.4718 14.168C 46.9678 14.168 46.5011 14.084 46.0718 13.916C 45.6425 13.7387 45.2738 13.496 44.9658 13.188C 44.6578 12.88 44.4151 12.516 44.2378 12.096C 44.0698 11.676 43.9858 11.2187 43.9858 10.724C 43.9858 10.2293 44.0698 9.772 44.2378 9.352C 44.4151 8.932 44.6578 8.568 44.9658 8.26C 45.2738 7.952 45.6425 7.714 46.0718 7.546C 46.5011 7.36867 46.9678 7.28 47.4718 7.28C 47.9851 7.28 48.4565 7.36867 48.8858 7.546C 49.3151 7.714 49.6838 7.952 49.9918 8.26C 50.2998 8.568 50.5378 8.932 50.7058 9.352C 50.8831 9.772 50.9718 10.2293 50.9718 10.724ZM 49.9638 10.724C 49.9638 10.36 49.9031 10.0193 49.7818 9.702C 49.6698 9.37533 49.5065 9.09533 49.2918 8.862C 49.0771 8.61933 48.8158 8.428 48.5078 8.288C 48.1998 8.148 47.8545 8.078 47.4718 8.078C 47.0891 8.078 46.7438 8.148 46.4358 8.288C 46.1371 8.428 45.8805 8.61933 45.6658 8.862C 45.4511 9.09533 45.2831 9.37533 45.1618 9.702C 45.0498 10.0193 44.9938 10.36 44.9938 10.724C 44.9938 11.088 45.0498 11.4333 45.1618 11.76C 45.2831 12.0773 45.4511 12.3573 45.6658 12.6C 45.8805 12.8333 46.1371 13.02 46.4358 13.16C 46.7438 13.2907 47.0891 13.356 47.4718 13.356C 47.8545 13.356 48.1998 13.2907 48.5078 13.16C 48.8158 13.02 49.0771 12.8333 49.2918 12.6C 49.5065 12.3573 49.6698 12.0773 49.7818 11.76C 49.9031 11.4333 49.9638 11.088 49.9638 10.724ZM 59.2524 17.36L 58.3004 17.36L 58.3004 7.448L 59.2524 7.448L 59.2524 8.582L 59.2944 8.582C 59.5651 8.15267 59.9244 7.83067 60.3724 7.616C 60.8297 7.392 61.2917 7.28 61.7584 7.28C 62.2717 7.28 62.7337 7.36867 63.1444 7.546C 63.5644 7.72333 63.9191 7.966 64.2084 8.274C 64.5071 8.582 64.7357 8.946 64.8944 9.366C 65.0624 9.786 65.1464 10.2387 65.1464 10.724C 65.1464 11.2093 65.0624 11.662 64.8944 12.082C 64.7357 12.502 64.5071 12.866 64.2084 13.174C 63.9191 13.482 63.5644 13.7247 63.1444 13.902C 62.7337 14.0793 62.2717 14.168 61.7584 14.168C 61.2917 14.168 60.8297 14.0607 60.3724 13.846C 59.9244 13.622 59.5651 13.3047 59.2944 12.894L 59.2524 12.894L 59.2524 17.36ZM 64.1384 10.724C 64.1384 10.36 64.0824 10.0193 63.9704 9.702C 63.8584 9.37533 63.6951 9.09533 63.4804 8.862C 63.2751 8.61933 63.0184 8.428 62.7104 8.288C 62.4024 8.148 62.0524 8.078 61.6604 8.078C 61.2964 8.078 60.9604 8.148 60.6524 8.288C 60.3444 8.41867 60.0784 8.60533 59.8544 8.848C 59.6304 9.08133 59.4531 9.36133 59.3224 9.688C 59.2011 10.0053 59.1404 10.3507 59.1404 10.724C 59.1404 11.0973 59.2011 11.4473 59.3224 11.774C 59.4531 12.0913 59.6304 12.3667 59.8544 12.6C 60.0784 12.8333 60.3444 13.02 60.6524 13.16C 60.9604 13.2907 61.2964 13.356 61.6604 13.356C 62.0524 13.356 62.4024 13.2907 62.7104 13.16C 63.0184 13.02 63.2751 12.8333 63.4804 12.6C 63.6951 12.3573 63.8584 12.0773 63.9704 11.76C 64.0824 11.4333 64.1384 11.088 64.1384 10.724ZM 73.0751 10.22C 73.0471 9.604 72.8464 9.09533 72.4731 8.694C 72.1091 8.28333 71.5864 8.078 70.9051 8.078C 70.5878 8.078 70.2938 8.13867 70.0231 8.26C 69.7524 8.372 69.5144 8.53067 69.3091 8.736C 69.1038 8.932 68.9404 9.16067 68.8191 9.422C 68.6978 9.674 68.6278 9.94 68.6091 10.22L 73.0751 10.22ZM 74.0411 10.528C 74.0411 10.5933 74.0411 10.6633 74.0411 10.738C 74.0411 10.8127 74.0364 10.892 74.0271 10.976L 68.5951 10.976C 68.6044 11.3027 68.6698 11.6107 68.7911 11.9C 68.9124 12.1893 69.0804 12.4413 69.2951 12.656C 69.5098 12.8707 69.7618 13.0433 70.0511 13.174C 70.3404 13.2953 70.6531 13.356 70.9891 13.356C 71.4838 13.356 71.9084 13.244 72.2631 13.02C 72.6271 12.7867 72.9024 12.5207 73.0891 12.222L 73.8031 12.782C 73.4111 13.2767 72.9771 13.6313 72.5011 13.846C 72.0344 14.0607 71.5304 14.168 70.9891 14.168C 70.5038 14.168 70.0511 14.084 69.6311 13.916C 69.2204 13.7387 68.8658 13.496 68.5671 13.188C 68.2684 12.88 68.0304 12.516 67.8531 12.096C 67.6851 11.676 67.6011 11.2187 67.6011 10.724C 67.6011 10.2293 67.6851 9.772 67.8531 9.352C 68.0211 8.932 68.2544 8.568 68.5531 8.26C 68.8518 7.952 69.2018 7.714 69.6031 7.546C 70.0044 7.36867 70.4384 7.28 70.9051 7.28C 71.4184 7.28 71.8711 7.36867 72.2631 7.546C 72.6551 7.714 72.9818 7.94733 73.2431 8.246C 73.5044 8.53533 73.7004 8.876 73.8311 9.268C 73.9711 9.66 74.0411 10.08 74.0411 10.528ZM 77.9588 14L 77.0068 14L 77.0068 3.416L 77.9588 3.416L 77.9588 14ZM 85.5262 9.772C 85.5262 9.20267 85.3768 8.778 85.0782 8.498C 84.7795 8.218 84.3455 8.078 83.7762 8.078C 83.3842 8.078 83.0202 8.148 82.6842 8.288C 82.3482 8.428 82.0635 8.61467 81.8302 8.848L 81.2982 8.218C 81.5688 7.94733 81.9235 7.72333 82.3622 7.546C 82.8102 7.36867 83.3142 7.28 83.8742 7.28C 84.2288 7.28 84.5602 7.33133 84.8682 7.434C 85.1762 7.52733 85.4468 7.672 85.6802 7.868C 85.9135 8.064 86.0955 8.31133 86.2262 8.61C 86.3568 8.90867 86.4222 9.25867 86.4222 9.66L 86.4222 12.53C 86.4222 12.782 86.4315 13.0433 86.4502 13.314C 86.4688 13.5847 86.4968 13.8133 86.5342 14L 85.6802 14C 85.6522 13.8413 85.6288 13.6687 85.6102 13.482C 85.5915 13.2953 85.5822 13.1133 85.5822 12.936L 85.5542 12.936C 85.2555 13.3747 84.9148 13.692 84.5322 13.888C 84.1588 14.0747 83.7062 14.168 83.1742 14.168C 82.9222 14.168 82.6608 14.1307 82.3902 14.056C 82.1288 13.9907 81.8862 13.8787 81.6622 13.72C 81.4475 13.5613 81.2655 13.356 81.1162 13.104C 80.9762 12.852 80.9062 12.544 80.9062 12.18C 80.9062 11.676 81.0322 11.2793 81.2842 10.99C 81.5455 10.6913 81.8908 10.472 82.3202 10.332C 82.7495 10.1827 83.2395 10.0893 83.7902 10.052C 84.3502 10.0053 84.9288 9.982 85.5262 9.982L 85.5262 9.772ZM 85.2462 10.724C 84.8542 10.724 84.4575 10.7427 84.0562 10.78C 83.6642 10.808 83.3048 10.8733 82.9782 10.976C 82.6608 11.0693 82.3995 11.2093 82.1942 11.396C 81.9888 11.5827 81.8862 11.83 81.8862 12.138C 81.8862 12.3713 81.9282 12.5673 82.0122 12.726C 82.1055 12.8847 82.2268 13.0153 82.3762 13.118C 82.5255 13.2113 82.6888 13.2813 82.8662 13.328C 83.0528 13.3653 83.2395 13.384 83.4262 13.384C 83.7622 13.384 84.0608 13.328 84.3222 13.216C 84.5835 13.0947 84.8028 12.936 84.9802 12.74C 85.1575 12.5347 85.2928 12.3013 85.3862 12.04C 85.4795 11.7787 85.5262 11.5033 85.5262 11.214L 85.5262 10.724L 85.2462 10.724ZM 1.55206 23.784L 4.73606 23.784L 7.98406 30.344L 11.2161 23.784L 14.4001 23.784L 14.4001 35L 11.8081 35L 11.7921 27.896L 8.92806 33.88L 7.04006 33.88L 4.16006 27.896L 4.16006 35L 1.55206 35L 1.55206 23.784ZM 21.4893 26.248C 22.428 26.248 23.2546 26.4347 23.9693 26.808C 24.684 27.1707 25.2386 27.688 25.6333 28.36C 26.028 29.0213 26.2253 29.7893 26.2253 30.664C 26.2253 31.5493 26.028 32.328 25.6333 33C 25.2386 33.6613 24.684 34.1787 23.9693 34.552C 23.2546 34.9147 22.428 35.096 21.4893 35.096C 20.5506 35.096 19.724 34.9147 19.0093 34.552C 18.2946 34.1787 17.74 33.6613 17.3453 33C 16.9613 32.328 16.7693 31.5493 16.7693 30.664C 16.7693 29.7893 16.9613 29.0213 17.3453 28.36C 17.74 27.688 18.2946 27.1707 19.0093 26.808C 19.724 26.4347 20.5506 26.248 21.4893 26.248ZM 21.4893 28.552C 20.9346 28.552 20.4866 28.7493 20.1453 29.144C 19.804 29.5387 19.6333 30.056 19.6333 30.696C 19.6333 31.3467 19.804 31.8693 20.1453 32.264C 20.4866 32.6587 20.9346 32.856 21.4893 32.856C 22.0546 32.856 22.508 32.6587 22.8493 32.264C 23.1906 31.8693 23.3613 31.3467 23.3613 30.696C 23.3613 30.056 23.1853 29.5387 22.8333 29.144C 22.492 28.7493 22.044 28.552 21.4893 28.552ZM 37.0144 26.344L 37.0144 35L 34.1664 35L 34.1664 33.592C 33.5798 34.5947 32.6571 35.1067 31.3984 35.128C 30.4598 35.128 29.7078 34.8293 29.1424 34.232C 28.5878 33.624 28.3104 32.8187 28.3104 31.816L 28.3104 26.344L 31.1584 26.344L 31.1584 31C 31.1584 31.4907 31.2811 31.8747 31.5264 32.152C 31.7824 32.4293 32.1238 32.568 32.5504 32.568C 33.0518 32.5573 33.4464 32.376 33.7344 32.024C 34.0224 31.6613 34.1664 31.192 34.1664 30.616L 34.1664 26.344L 37.0144 26.344ZM 45.8574 29.08C 44.7374 28.4933 43.8201 28.2 43.1054 28.2C 42.8601 28.2 42.6628 28.248 42.5134 28.344C 42.3641 28.4293 42.2894 28.5627 42.2894 28.744C 42.2894 28.936 42.4068 29.0907 42.6414 29.208C 42.8761 29.3253 43.2494 29.4533 43.7614 29.592C 44.3801 29.7733 44.8921 29.9547 45.2974 30.136C 45.7134 30.3067 46.0708 30.5733 46.3694 30.936C 46.6681 31.288 46.8174 31.752 46.8174 32.328C 46.8174 33.2027 46.4761 33.8907 45.7934 34.392C 45.1214 34.8827 44.2414 35.128 43.1534 35.128C 42.4174 35.128 41.7134 35.0267 41.0414 34.824C 40.3694 34.6107 39.7721 34.3013 39.2494 33.896L 40.1454 32.056C 40.6361 32.3973 41.1481 32.664 41.6814 32.856C 42.2254 33.0373 42.7374 33.128 43.2174 33.128C 43.4948 33.128 43.7134 33.0853 43.8734 33C 44.0441 32.904 44.1294 32.7707 44.1294 32.6C 44.1294 32.3867 44.0068 32.2213 43.7614 32.104C 43.5268 31.9867 43.1534 31.8587 42.6414 31.72C 42.0334 31.5387 41.5321 31.3627 41.1374 31.192C 40.7428 31.0107 40.3961 30.744 40.0974 30.392C 39.8094 30.04 39.6654 29.5813 39.6654 29.016C 39.6654 28.1413 39.9961 27.4587 40.6574 26.968C 41.3188 26.4667 42.1721 26.216 43.2174 26.216C 43.8468 26.216 44.4654 26.3013 45.0734 26.472C 45.6921 26.6427 46.2734 26.8933 46.8174 27.224L 45.8574 29.08ZM 53.0451 26.248C 54.4531 26.248 55.5357 26.664 56.2931 27.496C 57.0504 28.328 57.4291 29.4693 57.4291 30.92C 57.4291 31.144 57.4237 31.3147 57.4131 31.432L 51.3971 31.432C 51.5357 31.9227 51.7757 32.3013 52.1171 32.568C 52.4584 32.824 52.8744 32.952 53.3651 32.952C 53.7384 32.952 54.0957 32.8773 54.4371 32.728C 54.7891 32.5787 55.1091 32.36 55.3971 32.072L 56.8851 33.56C 56.4371 34.0613 55.8931 34.4453 55.2531 34.712C 54.6237 34.968 53.9091 35.096 53.1091 35.096C 52.1811 35.096 51.3704 34.9147 50.6771 34.552C 49.9837 34.1893 49.4504 33.6773 49.0771 33.016C 48.7144 32.3547 48.5331 31.5867 48.5331 30.712C 48.5331 29.8267 48.7197 29.048 49.0931 28.376C 49.4664 27.6933 49.9944 27.1707 50.6771 26.808C 51.3597 26.4347 52.1491 26.248 53.0451 26.248ZM 54.6611 29.912C 54.6611 29.4107 54.5117 29.0107 54.2131 28.712C 53.9251 28.4027 53.5411 28.248 53.0611 28.248C 52.6131 28.248 52.2344 28.3973 51.9251 28.696C 51.6264 28.9947 51.4291 29.4 51.3331 29.912L 54.6611 29.912ZM 64.2046 23.784L 67.1326 23.784L 67.1326 32.504L 71.8846 32.504L 71.8846 35L 64.2046 35L 64.2046 23.784ZM 78.0142 26.232C 79.2089 26.232 80.1369 26.5093 80.7982 27.064C 81.4595 27.608 81.7955 28.376 81.8062 29.368L 81.8062 35L 79.0062 35L 79.0062 34.024C 78.4302 34.76 77.5609 35.128 76.3982 35.128C 75.4809 35.128 74.7555 34.8827 74.2222 34.392C 73.6995 33.8907 73.4382 33.2347 73.4382 32.424C 73.4382 31.6027 73.7209 30.9627 74.2862 30.504C 74.8622 30.0453 75.6835 29.8107 76.7502 29.8L 79.0062 29.8L 79.0062 29.704C 79.0062 29.288 78.8622 28.968 78.5742 28.744C 78.2969 28.52 77.8915 28.408 77.3582 28.408C 76.9955 28.408 76.5849 28.4667 76.1262 28.584C 75.6782 28.7013 75.2249 28.872 74.7662 29.096L 73.9822 27.176C 74.6862 26.856 75.3582 26.6213 75.9982 26.472C 76.6489 26.312 77.3209 26.232 78.0142 26.232ZM 77.2782 33.192C 77.7049 33.192 78.0782 33.0907 78.3982 32.888C 78.7182 32.6747 78.9209 32.4027 79.0062 32.072L 79.0062 31.32L 77.3102 31.32C 76.5102 31.32 76.1102 31.6187 76.1102 32.216C 76.1102 32.5147 76.2115 32.7547 76.4142 32.936C 76.6275 33.1067 76.9155 33.192 77.2782 33.192ZM 90.0816 26.248C 90.8816 26.248 91.5856 26.4347 92.1936 26.808C 92.8016 27.1707 93.2709 27.6933 93.6016 28.376C 93.9429 29.048 94.1136 29.8267 94.1136 30.712C 94.1136 31.5867 93.9482 32.3547 93.6176 33.016C 93.2976 33.6773 92.8336 34.1893 92.2256 34.552C 91.6282 34.9147 90.9349 35.096 90.1456 35.096C 89.6016 35.096 89.1056 34.9947 88.6576 34.792C 88.2202 34.5787 87.8469 34.2747 87.5376 33.88L 87.5376 35L 84.6896 35L 84.6896 23.128L 87.5376 23.128L 87.5376 27.464C 88.1669 26.6533 89.0149 26.248 90.0816 26.248ZM 89.3776 32.792C 89.9322 32.792 90.3802 32.5947 90.7216 32.2C 91.0736 31.8053 91.2496 31.288 91.2496 30.648C 91.2496 30.008 91.0736 29.4907 90.7216 29.096C 90.3802 28.6907 89.9322 28.488 89.3776 28.488C 88.8336 28.488 88.3909 28.6907 88.0496 29.096C 87.7082 29.4907 87.5376 30.008 87.5376 30.648C 87.5376 31.288 87.7082 31.8053 88.0496 32.2C 88.3909 32.5947 88.8336 32.792 89.3776 32.792ZM 102.244 29.08C 101.124 28.4933 100.207 28.2 99.4923 28.2C 99.247 28.2 99.0496 28.248 98.9003 28.344C 98.751 28.4293 98.6763 28.5627 98.6763 28.744C 98.6763 28.936 98.7936 29.0907 99.0283 29.208C 99.263 29.3253 99.6363 29.4533 100.148 29.592C 100.767 29.7733 101.279 29.9547 101.684 30.136C 102.1 30.3067 102.458 30.5733 102.756 30.936C 103.055 31.288 103.204 31.752 103.204 32.328C 103.204 33.2027 102.863 33.8907 102.18 34.392C 101.508 34.8827 100.628 35.128 99.5403 35.128C 98.8043 35.128 98.1003 35.0267 97.4283 34.824C 96.7563 34.6107 96.159 34.3013 95.6363 33.896L 96.5323 32.056C 97.023 32.3973 97.535 32.664 98.0683 32.856C 98.6123 33.0373 99.1243 33.128 99.6043 33.128C 99.8816 33.128 100.1 33.0853 100.26 33C 100.431 32.904 100.516 32.7707 100.516 32.6C 100.516 32.3867 100.394 32.2213 100.148 32.104C 99.9136 31.9867 99.5403 31.8587 99.0283 31.72C 98.4203 31.5387 97.919 31.3627 97.5243 31.192C 97.1296 31.0107 96.783 30.744 96.4843 30.392C 96.1963 30.04 96.0523 29.5813 96.0523 29.016C 96.0523 28.1413 96.383 27.4587 97.0443 26.968C 97.7056 26.4667 98.559 26.216 99.6043 26.216C 100.234 26.216 100.852 26.3013 101.46 26.472C 102.079 26.6427 102.66 26.8933 103.204 27.224L 102.244 29.08Z"/>
</defs>
</svg>
