<svg width="143" height="140" viewBox="0 0 143 140" version="1.1" xmlns="http://www.w3.org/2000/svg" xmlns:xlink="http://www.w3.org/1999/xlink">
<title>Group 73</title>
<desc>Created using Figma</desc>
<g id="Canvas" transform="translate(-340 -1620)">
<g id="Group 73">
<g id="Fill 126">
<use xlink:href="#path0_fill" transform="translate(350.789 1626.56)" fill="#79CE4D"/>
</g>
<g id="Stroke 127">
<use xlink:href="#path1_stroke" transform="translate(350.789 1626.56)" fill="#A82670"/>
</g>
<g id="Fill 128">
<use xlink:href="#path2_fill" transform="translate(358.136 1716.27)" fill="#79CE4D"/>
</g>
<g id="Stroke 129">
<use xlink:href="#path3_stroke" transform="translate(358.136 1716.27)" fill="#A82670"/>
</g>
<g id="Fill 130">
<use xlink:href="#path4_fill" transform="translate(436.432 1716.27)" fill="#79CE4D"/>
</g>
<g id="Stroke 131">
<use xlink:href="#path5_stroke" transform="translate(436.432 1716.27)" fill="#A82670"/>
</g>
<g id="Fill 132">
<use xlink:href="#path6_fill" transform="translate(466.849 1679.25)" fill="#79CE4D"/>
</g>
<g id="Stroke 133">
<use xlink:href="#path7_stroke" transform="translate(466.849 1679.25)" fill="#A82670"/>
</g>
<g id="Fill 134">
<use xlink:href="#path8_fill" transform="translate(340.833 1664.72)" fill="#79CE4D"/>
</g>
<g id="Stroke 135">
<use xlink:href="#path9_stroke" transform="translate(340.833 1664.72)" fill="#A82670"/>
</g>
<g id="Fill 136">
<use xlink:href="#path10_fill" transform="translate(412.158 1620.96)" fill="#79CE4D"/>
</g>
<g id="Stroke 137">
<use xlink:href="#path11_stroke" transform="translate(412.158 1620.96)" fill="#A82670"/>
</g>
<g id="Fill 138">
<use xlink:href="#path12_fill" transform="translate(379.397 1743.08)" fill="#4A8C27"/>
</g>
<g id="Stroke 139">
<use xlink:href="#path13_stroke" transform="translate(379.397 1743.08)" fill="#A82670"/>
</g>
<g id="Fill 140">
<use xlink:href="#path14_fill" transform="translate(436.968 1742.8)" fill="#4A8C27"/>
</g>
<g id="Stroke 141">
<use xlink:href="#path15_stroke" transform="translate(436.968 1742.8)" fill="#A82670"/>
</g>
<g id="Fill 142">
<use xlink:href="#path16_fill" transform="translate(386.749 1650.45)" fill="#EEEEEE"/>
</g>
<g id="Fill 143">
<use xlink:href="#path17_fill" transform="translate(398.661 1661.6)" fill="#1A1A1B"/>
</g>
<g id="Stroke 144">
<use xlink:href="#path18_stroke" transform="translate(398.661 1661.6)" fill="#A82670"/>
</g>
<g id="Fill 145">
<use xlink:href="#path19_fill" transform="translate(416.707 1657.53)" fill="#F9F9F9"/>
</g>
<g id="Fill 146">
<use xlink:href="#path20_fill" transform="translate(406.092 1713)" fill="#A82670"/>
</g>
<g id="Stroke 147">
<use xlink:href="#path21_stroke" transform="translate(406.092 1713)" fill="#A82670"/>
</g>
</g>
</g>
<defs>
<path id="path0_fill" fill-rule="evenodd" d="M 62.6392 0C 97.2106 0 125.278 28.0368 125.278 62.5689C 125.278 97.1029 97.2106 125.138 62.6392 125.138C 28.0677 125.138 0 97.1029 0 62.5689C 0 28.0368 28.0677 0 62.6392 0Z"/>
<path id="path1_stroke" d="M 62.6392 0.12C 97.1445 0.12 125.158 28.1032 125.158 62.5689L 125.398 62.5689C 125.398 27.9704 97.2768 -0.12 62.6392 -0.12L 62.6392 0.12ZM 125.158 62.5689C 125.158 97.0365 97.1445 125.018 62.6392 125.018L 62.6392 125.258C 97.2768 125.258 125.398 97.1693 125.398 62.5689L 125.158 62.5689ZM 62.6392 125.018C 28.1338 125.018 0.12 97.0365 0.12 62.5689L -0.12 62.5689C -0.12 97.1693 28.0015 125.258 62.6392 125.258L 62.6392 125.018ZM 0.12 62.5689C 0.12 28.1032 28.1338 0.12 62.6392 0.12L 62.6392 -0.12C 28.0015 -0.12 -0.12 27.9704 -0.12 62.5689L 0.12 62.5689Z"/>
<path id="path2_fill" fill-rule="evenodd" d="M 0 0C 4.86064 13.7587 9.62889 27.5026 16.2422 41.5763C 19.4892 43.6682 22.9055 43.6238 26.4802 41.5763C 30.2052 37.3358 32.3048 33.0345 33.1588 28.6834L 0 0Z"/>
<path id="path3_stroke" d="M 0 0L 0.0785068 -0.0907561C 0.0373365 -0.12637 -0.0226491 -0.129809 -0.06762 -0.0991339C -0.112591 -0.068459 -0.13128 -0.0113554 -0.113147 0.0399723L 0 0ZM 16.2422 41.5763L 16.1336 41.6274C 16.1432 41.6477 16.1583 41.665 16.1772 41.6772L 16.2422 41.5763ZM 26.4802 41.5763L 26.5399 41.6804C 26.5514 41.6739 26.5617 41.6654 26.5704 41.6555L 26.4802 41.5763ZM 33.1588 28.6834L 33.2766 28.7065C 33.2849 28.6643 33.2699 28.6208 33.2374 28.5927L 33.1588 28.6834ZM -0.113147 0.0399723C 4.74738 13.7983 9.51775 27.5479 16.1336 41.6274L 16.3508 41.5253C 9.74003 27.4574 4.9739 13.719 0.113147 -0.0399723L -0.113147 0.0399723ZM 16.1772 41.6772C 19.4664 43.7963 22.9312 43.7474 26.5399 41.6804L 26.4206 41.4722C 22.8799 43.5002 19.512 43.5402 16.3072 41.4754L 16.1772 41.6772ZM 26.5704 41.6555C 30.3051 37.4023 32.4186 33.0727 33.2766 28.7065L 33.0411 28.6603C 32.1911 32.9963 30.1054 37.2693 26.3901 41.4971L 26.5704 41.6555ZM 33.2374 28.5927L 0.0785068 -0.0907561L -0.0785068 0.0907561L 33.0803 28.7742L 33.2374 28.5927Z"/>
<path id="path4_fill" fill-rule="evenodd" d="M 33.1588 0C 28.2982 13.7587 23.53 27.5026 16.9166 41.5763C 13.6696 43.6682 10.2533 43.6238 6.67861 41.5763C 2.9536 37.3358 0.854029 33.0345 0 28.6834L 33.1588 0Z"/>
<path id="path5_stroke" d="M 33.1588 0L 33.272 0.0399723C 33.2901 -0.0113554 33.2714 -0.068459 33.2265 -0.0991339C 33.1815 -0.129809 33.1215 -0.12637 33.0803 -0.0907561L 33.1588 0ZM 16.9166 41.5763L 16.9816 41.6772C 17.0005 41.665 17.0157 41.6477 17.0252 41.6274L 16.9166 41.5763ZM 6.67861 41.5763L 6.58845 41.6555C 6.59718 41.6654 6.60749 41.6739 6.61897 41.6804L 6.67861 41.5763ZM 0 28.6834L -0.0785068 28.5927C -0.111069 28.6208 -0.126046 28.6643 -0.117753 28.7065L 0 28.6834ZM 33.0457 -0.0399723C 28.1849 13.719 23.4188 27.4574 16.808 41.5253L 17.0252 41.6274C 23.6411 27.5479 28.4115 13.7983 33.272 0.0399723L 33.0457 -0.0399723ZM 16.8516 41.4754C 13.6468 43.5402 10.279 43.5002 6.73825 41.4722L 6.61897 41.6804C 10.2277 43.7474 13.6924 43.7963 16.9816 41.6772L 16.8516 41.4754ZM 6.76877 41.4971C 3.05348 37.2693 0.967786 32.9963 0.117753 28.6603L -0.117753 28.7065C 0.740271 33.0727 2.85372 37.4023 6.58845 41.6555L 6.76877 41.4971ZM 0.0785068 28.7742L 33.2374 0.0907561L 33.0803 -0.0907561L -0.0785068 28.5927L 0.0785068 28.7742Z"/>
<path id="path6_fill" fill-rule="evenodd" d="M 8.29391 0C 10.9198 2.65079 13.2121 5.68474 14.6439 9.70789C 15.3107 14.4126 15.2685 18.3363 14.6439 21.6171C 13.0074 20.5026 11.5575 19.915 10.3673 20.0642C 11.4738 21.9726 11.9999 24.2053 12.7813 27.5837L 12.6015 36.2158C 8.8418 34.0439 4.47945 34.6776 0 35.8566L 8.29391 0Z"/>
<path id="path7_stroke" d="M 8.29391 0L 8.37916 -0.0844515C 8.34839 -0.115507 8.30318 -0.127377 8.26113 -0.115436C 8.21908 -0.103495 8.18684 -0.0696319 8.17699 -0.0270429L 8.29391 0ZM 14.6439 9.70789L 14.7627 9.69105C 14.7616 9.68308 14.7596 9.67524 14.7569 9.66766L 14.6439 9.70789ZM 14.6439 21.6171L 14.5763 21.7163C 14.6098 21.7391 14.6524 21.7435 14.6898 21.728C 14.7271 21.7125 14.7542 21.6793 14.7618 21.6395L 14.6439 21.6171ZM 10.3673 20.0642L 10.3524 19.9451C 10.3124 19.9501 10.2777 19.9748 10.2598 20.0109C 10.2419 20.047 10.2433 20.0896 10.2635 20.1244L 10.3673 20.0642ZM 12.7813 27.5837L 12.9013 27.5862C 12.9015 27.5762 12.9004 27.5663 12.8982 27.5566L 12.7813 27.5837ZM 12.6015 36.2158L 12.5415 36.3197C 12.5782 36.3409 12.6234 36.3412 12.6604 36.3203C 12.6974 36.2995 12.7206 36.2607 12.7215 36.2183L 12.6015 36.2158ZM 0 35.8566L -0.116913 35.8295C -0.126387 35.8705 -0.113737 35.9134 -0.0835686 35.9427C -0.0533999 35.972 -0.0101112 35.9833 0.0305427 35.9726L 0 35.8566ZM 8.20865 0.0844515C 10.8291 2.72936 13.1065 5.74168 14.5308 9.74813L 14.7569 9.66766C 13.3177 5.62779 11.0105 2.57222 8.37916 -0.0844515L 8.20865 0.0844515ZM 14.5251 9.72473C 15.191 14.4204 15.1491 18.3244 14.526 21.5947L 14.7618 21.6395C 15.3879 18.3482 15.4305 14.4048 14.7627 9.69105L 14.5251 9.72473ZM 14.7114 21.5179C 13.0706 20.4005 11.5888 19.7901 10.3524 19.9451L 10.3822 20.1833C 11.5262 20.0399 12.9442 20.6048 14.5763 21.7163L 14.7114 21.5179ZM 10.2635 20.1244C 11.3623 22.017 11.8831 24.2325 12.6644 27.6107L 12.8982 27.5566C 12.1168 24.178 11.5853 21.9283 10.4711 20.004L 10.2635 20.1244ZM 12.6613 27.5812L 12.4815 36.2133L 12.7215 36.2183L 12.9013 27.5862L 12.6613 27.5812ZM 12.6615 36.1119C 8.85617 33.9137 4.45008 34.5613 -0.0305427 35.7405L 0.0305427 35.9726C 4.50883 34.794 8.82744 34.1742 12.5415 36.3197L 12.6615 36.1119ZM 0.116913 35.8836L 8.41082 0.0270429L 8.17699 -0.0270429L -0.116913 35.8295L 0.116913 35.8836Z"/>
<path id="path8_fill" fill-rule="evenodd" d="M 15.5346 0C 12.205 1.68737 9.07085 3.84447 6.44071 7.21C 4.32086 11.4634 3.12086 15.1992 2.67642 18.5095C 4.58199 17.9679 6.14325 17.8684 7.22522 18.3842C 5.57193 19.8468 4.36751 21.7976 2.5584 24.7579L 0 33.0068C 4.25391 32.1318 8.19285 34.1084 12.0706 36.6395L 15.5346 0Z"/>
<path id="path9_stroke" d="M 15.5346 0L 15.6541 0.011295C 15.6582 -0.0322353 15.6383 -0.0745587 15.6022 -0.0991753C 15.566 -0.123792 15.5194 -0.126805 15.4804 -0.10704L 15.5346 0ZM 6.44071 7.21L 6.34616 7.13611C 6.34121 7.14245 6.3369 7.14927 6.33331 7.15647L 6.44071 7.21ZM 2.67642 18.5095L 2.55749 18.4935C 2.55211 18.5336 2.56729 18.5737 2.59787 18.6002C 2.62845 18.6267 2.67032 18.636 2.70923 18.6249L 2.67642 18.5095ZM 7.22522 18.3842L 7.30473 18.4741C 7.33489 18.4474 7.34966 18.4074 7.34405 18.3675C 7.33844 18.3276 7.31321 18.2932 7.27686 18.2759L 7.22522 18.3842ZM 2.5584 24.7579L 2.456 24.6953C 2.45083 24.7038 2.44672 24.7129 2.44378 24.7223L 2.5584 24.7579ZM 0 33.0068L -0.114614 32.9713C -0.127187 33.0118 -0.11741 33.056 -0.0889022 33.0874C -0.0603941 33.1189 -0.0173962 33.1329 0.024177 33.1244L 0 33.0068ZM 12.0706 36.6395L 12.005 36.74C 12.0402 36.7629 12.0848 36.7658 12.1227 36.7476C 12.1605 36.7293 12.1861 36.6926 12.19 36.6508L 12.0706 36.6395ZM 15.4804 -0.10704C 12.1437 1.58419 8.9886 3.75709 6.34616 7.13611L 6.53527 7.28389C 9.1531 3.93186 12.2663 1.79054 15.5889 0.10704L 15.4804 -0.10704ZM 6.33331 7.15647C 4.20971 11.4182 3.00381 15.1728 2.55749 18.4935L 2.79536 18.5254C 3.23792 15.2256 4.432 11.5087 6.54811 7.26353L 6.33331 7.15647ZM 2.70923 18.6249C 4.60971 18.0848 6.13358 17.9967 7.17358 18.4925L 7.27686 18.2759C 6.15293 17.7401 4.55427 17.851 2.64362 18.394L 2.70923 18.6249ZM 7.14571 18.2943C 5.48014 19.7696 4.26526 21.7348 2.456 24.6953L 2.66079 24.8205C 4.46976 21.8604 5.66373 19.9241 7.30473 18.4741L 7.14571 18.2943ZM 2.44378 24.7223L -0.114614 32.9713L 0.114614 33.0424L 2.67301 24.7934L 2.44378 24.7223ZM 0.024177 33.1244C 4.22646 32.26 8.12829 34.2096 12.005 36.74L 12.1361 36.539C 8.2574 34.0073 4.28137 32.0037 -0.024177 32.8893L 0.024177 33.1244ZM 12.19 36.6508L 15.6541 0.011295L 15.4151 -0.011295L 11.9511 36.6282L 12.19 36.6508Z"/>
<path id="path10_fill" fill-rule="evenodd" d="M 1.03273 5.73632C 4.53681 3.05605 8.70626 1.00026 14.0036 0C 12.0715 2.53105 11.0205 5.04737 11.5507 7.54158C 15.819 3.66211 20.5657 1.07026 26.0703 0.517632C 24.0375 3.84447 23.1775 7.15474 23.7459 10.4429C 25.9775 9.45184 28.5022 9.0779 31.425 9.54211C 33.4652 10.3029 34.6615 11.3216 35.1026 12.5724C 31.5494 12.9924 29.0646 14.1326 26.9717 15.5363L 0 8.31342L 1.03273 5.73632Z"/>
<path id="path11_stroke" d="M 1.03273 5.73632L 0.959822 5.641C 0.942667 5.65412 0.929372 5.67163 0.921338 5.69168L 1.03273 5.73632ZM 14.0036 0L 14.099 0.0728134C 14.1291 0.033308 14.1318 -0.0206993 14.1057 -0.0629996C 14.0796 -0.1053 14.0302 -0.127138 13.9813 -0.117916L 14.0036 0ZM 11.5507 7.54158L 11.4333 7.56653C 11.4422 7.60856 11.473 7.64261 11.5139 7.65579C 11.5548 7.66898 11.5996 7.65928 11.6314 7.63038L 11.5507 7.54158ZM 26.0703 0.517632L 26.1727 0.5802C 26.1964 0.541321 26.1961 0.492343 26.1719 0.453769C 26.1476 0.415195 26.1036 0.393681 26.0583 0.398232L 26.0703 0.517632ZM 23.7459 10.4429L 23.6277 10.4633C 23.634 10.4998 23.6567 10.5313 23.6893 10.5487C 23.722 10.5662 23.7608 10.5676 23.7946 10.5526L 23.7459 10.4429ZM 31.425 9.54211L 31.4669 9.42967C 31.4594 9.42688 31.4517 9.42484 31.4438 9.42359L 31.425 9.54211ZM 35.1026 12.5724L 35.1167 12.6915C 35.1529 12.6873 35.1852 12.6668 35.2044 12.6358C 35.2237 12.6049 35.2279 12.5668 35.2158 12.5325L 35.1026 12.5724ZM 26.9717 15.5363L 26.9407 15.6522C 26.9741 15.6612 27.0098 15.6553 27.0385 15.636L 26.9717 15.5363ZM 0 8.31342L -0.111389 8.26878C -0.124154 8.30064 -0.12267 8.33644 -0.107312 8.36712C -0.091954 8.39781 -0.0641913 8.42046 -0.0310416 8.42934L 0 8.31342ZM 1.10563 5.83163C 4.60009 3.15801 8.74428 1.11408 14.0259 0.117916L 13.9813 -0.117916C 8.66824 0.886444 4.47352 2.9541 0.959822 5.641L 1.10563 5.83163ZM 13.9082 -0.0728134C 11.9685 2.46817 10.8922 5.02093 11.4333 7.56653L 11.6681 7.51663C 11.1488 5.07381 12.1744 2.59393 14.099 0.0728134L 13.9082 -0.0728134ZM 11.6314 7.63038C 15.8886 3.75986 20.6011 1.18491 26.0823 0.637031L 26.0583 0.398232C 20.5302 0.95562 15.7494 3.56435 11.47 7.45278L 11.6314 7.63038ZM 25.9679 0.455063C 23.9244 3.79938 23.053 7.13902 23.6277 10.4633L 23.8641 10.4225C 23.302 7.17046 24.1505 3.88956 26.1727 0.5802L 25.9679 0.455063ZM 23.7946 10.5526C 26.011 9.56709 28.5015 9.19789 31.4061 9.66062L 31.4438 9.42359C 28.5028 8.9579 25.9441 9.3366 23.6972 10.3332L 23.7946 10.5526ZM 31.383 9.65454C 33.4084 10.4098 34.5654 11.41 34.9894 12.6123L 35.2158 12.5325C 34.7575 11.2331 33.5219 10.196 31.4669 9.42967L 31.383 9.65454ZM 35.0885 12.4532C 31.517 12.8768 29.006 14.0279 26.9049 15.4367L 27.0385 15.636C 29.1233 14.2373 31.5819 13.1079 35.1167 12.6915L 35.0885 12.4532ZM 27.0027 15.4204L 0.0310416 8.19751L -0.0310416 8.42934L 26.9407 15.6522L 27.0027 15.4204ZM 0.111389 8.35806L 1.14412 5.78095L 0.921338 5.69168L -0.111389 8.26878L 0.111389 8.35806Z"/>
<path id="path12_fill" fill-rule="evenodd" d="M 11.2551 4.44684C 10.6974 6.18211 10.0204 7.83263 9.18592 9.24L 0 0L 11.2551 4.44684Z"/>
<path id="path13_stroke" d="M 11.2551 4.44684L 11.3693 4.48356C 11.3887 4.42336 11.358 4.35847 11.2992 4.33524L 11.2551 4.44684ZM 9.18592 9.24L 9.10082 9.3246C 9.127 9.35093 9.16388 9.36366 9.20072 9.35908C 9.23756 9.35451 9.27021 9.33313 9.28914 9.3012L 9.18592 9.24ZM 0 0L 0.0440947 -0.111605C -0.00874319 -0.132481 -0.0689799 -0.113444 -0.100224 -0.0659938C -0.131468 -0.0185441 -0.125156 0.0443132 -0.0851015 0.0846034L 0 0ZM 11.1408 4.41013C 10.5847 6.14095 9.913 7.77912 9.08271 9.1788L 9.28914 9.3012C 10.1278 7.88614 10.8101 6.22326 11.3693 4.48356L 11.1408 4.41013ZM 9.27103 9.1554L 0.0851015 -0.0846034L -0.0851015 0.0846034L 9.10082 9.3246L 9.27103 9.1554ZM -0.0440947 0.111605L 11.211 4.55845L 11.2992 4.33524L 0.0440947 -0.111605L -0.0440947 0.111605Z"/>
<path id="path14_fill" fill-rule="evenodd" d="M 0 4.44684C 0.557857 6.18211 1.23466 7.83447 2.06933 9.24L 11.2553 0L 0 4.44684Z"/>
<path id="path15_stroke" d="M 0 4.44684L -0.0440941 4.33524C -0.102908 4.35847 -0.133596 4.42337 -0.114242 4.48357L 0 4.44684ZM 2.06933 9.24L 1.96615 9.30127C 1.9851 9.33318 2.01774 9.35453 2.05457 9.35909C 2.0914 9.36365 2.12827 9.35092 2.15443 9.3246L 2.06933 9.24ZM 11.2553 0L 11.3404 0.0846034C 11.3804 0.0443133 11.3867 -0.0185439 11.3555 -0.0659935C 11.3242 -0.113443 11.264 -0.132481 11.2112 -0.111605L 11.2553 0ZM -0.114242 4.48357C 0.445128 6.22324 1.12726 7.888 1.96615 9.30127L 2.17251 9.17873C 1.34206 7.78095 0.670586 6.14097 0.114242 4.41012L -0.114242 4.48357ZM 2.15443 9.3246L 11.3404 0.0846034L 11.1702 -0.0846034L 1.98423 9.1554L 2.15443 9.3246ZM 11.2112 -0.111605L -0.0440941 4.33524L 0.0440941 4.55845L 11.2993 0.111605L 11.2112 -0.111605Z"/>
<path id="path16_fill" fill-rule="evenodd" d="M 28.5704 0C 44.3387 0 57.1406 12.7879 57.1406 28.5379C 57.1406 44.2897 44.3387 57.0776 28.5704 57.0776C 12.8019 57.0776 0 44.2897 0 28.5379C 0 12.7879 12.8019 0 28.5704 0Z"/>
<path id="path17_fill" fill-rule="evenodd" d="M 17.0734 0C 26.4965 0 34.1469 7.64105 34.1469 17.0542C 34.1469 26.4674 26.4965 34.1084 17.0734 34.1084C 7.6503 34.1084 0 26.4674 0 17.0542C 0 7.64105 7.6503 0 17.0734 0Z"/>
<path id="path18_stroke" d="M 17.0734 0.12C 26.4303 0.12 34.0269 7.70746 34.0269 17.0542L 34.2669 17.0542C 34.2669 7.57465 26.5626 -0.12 17.0734 -0.12L 17.0734 0.12ZM 34.0269 17.0542C 34.0269 26.401 26.4303 33.9884 17.0734 33.9884L 17.0734 34.2284C 26.5626 34.2284 34.2669 26.5338 34.2669 17.0542L 34.0269 17.0542ZM 17.0734 33.9884C 7.71644 33.9884 0.12 26.401 0.12 17.0542L -0.12 17.0542C -0.12 26.5338 7.58415 34.2284 17.0734 34.2284L 17.0734 33.9884ZM 0.12 17.0542C 0.12 7.70746 7.71644 0.12 17.0734 0.12L 17.0734 -0.12C 7.58415 -0.12 -0.12 7.57465 -0.12 17.0542L 0.12 17.0542Z"/>
<path id="path19_fill" fill-rule="evenodd" d="M 10.0447 0C 15.5885 0 20.0893 4.49474 20.0893 10.0321C 20.0893 15.5713 15.5885 20.0661 10.0447 20.0661C 4.50085 20.0661 0 15.5713 0 10.0321C 0 4.49474 4.50085 0 10.0447 0Z"/>
<path id="path20_fill" fill-rule="evenodd" d="M 5.31375 0C 8.24651 0 10.6275 2.37816 10.6275 5.30711C 10.6275 8.23789 8.24651 10.6161 5.31375 10.6161C 2.38099 10.6161 0 8.23789 0 5.30711C 0 2.37816 2.38099 0 5.31375 0Z"/>
<path id="path21_stroke" d="M 5.31375 0.12C 8.18038 0.12 10.5075 2.44457 10.5075 5.30711L 10.7475 5.30711C 10.7475 2.31174 8.31265 -0.12 5.31375 -0.12L 5.31375 0.12ZM 10.5075 5.30711C 10.5075 8.17151 8.18035 10.4961 5.31375 10.4961L 5.31375 10.7361C 8.31267 10.7361 10.7475 8.30428 10.7475 5.30711L 10.5075 5.30711ZM 5.31375 10.4961C 2.44715 10.4961 0.12 8.17151 0.12 5.30711L -0.12 5.30711C -0.12 8.30428 2.31483 10.7361 5.31375 10.7361L 5.31375 10.4961ZM 0.12 5.30711C 0.12 2.44457 2.44712 0.12 5.31375 0.12L 5.31375 -0.12C 2.31486 -0.12 -0.12 2.31174 -0.12 5.30711L 0.12 5.30711Z"/>
</defs>
</svg>
