<svg width="142" height="140" viewBox="0 0 142 140" version="1.1" xmlns="http://www.w3.org/2000/svg" xmlns:xlink="http://www.w3.org/1999/xlink">
<title>Group 65</title>
<desc>Created using Figma</desc>
<g id="Canvas" transform="translate(-709 -1620)">
<g id="Group 65">
<g id="Fill 53">
<use xlink:href="#path0_fill" transform="translate(726.54 1716.22)" fill="#79CE4D"/>
</g>
<g id="Stroke 54">
<use xlink:href="#path1_stroke" transform="translate(726.54 1716.22)" fill="#A82670"/>
</g>
<g id="Fill 55">
<use xlink:href="#path2_fill" transform="translate(804.835 1716.22)" fill="#79CE4D"/>
</g>
<g id="Stroke 56">
<use xlink:href="#path3_stroke" transform="translate(804.835 1716.22)" fill="#A82670"/>
</g>
<g id="Fill 63">
<use xlink:href="#path4_fill" transform="translate(747.801 1743.22)" fill="#4A8C27"/>
</g>
<g id="Stroke 64">
<use xlink:href="#path5_stroke" transform="translate(747.801 1743.22)" fill="#A82670"/>
</g>
<g id="Fill 65">
<use xlink:href="#path6_fill" transform="translate(805.372 1742.94)" fill="#4A8C27"/>
</g>
<g id="Stroke 66">
<use xlink:href="#path7_stroke" transform="translate(805.372 1742.94)" fill="#A82670"/>
</g>
<g id="Fill 51">
<use xlink:href="#path8_fill" transform="translate(719.192 1625.86)" fill="#79CE4D"/>
</g>
<g id="Stroke 52">
<use xlink:href="#path9_stroke" transform="translate(719.192 1625.86)" fill="#A82670"/>
</g>
<g id="Fill 57">
<use xlink:href="#path10_fill" transform="translate(835.253 1678.94)" fill="#79CE4D"/>
</g>
<g id="Stroke 58">
<use xlink:href="#path11_stroke" transform="translate(835.253 1678.94)" fill="#A82670"/>
</g>
<g id="Fill 59">
<use xlink:href="#path12_fill" transform="translate(709.237 1664.3)" fill="#79CE4D"/>
</g>
<g id="Stroke 60">
<use xlink:href="#path13_stroke" transform="translate(709.237 1664.3)" fill="#A82670"/>
</g>
<g id="Fill 61">
<use xlink:href="#path14_fill" transform="translate(780.561 1620.22)" fill="#79CE4D"/>
</g>
<g id="Stroke 62">
<use xlink:href="#path15_stroke" transform="translate(780.561 1620.22)" fill="#A82670"/>
</g>
<g id="Fill 67">
<use xlink:href="#path16_fill" transform="translate(755.152 1649.93)" fill="#EEEEEE"/>
</g>
<g id="Fill 68">
<use xlink:href="#path17_fill" transform="translate(767.065 1661.16)" fill="#1A1A1B"/>
</g>
<g id="Stroke 69">
<use xlink:href="#path18_stroke" transform="translate(767.065 1661.16)" fill="#A82670"/>
</g>
<g id="Fill 70">
<use xlink:href="#path19_fill" transform="translate(785.11 1657.06)" fill="#F9F9F9"/>
</g>
<g id="Fill 71">
<use xlink:href="#path20_fill" transform="translate(752.282 1679.83)" fill="#79CE4D"/>
</g>
<g id="Fill 72">
<use xlink:href="#path21_fill" transform="translate(772.66 1710.42)" fill="#A82670"/>
</g>
<g id="Stroke 73">
<use xlink:href="#path22_stroke" transform="translate(772.66 1710.42)" fill="#A82670"/>
</g>
<g id="Stroke 74">
<use xlink:href="#path23_stroke" transform="translate(793.761 1699.24)" fill="#A82670"/>
</g>
<g id="Stroke 75">
<use xlink:href="#path24_stroke" transform="translate(769.418 1699.24)" fill="#A82670"/>
</g>
</g>
</g>
<defs>
<path id="path0_fill" fill-rule="evenodd" d="M 0 0C 4.85935 13.8577 9.62834 27.6986 16.2415 41.8736C 19.489 43.9813 22.9044 43.9367 26.4802 41.8736C 30.2036 37.6044 32.3041 33.2703 33.1579 28.8898L 0 0Z"/>
<path id="path1_stroke" d="M 0 0L 0.0788297 -0.0904759C 0.0377656 -0.126254 -0.0222439 -0.129891 -0.0673277 -0.0993327C -0.112412 -0.0687748 -0.131262 -0.011687 -0.11324 0.0397088L 0 0ZM 16.2415 41.8736L 16.1327 41.9243C 16.1422 41.9447 16.1573 41.962 16.1762 41.9742L 16.2415 41.8736ZM 26.4802 41.8736L 26.5402 41.9775C 26.5517 41.9709 26.562 41.9624 26.5707 41.9524L 26.4802 41.8736ZM 33.1579 28.8898L 33.2757 28.9127C 33.2839 28.8707 33.2691 28.8274 33.2368 28.7993L 33.1579 28.8898ZM -0.11324 0.0397088C 4.746 13.8971 9.51708 27.7436 16.1327 41.9243L 16.3502 41.8228C 9.73959 27.6537 4.9727 13.8183 0.11324 -0.0397088L -0.11324 0.0397088ZM 16.1762 41.9742C 19.4661 44.1094 22.9302 44.0604 26.5402 41.9775L 26.4203 41.7696C 22.8786 43.8131 19.512 43.8531 16.3068 41.7729L 16.1762 41.9742ZM 26.5707 41.9524C 30.3037 37.6706 32.4179 33.3082 33.2757 28.9127L 33.0401 28.8668C 32.1902 33.2323 30.1035 37.5382 26.3898 41.7947L 26.5707 41.9524ZM 33.2368 28.7993L 0.0788297 -0.0904759L -0.0788297 0.0904759L 33.0791 28.9803L 33.2368 28.7993Z"/>
<path id="path2_fill" fill-rule="evenodd" d="M 33.1598 0C 28.2986 13.8577 23.5296 27.6986 16.9164 41.8736C 13.6707 43.9813 10.2535 43.9367 6.67953 41.8736C 2.95434 37.6044 0.853844 33.2703 0 28.8898L 33.1598 0Z"/>
<path id="path3_stroke" d="M 33.1598 0L 33.273 0.0397222C 33.291 -0.0116733 33.2722 -0.0687655 33.2271 -0.0993277C 33.182 -0.12989 33.122 -0.126256 33.0809 -0.090478L 33.1598 0ZM 16.9164 41.8736L 16.9818 41.9742C 17.0006 41.962 17.0157 41.9447 17.0252 41.9243L 16.9164 41.8736ZM 6.67953 41.8736L 6.58912 41.9525C 6.59781 41.9624 6.60809 41.9709 6.61954 41.9775L 6.67953 41.8736ZM 0 28.8898L -0.0788272 28.7993C -0.111133 28.8274 -0.125981 28.8707 -0.117783 28.9127L 0 28.8898ZM 33.0465 -0.0397222C 28.1852 13.8183 23.4183 27.6537 16.8077 41.8228L 17.0252 41.9243C 23.6408 27.7436 28.4119 13.8971 33.273 0.0397222L 33.0465 -0.0397222ZM 16.8511 41.7729C 13.6477 43.8531 10.2793 43.8131 6.73953 41.7696L 6.61954 41.9775C 10.2277 44.0604 13.6937 44.1094 16.9818 41.9742L 16.8511 41.7729ZM 6.76995 41.7947C 3.05443 37.5382 0.967681 33.2323 0.117783 28.8668L -0.117783 28.9127C 0.740008 33.3082 2.85425 37.6706 6.58912 41.9525L 6.76995 41.7947ZM 0.0788272 28.9803L 33.2386 0.090478L 33.0809 -0.090478L -0.0788272 28.7993L 0.0788272 28.9803Z"/>
<path id="path4_fill" fill-rule="evenodd" d="M 11.2549 4.47883C 10.6961 6.22658 10.0193 7.89084 9.18574 9.30647L 0 0L 11.2549 4.47883Z"/>
<path id="path5_stroke" d="M 11.2549 4.47883L 11.3692 4.51538C 11.3884 4.45532 11.3578 4.39065 11.2993 4.36734L 11.2549 4.47883ZM 9.18574 9.30647L 9.10034 9.39077C 9.12651 9.41729 9.16352 9.43015 9.20051 9.42556C 9.23749 9.42098 9.27024 9.39947 9.28915 9.36736L 9.18574 9.30647ZM 0 0L 0.0443694 -0.111496C -0.00839332 -0.132493 -0.0686501 -0.113631 -0.100024 -0.066297C -0.131397 -0.0189634 -0.125296 0.0438812 -0.085405 0.084297L 0 0ZM 11.1406 4.44229C 10.5833 6.18568 9.91173 7.83765 9.08233 9.24559L 9.28915 9.36736C 10.1269 7.94402 10.8089 6.26749 11.3692 4.51538L 11.1406 4.44229ZM 9.27115 9.22218L 0.085405 -0.084297L -0.085405 0.084297L 9.10034 9.39077L 9.27115 9.22218ZM -0.0443694 0.111496L 11.2105 4.59033L 11.2993 4.36734L 0.0443694 -0.111496L -0.0443694 0.111496Z"/>
<path id="path6_fill" fill-rule="evenodd" d="M 0 4.47883C 0.556935 6.22658 1.23374 7.88898 2.06914 9.30647L 11.2549 0L 0 4.47883Z"/>
<path id="path7_stroke" d="M 0 4.47883L -0.0443694 4.36734C -0.10291 4.39063 -0.133465 4.45524 -0.114335 4.51527L 0 4.47883ZM 2.06914 9.30647L 1.96576 9.3674C 1.98468 9.3995 2.01743 9.42099 2.0544 9.42557C 2.09137 9.43014 2.12838 9.41729 2.15455 9.39077L 2.06914 9.30647ZM 11.2549 0L 11.3403 0.084297C 11.3802 0.0438812 11.3863 -0.0189634 11.3549 -0.066297C 11.3235 -0.113631 11.2633 -0.132493 11.2105 -0.111496L 11.2549 0ZM -0.114335 4.51527C 0.44411 6.26745 1.12619 7.94221 1.96576 9.3674L 2.17252 9.24555C 1.34129 7.83575 0.66976 6.18571 0.114335 4.4424L -0.114335 4.51527ZM 2.15455 9.39077L 11.3403 0.084297L 11.1695 -0.084297L 1.98374 9.22218L 2.15455 9.39077ZM 11.2105 -0.111496L -0.0443694 4.36734L 0.0443694 4.59033L 11.2993 0.111496L 11.2105 -0.111496Z"/>
<path id="path8_fill" fill-rule="evenodd" d="M 62.639 0C 97.2114 0 125.278 28.2385 125.278 63.0209C 125.278 97.8015 97.2114 126.04 62.639 126.04C 28.0684 126.04 0 97.8015 0 63.0209C 0 28.2385 28.0684 0 62.639 0Z"/>
<path id="path9_stroke" d="M 62.639 0.12C 97.1444 0.12 125.158 28.3041 125.158 63.0209L 125.398 63.0209C 125.398 28.173 97.2783 -0.12 62.639 -0.12L 62.639 0.12ZM 125.158 63.0209C 125.158 97.7359 97.1444 125.92 62.639 125.92L 62.639 126.16C 97.2783 126.16 125.398 97.8671 125.398 63.0209L 125.158 63.0209ZM 62.639 125.92C 28.1354 125.92 0.12 97.7359 0.12 63.0209L -0.12 63.0209C -0.12 97.8671 28.0015 126.16 62.639 126.16L 62.639 125.92ZM 0.12 63.0209C 0.12 28.3041 28.1354 0.12 62.639 0.12L 62.639 -0.12C 28.0015 -0.12 -0.12 28.173 -0.12 63.0209L 0.12 63.0209Z"/>
<path id="path10_fill" fill-rule="evenodd" d="M 8.29317 0C 10.9192 2.66986 13.2115 5.72563 14.6444 9.77774C 15.3102 14.5163 15.2678 18.4682 14.6444 21.7726C 13.0068 20.6483 11.5573 20.0583 10.3678 20.2086C 11.4743 22.1307 11.9999 24.3775 12.7818 27.7803L 12.6011 36.4763C 8.84088 34.2889 4.47945 34.9271 0 36.1145L 8.29317 0Z"/>
<path id="path11_stroke" d="M 8.29317 0L 8.37872 -0.0841485C 8.34799 -0.115392 8.30267 -0.127398 8.2605 -0.115468C 8.21833 -0.103538 8.18602 -0.0695694 8.17621 -0.0268572L 8.29317 0ZM 14.6444 9.77774L 14.7633 9.76104C 14.7622 9.7531 14.7603 9.74529 14.7576 9.73773L 14.6444 9.77774ZM 14.6444 21.7726L 14.5765 21.8716C 14.61 21.8945 14.6527 21.899 14.6902 21.8836C 14.7277 21.8681 14.7548 21.8347 14.7624 21.7949L 14.6444 21.7726ZM 10.3678 20.2086L 10.3528 20.0895C 10.313 20.0945 10.2783 20.1192 10.2604 20.1551C 10.2425 20.1911 10.2438 20.2336 10.2638 20.2684L 10.3678 20.2086ZM 12.7818 27.7803L 12.9018 27.7828C 12.902 27.7729 12.901 27.763 12.8988 27.7534L 12.7818 27.7803ZM 12.6011 36.4763L 12.5408 36.5801C 12.5775 36.6014 12.6228 36.6018 12.6599 36.581C 12.6969 36.5602 12.7202 36.5213 12.7211 36.4788L 12.6011 36.4763ZM 0 36.1145L -0.116956 36.0877C -0.126365 36.1287 -0.113645 36.1716 -0.0834239 36.2008C -0.0532033 36.23 -0.00989062 36.2413 0.030748 36.2305L 0 36.1145ZM 8.20762 0.0841485C 10.8283 2.74811 13.1058 5.78229 14.5313 9.81774L 14.7576 9.73773C 13.3173 5.66897 11.0102 2.59161 8.37872 -0.0841485L 8.20762 0.0841485ZM 14.5256 9.79443C 15.1904 14.524 15.1483 18.4564 14.5265 21.7504L 14.7624 21.7949C 15.3872 18.48 15.4299 14.5086 14.7633 9.76104L 14.5256 9.79443ZM 14.7124 21.6737C 13.0704 20.5464 11.5888 19.9333 10.3528 20.0895L 10.3829 20.3276C 11.5258 20.1832 12.9433 20.7502 14.5765 21.8716L 14.7124 21.6737ZM 10.2638 20.2684C 11.3627 22.1748 11.883 24.4047 12.6649 27.8071L 12.8988 27.7534C 12.1168 24.3504 11.586 22.0866 10.4718 20.1487L 10.2638 20.2684ZM 12.6619 27.7778L 12.4811 36.4738L 12.7211 36.4788L 12.9018 27.7828L 12.6619 27.7778ZM 12.6615 36.3726C 8.85536 34.1585 4.4499 34.8108 -0.030748 35.9985L 0.030748 36.2305C 4.50901 35.0434 8.82641 34.4193 12.5408 36.5801L 12.6615 36.3726ZM 0.116956 36.1414L 8.41012 0.0268572L 8.17621 -0.0268572L -0.116956 36.0877L 0.116956 36.1414Z"/>
<path id="path12_fill" fill-rule="evenodd" d="M 15.5346 0C 12.205 1.69951 9.07085 3.87028 6.44053 7.26187C 4.32086 11.5459 3.12086 15.3086 2.67624 18.6426C 4.58181 18.0953 6.14325 17.9951 7.22503 18.5165C 5.57175 19.9896 4.36751 21.9544 2.55821 24.936L 0 33.2424C 4.25391 32.3612 8.19266 34.3538 12.0704 36.9031L 15.5346 0Z"/>
<path id="path13_stroke" d="M 15.5346 0L 15.6541 0.0112156C 15.6582 -0.0323652 15.6382 -0.0747163 15.602 -0.0992954C 15.5658 -0.123875 15.519 -0.126782 15.4801 -0.106882L 15.5346 0ZM 6.44053 7.26187L 6.34571 7.18833C 6.34079 7.19466 6.33653 7.20147 6.33298 7.20865L 6.44053 7.26187ZM 2.67624 18.6426L 2.55729 18.6268C 2.55194 18.6669 2.56719 18.707 2.59785 18.7335C 2.62851 18.7599 2.67045 18.7692 2.70937 18.758L 2.67624 18.6426ZM 7.22503 18.5165L 7.30487 18.6061C 7.33481 18.5794 7.34944 18.5395 7.34387 18.4998C 7.3383 18.4601 7.31326 18.4258 7.27713 18.4084L 7.22503 18.5165ZM 2.55821 24.936L 2.45562 24.8738C 2.4505 24.8822 2.44644 24.8912 2.44353 24.9007L 2.55821 24.936ZM 0 33.2424L -0.114684 33.2071C -0.127173 33.2477 -0.117318 33.2918 -0.088765 33.3232C -0.0602117 33.3546 -0.0172055 33.3686 0.0243438 33.36L 0 33.2424ZM 12.0704 36.9031L 12.0044 37.0033C 12.0396 37.0265 12.0844 37.0295 12.1223 37.0112C 12.1603 36.993 12.1859 36.9562 12.1898 36.9143L 12.0704 36.9031ZM 15.4801 -0.106882C 12.1434 1.59651 8.98831 3.78317 6.34571 7.18833L 6.53535 7.33541C 9.15339 3.95738 12.2666 1.8025 15.5892 0.106882L 15.4801 -0.106882ZM 6.33298 7.20865C 4.2096 11.5009 3.00377 15.2823 2.55729 18.6268L 2.79519 18.6585C 3.23796 15.3348 4.43211 11.5909 6.54808 7.31509L 6.33298 7.20865ZM 2.70937 18.758C 4.60978 18.2121 6.13345 18.1236 7.17294 18.6246L 7.27713 18.4084C 6.15306 17.8666 4.55383 17.9785 2.64311 18.5273L 2.70937 18.758ZM 7.1452 18.4269C 5.47969 19.9127 4.26506 21.892 2.45562 24.8738L 2.6608 24.9983C 4.46996 22.0169 5.66381 20.0666 7.30487 18.6061L 7.1452 18.4269ZM 2.44353 24.9007L -0.114684 33.2071L 0.114684 33.2778L 2.6729 24.9713L 2.44353 24.9007ZM 0.0243438 33.36C 4.22624 32.4894 8.12764 34.4547 12.0044 37.0033L 12.1363 36.8028C 8.25768 34.2529 4.28159 32.2329 -0.0243438 33.1249L 0.0243438 33.36ZM 12.1898 36.9143L 15.6541 0.0112156L 15.4151 -0.0112156L 11.9509 36.8919L 12.1898 36.9143Z"/>
<path id="path14_fill" fill-rule="evenodd" d="M 1.03273 5.77573C 4.53662 3.07618 8.70626 1.0056 14.0045 0C 12.0718 2.54926 11.0207 5.08368 11.5518 7.59583C 15.8192 3.68845 20.566 1.07796 26.0708 0.521356C 24.0386 3.87213 23.1774 7.20621 23.7472 10.518C 25.9786 9.51984 28.5033 9.1432 31.4244 9.61075C 33.4659 10.377 34.6609 11.403 35.1035 12.6628C 31.5498 13.0858 29.0657 14.2343 26.9726 15.6481L 0 8.37323L 1.03273 5.77573Z"/>
<path id="path15_stroke" d="M 1.03273 5.77573L 0.95949 5.68067C 0.942406 5.69383 0.929185 5.71135 0.921217 5.73139L 1.03273 5.77573ZM 14.0045 0L 14.1001 0.0724967C 14.1301 0.032933 14.1327 -0.0210165 14.1065 -0.0632168C 14.0804 -0.105417 14.0309 -0.127153 13.9821 -0.117895L 14.0045 0ZM 11.5518 7.59583L 11.4344 7.62066C 11.4433 7.6628 11.4741 7.69693 11.5151 7.7101C 11.5561 7.72326 11.6011 7.71343 11.6328 7.68434L 11.5518 7.59583ZM 26.0708 0.521356L 26.1734 0.583585C 26.197 0.544676 26.1966 0.495767 26.1723 0.457289C 26.148 0.418812 26.104 0.397386 26.0588 0.401964L 26.0708 0.521356ZM 23.7472 10.518L 23.6289 10.5384C 23.6352 10.5749 23.658 10.6065 23.6907 10.6239C 23.7234 10.6413 23.7624 10.6427 23.7962 10.6276L 23.7472 10.518ZM 31.4244 9.61075L 31.4666 9.49841C 31.4591 9.49559 31.4513 9.49353 31.4434 9.49226L 31.4244 9.61075ZM 35.1035 12.6628L 35.1177 12.782C 35.1539 12.7777 35.1861 12.7572 35.2054 12.7263C 35.2246 12.6954 35.2288 12.6574 35.2167 12.623L 35.1035 12.6628ZM 26.9726 15.6481L 26.9414 15.7639C 26.975 15.773 27.0109 15.767 27.0398 15.7475L 26.9726 15.6481ZM 0 8.37323L -0.11151 8.3289C -0.124154 8.3607 -0.122618 8.39639 -0.107287 8.42698C -0.0919571 8.45758 -0.0642917 8.48018 -0.0312489 8.48909L 0 8.37323ZM 1.10596 5.87079C 4.60023 3.17794 8.74449 1.11935 14.0269 0.117895L 13.9821 -0.117895C 8.66803 0.891857 4.47301 2.97443 0.95949 5.68067L 1.10596 5.87079ZM 13.9089 -0.0724967C 11.9686 2.48677 10.8925 5.05746 11.4344 7.62066L 11.6692 7.57101C 11.1489 5.1099 12.1751 2.61175 14.1001 0.0724967L 13.9089 -0.0724967ZM 11.6328 7.68434C 15.8891 3.78597 20.6017 1.19254 26.0829 0.640747L 26.0588 0.401964C 20.5304 0.963386 15.7492 3.59093 11.4708 7.50733L 11.6328 7.68434ZM 25.9682 0.459126C 23.9254 3.82733 23.0529 7.19062 23.6289 10.5384L 23.8655 10.4977C 23.3018 7.2218 24.1517 3.91694 26.1734 0.583585L 25.9682 0.459126ZM 23.7962 10.6276C 26.0123 9.63502 28.5026 9.2632 31.4055 9.72925L 31.4434 9.49226C 28.5039 9.0232 25.945 9.40466 23.6982 10.4085L 23.7962 10.6276ZM 31.3822 9.7231C 33.4086 10.4837 34.5647 11.4911 34.9903 12.7026L 35.2167 12.623C 34.7572 11.315 33.5232 10.2703 31.4666 9.49841L 31.3822 9.7231ZM 35.0893 12.5437C 31.5171 12.9704 29.0068 14.1298 26.9055 15.5486L 27.0398 15.7475C 29.1247 14.3388 31.5825 13.2013 35.1177 12.782L 35.0893 12.5437ZM 27.0039 15.5322L 0.0312489 8.25737L -0.0312489 8.48909L 26.9414 15.7639L 27.0039 15.5322ZM 0.11151 8.41756L 1.14424 5.82006L 0.921217 5.73139L -0.11151 8.3289L 0.11151 8.41756Z"/>
<path id="path16_fill" fill-rule="evenodd" d="M 28.5715 0C 44.339 0 57.1412 12.8799 57.1412 28.7432C 57.1412 44.6084 44.339 57.4864 28.5715 57.4864C 12.8021 57.4864 0 44.6084 0 28.7432C 0 12.8799 12.8021 0 28.5715 0Z"/>
<path id="path17_fill" fill-rule="evenodd" d="M 17.0732 0C 26.495 0 34.1464 7.69602 34.1464 17.1769C 34.1464 26.6578 26.495 34.3538 17.0732 34.3538C 7.64956 34.3538 0 26.6578 0 17.1769C 0 7.69602 7.64956 0 17.0732 0Z"/>
<path id="path18_stroke" d="M 17.0732 0.12C 26.428 0.12 34.0264 7.76162 34.0264 17.1769L 34.2664 17.1769C 34.2664 7.63043 26.5619 -0.12 17.0732 -0.12L 17.0732 0.12ZM 34.0264 17.1769C 34.0264 26.5922 26.428 34.2338 17.0732 34.2338L 17.0732 34.4738C 26.5619 34.4738 34.2664 26.7234 34.2664 17.1769L 34.0264 17.1769ZM 17.0732 34.2338C 7.71652 34.2338 0.12 26.5922 0.12 17.1769L -0.12 17.1769C -0.12 26.7234 7.5826 34.4738 17.0732 34.4738L 17.0732 34.2338ZM 0.12 17.1769C 0.12 7.76161 7.71652 0.12 17.0732 0.12L 17.0732 -0.12C 7.5826 -0.12 -0.12 7.63044 -0.12 17.1769L 0.12 17.1769Z"/>
<path id="path19_fill" fill-rule="evenodd" d="M 10.0451 0C 15.5886 0 20.0884 4.52893 20.0884 10.1061C 20.0884 15.6833 15.5886 20.2123 10.0451 20.2123C 4.49974 20.2123 0 15.6833 0 10.1061C 0 4.52893 4.49974 0 10.0451 0Z"/>
<path id="path20_fill" fill-rule="evenodd" d="M 30.8361 0C 47.8558 0 61.6741 7.06891 61.6741 15.7743C 61.6741 24.4796 47.8558 31.5485 30.8361 31.5485C 13.8164 31.5485 0 24.4796 0 15.7743C 0 7.06891 13.8164 0 30.8361 0Z"/>
<path id="path21_fill" fill-rule="evenodd" d="M 20.5568 0L 0 0Z"/>
<path id="path22_stroke" d="M 20.5568 0.6C 20.8882 0.6 21.1568 0.331371 21.1568 0C 21.1568 -0.331371 20.8882 -0.6 20.5568 -0.6L 20.5568 0.6ZM 0 -0.6C -0.331371 -0.6 -0.6 -0.331371 -0.6 0C -0.6 0.331371 -0.331371 0.6 0 0.6L 0 -0.6ZM 20.5568 -0.6L 0 -0.6L 0 0.6L 20.5568 0.6L 20.5568 -0.6Z"/>
<path id="path23_stroke" d="M 3.89999 0.300177C 4.06577 0.0132581 3.96757 -0.35373 3.68065 -0.519513C 3.39373 -0.685296 3.02674 -0.587096 2.86096 -0.300177L 3.89999 0.300177ZM 2.87653 22.4638C 3.05637 22.7421 3.42779 22.8219 3.70611 22.6421C 3.98443 22.4622 4.06426 22.0908 3.88442 21.8125L 2.87653 22.4638ZM 2.86096 -0.300177C -1.89171 7.92522 -1.6185 15.5074 2.87653 22.4638L 3.88442 21.8125C -0.350785 15.2582 -0.641883 8.16073 3.89999 0.300177L 2.86096 -0.300177Z"/>
<path id="path24_stroke" d="M 0.519513 -0.300177C 0.35373 -0.587096 -0.0132581 -0.685296 -0.300177 -0.519513C -0.587096 -0.35373 -0.685296 0.0132581 -0.519513 0.300177L 0.519513 -0.300177ZM -0.503946 21.8125C -0.683789 22.0908 -0.603957 22.4622 -0.325635 22.6421C -0.0473137 22.8219 0.324103 22.7421 0.503946 22.4638L -0.503946 21.8125ZM -0.519513 0.300177C 4.02236 8.16073 3.73126 15.2582 -0.503946 21.8125L 0.503946 22.4638C 4.99898 15.5074 5.27219 7.92522 0.519513 -0.300177L -0.519513 0.300177Z"/>
</defs>
</svg>
