<svg width="142" height="140" viewBox="0 0 142 140" version="1.1" xmlns="http://www.w3.org/2000/svg" xmlns:xlink="http://www.w3.org/1999/xlink">
<title>Group 62</title>
<desc>Created using Figma</desc>
<g id="Canvas" transform="translate(-894 -1621)">
<g id="Group 62">
<g id="Fill 1">
<use xlink:href="#path0_fill" transform="translate(904.777 1627.13)" fill="#79CE4D"/>
</g>
<g id="Stroke 2">
<use xlink:href="#path1_stroke" transform="translate(904.777 1627.13)" fill="#79CE4D"/>
</g>
<g id="Fill 3">
<use xlink:href="#path2_fill" transform="translate(912.115 1716.85)" fill="#79CE4D"/>
</g>
<g id="Stroke 4">
<use xlink:href="#path3_stroke" transform="translate(912.115 1716.85)" fill="#79CE4D"/>
</g>
<g id="Fill 5">
<use xlink:href="#path4_fill" transform="translate(990.325 1716.85)" fill="#79CE4D"/>
</g>
<g id="Stroke 6">
<use xlink:href="#path5_stroke" transform="translate(990.325 1716.85)" fill="#79CE4D"/>
</g>
<g id="Fill 7">
<use xlink:href="#path6_fill" transform="translate(1020.71 1679.83)" fill="#79CE4D"/>
</g>
<g id="Stroke 8">
<use xlink:href="#path7_stroke" transform="translate(1020.71 1679.83)" fill="#79CE4D"/>
</g>
<g id="Fill 9">
<use xlink:href="#path8_fill" transform="translate(894.832 1665.29)" fill="#79CE4D"/>
</g>
<g id="Stroke 10">
<use xlink:href="#path9_stroke" transform="translate(894.832 1665.29)" fill="#79CE4D"/>
</g>
<g id="Fill 11">
<use xlink:href="#path10_fill" transform="translate(966.077 1621.53)" fill="#79CE4D"/>
</g>
<g id="Stroke 12">
<use xlink:href="#path11_stroke" transform="translate(966.077 1621.53)" fill="#79CE4D"/>
</g>
<g id="Fill 13">
<use xlink:href="#path12_fill" transform="translate(933.353 1743.65)" fill="#4A8C27"/>
</g>
<g id="Stroke 14">
<use xlink:href="#path13_stroke" transform="translate(933.353 1743.65)" fill="#4A8D26"/>
</g>
<g id="Fill 15">
<use xlink:href="#path14_fill" transform="translate(990.86 1743.38)" fill="#4A8C27"/>
</g>
<g id="Stroke 16">
<use xlink:href="#path15_stroke" transform="translate(990.86 1743.38)" fill="#4A8D26"/>
</g>
<g id="Fill 17">
<use xlink:href="#path16_fill" transform="translate(940.697 1651.02)" fill="#EEEEEE"/>
</g>
<g id="Fill 18">
<use xlink:href="#path17_fill" transform="translate(952.596 1662.17)" fill="#1A1A1B"/>
</g>
<g id="Stroke 19">
<use xlink:href="#path18_stroke" transform="translate(952.596 1662.17)" fill="#1A1A1B"/>
</g>
<g id="Fill 20">
<use xlink:href="#path19_fill" transform="translate(970.621 1658.1)" fill="#F9F9F9"/>
</g>
<g id="Fill 21">
<use xlink:href="#path20_fill" transform="translate(937.924 1711.13)" fill="#94286D"/>
</g>
<g id="Fill 22">
<use xlink:href="#path21_fill" transform="translate(951.785 1725.28)" fill="#E773A4"/>
</g>
</g>
</g>
<defs>
<path id="path0_fill" fill-rule="evenodd" d="M 62.5695 0C 97.1025 0 125.139 28.0368 125.139 62.5708C 125.139 97.1029 97.1025 125.14 62.5695 125.14C 28.0365 125.14 0 97.1029 0 62.5708C 0 28.0368 28.0365 0 62.5695 0Z"/>
<path id="path1_stroke" d="M 62.5695 0.12C 97.0363 0.12 125.019 28.1031 125.019 62.5708L 125.259 62.5708C 125.259 27.9706 97.1688 -0.12 62.5695 -0.12L 62.5695 0.12ZM 125.019 62.5708C 125.019 97.0366 97.0363 125.02 62.5695 125.02L 62.5695 125.26C 97.1688 125.26 125.259 97.1692 125.259 62.5708L 125.019 62.5708ZM 62.5695 125.02C 28.1027 125.02 0.12 97.0366 0.12 62.5708L -0.12 62.5708C -0.12 97.1692 27.9702 125.26 62.5695 125.26L 62.5695 125.02ZM 0.12 62.5708C 0.12 28.1031 28.1027 0.12 62.5695 0.12L 62.5695 -0.12C 27.9702 -0.12 -0.12 27.9706 -0.12 62.5708L 0.12 62.5708Z"/>
<path id="path2_fill" fill-rule="evenodd" d="M 0 0C 4.85524 13.7587 9.61818 27.5008 16.2242 41.5745C 19.4676 43.6671 22.8801 43.6229 26.4508 41.5745C 30.1717 37.3358 32.2689 33.0326 33.122 28.6834L 0 0Z"/>
<path id="path3_stroke" d="M 0 0L 0.0785568 -0.0907129C 0.0374026 -0.126352 -0.022587 -0.129822 -0.0675754 -0.0991643C -0.112564 -0.0685071 -0.131277 -0.0114054 -0.113161 0.0399328L 0 0ZM 16.2242 41.5745L 16.1155 41.6255C 16.1251 41.6458 16.1402 41.6631 16.1591 41.6753L 16.2242 41.5745ZM 26.4508 41.5745L 26.5105 41.6786C 26.522 41.672 26.5323 41.6636 26.541 41.6536L 26.4508 41.5745ZM 33.122 28.6834L 33.2397 28.7065C 33.248 28.6643 33.2331 28.6209 33.2005 28.5927L 33.122 28.6834ZM -0.113161 0.0399328C 4.74196 13.7983 9.50702 27.546 16.1155 41.6255L 16.3328 41.5235C 9.72934 27.4556 4.96851 13.7191 0.113161 -0.0399328L -0.113161 0.0399328ZM 16.1591 41.6753C 19.4447 43.7952 22.9057 43.7465 26.5105 41.6786L 26.3911 41.4704C 22.8544 43.4993 19.4904 43.539 16.2892 41.4736L 16.1591 41.6753ZM 26.541 41.6536C 30.2716 37.4023 32.3827 33.0708 33.2397 28.7065L 33.0042 28.6603C 32.1551 32.9945 30.0717 37.2693 26.3606 41.4953L 26.541 41.6536ZM 33.2005 28.5927L 0.0785568 -0.0907129L -0.0785568 0.0907129L 33.0434 28.7741L 33.2005 28.5927Z"/>
<path id="path4_fill" fill-rule="evenodd" d="M 33.122 0C 28.2667 13.7587 23.5038 27.5008 16.8978 41.5745C 13.6544 43.6671 10.2419 43.6229 6.67118 41.5745C 2.95032 37.3358 0.853079 33.0326 0 28.6834L 33.122 0Z"/>
<path id="path5_stroke" d="M 33.122 0L 33.2351 0.0399328C 33.2533 -0.0114054 33.2345 -0.0685071 33.1895 -0.0991643C 33.1446 -0.129822 33.0846 -0.126352 33.0434 -0.0907129L 33.122 0ZM 16.8978 41.5745L 16.9629 41.6753C 16.9818 41.6631 16.9969 41.6458 17.0064 41.6255L 16.8978 41.5745ZM 6.67118 41.5745L 6.581 41.6536C 6.58972 41.6636 6.60001 41.672 6.61147 41.6786L 6.67118 41.5745ZM 0 28.6834L -0.0785568 28.5927C -0.111081 28.6209 -0.126038 28.6643 -0.117756 28.7065L 0 28.6834ZM 33.0088 -0.0399328C 28.1535 13.7191 23.3926 27.4556 16.7892 41.5235L 17.0064 41.6255C 23.6149 27.546 28.38 13.7983 33.2351 0.0399328L 33.0088 -0.0399328ZM 16.8328 41.4736C 13.6316 43.539 10.2676 43.4993 6.7309 41.4704L 6.61147 41.6786C 10.2163 43.7465 13.6773 43.7952 16.9629 41.6753L 16.8328 41.4736ZM 6.76137 41.4953C 3.05023 37.2693 0.966851 32.9945 0.117756 28.6603L -0.117756 28.7065C 0.739307 33.0708 2.8504 37.4023 6.581 41.6536L 6.76137 41.4953ZM 0.0785568 28.7741L 33.2005 0.0907129L 33.0434 -0.0907129L -0.0785568 28.5927L 0.0785568 28.7741Z"/>
<path id="path6_fill" fill-rule="evenodd" d="M 8.28468 0C 10.9077 2.65079 13.1974 5.68474 14.6276 9.70789C 15.2937 14.4126 15.2515 18.3363 14.6276 21.6171C 12.9929 20.5008 11.5447 19.9132 10.3558 20.0642C 11.461 21.9726 11.9866 24.2034 12.7671 27.5818L 12.5875 36.2158C 8.83197 34.0439 4.47447 34.6776 0 35.8566L 8.28468 0Z"/>
<path id="path7_stroke" d="M 8.28468 0L 8.36998 -0.0844041C 8.33922 -0.115489 8.29399 -0.12738 8.25192 -0.115441C 8.20985 -0.103502 8.17761 -0.0696225 8.16776 -0.0270144L 8.28468 0ZM 14.6276 9.70789L 14.7464 9.69107C 14.7453 9.68311 14.7434 9.67528 14.7407 9.6677L 14.6276 9.70789ZM 14.6276 21.6171L 14.5599 21.7162C 14.5934 21.739 14.636 21.7435 14.6734 21.728C 14.7108 21.7126 14.7379 21.6793 14.7455 21.6395L 14.6276 21.6171ZM 10.3558 20.0642L 10.3406 19.9452C 10.3008 19.9502 10.2661 19.9749 10.2482 20.011C 10.2304 20.047 10.2318 20.0896 10.2519 20.1244L 10.3558 20.0642ZM 12.7671 27.5818L 12.8871 27.5843C 12.8873 27.5744 12.8862 27.5645 12.884 27.5548L 12.7671 27.5818ZM 12.5875 36.2158L 12.5274 36.3197C 12.5641 36.3409 12.6094 36.3412 12.6464 36.3204C 12.6833 36.2995 12.7066 36.2607 12.7074 36.2183L 12.5875 36.2158ZM 0 35.8566L -0.11692 35.8296C -0.126384 35.8705 -0.113723 35.9134 -0.0835463 35.9427C -0.0533695 35.972 -0.0100771 35.9833 0.0305745 35.9726L 0 35.8566ZM 8.19938 0.0844041C 10.8169 2.72931 13.0917 5.74164 14.5145 9.74809L 14.7407 9.6677C 13.303 5.62783 10.9984 2.57227 8.36998 -0.0844041L 8.19938 0.0844041ZM 14.5088 9.72472C 15.174 14.4204 15.1321 18.3244 14.5097 21.5947L 14.7455 21.6395C 15.3709 18.3482 15.4135 14.4048 14.7464 9.69107L 14.5088 9.72472ZM 14.6953 21.518C 13.0563 20.3987 11.5759 19.7882 10.3406 19.9452L 10.3709 20.1833C 11.5134 20.0381 12.9296 20.6028 14.5599 21.7162L 14.6953 21.518ZM 10.2519 20.1244C 11.3495 22.0169 11.8697 24.2307 12.6502 27.6089L 12.884 27.5548C 12.1034 24.1762 11.5725 21.9283 10.4596 20.0041L 10.2519 20.1244ZM 12.6471 27.5793L 12.4675 36.2133L 12.7074 36.2183L 12.8871 27.5843L 12.6471 27.5793ZM 12.6475 36.1119C 8.84636 33.9136 4.44507 34.5613 -0.0305745 35.7405L 0.0305745 35.9726C 4.50387 34.794 8.81759 34.1743 12.5274 36.3197L 12.6475 36.1119ZM 0.11692 35.8836L 8.4016 0.0270144L 8.16776 -0.0270144L -0.11692 35.8296L 0.11692 35.8836Z"/>
<path id="path8_fill" fill-rule="evenodd" d="M 15.5173 0C 12.1914 1.68737 9.06076 3.84263 6.43355 7.21C 4.31605 11.4634 3.11739 15.1992 2.67345 18.5095C 4.57689 17.9661 6.13642 17.8666 7.21718 18.3842C 5.56574 19.8468 4.36266 21.7976 2.55555 24.7579L 0 33.005C 4.24918 32.13 8.18374 34.1084 12.0571 36.6395L 15.5173 0Z"/>
<path id="path9_stroke" d="M 15.5173 0L 15.6368 0.0112825C 15.6409 -0.0322556 15.621 -0.0745832 15.5849 -0.099194C 15.5487 -0.123805 15.502 -0.126801 15.463 -0.107015L 15.5173 0ZM 6.43355 7.21L 6.33894 7.13618C 6.334 7.14252 6.32971 7.14933 6.32613 7.15652L 6.43355 7.21ZM 2.67345 18.5095L 2.55451 18.4935C 2.54913 18.5336 2.56434 18.5738 2.59495 18.6002C 2.62557 18.6267 2.66747 18.636 2.70639 18.6249L 2.67345 18.5095ZM 7.21718 18.3842L 7.29675 18.474C 7.32685 18.4474 7.3416 18.4074 7.33603 18.3676C 7.33045 18.3277 7.30529 18.2934 7.26902 18.276L 7.21718 18.3842ZM 2.55555 24.7579L 2.45313 24.6954C 2.44796 24.7038 2.44386 24.7129 2.44093 24.7224L 2.55555 24.7579ZM 0 33.005L -0.114623 32.9695C -0.127186 33.01 -0.117398 33.0542 -0.0888832 33.0856C -0.0603682 33.1171 -0.0173678 33.1311 0.0242028 33.1225L 0 33.005ZM 12.0571 36.6395L 11.9915 36.7399C 12.0267 36.7629 12.0713 36.7658 12.1092 36.7476C 12.1471 36.7293 12.1726 36.6926 12.1766 36.6508L 12.0571 36.6395ZM 15.463 -0.107015C 12.1301 1.58421 8.97848 3.75529 6.33894 7.13618L 6.52816 7.28382C 9.14305 3.92998 12.2527 1.79053 15.5716 0.107015L 15.463 -0.107015ZM 6.32613 7.15652C 4.20489 11.4182 3.00034 15.1728 2.55451 18.4935L 2.79238 18.5254C 3.23445 15.2256 4.42721 11.5086 6.54098 7.26348L 6.32613 7.15652ZM 2.70639 18.6249C 4.60471 18.0829 6.12668 17.995 7.16535 18.4924L 7.26902 18.276C 6.14616 17.7382 4.54908 17.8492 2.6405 18.3941L 2.70639 18.6249ZM 7.13762 18.2944C 5.4739 19.7696 4.26038 21.7349 2.45313 24.6954L 2.65798 24.8204C 4.46494 21.8604 5.65757 19.9241 7.29675 18.474L 7.13762 18.2944ZM 2.44093 24.7224L -0.114623 32.9695L 0.114623 33.0405L 2.67018 24.7934L 2.44093 24.7224ZM 0.0242028 33.1225C 4.22168 32.2582 8.11908 34.2095 11.9915 36.7399L 12.1228 36.539C 8.2484 34.0073 4.27669 32.0018 -0.0242028 32.8875L 0.0242028 33.1225ZM 12.1766 36.6508L 15.6368 0.0112825L 15.3979 -0.0112825L 11.9377 36.6282L 12.1766 36.6508Z"/>
<path id="path10_fill" fill-rule="evenodd" d="M 1.03158 5.73447C 4.53176 3.05421 8.69658 0.998421 13.988 0C 12.0581 2.52921 11.0082 5.04737 11.5378 7.54158C 15.8014 3.66211 20.5428 1.07026 26.0413 0.517632C 24.0107 3.84447 23.1518 7.15474 23.7195 10.4429C 25.9486 9.45184 28.4705 9.0779 31.39 9.54211C 33.4279 10.3029 34.6229 11.3216 35.0636 12.5724C 31.5144 12.9924 29.0323 14.1326 26.9417 15.5363L 0 8.31342L 1.03158 5.73447Z"/>
<path id="path11_stroke" d="M 1.03158 5.73447L 0.958622 5.6392C 0.941472 5.65233 0.928184 5.66985 0.920162 5.68991L 1.03158 5.73447ZM 13.988 0L 14.0834 0.0727957C 14.1136 0.0332903 14.1162 -0.0207086 14.0902 -0.0630022C 14.0641 -0.105296 14.0146 -0.127133 13.9658 -0.117919L 13.988 0ZM 11.5378 7.54158L 11.4205 7.5665C 11.4294 7.60855 11.4601 7.64262 11.501 7.6558C 11.542 7.66898 11.5868 7.65927 11.6186 7.63034L 11.5378 7.54158ZM 26.0413 0.517632L 26.1437 0.580149C 26.1675 0.541266 26.1671 0.492298 26.1429 0.453738C 26.1186 0.415179 26.0746 0.393678 26.0293 0.398233L 26.0413 0.517632ZM 23.7195 10.4429L 23.6012 10.4633C 23.6075 10.4998 23.6303 10.5313 23.6629 10.5487C 23.6956 10.5662 23.7344 10.5676 23.7682 10.5525L 23.7195 10.4429ZM 31.39 9.54211L 31.432 9.42968C 31.4245 9.42689 31.4168 9.42485 31.4089 9.42359L 31.39 9.54211ZM 35.0636 12.5724L 35.0777 12.6915C 35.1138 12.6873 35.1461 12.6668 35.1654 12.6358C 35.1847 12.6049 35.1888 12.5669 35.1767 12.5325L 35.0636 12.5724ZM 26.9417 15.5363L 26.9106 15.6522C 26.9441 15.6612 26.9798 15.6553 27.0086 15.6359L 26.9417 15.5363ZM 0 8.31342L -0.111417 8.26885C -0.124155 8.3007 -0.122658 8.33647 -0.107303 8.36714C -0.0919477 8.39781 -0.0642027 8.42045 -0.0310739 8.42933L 0 8.31342ZM 1.10454 5.82975C 4.5951 3.15613 8.73461 1.11223 14.0103 0.117919L 13.9658 -0.117919C 8.65855 0.884608 4.46843 2.95229 0.958622 5.6392L 1.10454 5.82975ZM 13.8926 -0.0727957C 11.955 2.46641 10.88 5.02098 11.4205 7.5665L 11.6552 7.51665C 11.1365 5.07376 12.1611 2.59201 14.0834 0.0727957L 13.8926 -0.0727957ZM 11.6186 7.63034C 15.871 3.75982 20.5783 1.1849 26.0533 0.63703L 26.0293 0.398233C 20.5073 0.95563 15.7317 3.56439 11.4571 7.45282L 11.6186 7.63034ZM 25.9389 0.455114C 23.8976 3.79943 23.0273 7.13904 23.6012 10.4633L 23.8377 10.4225C 23.2762 7.17044 24.1238 3.88951 26.1437 0.580149L 25.9389 0.455114ZM 23.7682 10.5525C 25.9821 9.56708 28.4698 9.19789 31.3712 9.66062L 31.4089 9.42359C 28.4711 8.9579 25.9151 9.33661 23.6707 10.3332L 23.7682 10.5525ZM 31.3481 9.65453C 33.3711 10.4098 34.5268 11.41 34.9504 12.6122L 35.1767 12.5325C 34.719 11.2332 33.4848 10.196 31.432 9.42968L 31.3481 9.65453ZM 35.0494 12.4532C 31.4819 12.8769 28.9736 14.028 26.8748 15.4367L 27.0086 15.6359C 29.091 14.2373 31.5469 13.1079 35.0777 12.6915L 35.0494 12.4532ZM 26.9728 15.4204L 0.0310739 8.19751L -0.0310739 8.42933L 26.9106 15.6522L 26.9728 15.4204ZM 0.111417 8.35799L 1.143 5.77904L 0.920162 5.68991L -0.111417 8.26885L 0.111417 8.35799Z"/>
<path id="path12_fill" fill-rule="evenodd" d="M 11.2426 4.44684C 10.6855 6.18211 10.0093 7.83447 9.17571 9.24L 0 0L 11.2426 4.44684Z"/>
<path id="path13_stroke" d="M 11.2426 4.44684L 11.3568 4.48352C 11.3761 4.42334 11.3455 4.3585 11.2867 4.33525L 11.2426 4.44684ZM 9.17571 9.24L 9.09056 9.32456C 9.11673 9.3509 9.15362 9.36366 9.19047 9.35909C 9.22732 9.35452 9.25998 9.33315 9.27892 9.30121L 9.17571 9.24ZM 0 0L 0.0441372 -0.111588C -0.00868911 -0.132483 -0.0689289 -0.113473 -0.100193 -0.0660408C -0.131457 -0.018609 -0.125178 0.0442464 -0.0851485 0.0845561L 0 0ZM 11.1283 4.41016C 10.5728 6.14101 9.90184 7.781 9.0725 9.17879L 9.27892 9.30121C 10.1167 7.88795 10.7982 6.2232 11.3568 4.48352L 11.1283 4.41016ZM 9.26086 9.15544L 0.0851485 -0.0845561L -0.0851485 0.0845561L 9.09056 9.32456L 9.26086 9.15544ZM -0.0441372 0.111588L 11.1984 4.55843L 11.2867 4.33525L 0.0441372 -0.111588L -0.0441372 0.111588Z"/>
<path id="path14_fill" fill-rule="evenodd" d="M 0 4.44684C 0.557237 6.18211 1.23329 7.83263 2.06703 9.24L 11.2427 0L 0 4.44684Z"/>
<path id="path15_stroke" d="M 0 4.44684L -0.0441366 4.33525C -0.102912 4.3585 -0.133578 4.42335 -0.114254 4.48353L 0 4.44684ZM 2.06703 9.24L 1.96378 9.30116C 1.98271 9.33312 2.01538 9.35451 2.05224 9.35909C 2.0891 9.36366 2.126 9.35091 2.15217 9.32456L 2.06703 9.24ZM 11.2427 0L 11.3279 0.0845561C 11.3679 0.0442465 11.3742 -0.0186087 11.3429 -0.0660405C 11.3117 -0.113472 11.2514 -0.132483 11.1986 -0.111588L 11.2427 0ZM -0.114254 4.48353C 0.444501 6.22322 1.12586 7.8861 1.96378 9.30116L 2.17027 9.17884C 1.34072 7.77917 0.669972 6.14099 0.114254 4.41015L -0.114254 4.48353ZM 2.15217 9.32456L 11.3279 0.0845561L 11.1576 -0.0845561L 1.98188 9.15544L 2.15217 9.32456ZM 11.1986 -0.111588L -0.0441366 4.33525L 0.0441366 4.55843L 11.2869 0.111588L 11.1986 -0.111588Z"/>
<path id="path16_fill" fill-rule="evenodd" d="M 28.5386 0C 44.2894 0 57.0771 12.7879 57.0771 28.5379C 57.0771 44.2879 44.2894 57.0758 28.5386 57.0758C 12.7877 57.0758 0 44.2879 0 28.5379C 0 12.7879 12.7877 0 28.5386 0Z"/>
<path id="path17_fill" fill-rule="evenodd" d="M 17.0544 0C 26.467 0 34.109 7.64105 34.109 17.0542C 34.109 26.4674 26.467 34.1084 17.0544 34.1084C 7.64179 34.1084 0 26.4674 0 17.0542C 0 7.64105 7.64179 0 17.0544 0Z"/>
<path id="path18_stroke" d="M 17.0544 0.12C 26.4007 0.12 33.989 7.70733 33.989 17.0542L 34.229 17.0542C 34.229 7.57477 26.5333 -0.12 17.0544 -0.12L 17.0544 0.12ZM 33.989 17.0542C 33.989 26.4011 26.4007 33.9884 17.0544 33.9884L 17.0544 34.2284C 26.5333 34.2284 34.229 26.5336 34.229 17.0542L 33.989 17.0542ZM 17.0544 33.9884C 7.70806 33.9884 0.12 26.4011 0.12 17.0542L -0.12 17.0542C -0.12 26.5336 7.57552 34.2284 17.0544 34.2284L 17.0544 33.9884ZM 0.12 17.0542C 0.12 7.70733 7.70806 0.12 17.0544 0.12L 17.0544 -0.12C 7.57552 -0.12 -0.12 7.57477 -0.12 17.0542L 0.12 17.0542Z"/>
<path id="path19_fill" fill-rule="evenodd" d="M 10.0336 0C 15.5711 0 20.067 4.49658 20.067 10.0339C 20.067 15.5713 15.5711 20.0679 10.0336 20.0679C 4.49584 20.0679 0 15.5713 0 10.0339C 0 4.49658 4.49584 0 10.0336 0Z"/>
<path id="path20_fill" fill-rule="evenodd" d="M 1.23537 1.65289C 2.51784 0.271315 4.4515 -0.303422 6.28053 0.155262C 23.0888 4.32026 39.5908 4.34974 57.1584 0.286051C 58.5842 -0.0455276 60.0838 0.203157 61.325 0.980525C 62.7475 1.86842 63.1896 3.23895 62.9953 5.2671C 59.3105 31.0547 4.34337 32.4253 0.344897 7.37631C -0.288419 5.03316 -0.0821031 3.08237 1.23537 1.65289Z"/>
<path id="path21_fill" fill-rule="evenodd" d="M 0 8.38526C 3.95113 3.28632 10.1349 0 17.08 0C 23.8882 0 29.965 3.15737 33.9238 8.08684C 23.5683 12.3126 10.0164 12.4563 0 8.38526Z"/>
</defs>
</svg>
