<svg width="261" height="162" viewBox="0 0 261 162" version="1.1" xmlns="http://www.w3.org/2000/svg" xmlns:xlink="http://www.w3.org/1999/xlink">
<title>Group 82</title>
<desc>Created using Figma</desc>
<g id="Canvas" transform="translate(-525 -2094)">
<g id="Group 82">
<g id="Page 1" opacity="0.85">
<g id="Rectangle 13">
<use xlink:href="#path0_fill" transform="translate(525 2094)" fill="#FFFFFF"/>
<mask id="mask0_outline_ins">
<use xlink:href="#path0_fill" fill="white" transform="translate(525 2094)"/>
</mask>
<g mask="url(#mask0_outline_ins)">
<use xlink:href="#path1_stroke_2x" transform="translate(525 2094)"/>
</g>
</g>
<mask id="mask1_outline" mask-type="alpha">
<g id="Mask">
<use xlink:href="#path2_fill" transform="translate(543 2119)" fill="#FFFFFF"/>
</g>
</mask>
<g id="Mask" mask="url(#mask1_outline)">
<use xlink:href="#path3_fill" transform="translate(543 2119)" fill="#724BF1"/>
</g>
<g id="Page 1" mask="url(#mask1_outline)">
<g id="Fill 1">
<use xlink:href="#path4_fill" transform="translate(542 2119)" fill="#647AF1"/>
</g>
<mask id="mask2_outline" mask-type="alpha">
<g id="Clip 4">
<use xlink:href="#path5_fill" transform="translate(542 2119)" fill="#FFFFFF"/>
</g>
</mask>
<g id="Stroke 3" mask="url(#mask2_outline)">
<use xlink:href="#path6_stroke" transform="translate(538.111 2111.21)" fill="#79CE4D"/>
</g>
<g id="Group 7" mask="url(#mask2_outline)">
<mask id="mask3_outline" mask-type="alpha">
<g id="Clip 6">
<use xlink:href="#path7_fill" transform="translate(551.119 2126.79)" fill="#FFFFFF"/>
</g>
</mask>
<g id="Fill 5" mask="url(#mask3_outline)">
<use xlink:href="#path8_fill" transform="translate(547.878 2123.54)" fill="#89D35F"/>
</g>
</g>
<g id="Group 10" mask="url(#mask2_outline)">
<mask id="mask4_outline" mask-type="alpha">
<g id="Clip 9">
<use xlink:href="#path9_fill" transform="translate(569.053 2141.4)" fill="#FFFFFF"/>
</g>
</mask>
<g id="Fill 8" mask="url(#mask4_outline)">
<use xlink:href="#path10_fill" transform="translate(565.812 2138.16)" fill="#EFDAB8"/>
</g>
</g>
<g id="Group 13" mask="url(#mask2_outline)">
<mask id="mask5_outline" mask-type="alpha">
<g id="Clip 12">
<use xlink:href="#path11_fill" transform="translate(575.345 2150.26)" fill="#FFFFFF"/>
</g>
</mask>
<g id="Fill 11" mask="url(#mask5_outline)">
<use xlink:href="#path12_fill" transform="translate(572.104 2147.01)" fill="#FFEAC5"/>
</g>
</g>
<g id="Group 16" mask="url(#mask2_outline)">
<mask id="mask6_outline" mask-type="alpha">
<g id="Clip 15">
<use xlink:href="#path13_fill" transform="translate(569.469 2144.39)" fill="#FFFFFF"/>
</g>
</mask>
<g id="Fill 14" mask="url(#mask6_outline)">
<use xlink:href="#path14_fill" transform="translate(566.229 2141.15)" fill="#EFDAB8"/>
</g>
</g>
<g id="Group 19" mask="url(#mask2_outline)">
<mask id="mask7_outline" mask-type="alpha">
<g id="Clip 18">
<use xlink:href="#path15_fill" transform="translate(569.77 2152.57)" fill="#FFFFFF"/>
</g>
</mask>
<g id="Fill 17" mask="url(#mask7_outline)">
<use xlink:href="#path16_fill" transform="translate(566.53 2149.32)" fill="#EFDAB8"/>
</g>
</g>
<g id="Group 22" mask="url(#mask2_outline)">
<mask id="mask8_outline" mask-type="alpha">
<g id="Clip 21">
<use xlink:href="#path17_fill" transform="translate(565.466 2141.83)" fill="#FFFFFF"/>
</g>
</mask>
<g id="Fill 20" mask="url(#mask8_outline)">
<use xlink:href="#path18_fill" transform="translate(562.225 2138.58)" fill="#FFEAC5"/>
</g>
</g>
<g id="Group 25" mask="url(#mask2_outline)">
<mask id="mask9_outline" mask-type="alpha">
<g id="Clip 24">
<use xlink:href="#path19_fill" transform="translate(556.858 2143.26)" fill="#FFFFFF"/>
</g>
</mask>
<g id="Fill 23" mask="url(#mask9_outline)">
<use xlink:href="#path20_fill" transform="translate(553.617 2140.01)" fill="#DFCEB8"/>
</g>
</g>
<g id="Group 28" mask="url(#mask2_outline)">
<mask id="mask10_outline" mask-type="alpha">
<g id="Clip 27">
<use xlink:href="#path21_fill" transform="translate(553.271 2130.3)" fill="#FFFFFF"/>
</g>
</mask>
<g id="Fill 26" mask="url(#mask10_outline)">
<use xlink:href="#path22_fill" transform="translate(550.03 2127.05)" fill="#FFDEC1"/>
</g>
</g>
<g id="Group 31" mask="url(#mask2_outline)">
<mask id="mask11_outline" mask-type="alpha">
<g id="Clip 30">
<use xlink:href="#path23_fill" transform="translate(552.423 2127.49)" fill="#FFFFFF"/>
</g>
</mask>
<g id="Fill 29" mask="url(#mask11_outline)">
<use xlink:href="#path24_fill" transform="translate(549.182 2124.24)" fill="#89D35F"/>
</g>
</g>
<g id="Group 34" mask="url(#mask2_outline)">
<mask id="mask12_outline" mask-type="alpha">
<g id="Clip 33">
<use xlink:href="#path25_fill" transform="translate(555.203 2130.13)" fill="#FFFFFF"/>
</g>
</mask>
<g id="Fill 32" mask="url(#mask12_outline)">
<use xlink:href="#path26_fill" transform="translate(551.962 2126.89)" fill="#F1F1F1"/>
</g>
</g>
<g id="Group 37" mask="url(#mask2_outline)">
<mask id="mask13_outline" mask-type="alpha">
<g id="Clip 36">
<use xlink:href="#path27_fill" transform="translate(556.339 2131.2)" fill="#FFFFFF"/>
</g>
</mask>
<g id="Fill 35" mask="url(#mask13_outline)">
<use xlink:href="#path28_fill" transform="translate(553.098 2127.95)" fill="#232324"/>
</g>
</g>
<g id="Stroke 38" mask="url(#mask2_outline)">
<use xlink:href="#path29_stroke" transform="translate(556.339 2131.2)" fill="#79CE4D"/>
</g>
<g id="Group 41" mask="url(#mask2_outline)">
<mask id="mask14_outline" mask-type="alpha">
<g id="Clip 40">
<use xlink:href="#path30_fill" transform="translate(558.06 2130.81)" fill="#FFFFFF"/>
</g>
</mask>
<g id="Fill 39" mask="url(#mask14_outline)">
<use xlink:href="#path31_fill" transform="translate(554.819 2127.56)" fill="#FAFAFA"/>
</g>
</g>
</g>
</g>
<g id="CHAVES DE CASA">
<use xlink:href="#path32_fill" transform="translate(603 2119)" fill="#2E2E2E"/>
</g>
<g id="Latitude: 140.123213">
<use xlink:href="#path33_fill" transform="translate(603 2151)" fill="#B5BECA"/>
</g>
<g id="Longitude: 140.12321">
<use xlink:href="#path34_fill" transform="translate(603 2174)" fill="#B5BECA"/>
</g>
<g id="AZTN1561">
<use xlink:href="#path35_fill" transform="translate(603 2199)" fill="#79CE4D"/>
</g>
</g>
</g>
<defs>
<path id="path0_fill" fill-rule="evenodd" d="M 0 5C 0 2.23858 2.23858 0 5 0L 256 0C 258.761 0 261 2.23858 261 5L 261 146.664L 261 146.664L 261 162L 247.551 146.664L 5 146.664C 2.23858 146.664 0 144.425 0 141.664L 0 5Z"/>
<path id="path1_stroke_2x" d="M 261 162L 259.496 163.319L 263 167.314L 263 162L 261 162ZM 247.551 146.664L 249.055 145.345L 248.457 144.664L 247.551 144.664L 247.551 146.664ZM 5 2L 256 2L 256 -2L 5 -2L 5 2ZM 259 5L 259 146.664L 263 146.664L 263 5L 259 5ZM 259 146.664L 259 162L 263 162L 263 146.664L 259 146.664ZM 262.504 160.681L 249.055 145.345L 246.047 147.982L 259.496 163.319L 262.504 160.681ZM 247.551 144.664L 5 144.664L 5 148.664L 247.551 148.664L 247.551 144.664ZM 2 141.664L 2 5L -2 5L -2 141.664L 2 141.664ZM 5 -2C 1.13401 -2 -2 1.13401 -2 5L 2 5C 2 3.34315 3.34315 2 5 2L 5 -2ZM 256 2C 257.657 2 259 3.34315 259 5L 263 5C 263 1.13401 259.866 -2 256 -2L 256 2ZM 5 144.664C 3.34315 144.664 2 143.32 2 141.664L -2 141.664C -2 145.53 1.13401 148.664 5 148.664L 5 144.664Z"/>
<path id="path2_fill" fill-rule="evenodd" d="M 25 50C 38.8071 50 50 38.8071 50 25C 50 11.1929 38.8071 0 25 0C 11.1929 0 0 11.1929 0 25C 0 38.8071 11.1929 50 25 50Z"/>
<path id="path3_fill" fill-rule="evenodd" d="M 25 50C 38.8071 50 50 38.8071 50 25C 50 11.1929 38.8071 0 25 0C 11.1929 0 0 11.1929 0 25C 0 38.8071 11.1929 50 25 50Z"/>
<path id="path4_fill" fill-rule="evenodd" d="M 0 51.9205L 51.8514 51.9205L 51.8514 0L 0 0L 0 51.9205Z"/>
<path id="path5_fill" fill-rule="evenodd" d="M 25.9257 51.9205C 40.2441 51.9205 51.8514 40.2977 51.8514 25.9602C 51.8514 11.6228 40.2441 0 25.9257 0C 11.6073 0 0 11.6228 0 25.9602C 0 40.2977 11.6073 51.9205 25.9257 51.9205Z"/>
<path id="path6_stroke" d="M 34.9997 75.7849C 54.6391 75.7849 70.4993 58.6731 70.4993 37.6425L 69.4993 37.6425C 69.4993 58.1906 54.0195 74.7849 34.9997 74.7849L 34.9997 75.7849ZM 70.4993 37.6425C 70.4993 16.612 54.6391 -0.5 34.9997 -0.5L 34.9997 0.5C 54.0195 0.5 69.4993 17.0945 69.4993 37.6425L 70.4993 37.6425ZM 34.9997 -0.5C 15.3601 -0.5 -0.5 16.612 -0.5 37.6425L 0.5 37.6425C 0.5 17.0945 15.9797 0.5 34.9997 0.5L 34.9997 -0.5ZM -0.5 37.6425C -0.5 58.6731 15.3601 75.7849 34.9997 75.7849L 34.9997 74.7849C 15.9797 74.7849 0.5 58.1906 0.5 37.6425L -0.5 37.6425Z"/>
<path id="path7_fill" fill-rule="evenodd" d="M 5.7389 19.2132C 4.90317 18.9182 4.30418 18.1229 4.30418 17.1875C 4.30418 16.0009 5.26768 15.039 6.45628 15.039C 7.64483 15.039 8.60833 16.0009 8.60833 17.1875C 8.60833 18.1229 8.00934 18.9182 7.17361 19.2132L 7.17361 22.5585C 7.17361 22.9125 7.2319 23.2529 7.33799 23.5718C 10.4863 23.1424 12.9125 20.4483 12.9125 17.1875L 12.9125 1.43228C 12.9125 0.641223 12.2702 0 11.4778 0L 1.43471 0C 0.642317 0 0 0.641223 0 1.43228L 0 16.9667C 0 20.3432 2.51111 23.2966 5.85888 23.6037C 5.7813 23.2674 5.7389 22.918 5.7389 22.5585L 5.7389 19.2132ZM 2.1521 6.03754C 2.1521 4.64107 3.28174 3.50903 4.67525 3.50903C 5.37046 3.50903 5.99994 3.79102 6.45628 4.24682C 6.91259 3.79102 7.54207 3.50903 8.23732 3.50903C 9.63078 3.50903 10.7604 4.64107 10.7604 6.03754C 10.7604 7.97113 8.49698 10.2952 6.45628 11.2434C 4.41555 10.2952 2.1521 7.97113 2.1521 6.03754Z"/>
<path id="path8_fill" fill-rule="evenodd" d="M 0 30.0938L 19.394 30.0938L 19.394 0L 0 0L 0 30.0938Z"/>
<path id="path9_fill" fill-rule="evenodd" d="M 18.7278 18.2298L 7.17428 6.69599C 7.80385 4.92951 7.41101 2.88118 5.99467 1.46734C 4.37057 -0.154001 1.91124 -0.43116 0 0.633113C 0.45484 0.497946 0.936191 0.424247 1.43493 0.424247C 4.20823 0.424247 6.45645 2.66868 6.45645 5.4373C 6.45645 7.3209 5.41519 8.96107 3.87656 9.81768C 3.96194 9.79242 4.04665 9.76432 4.13078 9.7344L 9.03825 14.6336L 10.0527 14.6335L 10.5601 15.14L 10.5602 16.1528L 11.0674 16.6592L 12.0818 16.6591L 12.589 17.1654L 12.5889 18.1781L 13.6356 19.223C 13.9367 19.5236 14.3559 19.675 14.7799 19.6366L 18.3344 19.314C 18.873 19.2651 19.1102 18.6115 18.7278 18.2298ZM 15.1252 17.6717C 14.8451 17.9513 14.3908 17.9513 14.1107 17.6717L 6.50189 10.0758C 6.22178 9.79617 6.22178 9.34276 6.50189 9.06304C 6.78204 8.78335 7.23622 8.78335 7.51642 9.06304L 15.1252 16.6589C 15.4054 16.9387 15.4054 17.3921 15.1252 17.6717Z"/>
<path id="path10_fill" fill-rule="evenodd" d="M 0 26.1326L 25.3968 26.1326L 25.3968 0L 0 0L 0 26.1326Z"/>
<path id="path11_fill" fill-rule="evenodd" d="M 1.22461 0.209763C 0.9445 -0.0699211 0.490235 -0.0699211 0.210082 0.209763C -0.0700273 0.489404 -0.0700273 0.942811 0.210082 1.22254L 7.81888 8.81843C 8.09904 9.09807 8.5533 9.09807 8.83341 8.81843C 9.11356 8.53879 9.11356 8.08529 8.83341 7.80561L 1.22461 0.209763Z"/>
<path id="path12_fill" fill-rule="evenodd" d="M 0 15.5182L 15.525 15.5182L 15.525 0L 0 0L 0 15.5182Z"/>
<path id="path13_fill" fill-rule="evenodd" d="M 2.02715 2.02161C 1.46742 2.58036 0.560351 2.5808 0 2.0232C 0.259928 2.28467 0.619967 2.44683 1.0182 2.44683C 1.81051 2.44683 2.45291 1.80552 2.45291 1.0145C 2.45291 0.618045 2.29151 0.259343 2.03074 0C 2.58724 0.559591 2.58618 1.46352 2.02715 2.02161Z"/>
<path id="path14_fill" fill-rule="evenodd" d="M 0 8.93688L 8.93437 8.93688L 8.93437 0L 0 0L 0 8.93688Z"/>
<path id="path15_fill" fill-rule="evenodd" d="M 0.717379 0C 0.321225 0 0 0.320678 0 0.716163L 0 11.4583C 0 11.8538 0.321225 12.1745 0.717379 12.1745C 1.11353 12.1745 1.43471 11.8538 1.43471 11.4583L 1.43471 0.716163C 1.43471 0.320678 1.11353 0 0.717379 0Z"/>
<path id="path16_fill" fill-rule="evenodd" d="M 0 18.6645L 7.91617 18.6645L 7.91617 0L 0 0L 0 18.6645Z"/>
<path id="path17_fill" fill-rule="evenodd" d="M 10.0431 5.01305C 10.0431 2.24443 7.79486 0 5.02156 0C 4.52282 0 4.04147 0.0736992 3.58663 0.208866C 1.51274 0.825271 0 2.74242 0 5.01305C 0 5.0228 0.000752387 5.03246 0.000752387 5.04221C 0.799345 3.77957 2.18816 2.92536 3.77774 2.86882C 4.02531 2.43876 4.48901 2.14844 5.02156 2.14844C 5.41683 2.14844 5.7747 2.30807 6.0341 2.56622C 6.29478 2.82556 6.45628 3.18426 6.45628 3.58072C 6.45628 4.37174 5.81387 5.01305 5.02156 5.01305C 4.62342 5.01305 4.26329 4.85089 4.00336 4.58942C 3.98194 4.56793 3.96203 4.54493 3.94202 4.52211C 3.93268 4.51156 3.92264 4.50172 3.9137 4.49077C 3.86479 4.43161 3.82177 4.36762 3.78287 4.30101C 2.07805 4.38588 0.717379 5.79693 0.717379 7.51953C 0.717379 7.54399 0.715963 7.56815 0.71552 7.59248C 1.22365 8.43609 1.97347 9.11796 2.86947 9.54291L 2.86947 16.4713L 3.58685 17.1874L 3.58685 17.9036L 2.86947 18.6199L 2.86947 19.336L 3.58685 20.0521L 3.58685 20.7681L 2.86947 21.4842L 2.86947 22.962C 2.86947 23.387 3.05859 23.7901 3.3857 24.0623L 6.12775 26.3434C 6.54307 26.6889 7.17366 26.394 7.17366 25.8544L 7.17366 9.543C 7.272 9.49638 7.36839 9.44626 7.46319 9.39343C 9.00182 8.53683 10.0431 6.89665 10.0431 5.01305ZM 5.73891 22.2005C 5.73891 22.596 5.41773 22.9166 5.02158 22.9166C 4.62542 22.9166 4.3042 22.596 4.3042 22.2005L 4.3042 11.4584C 4.3042 11.0629 4.62542 10.7422 5.02158 10.7422C 5.41773 10.7422 5.73891 11.0629 5.73891 11.4584L 5.73891 22.2005Z"/>
<path id="path18_fill" fill-rule="evenodd" d="M 0 32.9822L 16.5245 32.9822L 16.5245 0L 0 0L 0 32.9822Z"/>
<path id="path19_fill" fill-rule="evenodd" d="M 12.3912 2.86868C 12.4451 2.86598 12.4993 2.86456 12.5538 2.86456L 13.6299 2.86456C 14.026 2.86456 14.3472 2.54428 14.3472 2.1484C 14.3472 1.75256 14.026 1.43228 13.6299 1.43228L 12.5538 1.43228C 12.4976 1.43228 12.4418 1.4345 12.3861 1.43649C 10.7965 1.49295 9.40767 2.34716 8.60908 3.60988C 8.15499 4.32791 7.89099 5.17716 7.89099 6.0872C 7.89099 7.86432 6.443 9.30985 4.66285 9.30985C 3.23726 9.30985 2.02556 8.38238 1.59909 7.10047C 1.493 6.78161 1.43471 6.44116 1.43471 6.0872L 1.43471 0.716118C 1.43471 0.320279 1.11353 0 0.717379 0C 0.321181 0 0 0.320279 0 0.716118L 0 2.74185L 0 6.0872C 0 6.44662 0.0423992 6.7961 0.119984 7.13233C 0.596554 9.19724 2.45185 10.7421 4.66285 10.7421C 7.20933 10.7421 9.28446 8.69318 9.32385 6.16015C 9.3242 6.13582 9.3257 6.11167 9.3257 6.0872C 9.3257 4.3646 10.6864 2.95355 12.3912 2.86868Z"/>
<path id="path20_fill" fill-rule="evenodd" d="M 0 17.2322L 20.8287 17.2322L 20.8287 0L 0 0L 0 17.2322Z"/>
<path id="path21_fill" fill-rule="evenodd" d="M 8.60833 2.52851C 8.60833 1.13203 7.47868 0 6.08522 0C 5.38997 0 4.76049 0.281989 4.30418 0.737789C 3.84775 0.281989 3.21836 0 2.52315 0C 1.12964 0 0 1.13203 0 2.52851C 0 4.4621 2.26345 6.78617 4.30418 7.73438C 6.34488 6.78617 8.60833 4.4621 8.60833 2.52851Z"/>
<path id="path22_fill" fill-rule="evenodd" d="M 0 14.2244L 15.0898 14.2244L 15.0898 0L 0 0L 0 14.2244Z"/>
<path id="path23_fill" fill-rule="evenodd" d="M 10.2751 7.08051C 11.1593 6.19519 11.1593 4.7576 10.2751 3.87227L 7.07113 0.66399C 6.18699 -0.22133 4.7513 -0.22133 3.86711 0.66399L 0.663141 3.87227C -0.221047 4.7576 -0.221047 6.19519 0.663141 7.08051L 3.86711 10.2888C 4.7513 11.1742 6.18699 11.1742 7.07113 10.2888L 10.2751 7.08051Z"/>
<path id="path24_fill" fill-rule="evenodd" d="M 0 17.4429L 17.4197 17.4429L 17.4197 0L 0 0L 0 17.4429Z"/>
<path id="path25_fill" fill-rule="evenodd" d="M 2.72461 0C 4.22837 0 5.44923 1.22248 5.44923 2.7282C 5.44923 4.23396 4.22837 5.45644 2.72461 5.45644C 1.22086 5.45644 0 4.23396 0 2.7282C 0 1.22248 1.22086 0 2.72461 0Z"/>
<path id="path26_fill" fill-rule="evenodd" d="M 0 11.9465L 11.9306 11.9465L 11.9306 0L 0 0L 0 11.9465Z"/>
<path id="path27_fill" fill-rule="evenodd" d="M 1.62821 0C 2.52683 0 3.25642 0.730566 3.25642 1.63038C 3.25642 2.53023 2.52683 3.26076 1.62821 3.26076C 0.729594 3.26076 0 2.53023 0 1.63038C 0 0.730566 0.729594 0 1.62821 0Z"/>
<path id="path28_fill" fill-rule="evenodd" d="M 0 9.7508L 9.73784 9.7508L 9.73784 0L 0 0L 0 9.7508Z"/>
<path id="path29_stroke" d="M 1.62821 0.5C 2.25006 0.5 2.75642 1.00608 2.75642 1.63038L 3.75642 1.63038C 3.75642 0.455051 2.80359 -0.5 1.62821 -0.5L 1.62821 0.5ZM 2.75642 1.63038C 2.75642 2.25471 2.25006 2.76076 1.62821 2.76076L 1.62821 3.76076C 2.80359 3.76076 3.75642 2.80576 3.75642 1.63038L 2.75642 1.63038ZM 1.62821 2.76076C 1.00635 2.76076 0.5 2.25471 0.5 1.63038L -0.5 1.63038C -0.5 2.80576 0.452834 3.76076 1.62821 3.76076L 1.62821 2.76076ZM 0.5 1.63038C 0.5 1.00608 1.00636 0.5 1.62821 0.5L 1.62821 -0.5C 0.452825 -0.5 -0.5 0.455051 -0.5 1.63038L 0.5 1.63038Z"/>
<path id="path30_fill" fill-rule="evenodd" d="M 0.957921 0C 1.48663 0 1.91584 0.429786 1.91584 0.959153C 1.91584 1.48856 1.48663 1.91835 0.957921 1.91835C 0.429215 1.91835 0 1.48856 0 0.959153C 0 0.429786 0.429215 0 0.957921 0Z"/>
<path id="path31_fill" fill-rule="evenodd" d="M 0 8.40844L 8.39726 8.40844L 8.39726 0L 0 0L 0 8.40844Z"/>
<path id="path32_fill" d="M 10.026 9.314C 9.654 8.798 9.204 8.384 8.676 8.072C 8.16 7.748 7.656 7.586 7.164 7.586C 6.672 7.586 6.222 7.718 5.814 7.982C 5.418 8.234 5.106 8.588 4.878 9.044C 4.662 9.5 4.554 10.016 4.554 10.592C 4.554 11.168 4.662 11.69 4.878 12.158C 5.106 12.614 5.418 12.974 5.814 13.238C 6.222 13.502 6.672 13.634 7.164 13.634C 7.62 13.634 8.106 13.502 8.622 13.238C 9.15 12.962 9.618 12.602 10.026 12.158L 12.438 14.732C 11.73 15.512 10.878 16.136 9.882 16.604C 8.898 17.06 7.92 17.288 6.948 17.288C 5.676 17.288 4.53 17.006 3.51 16.442C 2.502 15.866 1.71 15.074 1.134 14.066C 0.558 13.046 0.27 11.906 0.27 10.646C 0.27 9.398 0.564 8.282 1.152 7.298C 1.74 6.302 2.55 5.522 3.582 4.958C 4.626 4.394 5.802 4.112 7.11 4.112C 8.07 4.112 9.036 4.328 10.008 4.76C 10.98 5.18 11.79 5.744 12.438 6.452L 10.026 9.314ZM 13.2926 4.382L 17.4686 4.382L 17.4686 9.278L 21.3746 9.278L 21.3746 4.382L 25.5506 4.382L 25.5506 17L 21.3746 17L 21.3746 12.446L 17.4686 12.446L 17.4686 17L 13.2926 17L 13.2926 4.382ZM 36.5711 17L 35.9411 15.218L 31.2071 15.218L 30.5591 17L 26.2751 17L 31.6031 4.382L 35.8871 4.382L 41.0171 17L 36.5711 17ZM 32.2871 12.23L 34.9151 12.23L 33.6191 8.54L 32.2871 12.23ZM 39.6717 4.382L 44.1357 4.382L 46.7457 12.662L 49.3377 4.382L 53.6037 4.382L 48.7797 17L 44.4597 17L 39.6717 4.382ZM 54.4078 4.382L 65.0818 4.382L 65.0818 7.55L 58.5838 7.55L 58.5838 9.098L 64.4878 9.098L 64.4878 12.266L 58.5838 12.266L 58.5838 13.832L 65.2438 13.832L 65.2438 17L 54.4078 17L 54.4078 4.382ZM 76.2855 8.756C 75.6015 8.36 74.8395 8.012 73.9995 7.712C 73.1595 7.412 72.4755 7.262 71.9475 7.262C 71.4315 7.262 71.1735 7.448 71.1735 7.82C 71.1735 8.108 71.3355 8.33 71.6595 8.486C 71.9955 8.642 72.5235 8.816 73.2435 9.008C 74.1435 9.26 74.8875 9.512 75.4755 9.764C 76.0755 10.016 76.5975 10.418 77.0415 10.97C 77.4855 11.51 77.7075 12.224 77.7075 13.112C 77.7075 14.024 77.4675 14.792 76.9875 15.416C 76.5195 16.028 75.8835 16.484 75.0795 16.784C 74.2755 17.084 73.3815 17.234 72.3975 17.234C 71.2815 17.234 70.1535 17.054 69.0135 16.694C 67.8855 16.322 66.9075 15.818 66.0795 15.182L 67.6275 12.032C 68.2635 12.584 69.0615 13.058 70.0215 13.454C 70.9815 13.838 71.7855 14.03 72.4335 14.03C 72.7455 14.03 72.9915 13.976 73.1715 13.868C 73.3515 13.748 73.4415 13.568 73.4415 13.328C 73.4415 13.04 73.2675 12.818 72.9195 12.662C 72.5835 12.494 72.0495 12.32 71.3175 12.14C 70.4295 11.912 69.6855 11.678 69.0855 11.438C 68.4975 11.186 67.9875 10.802 67.5555 10.286C 67.1235 9.77 66.9075 9.08 66.9075 8.216C 66.9075 7.376 67.1295 6.644 67.5735 6.02C 68.0175 5.384 68.6475 4.898 69.4635 4.562C 70.2795 4.226 71.2275 4.058 72.3075 4.058C 73.2915 4.058 74.2695 4.196 75.2415 4.472C 76.2255 4.748 77.0775 5.114 77.7975 5.57L 76.2855 8.756ZM 88.0262 4.382C 89.4062 4.382 90.6122 4.64 91.6442 5.156C 92.6762 5.672 93.4742 6.41 94.0382 7.37C 94.6022 8.318 94.8842 9.422 94.8842 10.682C 94.8842 11.954 94.5962 13.064 94.0202 14.012C 93.4442 14.96 92.6222 15.698 91.5542 16.226C 90.4982 16.742 89.2682 17 87.8642 17L 82.3922 17L 82.3922 4.382L 88.0262 4.382ZM 88.1342 13.76C 88.8902 13.76 89.4902 13.484 89.9342 12.932C 90.3902 12.38 90.6182 11.642 90.6182 10.718C 90.6182 9.782 90.3722 9.032 89.8802 8.468C 89.4002 7.904 88.7522 7.622 87.9362 7.622L 86.5682 7.622L 86.5682 13.76L 88.1342 13.76ZM 96.0504 4.382L 106.724 4.382L 106.724 7.55L 100.226 7.55L 100.226 9.098L 106.13 9.098L 106.13 12.266L 100.226 12.266L 100.226 13.832L 106.886 13.832L 106.886 17L 96.0504 17L 96.0504 4.382ZM 121.208 9.314C 120.836 8.798 120.386 8.384 119.858 8.072C 119.342 7.748 118.838 7.586 118.346 7.586C 117.854 7.586 117.404 7.718 116.996 7.982C 116.6 8.234 116.288 8.588 116.06 9.044C 115.844 9.5 115.736 10.016 115.736 10.592C 115.736 11.168 115.844 11.69 116.06 12.158C 116.288 12.614 116.6 12.974 116.996 13.238C 117.404 13.502 117.854 13.634 118.346 13.634C 118.802 13.634 119.288 13.502 119.804 13.238C 120.332 12.962 120.8 12.602 121.208 12.158L 123.62 14.732C 122.912 15.512 122.06 16.136 121.064 16.604C 120.08 17.06 119.102 17.288 118.13 17.288C 116.858 17.288 115.712 17.006 114.692 16.442C 113.684 15.866 112.892 15.074 112.316 14.066C 111.74 13.046 111.452 11.906 111.452 10.646C 111.452 9.398 111.746 8.282 112.334 7.298C 112.922 6.302 113.732 5.522 114.764 4.958C 115.808 4.394 116.984 4.112 118.292 4.112C 119.252 4.112 120.218 4.328 121.19 4.76C 122.162 5.18 122.972 5.744 123.62 6.452L 121.208 9.314ZM 133.514 17L 132.884 15.218L 128.15 15.218L 127.502 17L 123.218 17L 128.546 4.382L 132.83 4.382L 137.96 17L 133.514 17ZM 129.23 12.23L 131.858 12.23L 130.562 8.54L 129.23 12.23ZM 148.127 8.756C 147.443 8.36 146.681 8.012 145.841 7.712C 145.001 7.412 144.317 7.262 143.789 7.262C 143.273 7.262 143.015 7.448 143.015 7.82C 143.015 8.108 143.177 8.33 143.501 8.486C 143.837 8.642 144.365 8.816 145.085 9.008C 145.985 9.26 146.729 9.512 147.317 9.764C 147.917 10.016 148.439 10.418 148.883 10.97C 149.327 11.51 149.549 12.224 149.549 13.112C 149.549 14.024 149.309 14.792 148.829 15.416C 148.361 16.028 147.725 16.484 146.921 16.784C 146.117 17.084 145.223 17.234 144.239 17.234C 143.123 17.234 141.995 17.054 140.855 16.694C 139.727 16.322 138.749 15.818 137.921 15.182L 139.469 12.032C 140.105 12.584 140.903 13.058 141.863 13.454C 142.823 13.838 143.627 14.03 144.275 14.03C 144.587 14.03 144.833 13.976 145.013 13.868C 145.193 13.748 145.283 13.568 145.283 13.328C 145.283 13.04 145.109 12.818 144.761 12.662C 144.425 12.494 143.891 12.32 143.159 12.14C 142.271 11.912 141.527 11.678 140.927 11.438C 140.339 11.186 139.829 10.802 139.397 10.286C 138.965 9.77 138.749 9.08 138.749 8.216C 138.749 7.376 138.971 6.644 139.415 6.02C 139.859 5.384 140.489 4.898 141.305 4.562C 142.121 4.226 143.069 4.058 144.149 4.058C 145.133 4.058 146.111 4.196 147.083 4.472C 148.067 4.748 148.919 5.114 149.639 5.57L 148.127 8.756ZM 159.846 17L 159.216 15.218L 154.482 15.218L 153.834 17L 149.55 17L 154.878 4.382L 159.162 4.382L 164.292 17L 159.846 17ZM 155.562 12.23L 158.19 12.23L 156.894 8.54L 155.562 12.23Z"/>
<path id="path33_fill" d="M 1.4 4.2L 2.744 4.2L 2.744 12.782L 7.028 12.782L 7.028 14L 1.4 14L 1.4 4.2ZM 13.1378 14L 13.1378 12.964C 12.5871 13.692 11.7238 14.056 10.5478 14.056C 10.0345 14.056 9.5818 13.958 9.1898 13.762C 8.80713 13.566 8.50846 13.2953 8.2938 12.95C 8.08846 12.6047 7.9858 12.2173 7.9858 11.788C 7.9858 11.1253 8.22846 10.6027 8.7138 10.22C 9.20846 9.828 9.89446 9.62733 10.7718 9.618L 13.1238 9.618L 13.1238 9.268C 13.1238 8.74533 12.9605 8.344 12.6338 8.064C 12.3165 7.77467 11.8498 7.63 11.2338 7.63C 10.4871 7.63 9.72646 7.896 8.9518 8.428L 8.4058 7.532C 8.9378 7.18667 9.4278 6.93933 9.8758 6.79C 10.3331 6.63133 10.8745 6.552 11.4998 6.552C 12.4238 6.552 13.1378 6.78067 13.6418 7.238C 14.1458 7.686 14.4025 8.316 14.4118 9.128L 14.4258 14L 13.1378 14ZM 10.8138 12.978C 11.4205 12.978 11.9338 12.8333 12.3538 12.544C 12.7831 12.2453 13.0398 11.8533 13.1238 11.368L 13.1238 10.626L 10.9538 10.626C 10.3658 10.626 9.92713 10.7147 9.6378 10.892C 9.3578 11.0693 9.2178 11.3493 9.2178 11.732C 9.2178 12.1147 9.36246 12.418 9.6518 12.642C 9.94113 12.866 10.3285 12.978 10.8138 12.978ZM 20.7266 13.51C 20.1572 13.874 19.5786 14.056 18.9906 14.056C 18.4026 14.056 17.9266 13.8833 17.5626 13.538C 17.1986 13.1833 17.0166 12.6513 17.0166 11.942L 17.0166 7.84L 15.9666 7.84L 15.9666 6.846L 17.0166 6.846L 17.0166 4.858L 18.3326 4.858L 18.3326 6.846L 20.6006 6.846L 20.6006 7.84L 18.3326 7.84L 18.3326 11.704C 18.3326 12.1147 18.4072 12.4087 18.5566 12.586C 18.7059 12.7633 18.9299 12.852 19.2286 12.852C 19.5832 12.852 19.9659 12.7353 20.3766 12.502L 20.7266 13.51ZM 22.315 6.594L 23.617 6.594L 23.617 14L 22.315 14L 22.315 6.594ZM 22.959 3.64C 23.1923 3.64 23.3837 3.71933 23.533 3.878C 23.6917 4.03667 23.771 4.23733 23.771 4.48C 23.771 4.72267 23.6917 4.92333 23.533 5.082C 23.3837 5.24067 23.1923 5.32 22.959 5.32C 22.7257 5.32 22.5297 5.24067 22.371 5.082C 22.2217 4.92333 22.147 4.72267 22.147 4.48C 22.147 4.23733 22.2217 4.03667 22.371 3.878C 22.5297 3.71933 22.7257 3.64 22.959 3.64ZM 30.1328 13.51C 29.5635 13.874 28.9848 14.056 28.3968 14.056C 27.8088 14.056 27.3328 13.8833 26.9688 13.538C 26.6048 13.1833 26.4228 12.6513 26.4228 11.942L 26.4228 7.84L 25.3728 7.84L 25.3728 6.846L 26.4228 6.846L 26.4228 4.858L 27.7388 4.858L 27.7388 6.846L 30.0068 6.846L 30.0068 7.84L 27.7388 7.84L 27.7388 11.704C 27.7388 12.1147 27.8135 12.4087 27.9628 12.586C 28.1121 12.7633 28.3361 12.852 28.6348 12.852C 28.9895 12.852 29.3721 12.7353 29.7828 12.502L 30.1328 13.51ZM 38.2733 6.594L 38.2733 14L 36.9573 14L 36.9573 12.432C 36.4719 13.4867 35.5573 14.0233 34.2133 14.042C 33.3546 14.042 32.6826 13.79 32.1973 13.286C 31.7119 12.7727 31.4693 12.068 31.4693 11.172L 31.4693 6.594L 32.7853 6.594L 32.7853 10.822C 32.7853 11.4473 32.9533 11.9373 33.2893 12.292C 33.6346 12.6373 34.1059 12.81 34.7033 12.81C 35.3939 12.8007 35.9399 12.558 36.3413 12.082C 36.7519 11.5967 36.9573 10.9807 36.9573 10.234L 36.9573 6.594L 38.2733 6.594ZM 47.7151 3.612L 47.7151 14L 46.4131 14L 46.4131 12.53C 46.1331 13.0247 45.7551 13.4073 45.2791 13.678C 44.8124 13.9393 44.2664 14.07 43.6411 14.07C 42.9411 14.07 42.3204 13.9113 41.7791 13.594C 41.2471 13.2673 40.8317 12.8193 40.5331 12.25C 40.2344 11.6713 40.0851 11.0133 40.0851 10.276C 40.0851 9.548 40.2344 8.904 40.5331 8.344C 40.8317 7.77467 41.2471 7.33133 41.7791 7.014C 42.3204 6.69667 42.9364 6.538 43.6271 6.538C 44.2617 6.538 44.8171 6.66867 45.2931 6.93C 45.7691 7.19133 46.1424 7.56933 46.4131 8.064L 46.4131 3.612L 47.7151 3.612ZM 43.9071 12.95C 44.3924 12.95 44.8217 12.838 45.1951 12.614C 45.5777 12.39 45.8764 12.0773 46.0911 11.676C 46.3057 11.2747 46.4131 10.822 46.4131 10.318C 46.4131 9.80467 46.3057 9.34733 46.0911 8.946C 45.8764 8.54467 45.5777 8.232 45.1951 8.008C 44.8217 7.784 44.3924 7.672 43.9071 7.672C 43.4217 7.672 42.9877 7.78867 42.6051 8.022C 42.2317 8.246 41.9377 8.55867 41.7231 8.96C 41.5084 9.36133 41.4011 9.814 41.4011 10.318C 41.4011 10.822 41.5084 11.2747 41.7231 11.676C 41.9377 12.0773 42.2317 12.39 42.6051 12.614C 42.9877 12.838 43.4217 12.95 43.9071 12.95ZM 53.2967 6.552C 54.4447 6.552 55.3127 6.89267 55.9007 7.574C 56.4887 8.246 56.7827 9.184 56.7827 10.388C 56.7827 10.5747 56.778 10.7147 56.7687 10.808L 50.9167 10.808C 51.0194 11.4707 51.2947 11.998 51.7427 12.39C 52.2 12.782 52.76 12.978 53.4227 12.978C 53.8614 12.978 54.2674 12.8987 54.6407 12.74C 55.0234 12.5813 55.3547 12.3573 55.6347 12.068L 56.3487 12.81C 55.9847 13.202 55.546 13.5053 55.0327 13.72C 54.5194 13.9347 53.95 14.042 53.3247 14.042C 52.5967 14.042 51.948 13.888 51.3787 13.58C 50.8187 13.2627 50.38 12.8193 50.0627 12.25C 49.7547 11.6807 49.6007 11.032 49.6007 10.304C 49.6007 9.576 49.7547 8.932 50.0627 8.372C 50.38 7.80267 50.8187 7.35933 51.3787 7.042C 51.9387 6.71533 52.578 6.552 53.2967 6.552ZM 55.6067 9.8C 55.5694 9.128 55.3454 8.60067 54.9347 8.218C 54.524 7.826 53.9827 7.63 53.3107 7.63C 52.6574 7.63 52.1114 7.826 51.6727 8.218C 51.2434 8.61 50.9867 9.13733 50.9027 9.8L 55.6067 9.8ZM 58.7412 8.358C 58.9558 8.358 59.1332 8.43267 59.2732 8.582C 59.4225 8.73133 59.4972 8.92267 59.4972 9.156C 59.4972 9.38933 59.4225 9.58533 59.2732 9.744C 59.1332 9.89333 58.9558 9.968 58.7412 9.968C 58.5265 9.968 58.3445 9.89333 58.1952 9.744C 58.0458 9.58533 57.9712 9.38933 57.9712 9.156C 57.9712 8.92267 58.0458 8.73133 58.1952 8.582C 58.3445 8.43267 58.5265 8.358 58.7412 8.358ZM 58.7412 12.516C 58.9558 12.516 59.1332 12.5907 59.2732 12.74C 59.4225 12.8893 59.4972 13.0807 59.4972 13.314C 59.4972 13.5473 59.4225 13.7433 59.2732 13.902C 59.1332 14.0513 58.9558 14.126 58.7412 14.126C 58.5265 14.126 58.3445 14.0513 58.1952 13.902C 58.0458 13.7433 57.9712 13.5473 57.9712 13.314C 57.9712 13.0807 58.0458 12.8893 58.1952 12.74C 58.3445 12.5907 58.5265 12.516 58.7412 12.516ZM 63.9317 4.2L 67.5017 4.2L 67.5017 14L 66.1577 14L 66.1577 5.418L 63.9317 5.418L 63.9317 4.2ZM 76.8696 10.276L 76.8696 11.48L 75.3576 11.48L 75.3576 14L 74.0976 14L 74.0976 11.48L 69.2396 11.48L 69.2396 10.444L 72.7396 4.2L 74.0556 4.2L 70.6956 10.276L 74.0976 10.276L 74.0976 7.77L 75.3576 7.77L 75.3576 10.276L 76.8696 10.276ZM 82.3551 4.144C 83.6711 4.144 84.6838 4.57333 85.3931 5.432C 86.1024 6.28133 86.4571 7.504 86.4571 9.1C 86.4571 10.696 86.1024 11.9233 85.3931 12.782C 84.6838 13.6407 83.6711 14.07 82.3551 14.07C 81.0298 14.07 80.0124 13.6407 79.3031 12.782C 78.6031 11.9233 78.2531 10.696 78.2531 9.1C 78.2531 7.504 78.6031 6.28133 79.3031 5.432C 80.0124 4.57333 81.0298 4.144 82.3551 4.144ZM 82.3551 5.208C 80.5444 5.208 79.6391 6.50533 79.6391 9.1C 79.6391 10.388 79.8678 11.3587 80.3251 12.012C 80.7824 12.6653 81.4591 12.992 82.3551 12.992C 83.2511 12.992 83.9278 12.6653 84.3851 12.012C 84.8424 11.3587 85.0711 10.388 85.0711 9.1C 85.0711 6.50533 84.1658 5.208 82.3551 5.208ZM 88.6962 12.516C 88.9109 12.516 89.0882 12.5907 89.2282 12.74C 89.3776 12.8893 89.4522 13.0807 89.4522 13.314C 89.4522 13.5473 89.3776 13.7433 89.2282 13.902C 89.0882 14.0513 88.9109 14.126 88.6962 14.126C 88.4816 14.126 88.2996 14.0513 88.1502 13.902C 88.0009 13.7433 87.9262 13.5473 87.9262 13.314C 87.9262 13.0807 88.0009 12.8893 88.1502 12.74C 88.2996 12.5907 88.4816 12.516 88.6962 12.516ZM 90.2227 4.2L 93.7927 4.2L 93.7927 14L 92.4487 14L 92.4487 5.418L 90.2227 5.418L 90.2227 4.2ZM 102.923 12.782L 102.923 14L 95.8386 14L 95.8386 12.964L 99.6326 9.03C 100.043 8.61933 100.37 8.21333 100.613 7.812C 100.855 7.40133 100.977 7.04667 100.977 6.748C 100.977 6.30933 100.804 5.964 100.459 5.712C 100.123 5.46 99.656 5.334 99.0586 5.334C 98.6013 5.334 98.1253 5.44133 97.6306 5.656C 97.136 5.86133 96.688 6.15067 96.2866 6.524L 95.7126 5.502C 96.2446 5.07267 96.8093 4.74133 97.4066 4.508C 98.0133 4.26533 98.62 4.144 99.2266 4.144C 100.179 4.144 100.939 4.36333 101.509 4.802C 102.087 5.24067 102.377 5.82867 102.377 6.566C 102.377 7.434 101.77 8.498 100.557 9.758L 97.6026 12.782L 102.923 12.782ZM 107.67 8.358C 108.65 8.414 109.43 8.67067 110.008 9.128C 110.587 9.58533 110.876 10.2013 110.876 10.976C 110.876 11.5827 110.718 12.1193 110.4 12.586C 110.092 13.0527 109.649 13.4167 109.07 13.678C 108.501 13.9393 107.834 14.07 107.068 14.07C 106.452 14.07 105.832 13.9767 105.206 13.79C 104.59 13.6033 104.058 13.356 103.61 13.048L 104.184 11.956C 104.576 12.264 105.015 12.502 105.5 12.67C 105.986 12.838 106.48 12.922 106.984 12.922C 107.787 12.922 108.417 12.7493 108.874 12.404C 109.332 12.0587 109.56 11.5967 109.56 11.018C 109.56 10.4393 109.332 10.0007 108.874 9.702C 108.417 9.394 107.773 9.24 106.942 9.24L 105.598 9.24L 105.598 8.386L 108.608 5.418L 104.086 5.418L 104.072 4.2L 110.372 4.2L 110.372 5.054L 107.082 8.316L 107.67 8.358ZM 119.206 12.782L 119.206 14L 112.122 14L 112.122 12.964L 115.916 9.03C 116.327 8.61933 116.653 8.21333 116.896 7.812C 117.139 7.40133 117.26 7.04667 117.26 6.748C 117.26 6.30933 117.087 5.964 116.742 5.712C 116.406 5.46 115.939 5.334 115.342 5.334C 114.885 5.334 114.409 5.44133 113.914 5.656C 113.419 5.86133 112.971 6.15067 112.57 6.524L 111.996 5.502C 112.528 5.07267 113.093 4.74133 113.69 4.508C 114.297 4.26533 114.903 4.144 115.51 4.144C 116.462 4.144 117.223 4.36333 117.792 4.802C 118.371 5.24067 118.66 5.82867 118.66 6.566C 118.66 7.434 118.053 8.498 116.84 9.758L 113.886 12.782L 119.206 12.782ZM 119.768 4.2L 123.338 4.2L 123.338 14L 121.994 14L 121.994 5.418L 119.768 5.418L 119.768 4.2ZM 129.122 8.358C 130.102 8.414 130.881 8.67067 131.46 9.128C 132.038 9.58533 132.328 10.2013 132.328 10.976C 132.328 11.5827 132.169 12.1193 131.852 12.586C 131.544 13.0527 131.1 13.4167 130.522 13.678C 129.952 13.9393 129.285 14.07 128.52 14.07C 127.904 14.07 127.283 13.9767 126.658 13.79C 126.042 13.6033 125.51 13.356 125.062 13.048L 125.636 11.956C 126.028 12.264 126.466 12.502 126.952 12.67C 127.437 12.838 127.932 12.922 128.436 12.922C 129.238 12.922 129.868 12.7493 130.326 12.404C 130.783 12.0587 131.012 11.5967 131.012 11.018C 131.012 10.4393 130.783 10.0007 130.326 9.702C 129.868 9.394 129.224 9.24 128.394 9.24L 127.05 9.24L 127.05 8.386L 130.06 5.418L 125.538 5.418L 125.524 4.2L 131.824 4.2L 131.824 5.054L 128.534 8.316L 129.122 8.358ZM 134.707 12.32C 135.024 12.516 135.374 12.67 135.757 12.782C 136.149 12.8847 136.536 12.936 136.919 12.936C 137.852 12.936 138.566 12.6093 139.061 11.956C 139.565 11.2933 139.817 10.3927 139.817 9.254C 139.817 9.07667 139.812 8.94133 139.803 8.848C 139.57 9.38933 139.21 9.8 138.725 10.08C 138.249 10.36 137.67 10.5 136.989 10.5C 136.018 10.5 135.253 10.22 134.693 9.66C 134.133 9.1 133.853 8.344 133.853 7.392C 133.853 6.72933 133.993 6.15533 134.273 5.67C 134.553 5.17533 134.945 4.79733 135.449 4.536C 135.962 4.27467 136.555 4.144 137.227 4.144C 138.03 4.144 138.725 4.33067 139.313 4.704C 139.901 5.07733 140.349 5.61867 140.657 6.328C 140.974 7.03733 141.133 7.88667 141.133 8.876C 141.133 9.912 140.965 10.822 140.629 11.606C 140.293 12.39 139.812 12.9967 139.187 13.426C 138.562 13.8553 137.834 14.07 137.003 14.07C 136.546 14.07 136.06 14.0047 135.547 13.874C 135.034 13.734 134.576 13.5567 134.175 13.342L 134.707 12.32ZM 137.311 5.306C 136.648 5.306 136.116 5.49267 135.715 5.866C 135.314 6.23933 135.113 6.75267 135.113 7.406C 135.113 8.022 135.304 8.512 135.687 8.876C 136.07 9.24 136.583 9.422 137.227 9.422C 137.703 9.422 138.114 9.32867 138.459 9.142C 138.814 8.946 139.084 8.68933 139.271 8.372C 139.458 8.04533 139.551 7.69533 139.551 7.322C 139.551 7.00467 139.467 6.692 139.299 6.384C 139.14 6.06667 138.893 5.81 138.557 5.614C 138.221 5.40867 137.806 5.306 137.311 5.306Z"/>
<path id="path34_fill" d="M 1.4 4.2L 2.744 4.2L 2.744 12.782L 7.028 12.782L 7.028 14L 1.4 14L 1.4 4.2ZM 11.6958 6.552C 12.4331 6.552 13.0865 6.71067 13.6558 7.028C 14.2345 7.34533 14.6825 7.78867 14.9998 8.358C 15.3265 8.918 15.4898 9.562 15.4898 10.29C 15.4898 11.018 15.3265 11.6667 14.9998 12.236C 14.6825 12.8053 14.2345 13.2487 13.6558 13.566C 13.0865 13.8833 12.4331 14.042 11.6958 14.042C 10.9491 14.042 10.2865 13.8833 9.7078 13.566C 9.13846 13.2487 8.69046 12.81 8.3638 12.25C 8.04646 11.6807 7.8878 11.0273 7.8878 10.29C 7.8878 9.562 8.04646 8.918 8.3638 8.358C 8.69046 7.78867 9.13846 7.34533 9.7078 7.028C 10.2865 6.71067 10.9491 6.552 11.6958 6.552ZM 11.6958 7.686C 11.2105 7.686 10.7765 7.798 10.3938 8.022C 10.0205 8.246 9.72646 8.55867 9.5118 8.96C 9.30646 9.352 9.2038 9.8 9.2038 10.304C 9.2038 10.8173 9.30646 11.2747 9.5118 11.676C 9.72646 12.0773 10.0205 12.39 10.3938 12.614C 10.7765 12.8287 11.2105 12.936 11.6958 12.936C 12.1718 12.936 12.5965 12.8287 12.9698 12.614C 13.3525 12.39 13.6465 12.0773 13.8518 11.676C 14.0665 11.2747 14.1738 10.8173 14.1738 10.304C 14.1738 9.8 14.0665 9.352 13.8518 8.96C 13.6465 8.55867 13.3525 8.246 12.9698 8.022C 12.5965 7.798 12.1718 7.686 11.6958 7.686ZM 21.4271 6.552C 22.2951 6.552 22.9764 6.80867 23.4711 7.322C 23.9658 7.826 24.2131 8.526 24.2131 9.422L 24.2131 14L 22.9111 14L 22.9111 9.772C 22.9111 9.14667 22.7338 8.66133 22.3791 8.316C 22.0338 7.96133 21.5531 7.784 20.9371 7.784C 20.2744 7.79333 19.7331 8.008 19.3131 8.428C 18.9024 8.83867 18.6691 9.37533 18.6131 10.038L 18.6131 14L 17.3111 14L 17.3111 6.594L 18.6131 6.594L 18.6131 8.162C 19.1078 7.10733 20.0458 6.57067 21.4271 6.552ZM 33.0916 6.594L 33.0916 13.244C 33.0916 13.9533 32.933 14.574 32.6156 15.106C 32.3076 15.638 31.869 16.044 31.2996 16.324C 30.7303 16.6133 30.0676 16.758 29.3116 16.758C 28.2196 16.758 27.2023 16.4127 26.2596 15.722L 26.8336 14.77C 27.1976 15.0687 27.5756 15.288 27.9676 15.428C 28.3596 15.5773 28.789 15.652 29.2556 15.652C 30.021 15.652 30.6323 15.4373 31.0896 15.008C 31.547 14.5787 31.7756 14.0047 31.7756 13.286L 31.7756 12.25C 31.5143 12.698 31.1596 13.048 30.7116 13.3C 30.2636 13.5427 29.7503 13.664 29.1716 13.664C 28.509 13.664 27.921 13.5147 27.4076 13.216C 26.9036 12.908 26.5116 12.4833 26.2316 11.942C 25.9516 11.4007 25.8116 10.78 25.8116 10.08C 25.8116 9.38933 25.9516 8.778 26.2316 8.246C 26.5116 7.714 26.9036 7.29867 27.4076 7C 27.921 6.70133 28.509 6.552 29.1716 6.552C 29.7596 6.552 30.273 6.67333 30.7116 6.916C 31.1596 7.15867 31.5143 7.504 31.7756 7.952L 31.7756 6.594L 33.0916 6.594ZM 29.4236 12.614C 29.881 12.614 30.287 12.5067 30.6416 12.292C 30.9963 12.0773 31.2716 11.7833 31.4676 11.41C 31.673 11.0273 31.7756 10.598 31.7756 10.122C 31.7756 9.63667 31.673 9.20733 31.4676 8.834C 31.2716 8.45133 30.9963 8.15267 30.6416 7.938C 30.287 7.72333 29.881 7.616 29.4236 7.616C 28.9663 7.616 28.5556 7.72333 28.1916 7.938C 27.837 8.15267 27.557 8.45133 27.3516 8.834C 27.1463 9.20733 27.0436 9.63667 27.0436 10.122C 27.053 10.85 27.277 11.4473 27.7156 11.914C 28.1543 12.3807 28.7236 12.614 29.4236 12.614ZM 35.4674 6.594L 36.7694 6.594L 36.7694 14L 35.4674 14L 35.4674 6.594ZM 36.1114 3.64C 36.3447 3.64 36.536 3.71933 36.6854 3.878C 36.844 4.03667 36.9234 4.23733 36.9234 4.48C 36.9234 4.72267 36.844 4.92333 36.6854 5.082C 36.536 5.24067 36.3447 5.32 36.1114 5.32C 35.878 5.32 35.682 5.24067 35.5234 5.082C 35.374 4.92333 35.2994 4.72267 35.2994 4.48C 35.2994 4.23733 35.374 4.03667 35.5234 3.878C 35.682 3.71933 35.878 3.64 36.1114 3.64ZM 43.2852 13.51C 42.7158 13.874 42.1372 14.056 41.5492 14.056C 40.9612 14.056 40.4852 13.8833 40.1212 13.538C 39.7572 13.1833 39.5752 12.6513 39.5752 11.942L 39.5752 7.84L 38.5252 7.84L 38.5252 6.846L 39.5752 6.846L 39.5752 4.858L 40.8912 4.858L 40.8912 6.846L 43.1592 6.846L 43.1592 7.84L 40.8912 7.84L 40.8912 11.704C 40.8912 12.1147 40.9658 12.4087 41.1152 12.586C 41.2645 12.7633 41.4885 12.852 41.7872 12.852C 42.1418 12.852 42.5245 12.7353 42.9352 12.502L 43.2852 13.51ZM 51.4256 6.594L 51.4256 14L 50.1096 14L 50.1096 12.432C 49.6243 13.4867 48.7096 14.0233 47.3656 14.042C 46.5069 14.042 45.8349 13.79 45.3496 13.286C 44.8643 12.7727 44.6216 12.068 44.6216 11.172L 44.6216 6.594L 45.9376 6.594L 45.9376 10.822C 45.9376 11.4473 46.1056 11.9373 46.4416 12.292C 46.7869 12.6373 47.2583 12.81 47.8556 12.81C 48.5463 12.8007 49.0923 12.558 49.4936 12.082C 49.9043 11.5967 50.1096 10.9807 50.1096 10.234L 50.1096 6.594L 51.4256 6.594ZM 60.8674 3.612L 60.8674 14L 59.5654 14L 59.5654 12.53C 59.2854 13.0247 58.9074 13.4073 58.4314 13.678C 57.9647 13.9393 57.4187 14.07 56.7934 14.07C 56.0934 14.07 55.4727 13.9113 54.9314 13.594C 54.3994 13.2673 53.9841 12.8193 53.6854 12.25C 53.3867 11.6713 53.2374 11.0133 53.2374 10.276C 53.2374 9.548 53.3867 8.904 53.6854 8.344C 53.9841 7.77467 54.3994 7.33133 54.9314 7.014C 55.4727 6.69667 56.0887 6.538 56.7794 6.538C 57.4141 6.538 57.9694 6.66867 58.4454 6.93C 58.9214 7.19133 59.2947 7.56933 59.5654 8.064L 59.5654 3.612L 60.8674 3.612ZM 57.0594 12.95C 57.5447 12.95 57.9741 12.838 58.3474 12.614C 58.7301 12.39 59.0287 12.0773 59.2434 11.676C 59.4581 11.2747 59.5654 10.822 59.5654 10.318C 59.5654 9.80467 59.4581 9.34733 59.2434 8.946C 59.0287 8.54467 58.7301 8.232 58.3474 8.008C 57.9741 7.784 57.5447 7.672 57.0594 7.672C 56.5741 7.672 56.1401 7.78867 55.7574 8.022C 55.3841 8.246 55.0901 8.55867 54.8754 8.96C 54.6607 9.36133 54.5534 9.814 54.5534 10.318C 54.5534 10.822 54.6607 11.2747 54.8754 11.676C 55.0901 12.0773 55.3841 12.39 55.7574 12.614C 56.1401 12.838 56.5741 12.95 57.0594 12.95ZM 66.449 6.552C 67.597 6.552 68.465 6.89267 69.053 7.574C 69.641 8.246 69.935 9.184 69.935 10.388C 69.935 10.5747 69.9304 10.7147 69.921 10.808L 64.069 10.808C 64.1717 11.4707 64.447 11.998 64.895 12.39C 65.3524 12.782 65.9124 12.978 66.575 12.978C 67.0137 12.978 67.4197 12.8987 67.793 12.74C 68.1757 12.5813 68.507 12.3573 68.787 12.068L 69.501 12.81C 69.137 13.202 68.6984 13.5053 68.185 13.72C 67.6717 13.9347 67.1024 14.042 66.477 14.042C 65.749 14.042 65.1004 13.888 64.531 13.58C 63.971 13.2627 63.5324 12.8193 63.215 12.25C 62.907 11.6807 62.753 11.032 62.753 10.304C 62.753 9.576 62.907 8.932 63.215 8.372C 63.5324 7.80267 63.971 7.35933 64.531 7.042C 65.091 6.71533 65.7304 6.552 66.449 6.552ZM 68.759 9.8C 68.7217 9.128 68.4977 8.60067 68.087 8.218C 67.6764 7.826 67.135 7.63 66.463 7.63C 65.8097 7.63 65.2637 7.826 64.825 8.218C 64.3957 8.61 64.139 9.13733 64.055 9.8L 68.759 9.8ZM 71.8935 8.358C 72.1082 8.358 72.2855 8.43267 72.4255 8.582C 72.5748 8.73133 72.6495 8.92267 72.6495 9.156C 72.6495 9.38933 72.5748 9.58533 72.4255 9.744C 72.2855 9.89333 72.1082 9.968 71.8935 9.968C 71.6788 9.968 71.4968 9.89333 71.3475 9.744C 71.1982 9.58533 71.1235 9.38933 71.1235 9.156C 71.1235 8.92267 71.1982 8.73133 71.3475 8.582C 71.4968 8.43267 71.6788 8.358 71.8935 8.358ZM 71.8935 12.516C 72.1082 12.516 72.2855 12.5907 72.4255 12.74C 72.5748 12.8893 72.6495 13.0807 72.6495 13.314C 72.6495 13.5473 72.5748 13.7433 72.4255 13.902C 72.2855 14.0513 72.1082 14.126 71.8935 14.126C 71.6788 14.126 71.4968 14.0513 71.3475 13.902C 71.1982 13.7433 71.1235 13.5473 71.1235 13.314C 71.1235 13.0807 71.1982 12.8893 71.3475 12.74C 71.4968 12.5907 71.6788 12.516 71.8935 12.516ZM 77.084 4.2L 80.654 4.2L 80.654 14L 79.31 14L 79.31 5.418L 77.084 5.418L 77.084 4.2ZM 90.022 10.276L 90.022 11.48L 88.51 11.48L 88.51 14L 87.25 14L 87.25 11.48L 82.392 11.48L 82.392 10.444L 85.892 4.2L 87.208 4.2L 83.848 10.276L 87.25 10.276L 87.25 7.77L 88.51 7.77L 88.51 10.276L 90.022 10.276ZM 95.5075 4.144C 96.8235 4.144 97.8361 4.57333 98.5455 5.432C 99.2548 6.28133 99.6095 7.504 99.6095 9.1C 99.6095 10.696 99.2548 11.9233 98.5455 12.782C 97.8361 13.6407 96.8235 14.07 95.5075 14.07C 94.1821 14.07 93.1648 13.6407 92.4555 12.782C 91.7555 11.9233 91.4055 10.696 91.4055 9.1C 91.4055 7.504 91.7555 6.28133 92.4555 5.432C 93.1648 4.57333 94.1821 4.144 95.5075 4.144ZM 95.5075 5.208C 93.6968 5.208 92.7915 6.50533 92.7915 9.1C 92.7915 10.388 93.0201 11.3587 93.4775 12.012C 93.9348 12.6653 94.6115 12.992 95.5075 12.992C 96.4035 12.992 97.0801 12.6653 97.5375 12.012C 97.9948 11.3587 98.2235 10.388 98.2235 9.1C 98.2235 6.50533 97.3181 5.208 95.5075 5.208ZM 101.849 12.516C 102.063 12.516 102.241 12.5907 102.381 12.74C 102.53 12.8893 102.605 13.0807 102.605 13.314C 102.605 13.5473 102.53 13.7433 102.381 13.902C 102.241 14.0513 102.063 14.126 101.849 14.126C 101.634 14.126 101.452 14.0513 101.303 13.902C 101.153 13.7433 101.079 13.5473 101.079 13.314C 101.079 13.0807 101.153 12.8893 101.303 12.74C 101.452 12.5907 101.634 12.516 101.849 12.516ZM 103.375 4.2L 106.945 4.2L 106.945 14L 105.601 14L 105.601 5.418L 103.375 5.418L 103.375 4.2ZM 116.075 12.782L 116.075 14L 108.991 14L 108.991 12.964L 112.785 9.03C 113.196 8.61933 113.522 8.21333 113.765 7.812C 114.008 7.40133 114.129 7.04667 114.129 6.748C 114.129 6.30933 113.956 5.964 113.611 5.712C 113.275 5.46 112.808 5.334 112.211 5.334C 111.754 5.334 111.278 5.44133 110.783 5.656C 110.288 5.86133 109.84 6.15067 109.439 6.524L 108.865 5.502C 109.397 5.07267 109.962 4.74133 110.559 4.508C 111.166 4.26533 111.772 4.144 112.379 4.144C 113.331 4.144 114.092 4.36333 114.661 4.802C 115.24 5.24067 115.529 5.82867 115.529 6.566C 115.529 7.434 114.922 8.498 113.709 9.758L 110.755 12.782L 116.075 12.782ZM 120.823 8.358C 121.803 8.414 122.582 8.67067 123.161 9.128C 123.739 9.58533 124.029 10.2013 124.029 10.976C 124.029 11.5827 123.87 12.1193 123.553 12.586C 123.245 13.0527 122.801 13.4167 122.223 13.678C 121.653 13.9393 120.986 14.07 120.221 14.07C 119.605 14.07 118.984 13.9767 118.359 13.79C 117.743 13.6033 117.211 13.356 116.763 13.048L 117.337 11.956C 117.729 12.264 118.167 12.502 118.653 12.67C 119.138 12.838 119.633 12.922 120.137 12.922C 120.939 12.922 121.569 12.7493 122.027 12.404C 122.484 12.0587 122.713 11.5967 122.713 11.018C 122.713 10.4393 122.484 10.0007 122.027 9.702C 121.569 9.394 120.925 9.24 120.095 9.24L 118.751 9.24L 118.751 8.386L 121.761 5.418L 117.239 5.418L 117.225 4.2L 123.525 4.2L 123.525 5.054L 120.235 8.316L 120.823 8.358ZM 132.358 12.782L 132.358 14L 125.274 14L 125.274 12.964L 129.068 9.03C 129.479 8.61933 129.806 8.21333 130.048 7.812C 130.291 7.40133 130.412 7.04667 130.412 6.748C 130.412 6.30933 130.24 5.964 129.894 5.712C 129.558 5.46 129.092 5.334 128.494 5.334C 128.037 5.334 127.561 5.44133 127.066 5.656C 126.572 5.86133 126.124 6.15067 125.722 6.524L 125.148 5.502C 125.68 5.07267 126.245 4.74133 126.842 4.508C 127.449 4.26533 128.056 4.144 128.662 4.144C 129.614 4.144 130.375 4.36333 130.944 4.802C 131.523 5.24067 131.812 5.82867 131.812 6.566C 131.812 7.434 131.206 8.498 129.992 9.758L 127.038 12.782L 132.358 12.782ZM 132.92 4.2L 136.49 4.2L 136.49 14L 135.146 14L 135.146 5.418L 132.92 5.418L 132.92 4.2ZM 142.274 8.358C 143.254 8.414 144.033 8.67067 144.612 9.128C 145.191 9.58533 145.48 10.2013 145.48 10.976C 145.48 11.5827 145.321 12.1193 145.004 12.586C 144.696 13.0527 144.253 13.4167 143.674 13.678C 143.105 13.9393 142.437 14.07 141.672 14.07C 141.056 14.07 140.435 13.9767 139.81 13.79C 139.194 13.6033 138.662 13.356 138.214 13.048L 138.788 11.956C 139.18 12.264 139.619 12.502 140.104 12.67C 140.589 12.838 141.084 12.922 141.588 12.922C 142.391 12.922 143.021 12.7493 143.478 12.404C 143.935 12.0587 144.164 11.5967 144.164 11.018C 144.164 10.4393 143.935 10.0007 143.478 9.702C 143.021 9.394 142.377 9.24 141.546 9.24L 140.202 9.24L 140.202 8.386L 143.212 5.418L 138.69 5.418L 138.676 4.2L 144.976 4.2L 144.976 5.054L 141.686 8.316L 142.274 8.358ZM 147.859 12.32C 148.177 12.516 148.527 12.67 148.909 12.782C 149.301 12.8847 149.689 12.936 150.071 12.936C 151.005 12.936 151.719 12.6093 152.213 11.956C 152.717 11.2933 152.969 10.3927 152.969 9.254C 152.969 9.07667 152.965 8.94133 152.955 8.848C 152.722 9.38933 152.363 9.8 151.877 10.08C 151.401 10.36 150.823 10.5 150.141 10.5C 149.171 10.5 148.405 10.22 147.845 9.66C 147.285 9.1 147.005 8.344 147.005 7.392C 147.005 6.72933 147.145 6.15533 147.425 5.67C 147.705 5.17533 148.097 4.79733 148.601 4.536C 149.115 4.27467 149.707 4.144 150.379 4.144C 151.182 4.144 151.877 4.33067 152.465 4.704C 153.053 5.07733 153.501 5.61867 153.809 6.328C 154.127 7.03733 154.285 7.88667 154.285 8.876C 154.285 9.912 154.117 10.822 153.781 11.606C 153.445 12.39 152.965 12.9967 152.339 13.426C 151.714 13.8553 150.986 14.07 150.155 14.07C 149.698 14.07 149.213 14.0047 148.699 13.874C 148.186 13.734 147.729 13.5567 147.327 13.342L 147.859 12.32ZM 150.463 5.306C 149.801 5.306 149.269 5.49267 148.867 5.866C 148.466 6.23933 148.265 6.75267 148.265 7.406C 148.265 8.022 148.457 8.512 148.839 8.876C 149.222 9.24 149.735 9.422 150.379 9.422C 150.855 9.422 151.266 9.32867 151.611 9.142C 151.966 8.946 152.237 8.68933 152.423 8.372C 152.61 8.04533 152.703 7.69533 152.703 7.322C 152.703 7.00467 152.619 6.692 152.451 6.384C 152.293 6.06667 152.045 5.81 151.709 5.614C 151.373 5.40867 150.958 5.306 150.463 5.306Z"/>
<path id="path35_fill" d="M 8.68 14L 7.644 11.62L 2.478 11.62L 1.456 14L 0.042 14L 4.396 4.2L 5.796 4.2L 10.136 14L 8.68 14ZM 3.01 10.402L 7.126 10.402L 5.054 5.642L 3.01 10.402ZM 10.9142 4.2L 18.7962 4.2L 18.7962 5.194L 12.5242 12.782L 18.8662 12.782L 18.8522 14L 10.7322 14L 10.7322 13.006L 17.0042 5.418L 10.9002 5.418L 10.9142 4.2ZM 19.5677 4.2L 27.2257 4.2L 27.2257 5.432L 24.0617 5.432L 24.0617 14L 22.7177 14L 22.7177 5.432L 19.5677 5.432L 19.5677 4.2ZM 35.7431 4.2L 37.0731 4.2L 37.0731 14L 35.7151 14L 30.1151 6.412L 30.1151 14L 28.7711 14L 28.7711 4.2L 30.1291 4.2L 35.7431 11.802L 35.7431 4.2ZM 38.5703 4.2L 42.1403 4.2L 42.1403 14L 40.7963 14L 40.7963 5.418L 38.5703 5.418L 38.5703 4.2ZM 48.0923 7.854C 48.811 7.854 49.441 7.98 49.9823 8.232C 50.533 8.484 50.953 8.834 51.2423 9.282C 51.541 9.73 51.6903 10.234 51.6903 10.794C 51.6903 11.4473 51.5363 12.0213 51.2283 12.516C 50.9296 13.0107 50.5003 13.3933 49.9403 13.664C 49.3803 13.9347 48.7316 14.07 47.9943 14.07C 47.4156 14.07 46.8043 13.972 46.1603 13.776C 45.5256 13.5707 44.9563 13.3 44.4523 12.964L 44.9983 11.886C 45.4183 12.2033 45.8803 12.446 46.3843 12.614C 46.8883 12.782 47.383 12.866 47.8683 12.866C 48.6056 12.866 49.189 12.6887 49.6183 12.334C 50.0476 11.9793 50.2623 11.4987 50.2623 10.892C 50.2623 10.3227 50.0476 9.87933 49.6183 9.562C 49.189 9.23533 48.5776 9.072 47.7843 9.072C 47.495 9.072 47.075 9.09067 46.5243 9.128C 45.9736 9.16533 45.5303 9.212 45.1943 9.268L 45.1943 4.2L 51.2843 4.2L 51.2843 5.418L 46.4543 5.418L 46.4543 7.91C 46.893 7.87267 47.439 7.854 48.0923 7.854ZM 59.5896 5.88C 59.2816 5.684 58.9269 5.53467 58.5256 5.432C 58.1336 5.32 57.7462 5.264 57.3636 5.264C 56.4209 5.264 55.6976 5.59067 55.1936 6.244C 54.6896 6.89733 54.4376 7.79333 54.4376 8.932C 54.4376 9.10933 54.4422 9.24467 54.4516 9.338C 54.6942 8.806 55.0582 8.4 55.5436 8.12C 56.0289 7.84 56.6122 7.7 57.2936 7.7C 58.2736 7.7 59.0436 7.98 59.6036 8.54C 60.1729 9.1 60.4576 9.856 60.4576 10.808C 60.4576 11.4707 60.3176 12.0493 60.0376 12.544C 59.7576 13.0293 59.3609 13.4073 58.8476 13.678C 58.3342 13.9393 57.7369 14.07 57.0556 14.07C 56.2436 14.07 55.5389 13.8833 54.9416 13.51C 54.3536 13.1367 53.9009 12.5953 53.5836 11.886C 53.2756 11.1673 53.1216 10.3087 53.1216 9.31C 53.1216 8.274 53.2896 7.36867 53.6256 6.594C 53.9709 5.81 54.4516 5.208 55.0676 4.788C 55.6929 4.35867 56.4256 4.144 57.2656 4.144C 57.7322 4.144 58.2222 4.20933 58.7356 4.34C 59.2582 4.47067 59.7202 4.64333 60.1216 4.858L 59.5896 5.88ZM 57.0556 8.778C 56.5796 8.778 56.1642 8.876 55.8096 9.072C 55.4549 9.25867 55.1796 9.51067 54.9836 9.828C 54.7969 10.1453 54.7082 10.4907 54.7176 10.864C 54.7082 11.1907 54.7876 11.508 54.9556 11.816C 55.1236 12.124 55.3756 12.3807 55.7116 12.586C 56.0569 12.7913 56.4769 12.894 56.9716 12.894C 57.6436 12.894 58.1802 12.7073 58.5816 12.334C 58.9922 11.9607 59.1976 11.4473 59.1976 10.794C 59.1976 10.178 59.0016 9.688 58.6096 9.324C 58.2269 8.96 57.7089 8.778 57.0556 8.778ZM 61.2656 4.2L 64.8356 4.2L 64.8356 14L 63.4916 14L 63.4916 5.418L 61.2656 5.418L 61.2656 4.2Z"/>
</defs>
</svg>
