<svg width="22" height="40" viewBox="0 0 22 40" version="1.1" xmlns="http://www.w3.org/2000/svg" xmlns:xlink="http://www.w3.org/1999/xlink">
<title>flaticon1487589560-svg</title>
<desc>Created using Figma</desc>
<g id="Canvas" transform="translate(54 -2554)">
<g id="flaticon1487589560-svg">
<g id="Capa_1">
<g id="Shape">
<use xlink:href="#path0_fill" transform="translate(-53.9682 2554)" fill="#2E2E2E"/>
</g>
</g>
</g>
</g>
<defs>
<path id="path0_fill" d="M 20.6235 0.00824742L 15.4833 0C 9.70845 0 5.97649 3.82887 5.97649 9.75505L 5.97649 14.2528L 0.808247 14.2528C 0.36165 14.2528 0 14.6148 0 15.0614L 0 21.5781C 0 22.0247 0.362062 22.3864 0.808247 22.3864L 5.97649 22.3864L 5.97649 38.8301C 5.97649 39.2767 6.33814 39.6384 6.78474 39.6384L 13.5278 39.6384C 13.9744 39.6384 14.3361 39.2763 14.3361 38.8301L 14.3361 22.3864L 20.379 22.3864C 20.8256 22.3864 21.1872 22.0247 21.1872 21.5781L 21.1897 15.0614C 21.1897 14.847 21.1043 14.6416 20.953 14.4899C 20.8016 14.3381 20.5955 14.2528 20.381 14.2528L 14.3361 14.2528L 14.3361 10.44C 14.3361 8.60742 14.7728 7.67711 17.16 7.67711L 20.6227 7.67588C 21.0689 7.67588 21.4305 7.31381 21.4305 6.86763L 21.4305 0.816495C 21.4305 0.370722 21.0693 0.00907217 20.6235 0.00824742Z"/>
</defs>
</svg>
