<svg width="49" height="40" viewBox="0 0 49 40" version="1.1" xmlns="http://www.w3.org/2000/svg" xmlns:xlink="http://www.w3.org/1999/xlink">
<title>flaticon1487589594-svg</title>
<desc>Created using Figma</desc>
<g id="Canvas" transform="translate(11 -2554)">
<g id="flaticon1487589594-svg">
<g id="Layer_1">
<g id="Shape">
<use xlink:href="#path0_fill" transform="translate(-11 2554.06)" fill="#2E2E2E"/>
</g>
</g>
</g>
</g>
<defs>
<path id="path0_fill" d="M 47.318 4.64199C 46.2497 5.11462 45.1407 5.48749 44.0027 5.75743C 45.2566 4.56866 46.1994 3.08175 46.7313 1.42211C 46.8831 0.948304 46.3673 0.538596 45.9384 0.792281C 44.3554 1.72912 42.6501 2.43193 40.87 2.8814C 40.7667 2.90749 40.6601 2.9207 40.5532 2.9207C 40.229 2.9207 39.9137 2.80058 39.6658 2.58257C 37.7718 0.917193 35.3359 0 32.8069 0C 31.7125 0 30.6076 0.170175 29.5228 0.505848C 26.1615 1.54596 23.568 4.31216 22.7543 7.72503C 22.4491 9.00515 22.3664 10.2864 22.5085 11.5332C 22.5248 11.6765 22.4569 11.7765 22.4151 11.8234C 22.3416 11.9056 22.2373 11.9527 22.1291 11.9527C 22.1171 11.9527 22.1046 11.9522 22.0923 11.951C 14.7347 11.269 8.0999 7.73251 3.41008 1.9931C 3.17093 1.70035 2.71233 1.73626 2.52171 2.06246C 1.60332 3.63439 1.11799 5.43228 1.11799 7.26175C 1.11799 10.0655 2.24704 12.7077 4.20819 14.6339C 3.38347 14.4388 2.58525 14.1316 1.84376 13.7207C 1.48504 13.5219 1.04366 13.7774 1.03862 14.1868C 0.987276 18.3519 3.43154 22.0581 7.09312 23.727C 7.01938 23.7288 6.94564 23.7296 6.87179 23.7296C 6.29138 23.7296 5.7037 23.6737 5.12529 23.5634C 4.72131 23.4864 4.38193 23.8688 4.50736 24.2595C 5.69585 27.9614 8.89062 30.6901 12.7137 31.3096C 9.54078 33.4346 5.84579 34.5556 2.00003 34.5556L 0.801114 34.5549C 0.43172 34.5549 0.1193 34.7951 0.0251636 35.152C -0.0675659 35.5036 0.103239 35.8745 0.418238 36.0573C 4.75179 38.5734 9.69482 39.9033 14.7151 39.9033C 19.1095 39.9033 23.2201 39.0332 26.9328 37.3174C 30.3363 35.7444 33.344 33.4959 35.8722 30.6343C 38.2274 27.9685 40.0691 24.8912 41.3459 21.488C 42.5631 18.2439 43.2065 14.7823 43.2065 11.4775L 43.2065 11.3201C 43.2064 10.7895 43.4469 10.2902 43.8666 9.95029C 45.4592 8.66023 46.8461 7.14164 47.9885 5.43673C 48.2901 4.98655 47.8144 4.42234 47.318 4.64199Z"/>
</defs>
</svg>
