<svg width="40" height="40" viewBox="0 0 40 40" version="1.1" xmlns="http://www.w3.org/2000/svg" xmlns:xlink="http://www.w3.org/1999/xlink">
<title>flaticon1487589587-svg</title>
<desc>Created using Figma</desc>
<g id="Canvas" transform="translate(-58 -2554)">
<g id="flaticon1487589587-svg">
<g id="Layer_1">
<g id="Group">
<g id="Shape">
<use xlink:href="#path0_fill" transform="translate(58 2554)" fill="#2E2E2E"/>
</g>
<g id="Shape">
<use xlink:href="#path1_fill" transform="translate(67.6395 2563.64)" fill="#2E2E2E"/>
</g>
<g id="Shape">
<use xlink:href="#path2_fill" transform="translate(85.9814 2560.65)" fill="#2E2E2E"/>
</g>
</g>
</g>
</g>
</g>
<defs>
<path id="path0_fill" fill-rule="evenodd" d="M 10.9774 0L 28.8014 0C 34.8548 0 39.7795 4.9248 39.7793 10.9775L 39.7793 28.8018C 39.7793 34.8545 34.8548 39.7793 28.8014 39.7793L 10.9774 39.7793C 4.92447 39.7793 0 34.8547 0 28.8018L 0 10.9775C 0 4.9248 4.92447 0 10.9774 0ZM 28.8017 36.2498L 10.9774 36.2498L 28.8017 36.2498ZM 10.9774 36.2498C 6.87059 36.25 3.52941 32.9087 3.52941 28.8015L 10.9774 36.2498ZM 3.52941 28.8015L 3.52941 10.9775L 3.52941 28.8015ZM 3.52941 10.9775C 3.52941 6.87061 6.87059 3.5293 10.9774 3.5293L 3.52941 10.9775ZM 10.9774 3.5293L 28.8014 3.5293L 10.9774 3.5293ZM 28.8014 3.5293C 32.9085 3.5293 36.2499 6.87061 36.2499 10.9775L 28.8014 3.5293ZM 36.2499 10.9775L 36.2501 28.8015L 36.2499 10.9775Z"/>
<path id="path1_fill" fill-rule="evenodd" d="M 0 10.25C 0 4.59814 4.59811 0 10.2501 0C 15.9021 0 20.5002 4.59814 20.5002 10.25C 20.5002 15.9019 15.9021 20.4998 10.2501 20.4998C 4.59811 20.4998 0 15.9019 0 10.25ZM 3.52941 10.25C 3.52941 13.9556 6.54447 16.9702 10.2501 16.9702C 13.9558 16.9702 16.9708 13.9556 16.9708 10.25C 16.9708 6.54419 13.956 3.5293 10.2501 3.5293C 6.54424 3.5293 3.52941 6.54419 3.52941 10.25Z"/>
<path id="path2_fill" d="M 2.58824 0C 1.90824 0 1.24024 0.275294 0.76 0.757647C 0.277412 1.23765 0 1.90588 0 2.58824C 0 3.26847 0.277647 3.93647 0.76 4.41882C 1.24 4.89882 1.90824 5.17647 2.58824 5.17647C 3.27059 5.17647 3.93647 4.89882 4.41882 4.41882C 4.90118 3.93647 5.17647 3.26824 5.17647 2.58824C 5.17647 1.90588 4.90118 1.23765 4.41882 0.757647C 3.93882 0.275294 3.27059 0 2.58824 0Z"/>
</defs>
</svg>
