<svg width="142" height="140" viewBox="0 0 142 140" version="1.1" xmlns="http://www.w3.org/2000/svg" xmlns:xlink="http://www.w3.org/1999/xlink">
<title>Group 70</title>
<desc>Created using Figma</desc>
<g id="Canvas" transform="translate(-155 -1620)">
<g id="Group 70">
<g id="Fill 148">
<use xlink:href="#path0_fill" transform="translate(165.192 1625.9)" fill="#79CE4D"/>
</g>
<g id="Stroke 149">
<use xlink:href="#path1_stroke" transform="translate(165.192 1625.9)" fill="#79CE4D"/>
</g>
<g id="Fill 150">
<use xlink:href="#path2_fill" transform="translate(172.54 1716.26)" fill="#79CE4D"/>
</g>
<g id="Stroke 151">
<use xlink:href="#path3_stroke" transform="translate(172.54 1716.26)" fill="#79CE4D"/>
</g>
<g id="Fill 152">
<use xlink:href="#path4_fill" transform="translate(250.835 1716.26)" fill="#79CE4D"/>
</g>
<g id="Stroke 153">
<use xlink:href="#path5_stroke" transform="translate(250.835 1716.26)" fill="#79CE4D"/>
</g>
<g id="Fill 154">
<use xlink:href="#path6_fill" transform="translate(281.253 1678.97)" fill="#79CE4D"/>
</g>
<g id="Stroke 155">
<use xlink:href="#path7_stroke" transform="translate(281.253 1678.97)" fill="#79CE4D"/>
</g>
<g id="Fill 156">
<use xlink:href="#path8_fill" transform="translate(155.237 1664.33)" fill="#79CE4D"/>
</g>
<g id="Stroke 157">
<use xlink:href="#path9_stroke" transform="translate(155.237 1664.33)" fill="#79CE4D"/>
</g>
<g id="Fill 158">
<use xlink:href="#path10_fill" transform="translate(226.561 1620.26)" fill="#79CE4D"/>
</g>
<g id="Stroke 159">
<use xlink:href="#path11_stroke" transform="translate(226.561 1620.26)" fill="#79CE4D"/>
</g>
<g id="Fill 160">
<use xlink:href="#path12_fill" transform="translate(193.801 1743.25)" fill="#4A8C27"/>
</g>
<g id="Stroke 161">
<use xlink:href="#path13_stroke" transform="translate(193.801 1743.25)" fill="#4A8D26"/>
</g>
<g id="Fill 162">
<use xlink:href="#path14_fill" transform="translate(251.372 1742.98)" fill="#4A8C27"/>
</g>
<g id="Stroke 163">
<use xlink:href="#path15_stroke" transform="translate(251.372 1742.98)" fill="#4A8D26"/>
</g>
<g id="Fill 164">
<use xlink:href="#path16_fill" transform="translate(201.152 1649.96)" fill="#EEEEEE"/>
</g>
<g id="Fill 165">
<use xlink:href="#path17_fill" transform="translate(213.065 1661.19)" fill="#1A1A1B"/>
</g>
<g id="Stroke 166">
<use xlink:href="#path18_stroke" transform="translate(213.065 1661.19)" fill="#1A1A1B"/>
</g>
<g id="Fill 167">
<use xlink:href="#path19_fill" transform="translate(231.11 1657.09)" fill="#F9F9F9"/>
</g>
<g id="Fill 168">
<use xlink:href="#path20_fill" transform="translate(209.856 1716.92)" fill="#A82670"/>
</g>
<g id="Stroke 169">
<use xlink:href="#path21_stroke" transform="translate(209.856 1716.92)" fill="#A82670"/>
</g>
<g id="Fill 170">
<use xlink:href="#path22_fill" transform="translate(201.079 1689.93)" fill="#CAFFFF"/>
</g>
<g id="Stroke 171">
<use xlink:href="#path23_stroke" transform="translate(201.079 1689.93)" fill="#B9FEFE"/>
</g>
</g>
</g>
<defs>
<path id="path0_fill" fill-rule="evenodd" d="M 62.639 0C 97.2114 0 125.278 28.2382 125.278 63.0196C 125.278 97.8011 97.2114 126.039 62.639 126.039C 28.0684 126.039 0 97.8011 0 63.0196C 0 28.2382 28.0684 0 62.639 0Z"/>
<path id="path1_stroke" d="M 62.639 0.12C 97.1444 0.12 125.158 28.3038 125.158 63.0196L 125.398 63.0196C 125.398 28.1726 97.2783 -0.12 62.639 -0.12L 62.639 0.12ZM 125.158 63.0196C 125.158 97.7355 97.1444 125.919 62.639 125.919L 62.639 126.159C 97.2783 126.159 125.398 97.8667 125.398 63.0196L 125.158 63.0196ZM 62.639 125.919C 28.1354 125.919 0.12 97.7355 0.12 63.0196L -0.12 63.0196C -0.12 97.8667 28.0015 126.159 62.639 126.159L 62.639 125.919ZM 0.12 63.0196C 0.12 28.3038 28.1354 0.12 62.639 0.12L 62.639 -0.12C 28.0015 -0.12 -0.12 28.1726 -0.12 63.0196L 0.12 63.0196Z"/>
<path id="path2_fill" fill-rule="evenodd" d="M 0 0C 4.85935 13.8582 9.62834 27.6999 16.2415 41.8749C 19.489 43.9827 22.9044 43.9378 26.4802 41.8749C 30.2036 37.6053 32.3041 33.2719 33.1579 28.8898L 0 0Z"/>
<path id="path3_stroke" d="M 0 0L 0.0788297 -0.0904759C 0.0377658 -0.126254 -0.0222433 -0.12989 -0.0673271 -0.0993331C -0.112411 -0.0687757 -0.131262 -0.0116883 -0.11324 0.0397074L 0 0ZM 16.2415 41.8749L 16.1327 41.9256C 16.1422 41.946 16.1573 41.9633 16.1761 41.9755L 16.2415 41.8749ZM 26.4802 41.8749L 26.5402 41.9788C 26.5517 41.9722 26.562 41.9637 26.5707 41.9537L 26.4802 41.8749ZM 33.1579 28.8898L 33.2757 28.9127C 33.2839 28.8707 33.2691 28.8274 33.2368 28.7993L 33.1579 28.8898ZM -0.11324 0.0397074C 4.746 13.8976 9.51708 27.7449 16.1327 41.9256L 16.3502 41.8241C 9.73959 27.655 4.9727 13.8188 0.11324 -0.0397074L -0.11324 0.0397074ZM 16.1761 41.9755C 19.4661 44.1109 22.9302 44.0615 26.5402 41.9788L 26.4203 41.7709C 22.8786 43.8142 19.512 43.8546 16.3068 41.7742L 16.1761 41.9755ZM 26.5707 41.9537C 30.3037 37.6715 32.4179 33.3099 33.2757 28.9127L 33.0401 28.8668C 32.1902 33.234 30.1035 37.5391 26.3898 41.796L 26.5707 41.9537ZM 33.2368 28.7993L 0.0788297 -0.0904759L -0.0788297 0.0904759L 33.0791 28.9803L 33.2368 28.7993Z"/>
<path id="path4_fill" fill-rule="evenodd" d="M 33.1598 0C 28.2986 13.8582 23.5296 27.6999 16.9164 41.8749C 13.6707 43.9827 10.2535 43.9378 6.67953 41.8749C 2.95434 37.6053 0.853844 33.2719 0 28.8898L 33.1598 0Z"/>
<path id="path5_stroke" d="M 33.1598 0L 33.273 0.0397208C 33.291 -0.0116747 33.2722 -0.0687663 33.2271 -0.0993282C 33.182 -0.12989 33.122 -0.126256 33.0809 -0.090478L 33.1598 0ZM 16.9164 41.8749L 16.9818 41.9755C 17.0007 41.9633 17.0157 41.946 17.0252 41.9256L 16.9164 41.8749ZM 6.67953 41.8749L 6.58911 41.9538C 6.59781 41.9637 6.60809 41.9722 6.61954 41.9788L 6.67953 41.8749ZM 0 28.8898L -0.0788272 28.7993C -0.111131 28.8274 -0.125979 28.8707 -0.117785 28.9127L 0 28.8898ZM 33.0465 -0.0397208C 28.1852 13.8188 23.4183 27.655 16.8077 41.8241L 17.0252 41.9256C 23.6408 27.7449 28.4119 13.8976 33.273 0.0397208L 33.0465 -0.0397208ZM 16.8511 41.7742C 13.6477 43.8546 10.2793 43.8142 6.73952 41.7709L 6.61954 41.9788C 10.2277 44.0615 13.6937 44.1109 16.9818 41.9755L 16.8511 41.7742ZM 6.76995 41.796C 3.05442 37.5391 0.967681 33.234 0.117785 28.8668L -0.117785 28.9127C 0.740008 33.3099 2.85425 37.6715 6.58911 41.9538L 6.76995 41.796ZM 0.0788272 28.9803L 33.2386 0.090478L 33.0809 -0.090478L -0.0788272 28.7993L 0.0788272 28.9803Z"/>
<path id="path6_fill" fill-rule="evenodd" d="M 8.29317 0C 10.9192 2.66986 13.2115 5.72601 14.6444 9.77848C 15.3102 14.5169 15.2678 18.4682 14.6444 21.7734C 13.0068 20.649 11.5573 20.0579 10.3678 20.2087C 11.4743 22.1314 11.9999 24.3785 12.7818 27.7812L 12.6011 36.4765C 8.84088 34.2894 4.47945 34.9275 0 36.1149L 8.29317 0Z"/>
<path id="path7_stroke" d="M 8.29317 0L 8.37872 -0.0841485C 8.34799 -0.115392 8.30267 -0.127398 8.2605 -0.115468C 8.21833 -0.103538 8.18602 -0.0695692 8.17621 -0.0268569L 8.29317 0ZM 14.6444 9.77848L 14.7633 9.76178C 14.7622 9.75384 14.7603 9.74603 14.7576 9.73847L 14.6444 9.77848ZM 14.6444 21.7734L 14.5765 21.8723C 14.61 21.8953 14.6527 21.8998 14.6902 21.8843C 14.7277 21.8688 14.7548 21.8355 14.7624 21.7956L 14.6444 21.7734ZM 10.3678 20.2087L 10.3527 20.0897C 10.3129 20.0947 10.2783 20.1194 10.2604 20.1553C 10.2425 20.1913 10.2438 20.2338 10.2638 20.2686L 10.3678 20.2087ZM 12.7818 27.7812L 12.9018 27.7837C 12.902 27.7738 12.901 27.764 12.8988 27.7543L 12.7818 27.7812ZM 12.6011 36.4765L 12.5408 36.5802C 12.5775 36.6016 12.6228 36.602 12.6599 36.5812C 12.6969 36.5604 12.7202 36.5215 12.7211 36.479L 12.6011 36.4765ZM 0 36.1149L -0.116956 36.0881C -0.126365 36.129 -0.113644 36.1719 -0.0834238 36.2012C -0.0532032 36.2304 -0.00989057 36.2417 0.030748 36.2309L 0 36.1149ZM 8.20762 0.0841485C 10.8283 2.74811 13.1057 5.78266 14.5313 9.81848L 14.7576 9.73847C 13.3173 5.66935 11.0102 2.59161 8.37872 -0.0841485L 8.20762 0.0841485ZM 14.5256 9.79517C 15.1904 14.5246 15.1483 18.4564 14.5265 21.7511L 14.7624 21.7956C 15.3872 18.48 15.4299 14.5092 14.7633 9.76178L 14.5256 9.79517ZM 14.7124 21.6744C 13.0705 20.5472 11.5888 19.9329 10.3527 20.0897L 10.3829 20.3278C 11.5258 20.1829 12.9432 20.7509 14.5765 21.8723L 14.7124 21.6744ZM 10.2638 20.2686C 11.3627 22.1755 11.883 24.4056 12.6649 27.8081L 12.8988 27.7543C 12.1168 24.3514 11.586 22.0874 10.4719 20.1489L 10.2638 20.2686ZM 12.6619 27.7787L 12.4811 36.474L 12.7211 36.479L 12.9018 27.7837L 12.6619 27.7787ZM 12.6615 36.3728C 8.85536 34.159 4.44991 34.8112 -0.030748 35.9989L 0.030748 36.2309C 4.509 35.0438 8.82641 34.4198 12.5408 36.5802L 12.6615 36.3728ZM 0.116956 36.1418L 8.41012 0.0268569L 8.17621 -0.0268569L -0.116956 36.0881L 0.116956 36.1418Z"/>
<path id="path8_fill" fill-rule="evenodd" d="M 15.5346 0C 12.205 1.69932 9.07085 3.87083 6.44053 7.26131C 4.32086 11.5455 3.12086 15.3082 2.67624 18.6426C 4.58181 18.0957 6.14325 17.9953 7.22503 18.5165C 5.57175 19.9894 4.36751 21.9543 2.55821 24.9349L 0 33.2426C 4.25391 32.3615 8.19266 34.3527 12.0704 36.9023L 15.5346 0Z"/>
<path id="path9_stroke" d="M 15.5346 0L 15.6541 0.0112158C 15.6582 -0.032364 15.6382 -0.0747144 15.602 -0.0992939C 15.5658 -0.123873 15.5191 -0.126782 15.4801 -0.106884L 15.5346 0ZM 6.44053 7.26131L 6.34572 7.18776C 6.3408 7.1941 6.33653 7.20091 6.33297 7.2081L 6.44053 7.26131ZM 2.67624 18.6426L 2.55729 18.6268C 2.55194 18.6669 2.56719 18.707 2.59784 18.7335C 2.6285 18.7599 2.67043 18.7691 2.70935 18.758L 2.67624 18.6426ZM 7.22503 18.5165L 7.30486 18.6061C 7.33481 18.5794 7.34944 18.5395 7.34387 18.4998C 7.3383 18.4601 7.31325 18.4258 7.27712 18.4084L 7.22503 18.5165ZM 2.55821 24.9349L 2.45563 24.8726C 2.4505 24.8811 2.44644 24.8901 2.44353 24.8996L 2.55821 24.9349ZM 0 33.2426L -0.114686 33.2073C -0.127173 33.2479 -0.117317 33.292 -0.088765 33.3234C -0.0602128 33.3548 -0.017209 33.3687 0.0243389 33.3601L 0 33.2426ZM 12.0704 36.9023L 12.0044 37.0026C 12.0396 37.0257 12.0844 37.0287 12.1223 37.0105C 12.1603 36.9923 12.1859 36.9555 12.1898 36.9135L 12.0704 36.9023ZM 15.4801 -0.106884C 12.1434 1.59633 8.98831 3.78372 6.34572 7.18776L 6.53534 7.33487C 9.15339 3.95794 12.2666 1.80231 15.5892 0.106884L 15.4801 -0.106884ZM 6.33297 7.2081C 4.2096 11.5006 3.00377 15.2819 2.55729 18.6268L 2.79519 18.6585C 3.23796 15.3344 4.43211 11.5905 6.54809 7.31453L 6.33297 7.2081ZM 2.70935 18.758C 4.60978 18.2125 6.13346 18.1238 7.17295 18.6246L 7.27712 18.4084C 6.15305 17.8668 4.55383 17.9789 2.64313 18.5273L 2.70935 18.758ZM 7.14521 18.4269C 5.47969 19.9125 4.26507 21.8918 2.45563 24.8726L 2.66079 24.9972C 4.46996 22.0168 5.6638 20.0664 7.30486 18.6061L 7.14521 18.4269ZM 2.44353 24.8996L -0.114686 33.2073L 0.114686 33.2779L 2.6729 24.9702L 2.44353 24.8996ZM 0.0243389 33.3601C 4.22625 32.4898 8.12768 34.4536 12.0044 37.0026L 12.1363 36.8021C 8.25765 34.2518 4.28158 32.2332 -0.0243389 33.1251L 0.0243389 33.3601ZM 12.1898 36.9135L 15.6541 0.0112158L 15.4151 -0.0112158L 11.9509 36.8911L 12.1898 36.9135Z"/>
<path id="path10_fill" fill-rule="evenodd" d="M 1.03273 5.7761C 4.53662 3.07693 8.70626 1.00598 14.0045 0C 12.0718 2.54815 11.0207 5.0835 11.5518 7.59528C 15.8192 3.68789 20.566 1.07722 26.0708 0.520799C 24.0386 3.87176 23.1774 7.20547 23.7472 10.5182C 25.9786 9.51947 28.5033 9.14265 31.4244 9.6102C 33.4659 10.3766 34.6609 11.403 35.1035 12.6619C 31.5498 13.0857 29.0657 14.2337 26.9726 15.6472L 0 8.37286L 1.03273 5.7761Z"/>
<path id="path11_stroke" d="M 1.03273 5.7761L 0.959496 5.68104C 0.942412 5.6942 0.929191 5.71172 0.921222 5.73175L 1.03273 5.7761ZM 14.0045 0L 14.1001 0.0725168C 14.1301 0.0329545 14.1327 -0.0210022 14.1065 -0.0632096C 14.0804 -0.105417 14.0309 -0.127156 13.9821 -0.117894L 14.0045 0ZM 11.5518 7.59528L 11.4344 7.6201C 11.4433 7.66225 11.4741 7.69638 11.5151 7.70954C 11.5561 7.7227 11.6011 7.71287 11.6328 7.68378L 11.5518 7.59528ZM 26.0708 0.520799L 26.1734 0.583026C 26.197 0.544118 26.1966 0.49521 26.1723 0.456733C 26.148 0.418256 26.104 0.396831 26.0588 0.401407L 26.0708 0.520799ZM 23.7472 10.5182L 23.6289 10.5386C 23.6352 10.5751 23.658 10.6067 23.6907 10.6241C 23.7234 10.6415 23.7624 10.6429 23.7962 10.6277L 23.7472 10.5182ZM 31.4244 9.6102L 31.4666 9.49785C 31.4591 9.49503 31.4513 9.49297 31.4434 9.4917L 31.4244 9.6102ZM 35.1035 12.6619L 35.1177 12.781C 35.1539 12.7767 35.1861 12.7562 35.2054 12.7253C 35.2246 12.6944 35.2288 12.6564 35.2167 12.6221L 35.1035 12.6619ZM 26.9726 15.6472L 26.9414 15.763C 26.975 15.7721 27.0109 15.7661 27.0398 15.7466L 26.9726 15.6472ZM 0 8.37286L -0.111505 8.32851C -0.124154 8.36032 -0.12262 8.39601 -0.107289 8.42661C -0.0919593 8.45721 -0.064292 8.47981 -0.0312466 8.48872L 0 8.37286ZM 1.10596 5.87116C 4.60023 3.17868 8.7445 1.11972 14.0269 0.117894L 13.9821 -0.117894C 8.66802 0.892231 4.47301 2.97517 0.959496 5.68104L 1.10596 5.87116ZM 13.9089 -0.0725168C 11.9686 2.48566 10.8925 5.05728 11.4344 7.6201L 11.6692 7.57045C 11.1489 5.10971 12.1751 2.61063 14.1001 0.0725168L 13.9089 -0.0725168ZM 11.6328 7.68378C 15.8891 3.78541 20.6017 1.1918 26.0829 0.640191L 26.0588 0.401407C 20.5304 0.962644 15.7492 3.59038 11.4708 7.50677L 11.6328 7.68378ZM 25.9682 0.458572C 23.9254 3.82696 23.0529 7.18987 23.6289 10.5386L 23.8655 10.4979C 23.3018 7.22106 24.1517 3.91656 26.1734 0.583026L 25.9682 0.458572ZM 23.7962 10.6277C 26.0123 9.63465 28.5026 9.26264 31.4055 9.72869L 31.4434 9.4917C 28.5039 9.02265 25.9449 9.40429 23.6982 10.4087L 23.7962 10.6277ZM 31.3822 9.72254C 33.4086 10.4833 34.5647 11.4911 34.9903 12.7017L 35.2167 12.6221C 34.7572 11.315 33.5232 10.27 31.4666 9.49785L 31.3822 9.72254ZM 35.0893 12.5427C 31.5171 12.9702 29.0068 14.1292 26.9055 15.5477L 27.0398 15.7466C 29.1247 14.3383 31.5825 13.2011 35.1177 12.781L 35.0893 12.5427ZM 27.0039 15.5313L 0.0312466 8.257L -0.0312466 8.48872L 26.9414 15.763L 27.0039 15.5313ZM 0.111505 8.4172L 1.14423 5.82045L 0.921222 5.73175L -0.111505 8.32851L 0.111505 8.4172Z"/>
<path id="path12_fill" fill-rule="evenodd" d="M 11.2549 4.47902C 10.6961 6.22677 10.0193 7.89047 9.18574 9.30666L 0 0L 11.2549 4.47902Z"/>
<path id="path13_stroke" d="M 11.2549 4.47902L 11.3692 4.51556C 11.3884 4.45551 11.3578 4.39084 11.2993 4.36752L 11.2549 4.47902ZM 9.18574 9.30666L 9.10033 9.39096C 9.12651 9.41748 9.16353 9.43034 9.20051 9.42575C 9.2375 9.42116 9.27025 9.39965 9.28916 9.36753L 9.18574 9.30666ZM 0 0L 0.044371 -0.111495C -0.00839152 -0.132493 -0.0686487 -0.113632 -0.100023 -0.0662982C -0.131397 -0.0189649 -0.125297 0.0438799 -0.0854058 0.0842962L 0 0ZM 11.1406 4.44248C 10.5833 6.18585 9.91173 7.83728 9.08232 9.24579L 9.28916 9.36753C 10.1269 7.94365 10.8089 6.26768 11.3692 4.51556L 11.1406 4.44248ZM 9.27115 9.22236L 0.0854058 -0.0842962L -0.0854058 0.0842962L 9.10033 9.39096L 9.27115 9.22236ZM -0.044371 0.111495L 11.2105 4.59051L 11.2993 4.36752L 0.044371 -0.111495L -0.044371 0.111495Z"/>
<path id="path14_fill" fill-rule="evenodd" d="M 0 4.47902C 0.556935 6.22658 1.23374 7.89028 2.06914 9.30666L 11.2549 0L 0 4.47902Z"/>
<path id="path15_stroke" d="M 0 4.47902L -0.044371 4.36752C -0.102912 4.39082 -0.133466 4.45543 -0.114334 4.51546L 0 4.47902ZM 2.06914 9.30666L 1.96578 9.36762C 1.98471 9.39971 2.01746 9.42118 2.05442 9.42575C 2.09139 9.43032 2.12838 9.41747 2.15455 9.39096L 2.06914 9.30666ZM 11.2549 0L 11.3403 0.0842962C 11.3802 0.0438799 11.3863 -0.0189649 11.3549 -0.0662982C 11.3235 -0.113632 11.2633 -0.132493 11.2105 -0.111495L 11.2549 0ZM -0.114334 4.51546C 0.444105 6.26744 1.12619 7.94351 1.96578 9.36762L 2.1725 9.2457C 1.34129 7.83705 0.669765 6.18572 0.114334 4.44258L -0.114334 4.51546ZM 2.15455 9.39096L 11.3403 0.0842962L 11.1695 -0.0842962L 1.98374 9.22236L 2.15455 9.39096ZM 11.2105 -0.111495L -0.044371 4.36752L 0.044371 4.59051L 11.2993 0.111495L 11.2105 -0.111495Z"/>
<path id="path16_fill" fill-rule="evenodd" d="M 28.5715 0C 44.339 0 57.1412 12.8797 57.1412 28.7439C 57.1412 44.608 44.339 57.4877 28.5715 57.4877C 12.8021 57.4877 0 44.608 0 28.7439C 0 12.8797 12.8021 0 28.5715 0Z"/>
<path id="path17_fill" fill-rule="evenodd" d="M 17.0732 0C 26.495 0 34.1464 7.69695 34.1464 17.1773C 34.1464 26.6576 26.495 34.3544 17.0732 34.3544C 7.64956 34.3544 0 26.6576 0 17.1773C 0 7.69695 7.64956 0 17.0732 0Z"/>
<path id="path18_stroke" d="M 17.0732 0.12C 26.428 0.12 34.0264 7.76254 34.0264 17.1773L 34.2664 17.1773C 34.2664 7.63136 26.5619 -0.12 17.0732 -0.12L 17.0732 0.12ZM 34.0264 17.1773C 34.0264 26.592 26.428 34.2344 17.0732 34.2344L 17.0732 34.4744C 26.5619 34.4744 34.2664 26.7232 34.2664 17.1773L 34.0264 17.1773ZM 17.0732 34.2344C 7.71652 34.2344 0.12 26.592 0.12 17.1773L -0.12 17.1773C -0.12 26.7232 7.5826 34.4744 17.0732 34.4744L 17.0732 34.2344ZM 0.12 17.1773C 0.12 7.76254 7.71652 0.12 17.0732 0.12L 17.0732 -0.12C 7.58259 -0.12 -0.12 7.63137 -0.12 17.1773L 0.12 17.1773Z"/>
<path id="path19_fill" fill-rule="evenodd" d="M 10.0451 0C 15.5886 0 20.0884 4.52819 20.0884 10.1058C 20.0884 15.6832 15.5886 20.2115 10.0451 20.2115C 4.49974 20.2115 0 15.6832 0 10.1058C 0 4.52819 4.49974 0 10.0451 0Z"/>
<path id="path20_fill" fill-rule="evenodd" d="M 39.0998 12.0954C 36.778 7.31157 32.778 3.56226 27.8707 1.57035C 16.9035 -2.88121 4.42597 2.45498 0 13.4892C 4.42597 2.45498 16.9035 -2.88121 27.8707 1.57035C 32.778 3.56226 36.778 7.31157 39.0998 12.0954Z"/>
<path id="path21_stroke" d="M 38.56 12.3574C 38.7047 12.6555 39.0637 12.7799 39.3618 12.6352C 39.6599 12.4905 39.7843 12.1316 39.6396 11.8334L 38.56 12.3574ZM 27.8707 1.57035L 28.0964 1.0144L 28.0964 1.0144L 27.8707 1.57035ZM -0.556872 13.2658C -0.680235 13.5733 -0.530921 13.9227 -0.223369 14.046C 0.0841823 14.1694 0.433508 14.0201 0.556872 13.7125L -0.556872 13.2658ZM 27.8707 1.57035L 28.0964 1.0144L 28.0964 1.0144L 27.8707 1.57035ZM 39.6396 11.8334C 37.2611 6.95576 33.1015 3.0569 28.0964 1.0144L 27.6451 2.12629C 32.4546 4.06762 36.2949 7.66737 38.56 12.3574L 39.6396 11.8334ZM 28.0964 1.0144C 16.8189 -3.56311 3.99188 1.92552 -0.556872 13.2658L 0.556872 13.7125C 4.86007 2.98444 16.9882 -2.19932 27.6451 2.12629L 28.0964 1.0144ZM 0.556872 13.7125C 4.86007 2.98444 16.9882 -2.19932 27.6451 2.12629L 28.0964 1.0144C 16.8189 -3.56311 3.99188 1.92552 -0.556872 13.2658L 0.556872 13.7125ZM 27.6451 2.12629C 32.4546 4.06762 36.2949 7.66737 38.56 12.3574L 39.6396 11.8334C 37.2611 6.95576 33.1015 3.0569 28.0964 1.0144L 27.6451 2.12629Z"/>
<path id="path22_fill" fill-rule="evenodd" d="M 4.00675 0C 3.64898 4.81447 -0.522498 8.52017 0.0547225 12.9908C 0.578463 17.0413 7.71166 17.7168 8.10631 12.9908C 8.49542 8.31609 6.08142 4.18624 4.00675 0Z"/>
<path id="path23_stroke" d="M 4.00675 0L 4.11427 -0.0532863C 4.09026 -0.101737 4.03681 -0.128143 3.98374 -0.117773C 3.93067 -0.107403 3.89109 -0.0628184 3.88708 -0.00889276L 4.00675 0ZM 0.0547225 12.9908L -0.0642896 13.0062L -0.0642867 13.0062L 0.0547225 12.9908ZM 8.10631 12.9908L 8.22589 13.0008L 8.22589 13.0008L 8.10631 12.9908ZM 3.88708 -0.00889276C 3.71258 2.37391 2.5886 4.48286 1.57221 6.57185C 0.557991 8.65641 -0.358059 10.7309 -0.0642896 13.0062L 0.173735 12.9755C -0.109717 10.7801 0.771363 8.76642 1.78802 6.67685C 2.8025 4.5917 3.94315 2.44056 4.12642 0.00889276L 3.88708 -0.00889276ZM -0.0642867 13.0062C 0.207619 15.1091 2.18976 16.3158 4.12359 16.4019C 5.09433 16.4451 6.06778 16.2082 6.82644 15.6509C 7.58797 15.0916 8.12446 14.2154 8.22589 13.0008L 7.98672 12.9809C 7.89083 14.1292 7.38768 14.9409 6.68437 15.4575C 5.97819 15.9762 5.06162 16.2034 4.13426 16.1621C 2.27189 16.0793 0.425566 14.9231 0.173732 12.9755L -0.0642867 13.0062ZM 8.22589 13.0008C 8.61847 8.28451 6.18177 4.11847 4.11427 -0.0532863L 3.89923 0.0532863C 5.98108 4.25402 8.37238 8.34766 7.98672 12.9809L 8.22589 13.0008Z"/>
</defs>
</svg>
