<svg width="141" height="140" viewBox="0 0 141 140" version="1.1" xmlns="http://www.w3.org/2000/svg" xmlns:xlink="http://www.w3.org/1999/xlink">
<title>Group 67</title>
<desc>Created using Figma</desc>
<g id="Canvas" transform="translate(214 -1620)">
<g id="Group 67">
<g id="Fill 23">
<use xlink:href="#path0_fill" transform="translate(-203.88 1626.56)" fill="#79CE4D"/>
</g>
<g id="Stroke 24">
<use xlink:href="#path1_stroke" transform="translate(-203.88 1626.56)" fill="#79CE4D"/>
</g>
<g id="Fill 25">
<use xlink:href="#path2_fill" transform="translate(-196.584 1716.27)" fill="#79CE4D"/>
</g>
<g id="Stroke 26">
<use xlink:href="#path3_stroke" transform="translate(-196.584 1716.27)" fill="#79CE4D"/>
</g>
<g id="Fill 27">
<use xlink:href="#path4_fill" transform="translate(-118.84 1716.27)" fill="#79CE4D"/>
</g>
<g id="Stroke 28">
<use xlink:href="#path5_stroke" transform="translate(-118.84 1716.27)" fill="#79CE4D"/>
</g>
<g id="Fill 29">
<use xlink:href="#path6_fill" transform="translate(-88.6364 1679.25)" fill="#79CE4D"/>
</g>
<g id="Stroke 30">
<use xlink:href="#path7_stroke" transform="translate(-88.6364 1679.25)" fill="#79CE4D"/>
</g>
<g id="Fill 31">
<use xlink:href="#path8_fill" transform="translate(-213.765 1664.72)" fill="#79CE4D"/>
</g>
<g id="Stroke 32">
<use xlink:href="#path9_stroke" transform="translate(-213.765 1664.72)" fill="#79CE4D"/>
</g>
<g id="Fill 33">
<use xlink:href="#path10_fill" transform="translate(-142.943 1620.96)" fill="#79CE4D"/>
</g>
<g id="Stroke 34">
<use xlink:href="#path11_stroke" transform="translate(-142.943 1620.96)" fill="#79CE4D"/>
</g>
<g id="Fill 35">
<use xlink:href="#path12_fill" transform="translate(-175.472 1743.08)" fill="#4A8C27"/>
</g>
<g id="Stroke 36">
<use xlink:href="#path13_stroke" transform="translate(-175.472 1743.08)" fill="#4A8D26"/>
</g>
<g id="Fill 37">
<use xlink:href="#path14_fill" transform="translate(-118.307 1742.8)" fill="#4A8C27"/>
</g>
<g id="Stroke 38">
<use xlink:href="#path15_stroke" transform="translate(-118.307 1742.8)" fill="#4A8D26"/>
</g>
<g id="Fill 39">
<use xlink:href="#path16_fill" transform="translate(-168.173 1650.45)" fill="#EEEEEE"/>
</g>
<g id="Fill 40">
<use xlink:href="#path17_fill" transform="translate(-156.344 1661.6)" fill="#1A1A1B"/>
</g>
<g id="Stroke 41">
<use xlink:href="#path18_stroke" transform="translate(-156.344 1661.6)" fill="#1A1A1B"/>
</g>
<g id="Fill 42">
<use xlink:href="#path19_fill" transform="translate(-138.426 1657.53)" fill="#F9F9F9"/>
</g>
<g id="Fill 43">
<use xlink:href="#path20_fill" transform="translate(-166.318 1714.28)" fill="#A82670"/>
</g>
<g id="Stroke 44">
<use xlink:href="#path21_stroke" transform="translate(-166.318 1714.28)" fill="#A82670"/>
</g>
<g id="Fill 45">
<use xlink:href="#path22_fill" transform="translate(-169.457 1711.55)" fill="#A82670"/>
</g>
<g id="Stroke 46">
<use xlink:href="#path23_stroke" transform="translate(-169.457 1711.55)" fill="#A82670"/>
</g>
<g id="Fill 47">
<use xlink:href="#path24_fill" transform="translate(-114.221 1711.55)" fill="#A82670"/>
</g>
<g id="Stroke 48">
<use xlink:href="#path25_stroke" transform="translate(-114.221 1711.55)" fill="#A82670"/>
</g>
<g id="Fill 49">
<use xlink:href="#path26_fill" transform="translate(-143.546 1732.53)" fill="#A82670"/>
</g>
<g id="Stroke 50">
<use xlink:href="#path27_stroke" transform="translate(-143.546 1732.53)" fill="#A82670"/>
</g>
</g>
</g>
<defs>
<path id="path0_fill" fill-rule="evenodd" d="M 62.1978 0C 96.5268 0 124.395 28.0368 124.395 62.5708C 124.395 97.1029 96.5268 125.14 62.1978 125.14C 27.8708 125.14 0 97.1029 0 62.5708C 0 28.0368 27.8708 0 62.1978 0Z"/>
<path id="path1_stroke" d="M 62.1978 0.12C 96.4598 0.12 124.275 28.1024 124.275 62.5708L 124.515 62.5708C 124.515 27.9712 96.5937 -0.12 62.1978 -0.12L 62.1978 0.12ZM 124.275 62.5708C 124.275 97.0373 96.4598 125.02 62.1978 125.02L 62.1978 125.26C 96.5937 125.26 124.515 97.1685 124.515 62.5708L 124.275 62.5708ZM 62.1978 125.02C 27.9377 125.02 0.12 97.0373 0.12 62.5708L -0.12 62.5708C -0.12 97.1685 27.8038 125.26 62.1978 125.26L 62.1978 125.02ZM 0.12 62.5708C 0.12 28.1024 27.9377 0.12 62.1978 0.12L 62.1978 -0.12C 27.8038 -0.12 -0.12 27.9712 -0.12 62.5708L 0.12 62.5708Z"/>
<path id="path2_fill" fill-rule="evenodd" d="M 0 0C 4.82513 13.7587 9.56053 27.5008 16.1271 41.5745C 19.3518 43.6671 22.7431 43.6229 26.2938 41.5745C 29.9909 37.3358 32.0766 33.0326 32.9244 28.6834L 0 0Z"/>
<path id="path3_stroke" d="M 0 0L 0.0788251 -0.0904798C 0.0377596 -0.126256 -0.0222496 -0.129889 -0.0673318 -0.0993299C -0.112414 -0.0687705 -0.131262 -0.0116824 -0.113238 0.0397124L 0 0ZM 16.1271 41.5745L 16.0184 41.6252C 16.0279 41.6456 16.0429 41.6629 16.0618 41.6751L 16.1271 41.5745ZM 26.2938 41.5745L 26.3537 41.6784C 26.3652 41.6718 26.3755 41.6633 26.3842 41.6534L 26.2938 41.5745ZM 32.9244 28.6834L 33.0422 28.7064C 33.0504 28.6643 33.0355 28.6211 33.0032 28.5929L 32.9244 28.6834ZM -0.113238 0.0397124C 4.71178 13.7981 9.44928 27.5458 16.0184 41.6252L 16.2358 41.5237C 9.67178 27.4558 4.93848 13.7193 0.113238 -0.0397124L -0.113238 0.0397124ZM 16.0618 41.6751C 19.3288 43.7952 22.7689 43.7465 26.3537 41.6784L 26.2338 41.4705C 22.7173 43.4992 19.3748 43.539 16.1924 41.4738L 16.0618 41.6751ZM 26.3842 41.6534C 30.091 37.402 32.1904 33.0706 33.0422 28.7064L 32.8066 28.6605C 31.9627 32.9947 29.8908 37.2696 26.2033 41.4956L 26.3842 41.6534ZM 33.0032 28.5929L 0.0788251 -0.0904798L -0.0788251 0.0904798L 32.8456 28.7739L 33.0032 28.5929Z"/>
<path id="path4_fill" fill-rule="evenodd" d="M 32.9262 0C 28.0993 13.7587 23.3639 27.5008 16.7973 41.5745C 13.5745 43.6671 10.1813 43.6229 6.63249 41.5745C 2.93353 37.3358 0.847831 33.0326 0 28.6834L 32.9262 0Z"/>
<path id="path5_stroke" d="M 32.9262 0L 33.0395 0.0397258C 33.0575 -0.0116688 33.0387 -0.0687611 32.9936 -0.099325C 32.9485 -0.129889 32.8885 -0.126258 32.8474 -0.090482L 32.9262 0ZM 16.7973 41.5745L 16.8627 41.6751C 16.8815 41.6629 16.8966 41.6456 16.9061 41.6252L 16.7973 41.5745ZM 6.63249 41.5745L 6.54208 41.6534C 6.55077 41.6633 6.56105 41.6718 6.5725 41.6784L 6.63249 41.5745ZM 0 28.6834L -0.0788226 28.5929C -0.111132 28.6211 -0.125982 28.6643 -0.117783 28.7064L 0 28.6834ZM 32.813 -0.0397258C 27.9859 13.7193 23.2526 27.4558 16.6886 41.5237L 16.9061 41.6252C 23.4751 27.5458 28.2126 13.7981 33.0395 0.0397258L 32.813 -0.0397258ZM 16.732 41.4738C 13.5515 43.539 10.2071 43.4992 6.69248 41.4705L 6.5725 41.6784C 10.1555 43.7466 13.5974 43.7953 16.8627 41.6751L 16.732 41.4738ZM 6.72291 41.4956C 3.03362 37.2696 0.961667 32.9947 0.117783 28.6605L -0.117783 28.7064C 0.733996 33.0706 2.83345 37.402 6.54208 41.6534L 6.72291 41.4956ZM 0.0788226 28.7739L 33.0051 0.090482L 32.8474 -0.090482L -0.0788226 28.5929L 0.0788226 28.7739Z"/>
<path id="path6_fill" fill-rule="evenodd" d="M 8.23477 0C 10.8424 2.65079 13.1185 5.68474 14.5413 9.70789C 15.2024 14.4126 15.1602 18.3363 14.5413 21.6171C 12.9152 20.5008 11.4759 19.915 10.2948 20.0642C 11.3935 21.9726 11.9154 24.2034 12.6918 27.5818L 12.5124 36.2158C 8.77862 34.0439 4.44791 34.6776 0 35.8566L 8.23477 0Z"/>
<path id="path7_stroke" d="M 8.23477 0L 8.32031 -0.0841528C 8.28958 -0.115393 8.24426 -0.127398 8.2021 -0.115468C 8.15993 -0.103537 8.12762 -0.0695702 8.11781 -0.0268598L 8.23477 0ZM 14.5413 9.70789L 14.6601 9.6912C 14.659 9.68326 14.6571 9.67545 14.6544 9.66788L 14.5413 9.70789ZM 14.5413 21.6171L 14.4734 21.716C 14.5068 21.739 14.5496 21.7435 14.5871 21.728C 14.6246 21.7126 14.6517 21.6792 14.6592 21.6394L 14.5413 21.6171ZM 10.2948 20.0642L 10.2798 19.9452C 10.2399 19.9502 10.2053 19.9748 10.1874 20.0108C 10.1695 20.0468 10.1708 20.0893 10.1908 20.1241L 10.2948 20.0642ZM 12.6918 27.5818L 12.8118 27.5843C 12.812 27.5745 12.811 27.5646 12.8088 27.555L 12.6918 27.5818ZM 12.5124 36.2158L 12.452 36.3195C 12.4888 36.3409 12.5341 36.3412 12.5711 36.3204C 12.6082 36.2996 12.6315 36.2608 12.6324 36.2183L 12.5124 36.2158ZM 0 35.8566L -0.116955 35.8297C -0.126366 35.8707 -0.113646 35.9136 -0.083426 35.9428C -0.053206 35.9721 -0.00989374 35.9833 0.0307451 35.9726L 0 35.8566ZM 8.14922 0.0841528C 10.7514 2.72905 13.0127 5.7414 14.4282 9.7479L 14.6544 9.66788C 13.2243 5.62807 10.9333 2.57253 8.32031 -0.0841528L 8.14922 0.0841528ZM 14.4225 9.72459C 15.0826 14.4204 15.0408 18.3245 14.4234 21.5949L 14.6592 21.6394C 15.2797 18.3481 15.3221 14.4049 14.6601 9.6912L 14.4225 9.72459ZM 14.6092 21.5182C 12.9788 20.3989 11.5074 19.7901 10.2798 19.9452L 10.3099 20.1833C 11.4445 20.0399 12.8517 20.6027 14.4734 21.716L 14.6092 21.5182ZM 10.1908 20.1241C 11.2819 22.0167 11.7985 24.2305 12.5749 27.6087L 12.8088 27.555C 12.0323 24.1763 11.5051 21.9286 10.3988 20.0043L 10.1908 20.1241ZM 12.5719 27.5793L 12.3924 36.2133L 12.6324 36.2183L 12.8118 27.5843L 12.5719 27.5793ZM 12.5727 36.1121C 8.7931 33.9135 4.41836 34.5613 -0.0307451 35.7406L 0.0307451 35.9726C 4.47746 34.7939 8.76415 34.1744 12.452 36.3195L 12.5727 36.1121ZM 0.116955 35.8834L 8.35172 0.0268598L 8.11781 -0.0268598L -0.116955 35.8297L 0.116955 35.8834Z"/>
<path id="path8_fill" fill-rule="evenodd" d="M 15.4252 0C 12.119 1.68737 9.00697 3.84263 6.39517 7.21C 4.29043 11.4634 3.09889 15.1992 2.65739 18.5095C 4.54954 17.9661 6.09999 17.8666 7.17415 18.3842C 5.53251 19.8468 4.33676 21.7976 2.5402 24.7579L 0 33.005C 4.22396 32.13 8.13497 34.1084 11.9854 36.6395L 15.4252 0Z"/>
<path id="path9_stroke" d="M 15.4252 0L 15.5447 0.0112167C 15.5488 -0.0323633 15.5288 -0.0747141 15.4926 -0.0992937C 15.4564 -0.123873 15.4097 -0.126782 15.3707 -0.106884L 15.4252 0ZM 6.39517 7.21L 6.30035 7.13645C 6.29544 7.14279 6.29118 7.1496 6.28762 7.15678L 6.39517 7.21ZM 2.65739 18.5095L 2.53845 18.4936C 2.53309 18.5337 2.54834 18.5739 2.579 18.6003C 2.60966 18.6268 2.6516 18.636 2.69052 18.6248L 2.65739 18.5095ZM 7.17415 18.3842L 7.25398 18.4738C 7.28392 18.4471 7.29856 18.4073 7.29299 18.3675C 7.28742 18.3278 7.26238 18.2935 7.22625 18.2761L 7.17415 18.3842ZM 2.5402 24.7579L 2.43761 24.6956C 2.43249 24.7041 2.42842 24.7131 2.42551 24.7226L 2.5402 24.7579ZM 0 33.005L -0.114683 32.9697C -0.127174 33.0102 -0.11732 33.0544 -0.088767 33.0858C -0.0602143 33.1171 -0.0172082 33.1311 0.0243414 33.1225L 0 33.005ZM 11.9854 36.6395L 11.9194 36.7397C 11.9546 36.7629 11.9994 36.7659 12.0373 36.7476C 12.0753 36.7294 12.1009 36.6926 12.1048 36.6507L 11.9854 36.6395ZM 15.3707 -0.106884C 12.0575 1.58437 8.92444 3.75552 6.30035 7.13645L 6.49 7.28355C 9.0895 3.92974 12.1806 1.79037 15.4798 0.106884L 15.3707 -0.106884ZM 6.28762 7.15678C 4.17917 11.4185 2.9818 15.1729 2.53845 18.4936L 2.77634 18.5253C 3.21598 15.2255 4.40168 11.5084 6.50273 7.26322L 6.28762 7.15678ZM 2.69052 18.6248C 4.57751 18.0829 6.09019 17.9951 7.12206 18.4923L 7.22625 18.2761C 6.10979 17.7381 4.52157 17.8492 2.62427 18.3941L 2.69052 18.6248ZM 7.09433 18.2946C 5.44046 19.7699 4.23431 21.7351 2.43761 24.6956L 2.64278 24.8202C 4.43921 21.8601 5.62457 19.9238 7.25398 18.4738L 7.09433 18.2946ZM 2.42551 24.7226L -0.114683 32.9697L 0.114683 33.0403L 2.65488 24.7932L 2.42551 24.7226ZM 0.0243414 33.1225C 4.19628 32.2583 8.06995 34.2093 11.9194 36.7397L 12.0513 36.5392C 8.19998 34.0076 4.25163 32.0017 -0.0243414 32.8875L 0.0243414 33.1225ZM 12.1048 36.6507L 15.5447 0.0112167L 15.3057 -0.0112167L 11.8659 36.6283L 12.1048 36.6507Z"/>
<path id="path10_fill" fill-rule="evenodd" d="M 1.02545 5.73447C 4.50468 3.05421 8.64495 0.998421 13.9059 0C 11.9868 2.52921 10.9431 5.04737 11.4704 7.54158C 15.7078 3.66211 20.4212 1.07026 25.8872 0.517632C 23.8693 3.84447 23.0141 7.15474 23.58 10.4429C 25.7957 9.45184 28.3025 9.0779 31.2031 9.54211C 33.2302 10.3029 34.4168 11.3216 34.8563 12.5724C 31.3276 12.9924 28.8611 14.1326 26.7827 15.5363L 0 8.31342L 1.02545 5.73447Z"/>
<path id="path11_stroke" d="M 1.02545 5.73447L 0.952222 5.63941C 0.935137 5.65257 0.921915 5.67009 0.913946 5.69014L 1.02545 5.73447ZM 13.9059 0L 14.0015 0.0725349C 14.0315 0.0329765 14.0341 -0.0209826 14.0079 -0.0631955C 13.9818 -0.105408 13.9323 -0.127154 13.8835 -0.117896L 13.9059 0ZM 11.4704 7.54158L 11.353 7.5664C 11.3619 7.60854 11.3928 7.64268 11.4338 7.65584C 11.4748 7.669 11.5197 7.65917 11.5515 7.63009L 11.4704 7.54158ZM 25.8872 0.517632L 25.9898 0.579866C 26.0134 0.540957 26.013 0.492047 25.9887 0.453568C 25.9644 0.415089 25.9204 0.393663 25.8752 0.39824L 25.8872 0.517632ZM 23.58 10.4429L 23.4617 10.4632C 23.468 10.4998 23.4908 10.5313 23.5235 10.5488C 23.5562 10.5662 23.5951 10.5676 23.629 10.5524L 23.58 10.4429ZM 31.2031 9.54211L 31.2453 9.42976C 31.2378 9.42694 31.23 9.42488 31.2221 9.42361L 31.2031 9.54211ZM 34.8563 12.5724L 34.8705 12.6915C 34.9066 12.6872 34.9389 12.6667 34.9581 12.6358C 34.9774 12.6049 34.9816 12.5669 34.9695 12.5326L 34.8563 12.5724ZM 26.7827 15.5363L 26.7514 15.6522C 26.7851 15.6612 26.821 15.6553 26.8498 15.6358L 26.7827 15.5363ZM 0 8.31342L -0.111508 8.26908C -0.124154 8.30089 -0.122618 8.33657 -0.107288 8.36717C -0.0919569 8.39777 -0.0642902 8.42037 -0.0312459 8.42928L 0 8.31342ZM 1.09869 5.82954C 4.56828 3.15597 8.68318 1.11217 13.9283 0.117896L 13.8835 -0.117896C 8.60672 0.884673 4.44107 2.95245 0.952222 5.63941L 1.09869 5.82954ZM 13.8103 -0.0725349C 11.8836 2.46673 10.8149 5.02115 11.353 7.5664L 11.5878 7.51675C 11.0713 5.07358 12.0901 2.59169 14.0015 0.0725349L 13.8103 -0.0725349ZM 11.5515 7.63009C 15.7777 3.75963 20.4569 1.18484 25.8993 0.637023L 25.8752 0.39824C 20.3855 0.955685 15.6378 3.56458 11.3894 7.45307L 11.5515 7.63009ZM 25.7846 0.455397C 23.7561 3.79967 22.8897 7.13914 23.4617 10.4632L 23.6982 10.4225C 23.1386 7.17033 23.9825 3.88928 25.9898 0.579866L 25.7846 0.455397ZM 23.629 10.5524C 25.8293 9.56702 28.3019 9.19789 31.1842 9.6606L 31.2221 9.42361C 28.3032 8.9579 25.762 9.33666 23.531 10.3334L 23.629 10.5524ZM 31.161 9.65445C 33.1729 10.4096 34.3206 11.4096 34.7431 12.6121L 34.9695 12.5326C 34.5131 11.2335 33.2875 10.1962 31.2453 9.42976L 31.161 9.65445ZM 34.8421 12.4532C 31.295 12.8769 28.8021 14.0281 26.7155 15.4369L 26.8498 15.6358C 28.92 14.2372 31.3603 13.1078 34.8705 12.6915L 34.8421 12.4532ZM 26.8139 15.4205L 0.0312459 8.19756L -0.0312459 8.42928L 26.7514 15.6522L 26.8139 15.4205ZM 0.111508 8.35776L 1.13696 5.77881L 0.913946 5.69014L -0.111508 8.26908L 0.111508 8.35776Z"/>
<path id="path12_fill" fill-rule="evenodd" d="M 11.1756 4.44684C 10.6208 6.18211 9.94874 7.83447 9.12105 9.24L 0 0L 11.1756 4.44684Z"/>
<path id="path13_stroke" d="M 11.1756 4.44684L 11.2899 4.48339C 11.3091 4.42333 11.2786 4.35866 11.22 4.33534L 11.1756 4.44684ZM 9.12105 9.24L 9.03565 9.3243C 9.06183 9.35082 9.09884 9.36367 9.13582 9.35909C 9.1728 9.3545 9.20555 9.333 9.22445 9.30089L 9.12105 9.24ZM 0 0L 0.0443655 -0.111498C -0.00839826 -0.132493 -0.0686548 -0.113628 -0.100026 -0.0662927C -0.131398 -0.0189575 -0.125294 0.0438873 -0.0854007 0.0843013L 0 0ZM 11.0613 4.4103C 10.508 6.1412 9.84117 7.78128 9.01765 9.17911L 9.22445 9.30089C 10.0563 7.88767 10.7336 6.22301 11.2899 4.48339L 11.0613 4.4103ZM 9.20645 9.1557L 0.0854007 -0.0843013L -0.0854007 0.0843013L 9.03565 9.3243L 9.20645 9.1557ZM -0.0443655 0.111498L 11.1313 4.55834L 11.22 4.33534L 0.0443655 -0.111498L -0.0443655 0.111498Z"/>
<path id="path14_fill" fill-rule="evenodd" d="M 0 4.44684C 0.553013 6.18211 1.22505 7.83263 2.05457 9.24L 11.1756 0L 0 4.44684Z"/>
<path id="path15_stroke" d="M 0 4.44684L -0.0443655 4.33534C -0.10291 4.35864 -0.133466 4.42325 -0.114334 4.48328L 0 4.44684ZM 2.05457 9.24L 1.95119 9.30093C 1.97011 9.33303 2.00286 9.35451 2.03983 9.35909C 2.0768 9.36367 2.1138 9.35081 2.13997 9.3243L 2.05457 9.24ZM 11.1756 0L 11.261 0.0843013C 11.3009 0.0438873 11.307 -0.0189575 11.2756 -0.0662927C 11.2443 -0.113628 11.184 -0.132493 11.1313 -0.111498L 11.1756 0ZM -0.114334 4.48328C 0.440189 6.22298 1.11751 7.88587 1.95119 9.30093L 2.15795 9.17907C 1.3326 7.7794 0.665836 6.14123 0.114334 4.4104L -0.114334 4.48328ZM 2.13997 9.3243L 11.261 0.0843013L 11.0902 -0.0843013L 1.96917 9.1557L 2.13997 9.3243ZM 11.1313 -0.111498L -0.0443655 4.33534L 0.0443655 4.55834L 11.22 0.111498L 11.1313 -0.111498Z"/>
<path id="path16_fill" fill-rule="evenodd" d="M 28.3703 0C 44.0268 0 56.7388 12.7879 56.7388 28.5379C 56.7388 44.2897 44.0268 57.0758 28.3703 57.0758C 12.712 57.0758 0 44.2897 0 28.5379C 0 12.7879 12.712 0 28.3703 0Z"/>
<path id="path17_fill" fill-rule="evenodd" d="M 16.953 0C 26.3084 0 33.9059 7.64105 33.9059 17.0542C 33.9059 26.4674 26.3084 34.1084 16.953 34.1084C 7.59569 34.1084 0 26.4674 0 17.0542C 0 7.64105 7.59569 0 16.953 0Z"/>
<path id="path18_stroke" d="M 16.953 0.12C 26.2415 0.12 33.7859 7.70666 33.7859 17.0542L 34.0259 17.0542C 34.0259 7.57545 26.3753 -0.12 16.953 -0.12L 16.953 0.12ZM 33.7859 17.0542C 33.7859 26.4018 26.2415 33.9884 16.953 33.9884L 16.953 34.2284C 26.3753 34.2284 34.0259 26.533 34.0259 17.0542L 33.7859 17.0542ZM 16.953 33.9884C 7.66263 33.9884 0.12 26.4018 0.12 17.0542L -0.12 17.0542C -0.12 26.533 7.52874 34.2284 16.953 34.2284L 16.953 33.9884ZM 0.12 17.0542C 0.12 7.70665 7.66263 0.12 16.953 0.12L 16.953 -0.12C 7.52874 -0.12 -0.12 7.57545 -0.12 17.0542L 0.12 17.0542Z"/>
<path id="path19_fill" fill-rule="evenodd" d="M 9.97438 0C 15.4789 0 19.9469 4.49658 19.9469 10.0339C 19.9469 15.5713 15.4789 20.0679 9.97438 20.0679C 4.46805 20.0679 0 15.5713 0 10.0339C 0 4.49658 4.46805 0 9.97438 0Z"/>
<path id="path20_fill" fill-rule="evenodd" d="M 0 0C 5.99342 8.81079 15.9238 14.0811 26.5391 14.0811C 37.1544 14.0811 47.0848 8.81079 53.0783 0C 47.0848 8.81079 37.1544 14.0811 26.5391 14.0811C 15.9238 14.0811 5.99342 8.81079 0 0Z"/>
<path id="path21_stroke" d="M 0.496101 -0.337466C 0.309724 -0.611455 -0.0634768 -0.682479 -0.337466 -0.496101C -0.611455 -0.309724 -0.682479 0.0634768 -0.496101 0.337466L 0.496101 -0.337466ZM 53.5744 0.337466C 53.7607 0.0634768 53.6897 -0.309724 53.4157 -0.496101C 53.1417 -0.682479 52.7685 -0.611455 52.5822 -0.337466L 53.5744 0.337466ZM -0.496101 0.337466C 5.60847 9.31166 15.7242 14.6811 26.5391 14.6811L 26.5391 13.4811C 16.1235 13.4811 6.37837 8.30992 0.496101 -0.337466L -0.496101 0.337466ZM 26.5391 14.6811C 37.354 14.6811 47.4698 9.31166 53.5744 0.337466L 52.5822 -0.337466C 46.6999 8.30992 36.9548 13.4811 26.5391 13.4811L 26.5391 14.6811ZM 52.5822 -0.337466C 46.6999 8.30992 36.9548 13.4811 26.5391 13.4811L 26.5391 14.6811C 37.354 14.6811 47.4698 9.31166 53.5744 0.337466L 52.5822 -0.337466ZM 26.5391 13.4811C 16.1235 13.4811 6.37837 8.30992 0.496101 -0.337466L -0.496101 0.337466C 5.60847 9.31166 15.7242 14.6811 26.5391 14.6811L 26.5391 13.4811Z"/>
<path id="path22_fill" fill-rule="evenodd" d="M 0 4.13921L 4.11281 0L 0 4.13921Z"/>
<path id="path23_stroke" d="M -0.425619 3.71631C -0.659183 3.95137 -0.657968 4.33127 -0.422904 4.56483C -0.187841 4.79839 0.192056 4.79718 0.425619 4.56212L -0.425619 3.71631ZM 4.53842 0.422904C 4.77199 0.187841 4.77077 -0.192056 4.53571 -0.425619C 4.30065 -0.659183 3.92075 -0.657968 3.68719 -0.422904L 4.53842 0.422904ZM 0.425619 4.56212L 4.53842 0.422904L 3.68719 -0.422904L -0.425619 3.71631L 0.425619 4.56212Z"/>
<path id="path24_fill" fill-rule="evenodd" d="M 4.11464 4.13921L 0 0L 4.11464 4.13921Z"/>
<path id="path25_stroke" d="M 3.68911 4.56221C 3.92273 4.79722 4.30262 4.79835 4.53764 4.56474C 4.77265 4.33112 4.77378 3.95122 4.54016 3.71621L 3.68911 4.56221ZM 0.425525 -0.422999C 0.191909 -0.65801 -0.187988 -0.659141 -0.422999 -0.425525C -0.65801 -0.191909 -0.659141 0.187988 -0.425525 0.422999L 0.425525 -0.422999ZM 4.54016 3.71621L 0.425525 -0.422999L -0.425525 0.422999L 3.68911 4.56221L 4.54016 3.71621Z"/>
<path id="path26_fill" fill-rule="evenodd" d="M 5.81945 0L 0 0L 5.81945 0Z"/>
<path id="path27_stroke" d="M 5.81945 0.6C 6.15083 0.6 6.41945 0.331371 6.41945 0C 6.41945 -0.331371 6.15083 -0.6 5.81945 -0.6L 5.81945 0.6ZM 0 -0.6C -0.331371 -0.6 -0.6 -0.331371 -0.6 0C -0.6 0.331371 -0.331371 0.6 0 0.6L 0 -0.6ZM 5.81945 -0.6L 0 -0.6L 0 0.6L 5.81945 0.6L 5.81945 -0.6Z"/>
</defs>
</svg>
